<?xml version="1.0" standalone="no"?>
<!DOCTYPE svg PUBLIC "-//W3C//DTD SVG 1.1//EN" "http://www.w3.org/Graphics/SVG/1.1/DTD/svg11.dtd" >
<svg xmlns="http://www.w3.org/2000/svg" xmlns:xlink="http://www.w3.org/1999/xlink" version="1.1">
<metadata>
Created by FontForge 20190801 at Wed Apr 15 12:53:25 2020
 By www-data
Copyright 2019 I Wayan Sukanta All Right Reserved
</metadata>
<defs>
<font id="Balimuncar" horiz-adv-x="0" >
  <font-face 
    font-family="Bali muncar"
    font-weight="400"
    font-stretch="normal"
    units-per-em="1000"
    panose-1="2 2 5 2 6 5 5 2 2 4"
    ascent="800"
    descent="-200"
    x-height="440"
    cap-height="921"
    bbox="-1456 -904 2462 1385"
    underline-thickness="50"
    underline-position="-125"
    unicode-range="U+001D-2122"
  />
<missing-glyph horiz-adv-x="1" 
 />
    <glyph glyph-name=".notdef" horiz-adv-x="1" 
 />
    <glyph glyph-name=".notdef" horiz-adv-x="1" 
 />
    <glyph glyph-name="five" unicode="5" horiz-adv-x="600" 
d="M285 445h12q180 0 233 -189l7 -83v-21q0 -134 -66 -396q-27 -166 -27 -244v-32q0 -101 66 -252l2 -20l-7 -2q-145 97 -145 298q0 132 89 473q22 106 22 175v14q0 138 -102 182q-35 10 -63 10h-23q-125 0 -177 -136q-7 -26 -7 -51v-22q0 -87 84 -140q44 -17 80 -17
q90 0 90 53q0 48 -120 48q-32 3 -32 25q0 19 25 24h21l45 -3q59 11 59 59q-5 53 -50 53h-7q-31 0 -36 -27l5 -24v-5q0 -22 -28 -24q-35 0 -40 56v2q0 58 63 83q10 4 30 4h6q69 0 96 -65l6 -39q0 -46 -45 -89q48 -35 48 -83q0 -78 -86 -119q-20 -9 -59 -9q-150 0 -200 162
q-9 43 -9 85q0 185 145 267q40 19 95 19z" />
    <glyph glyph-name="six" unicode="6" horiz-adv-x="658" 
d="M274 446h9q71 0 116 -39l4 -6v-8q0 -5 -11 -7l-47 4h-24q-88 0 -154 -75q-41 -62 -41 -129q0 -65 48 -112q22 -17 38 -17h2l5 5v2q-33 68 -33 74v18q0 89 105 138q38 8 65 8h2q131 0 210 -116q32 -59 32 -120v-13q-2 -39 -15 -46h-6q-9 0 -33 93q-59 114 -173 114
q-86 0 -105 -67v-16q0 -24 32 -102v-6q0 -34 -64 -39h-13q-82 0 -150 105q-28 61 -28 118v5q0 119 96 191q61 43 133 43z" />
    <glyph glyph-name="seven" unicode="7" horiz-adv-x="800" 
d="M562 598h8q67 0 114 -94h8q40 31 40 94h4q37 -18 37 -65q0 -54 -57 -102q20 -98 20 -184q0 -189 -122 -233q-16 -8 -44 -8h-17q-124 0 -154 127q-8 47 -8 69l4 49q0 114 -53 114h-20q-73 0 -82 -175l16 -151q-17 -17 -32 -17q-126 38 -126 168v16q0 46 28 188
q-8 24 -16 24h-4q-12 0 -16 -45q4 -36 4 -44l-41 -37h-4l-4 20v41q12 114 85 114q44 0 57 -65q-24 -145 -24 -180v-4q0 -106 45 -139v9q-21 97 -21 118q0 190 110 249q31 8 57 8h4q98 -24 98 -98v-16q0 -32 -8 -151q0 -51 69 -94q22 -4 36 -4h29q61 0 85 77q17 58 21 127
q-10 114 -25 114h-24q-97 0 -143 78l-4 29v4q9 69 70 69zM541 529q14 -32 98 -37v4q-31 57 -69 57q-20 -5 -29 -24z" />
    <glyph glyph-name="nine" unicode="9" horiz-adv-x="828" 
d="M538 638h4q91 0 136 -99h9q28 0 51 99q42 -21 42 -62q0 -73 -64 -108v-4q56 -138 56 -240v-4q0 -183 -128 -220q-23 -4 -38 -4h-4q-119 0 -149 112q-9 15 -26 137q-10 0 -34 -137q-52 -104 -140 -104q-161 16 -161 141q-5 0 -5 25q11 105 47 224q0 16 -21 24
q-17 -15 -17 -53v-34q-5 -12 -47 -41h-4v62q20 116 102 116q55 0 55 -74q0 -23 -47 -203q0 -14 -4 -21q14 -70 64 -70h42q104 0 132 281q0 28 34 37q13 0 30 9l38 -232q30 -104 111 -104q106 0 106 166q0 119 -51 190h-30q-100 0 -153 75q-8 14 -8 25v29q14 62 72 62z
M521 559q34 -33 102 -33h8q-37 62 -72 62h-8q-30 0 -30 -29z" />
    <glyph glyph-name="colon" unicode=":" horiz-adv-x="345" 
d="M247 273q-47 -42 -117 -42q-37 0 -61 17t-24 53q0 35 17.5 54t58.5 17q20 -1 32 -14t22 -40q-7 -11 -21 -20l-16 13q-12 10 -23 9t-14 -16q1 -14 8.5 -19.5t17.5 -5.5q26 0 48.5 7t41 20t33.5 30.5t28 38.5l24 3q-14 -67 -55 -105zM247 79q-47 -43 -117 -43
q-37 0 -61 17.5t-24 52.5t17.5 54t58.5 17q20 -1 32 -14t22 -39q-6 -10 -21 -20l-16 12q-12 10 -23 9t-14 -16q1 -14 8.5 -19.5t17.5 -5.5q26 0 48.5 7.5t41 20t33.5 30.5t28 38l24 3q-14 -67 -55 -104z" />
    <glyph glyph-name="semicolon" unicode=";" horiz-adv-x="349" 
d="M169 440h8q81 0 115 -90q5 -24 5 -41v-5q0 -98 -45 -129q-41 -39 -67 -39v-2q110 -55 110 -191t-78 -341q-43 -144 -43 -251q0 -58 25 -145v-3q-4 -2 -5 -2q-47 49 -64 140q-13 48 -13 95v30q0 94 75 285q43 135 43 205q0 99 -105 139q-67 31 -67 43q0 18 100 33
q82 41 82 105q0 57 -46 81q-25 7 -36 7q-63 0 -75 -76q0 -8 15 -35l2 -9q-5 -32 -20 -32q-24 0 -42 44q-3 17 -3 32v5q0 102 83 140q30 7 46 7z" />
    <glyph glyph-name="less" unicode="&#x3c;" horiz-adv-x="965" 
d="M306 440h4q117 0 117 -161v-50l-4 -64q0 -101 42 -101h4q43 0 50 137q0 230 113 230h34q113 -23 113 -119l-5 -23l-12 -377q0 -123 58 -123q38 9 38 23l-4 82q0 23 38 37q54 -14 54 -74v-13q0 -101 -121 -115h-5q-138 0 -138 188l13 340q-6 68 -46 68h-9q-58 0 -58 -202
q-17 -123 -55 -123q0 -10 -50 -14q-117 0 -117 124q0 224 -29 224l-25 5q-38 -10 -38 -78v-32q0 -211 -63 -211q0 -14 -46 -14h-21q-79 0 -92 119v14q10 78 50 78h17l13 -14v-9l-17 -73v-5q5 -41 37 -41h9q42 0 42 128q0 225 54 225q8 12 55 14z" />
    <glyph glyph-name="equal" unicode="=" horiz-adv-x="800" 
d="M55 90v98h643v-98h-643zM55 316v98h643v-98h-643z" />
    <glyph glyph-name="greater" unicode="&#x3e;" horiz-adv-x="1156" 
d="M242 473h4q11 0 29 -84q-150 -385 -150 -675v-39q0 -289 171 -386q62 -16 84 -16q157 0 297 163q10 0 17 -92q-33 -34 -33 -47q0 -54 121 -71h29q143 0 168 197q17 153 17 307v33q-98 30 -168 30h-29q-76 0 -143 -26v-7q0 -10 113 -26q67 -35 67 -104q0 -88 -117 -160
q-64 -25 -138 -25h-29q-173 0 -243 146q-13 61 -13 68q0 173 226 281q117 49 214 54q38 -16 46 -29v-4q-402 -113 -402 -277v-12q0 -115 163 -143h30q156 10 180 88v13q-15 54 -80 54q-91 0 -126 -9q-50 8 -50 46q0 78 168 126q71 13 130 13q103 0 205 -42q-4 42 -4 63v89
q0 96 -13 415l8 4h30q71 -43 71 -214q0 -170 4 -319q-4 -49 -4 -93q64 -45 138 -142h-29q-18 0 -101 80l-8 4v-4q0 -81 -25 -550q-14 -11 -34 -17q0 4 -4 4q21 431 21 596l-17 9v-9q0 -435 -79 -541q-47 -55 -155 -55q-130 0 -176 101q-4 7 -4 17q-119 -105 -231 -105
q-216 0 -310 277q-33 118 -33 222v71q0 271 197 752zM585 410h4q72 0 101 -113h4q30 113 113 113q126 0 147 -193q4 -119 4 -243q0 -9 -9 -9h-37q-9 0 -9 9v62q0 214 -21 214q-34 38 -87 38q-67 0 -97 -88h-12q0 55 -88 88h-9q-75 0 -100 -84q0 -25 -4 -25q0 -82 83 -185v-4
q-11 -20 -58 -20q-114 0 -164 130q-4 28 -4 46v12q0 24 25 176v5q0 6 -16 17h-5q-16 -8 -16 -30v-16l4 -42q-31 -34 -50 -34q-5 28 -5 45v13q14 110 88 110q67 -8 67 -68q-21 -138 -21 -159q12 -134 55 -134v4q-34 69 -34 130q0 182 109 231zM1029 284v-5q4 -201 4 -309
v-168q8 0 21 -9v197q0 224 -21 294h-4z" />
    <glyph glyph-name="at" unicode="@" horiz-adv-x="702" 
d="M380 316q-25 0 -48.5 -15t-45.5 -44q-40 -50 -40 -85q0 -29 34 -29q29 0 53.5 14.5t47.5 41.5q19 24 28.5 45.5t9.5 41.5q0 30 -39 30zM349 -4q-68 0 -124.5 15t-96.5 42.5t-61.5 67t-21.5 87.5q0 53 24 96t67.5 74t104.5 47.5t135 16.5q58 0 104 -11.5t78.5 -33t50 -52
t17.5 -69.5q0 -32 -15.5 -62.5t-41.5 -54t-61.5 -38t-77.5 -14.5q-56 0 -56 57q-80 -57 -125 -57q-14 0 -26 5t-21 12.5t-14.5 18t-5.5 22.5q0 52 59 108q63 60 135 60q31 0 54 -18q17 11 78 17q-74 -181 -74 -186q0 -16 22 -16q58 0 102 57q38 48 38 95q0 32 -16 58
t-44 44.5t-68.5 28.5t-89.5 10q-65 0 -118.5 -16.5t-92 -46.5t-59.5 -70.5t-21 -87.5q0 -83 70 -134v0q71 -51 194 -51q189 0 274 131h28q-11 -23 -27 -43t-34 -36q-45 -35 -105.5 -54t-137.5 -19z" />
    <glyph glyph-name="A" unicode="A" horiz-adv-x="710" 
d="M227 440q44 -8 44 -42q-64 -159 -64 -191q0 -75 80 -100h4q47 0 68 50q5 30 40 59h20q38 0 56 -92q26 -25 48 -25q55 0 64 87v25q0 62 -152 167v4q38 51 84 58q141 0 188 -154q12 -49 12 -112v-171q0 -8 -8 -8h-40q-8 0 -8 8v146q0 149 -76 195q-15 9 -32 9h-4
q92 -72 92 -179q0 -126 -100 -183h-16q-65 0 -88 62q0 33 -28 59q-21 0 -64 -88q-21 -25 -64 -25q-119 0 -148 175q0 55 56 199v9q0 8 -12 8q-28 -10 -28 -50v-12l4 -9q-52 -33 -68 -33v4q0 121 104 150h36zM817 602h14q189 0 303 -165q36 -84 36 -132v-19q0 -215 -177 -292
q-48 -15 -86 -15h-5q-127 0 -151 102v5q0 51 50 68q49 0 132 -87l25 -5q89 0 131 141q0 10 6 53q0 198 -213 258q-83 15 -121 15q-91 0 -243 -49h-10v5q99 117 309 117z" />
    <glyph glyph-name="C" unicode="C" horiz-adv-x="700" 
d="M817 602h14q189 0 303 -165q36 -84 36 -132v-19q0 -215 -177 -292q-48 -15 -86 -15h-5q-127 0 -151 102v5q0 51 50 68q49 0 132 -87l25 -5q89 0 131 141q0 10 6 53q0 198 -213 258q-83 15 -121 15q-91 0 -243 -49h-10v5q99 117 309 117zM261 440q122 0 122 -122v-12
q0 -68 -42 -160q82 -75 127 -75q94 0 112 109v38q0 127 -141 159q-18 0 -18 8q31 51 112 51h29q104 0 150 -97q14 -47 14 -134v-201q0 -13 -61 -13l-5 8v198q0 151 -75 180q-16 0 -23 4l-5 -8q84 -57 84 -151v-17q0 -151 -145 -210l-28 -4h-15q-88 0 -164 80
q-73 -72 -113 -72h-19q-50 0 -70 68v16q17 130 136 130q21 0 52 -16h9q19 69 24 117q0 66 -52 76q-59 0 -89 -76q14 -25 14 -29q-25 -51 -33 -51h-5q-51 27 -51 68v4q0 84 141 134h28zM155 103v-16q0 -6 16 -16h4q23 0 44 40q-26 24 -44 24q-20 -10 -20 -32z" />
    <glyph glyph-name="D" unicode="D" horiz-adv-x="800" 
d="M817 602h14q189 0 303 -165q36 -84 36 -132v-19q0 -215 -177 -292q-48 -15 -86 -15h-5q-127 0 -151 102v5q0 51 50 68q49 0 132 -87l25 -5q89 0 131 141q0 10 6 53q0 198 -213 258q-83 15 -121 15q-91 0 -243 -49h-10v5q99 117 309 117zM217 434q37 0 48 -51
q0 -27 -74 -249q7 -63 52 -63q28 7 109 131q13 0 26 17v67q0 108 105 140q16 4 34 4h26q183 0 183 -207v-219q0 -9 -9 -9h-52v232q0 118 -117 118h-5q-95 0 -95 -105v-9l22 5h30q113 -25 113 -110v-38q-17 -97 -91 -97q-90 0 -131 131h-4q-67 -131 -135 -131h-4
q-126 14 -126 118v30q0 49 61 211v25h-5q-34 0 -34 -46q4 -31 4 -34l-57 -34l-4 8v47q0 91 100 118h30zM461 151q16 -92 69 -92h5q7 0 17 16v26q0 44 -69 59q-22 -4 -22 -9z" />
    <glyph glyph-name="E" unicode="E" horiz-adv-x="500" 
d="M372 725q7 0 10 -6v-2q0 -17 -55 -35q-55 -19 -62 -33q-4 -6 -4 -12q0 -16 42 -23q41 -7 53 -16q24 -16 24 -49t-28 -59q-43 -32 -124 -32q-44 0 -44 10v0q0 9 17 18q16 5 66 15q31 10 47 21q20 15 20 25v1q0 18 -62 26q-24 5 -37 12q-27 16 -27 47q0 27 21 50q9 8 26 16
q19 10 50 17q44 9 67 9zM265 423h8q123 0 164 -140q12 -50 12 -111q-28 -496 -28 -595v-82q0 -197 60 -197h4q35 0 40 53v70q0 32 20 41h20q28 -17 28 -74v-8q0 -157 -92 -181h-24q-77 0 -104 160q-4 54 -4 86v46q24 537 24 603v9q0 230 -120 230q-108 0 -108 -132v-4
q0 -111 92 -111h60q12 -4 12 -24v-5q0 -41 -76 -78q-7 -4 -20 -4h-28q-75 0 -132 99q-28 63 -28 119l28 29q24 -123 48 -123h4v4q-24 45 -24 115q0 148 124 201z" />
    <glyph glyph-name="F" unicode="F" horiz-adv-x="700" 
d="M170 440h8q54 -14 54 -54v-13q-29 -159 -29 -195v-12q0 -50 29 -104h4v8q-16 67 -20 125q23 233 108 233h20q16 0 54 -17v-4q-87 -110 -87 -221q0 -42 50 -74h29q34 0 58 87l17 12h12q39 0 54 -95q17 -17 33 -17h8q50 0 50 75q0 135 -128 204q26 50 66 50q108 0 154 -129
q12 -53 12 -100v-196q0 -8 -8 -8h-38q-8 0 -8 8v213q-17 137 -75 137h-4v-4q71 -48 71 -183q0 -126 -79 -175h-17q-64 0 -83 112l-8 4h-8q-6 0 -54 -91q-18 -17 -33 -17h-9q-86 0 -103 175v17q0 79 49 170h-4q-58 -54 -58 -166q0 -39 33 -179q-13 -13 -20 -13
q-96 12 -125 125q-4 4 -4 33v30q0 26 29 187q-6 16 -12 16h-13l-8 -29v-54q0 -5 -42 -41h-8v58q11 112 83 112zM817 602h14q189 0 303 -165q36 -84 36 -132v-19q0 -215 -177 -292q-48 -15 -86 -15h-5q-127 0 -151 102v5q0 51 50 68q49 0 132 -87l25 -5q89 0 131 141
q0 10 6 53q0 198 -213 258q-83 15 -121 15q-91 0 -243 -49h-10v5q99 117 309 117z" />
    <glyph glyph-name="G" unicode="G" horiz-adv-x="700" 
d="M817 602h14q189 0 303 -165q36 -84 36 -132v-19q0 -215 -177 -292q-48 -15 -86 -15h-5q-127 0 -151 102v5q0 51 50 68q49 0 132 -87l25 -5q89 0 131 141q0 10 6 53q0 198 -213 258q-83 15 -121 15q-91 0 -243 -49h-10v5q99 117 309 117zM411 440q142 0 186 -141
q9 -65 9 -79q0 -69 -50 -162q62 60 62 158q0 83 -58 216q14 8 25 8h17q88 0 120 -141q4 -70 4 -108v-188q0 -8 -8 -8h-13q-30 0 -33 13v237q0 99 -37 99q16 -39 25 -120q0 -175 -117 -229q-6 -4 -20 -4h-13q-32 0 -37 17v8q91 112 91 183q-22 116 -153 116h-9
q-137 -12 -137 -104v-16q0 -52 71 -183v-4q-15 -13 -29 -13h-21q-96 0 -137 108q-12 25 -12 75q0 24 29 191v9q0 6 -13 12h-12q-8 -29 -8 -50l4 -37q-42 -38 -46 -38l-4 9v45q12 117 71 117h20q44 0 50 -71q-25 -116 -25 -154v-37q7 -104 58 -104q-45 61 -45 154
q0 149 128 208q47 8 67 8z" />
    <glyph glyph-name="H" unicode="H" horiz-adv-x="700" 
d="M161 440h7q62 -5 62 -58q0 -19 -38 -200q-4 -36 -4 -41q0 -63 81 -63h12q65 10 65 92q0 26 -3 137q15 133 124 133q114 0 139 -170v-30q0 -66 -39 -174q50 28 58 174q0 76 -62 196h4l35 4q124 0 124 -237v-200q0 -8 -8 -8h-35q-7 0 -7 8v196q-6 170 -43 170v-4
q27 -57 27 -112v-42q0 -186 -116 -220h-19q-21 0 -31 17q62 154 62 232q0 104 -89 104h-8q-45 0 -54 -83l3 -8v-104q0 -95 -73 -137q-16 -9 -62 -13q-131 0 -151 129q0 38 42 241v9q-3 16 -23 16q-6 -13 -11 -37l11 -46q-34 -41 -39 -41h-7q-8 49 -8 74q18 96 74 96z
M817 602h14q189 0 303 -165q36 -84 36 -132v-19q0 -215 -177 -292q-48 -15 -86 -15h-5q-127 0 -151 102v5q0 51 50 68q49 0 132 -87l25 -5q89 0 131 141q0 10 6 53q0 198 -213 258q-83 15 -121 15q-91 0 -243 -49h-10v5q99 117 309 117z" />
    <glyph glyph-name="I" unicode="I" 
d="M-362 798q15 0 52 -56q41 -76 41 -140q-2 -18 -5 -18q0 2 -13 31q-15 34 -45 74q-9 18 -30 37q-2 2 -4 2q-8 0 -23 -30q-6 -9 -10 -9q-2 4 -2 9q0 37 22 81q9 19 17 19zM-361 921h28q132 0 188 -136q4 -22 4 -36v-24q0 -90 -104 -176h-4q-8 0 -8 12q0 7 64 116q4 46 8 52
q0 90 -144 116q-12 0 -28 4q-132 -16 -132 -112q0 -60 80 -72q16 -17 16 -32v-4q-17 -68 -88 -68q-112 14 -112 108v12q3 24 12 24h8q9 -6 32 -72q29 -20 48 -20q8 4 12 4v4q-72 62 -72 112v20q0 112 132 160q38 8 60 8z" />
    <glyph glyph-name="K" unicode="K" horiz-adv-x="697" 
d="M817 602h14q189 0 303 -165q36 -84 36 -132v-19q0 -215 -177 -292q-48 -15 -86 -15h-5q-127 0 -151 102v5q0 51 50 68q49 0 132 -87l25 -5q89 0 131 141q0 10 6 53q0 198 -213 258q-83 15 -121 15q-91 0 -243 -49h-10v5q99 117 309 117zM178 440q67 0 67 -116v-71h20v4
q0 129 96 175q16 8 46 8h8q127 0 170 -141q8 -45 8 -79q0 -68 -16 -146h8q29 61 29 137q0 99 -66 212q13 9 24 9h9q145 0 145 -216v-150q0 -75 -12 -75h-38l-8 4q4 83 4 125v75q0 158 -46 158v-4q34 -60 34 -146q-28 -212 -104 -212q-17 0 -29 25q16 98 16 179v8
q0 146 -128 146q-76 0 -91 -96v-4q119 0 161 -117v-45q0 -96 -78 -96q-88 0 -129 108q-8 38 -17 38h-12q-8 -2 -8 -9q0 -109 -46 -129h-25q-71 0 -83 96v8q0 90 95 133v92q-5 62 -20 62h-9q-11 0 -16 -41v-9l4 -41l-46 -38h-4l-4 21v33q11 125 87 125h4zM137 82
q0 -20 37 -20q17 23 17 62v13q-28 0 -54 -50v-5zM324 132q33 -91 83 -91h20q17 8 17 25q-24 66 -116 66h-4z" />
    <glyph glyph-name="L" unicode="L" horiz-adv-x="700" 
d="M162 440h12q46 0 54 -67l-25 -178q0 -67 29 -125h4v8q-16 78 -16 117v16q0 191 91 221q17 4 29 4q79 -14 79 -79q-4 -77 -4 -137v-9q0 -108 104 -108h4q95 0 95 92q4 0 4 4q0 108 -79 208q0 13 46 21q137 0 137 -225v-195q0 -9 -8 -9h-33q-9 0 -9 9v174q0 131 -45 162h-5
q29 -87 29 -145q-6 -164 -91 -200q-18 -8 -66 -8q-112 28 -112 83q-9 0 -13 79q0 10 4 63q0 103 -53 103q-58 0 -71 -112q0 -20 33 -183v-4q0 -29 -29 -29h-4q-105 37 -112 191q0 25 25 183v4q0 15 -13 25q-20 -6 -20 -41l4 -50l-42 -38h-4l-4 42v17q0 96 75 116zM817 602
h14q189 0 303 -165q36 -84 36 -132v-19q0 -215 -177 -292q-48 -15 -86 -15h-5q-127 0 -151 102v5q0 51 50 68q49 0 132 -87l25 -5q89 0 131 141q0 10 6 53q0 198 -213 258q-83 15 -121 15q-91 0 -243 -49h-10v5q99 117 309 117z" />
    <glyph glyph-name="M" unicode="M" horiz-adv-x="697" 
d="M251 440h13q210 0 210 -54q4 -7 4 -17q0 -45 -88 -45h-13q-14 0 -21 4q-147 0 -147 -58v-5q0 -26 206 -41q21 -17 21 -21v-12q0 -13 -34 -17q-102 4 -117 4q-80 0 -80 -41q0 -40 214 -50q164 0 164 120q0 88 -84 208q19 8 55 8h21q104 0 147 -129q4 -21 4 -41v-250
q0 -8 -8 -8h-47q-8 0 -8 8v237q0 88 -67 109v-5q38 -66 38 -128q0 -162 -160 -217q-34 -8 -80 -8h-21q-177 0 -227 108l-4 29v13q0 46 46 70v5q-38 36 -38 58v20q0 43 67 71v4h-12q-72 0 -72 -91v-13q0 -8 -8 -8h-30q-8 0 -8 8v5q0 166 126 166q0 4 38 4zM817 602h14
q189 0 303 -165q36 -84 36 -132v-19q0 -215 -177 -292q-48 -15 -86 -15h-5q-127 0 -151 102v5q0 51 50 68q49 0 132 -87l25 -5q89 0 131 141q0 10 6 53q0 198 -213 258q-83 15 -121 15q-91 0 -243 -49h-10v5q99 117 309 117z" />
    <glyph glyph-name="N" unicode="N" horiz-adv-x="700" 
d="M199 440q84 0 84 -100v-92q33 0 33 35q0 88 102 144q42 13 70 13h23q157 0 206 -148q9 -19 9 -70v-183q0 -48 -14 -48h-42q-9 0 -9 9v170q0 174 -145 174h-14q-112 0 -112 -91q205 -29 205 -157q0 -105 -116 -105q-77 0 -145 92l-18 56h-38q0 -139 -70 -139h-4
q-117 12 -117 91v9q0 93 126 144v83q0 51 -28 65q-23 -8 -23 -35v-35l4 -21l-56 -40h-4v26q0 10 -5 18q18 135 98 135zM148 87q3 -12 23 -22h23q20 0 24 61v9q-70 -19 -70 -48zM386 130q47 -91 116 -91q37 9 37 30q0 50 -153 66v-5zM817 602h14q189 0 303 -165
q36 -84 36 -132v-19q0 -215 -177 -292q-48 -15 -86 -15h-5q-127 0 -151 102v5q0 51 50 68q49 0 132 -87l25 -5q89 0 131 141q0 10 6 53q0 198 -213 258q-83 15 -121 15q-91 0 -243 -49h-10v5q99 117 309 117z" />
    <glyph glyph-name="O" unicode="O" horiz-adv-x="855" 
d="M174 440h11q54 -10 54 -53v-17l-18 -151q0 -102 54 -135h4v4q-40 66 -40 131v8q0 154 108 205l36 4h11q80 0 112 -102q1 -9 7 -9q0 70 87 103q20 4 29 4q112 0 158 -164q7 -31 7 -57v-25q0 -149 -140 -270q-110 -53 -234 -53q-239 -21 -278 -58q-133 -92 -133 -229v-17
q0 -139 147 -237q81 -37 155 -37l8 12q-13 27 -105 95q-68 76 -68 147v33q0 171 212 254q63 16 108 16h29q239 0 328 -229q11 -36 11 -82v-8q0 -202 -133 -308q-34 -16 -62 -16h-3q-5 0 -11 12q133 137 133 185q18 46 18 69v33q0 152 -191 217q-47 12 -101 16
q-224 -10 -266 -151q-4 -16 -4 -29q0 -96 166 -196q43 -39 43 -78q0 -82 -126 -82h-22q-199 0 -302 233q-22 64 -22 160q0 196 155 320q93 65 202 65h166q185 0 234 78q25 54 25 98v17q0 124 -94 147h-18q-66 0 -111 -86q-63 94 -123 94h-18q-68 0 -83 -110q0 -104 126 -176
v-5q-11 -24 -47 -24q-158 0 -201 139l-4 49v8q0 20 22 177q-4 16 -22 16q-11 -15 -11 -33q4 -51 4 -53l-40 -37h-3q-4 41 -4 62q13 106 68 106z" />
    <glyph glyph-name="P" unicode="P" horiz-adv-x="701" 
d="M225 440h9q46 -6 46 -38v-12q-64 -174 -64 -193v-9q28 -75 92 -75l87 -9q184 0 184 97v25q0 95 -32 201q15 9 27 9q110 0 143 -126q9 -42 9 -84v-222q0 -9 -9 -9h-42q-9 0 -9 9v113q0 160 -23 201h-14v-16q0 -45 5 -93q0 -161 -170 -214q-30 -4 -60 -4q-221 0 -262 159
v30q0 54 60 189q-5 7 -5 16h-13q-28 -17 -28 -42v-25l5 -8l-69 -38q-5 8 -5 13q20 151 110 151q0 4 28 4zM811 592h15q189 0 304 -161q36 -82 36 -129v-18q0 -210 -178 -285q-48 -15 -86 -15h-5q-128 0 -152 100v4q0 50 51 67q48 0 132 -85l25 -5q90 0 131 138q0 9 6 51
q0 194 -214 252q-82 15 -121 15q-92 0 -244 -48h-10v5q99 114 310 114z" />
    <glyph glyph-name="Q" unicode="Q" horiz-adv-x="700" 
d="M490 443h14q107 0 154 -101q74 97 181 97h17q158 0 212 -154l9 -48v-8q0 -188 -185 -214h-18q-84 0 -84 52v12q0 34 49 41q23 0 84 -33h13q68 0 79 114q0 106 -123 145l-53 4q-136 0 -181 -149l-4 -4h-9q-14 0 -40 101q-38 48 -84 56h-22l-9 -8l62 -53q31 -46 31 -84v-21
q0 -71 -75 -137q18 -61 18 -93v-4l-9 -8q-14 5 -49 85q-41 -16 -101 -16h-13q-216 0 -216 186q0 64 13 157q-6 32 -22 32q-44 0 -44 -157v-65q0 -64 70 -117v-12l-4 -4h-5q-101 17 -101 133v93q0 174 115 174q57 0 70 -77q-17 -117 -17 -174q19 -76 136 -76h22l44 4v4
q-35 44 -48 44q-12 -26 -22 -28h-9q-11 0 -13 16q0 37 40 81h4q101 -62 101 -97h5q53 34 53 85q0 67 -137 89q-23 0 -26 36q0 84 127 101z" />
    <glyph glyph-name="R" unicode="R" horiz-adv-x="706" 
d="M486 440h5q235 0 235 -218v-222q0 -9 -10 -9h-41q-10 0 -10 9v196q0 135 -138 135h-16q-103 0 -117 -122q-27 -214 -189 -214h-16q-10 0 -10 9v18q51 169 51 244q-10 104 -61 104q-21 -20 -21 -61v-4l5 -31l-56 -39h-10v70q29 113 97 113h15q92 0 108 -126q0 -11 5 -35
q0 -58 -41 -188h5q61 42 61 157v88q0 93 98 122zM817 602h14q189 0 303 -165q36 -84 36 -132v-19q0 -215 -177 -292q-48 -15 -86 -15h-5q-127 0 -151 102v5q0 51 50 68q49 0 132 -87l25 -5q89 0 131 141q0 10 6 53q0 198 -213 258q-83 15 -121 15q-91 0 -243 -49h-10v5
q99 117 309 117z" />
    <glyph glyph-name="S" unicode="S" horiz-adv-x="697" 
d="M265 440q121 0 121 -133q0 -63 -50 -166q88 -71 112 -71h17q97 0 116 112v34q0 100 -71 212q14 8 25 8h46q121 0 141 -162q4 -17 4 -75v-196q0 -12 -62 -12l-4 8v50q0 44 4 71q0 203 -46 237h-8q33 -96 33 -146q0 -153 -145 -216l-25 -4h-25q-82 0 -158 79
q-69 -71 -128 -71q-75 13 -75 75v17q0 81 104 120h33q25 0 58 -20q25 63 25 108v33q-6 58 -50 58q-52 0 -87 -62v-13q0 -14 12 -29q-26 -50 -37 -54q-54 33 -54 71q0 88 145 137h29zM166 107v-4q0 -21 21 -29h4q45 11 45 46q-23 21 -41 21h-8q-21 -11 -21 -34zM817 602h14
q189 0 303 -165q36 -84 36 -132v-19q0 -215 -177 -292q-48 -15 -86 -15h-5q-127 0 -151 102v5q0 51 50 68q49 0 132 -87l25 -5q89 0 131 141q0 10 6 53q0 198 -213 258q-83 15 -121 15q-91 0 -243 -49h-10v5q99 117 309 117z" />
    <glyph glyph-name="T" unicode="T" horiz-adv-x="700" 
d="M204 440h8q30 0 43 -37q0 -17 -55 -177q0 -29 -4 -29q0 -86 101 -95h35q71 4 71 25v4q0 16 -90 21q-51 33 -51 107q17 173 145 173h11q131 0 176 -206v-37q0 -49 -24 -128h8q35 36 35 124v24q0 93 -82 210v5q1 8 8 8h47q140 0 140 -243v-186q0 -8 -8 -8h-35q-8 0 -8 8
v165q0 135 -31 169q-20 16 -23 16v-4q35 -59 35 -136v-28q-20 -194 -109 -194h-8q-27 0 -27 21q43 90 43 156q-16 132 -113 132q0 4 -28 4h-43q-36 0 -54 -33v-20q121 -26 121 -58q9 -17 15 -54q0 -65 -54 -119q-33 -18 -90 -25q-175 23 -175 153v32q0 49 50 194q-3 8 -3 12
q-36 0 -36 -49v-16l4 -9q-16 -14 -58 -37l-4 8q0 110 74 149q15 8 43 8zM817 602h14q189 0 303 -165q36 -84 36 -132v-19q0 -215 -177 -292q-48 -15 -86 -15h-5q-127 0 -151 102v5q0 51 50 68q49 0 132 -87l25 -5q89 0 131 141q0 10 6 53q0 198 -213 258q-83 15 -121 15
q-91 0 -243 -49h-10v5q99 117 309 117z" />
    <glyph glyph-name="V" unicode="V" horiz-adv-x="800" 
d="M160 430h13q59 -29 103 -159q4 -17 4 -34v-21q0 -22 -22 -42h-5q-31 112 -93 172h-9q-14 -41 -14 -54h-4q-8 0 -36 50q20 88 63 88zM520 440q206 0 206 -201v-240q0 -8 -9 -8h-40q-9 0 -9 8v193q0 132 -54 156q-40 21 -80 21q-107 -17 -107 -88v-9q24 4 35 4
q127 0 148 -163q0 -118 -85 -118q-110 0 -148 151q-75 -108 -93 -126q-44 -25 -85 -25q-94 28 -94 109q8 88 45 88h8q14 0 18 -100q18 -21 36 -21h5q38 0 93 130l54 50v55q18 130 130 130q0 4 26 4zM431 171q27 -92 89 -92q23 6 23 29v21q-31 47 -85 47q-7 -5 -27 -5z
M817 602h14q189 0 303 -165q36 -84 36 -132v-19q0 -215 -177 -292q-48 -15 -86 -15h-5q-127 0 -151 102v5q0 51 50 68q49 0 132 -87l25 -5q89 0 131 141q0 10 6 53q0 198 -213 258q-83 15 -121 15q-91 0 -243 -49h-10v5q99 117 309 117z" />
    <glyph glyph-name="W" unicode="W" horiz-adv-x="700" 
d="M219 440h12q35 0 46 -42q-62 -171 -62 -174q0 -13 -4 -29q16 -96 86 -96q0 -6 62 -12q138 0 182 74l4 25v21q0 67 -182 96v8q0 71 91 117q39 8 62 8h4q132 0 190 -137q12 -49 12 -100v-200q0 -8 -8 -8h-46q-8 0 -8 12q0 62 4 117q0 186 -107 216l-25 4h-41v-4
q67 -24 107 -91q13 -28 13 -38v-25q0 -130 -149 -183q-33 -8 -70 -8h-8q-170 0 -235 129q-8 15 -8 33v29q0 51 49 171q4 5 4 29q-8 4 -12 4q-29 -10 -29 -50v-4l4 -21q-53 -33 -70 -33v4q0 115 87 150q16 8 45 8zM817 602h14q189 0 303 -165q36 -84 36 -132v-19
q0 -215 -177 -292q-48 -15 -86 -15h-5q-127 0 -151 102v5q0 51 50 68q49 0 132 -87l25 -5q89 0 131 141q0 10 6 53q0 198 -213 258q-83 15 -121 15q-91 0 -243 -49h-10v5q99 117 309 117z" />
    <glyph glyph-name="X" unicode="X" horiz-adv-x="706" 
d="M269 440q78 0 90 -129l21 -21q37 0 63 104q25 38 49 38q93 0 122 -200q0 -70 -38 -174q52 61 52 162q0 72 -59 203q7 5 31 9q126 0 126 -233v-200q0 -8 -7 -8h-35q-7 0 -7 8q4 167 4 192q0 141 -42 174h-4v-4q32 -60 32 -150q0 -159 -109 -220h-14q-18 0 -21 12v17
l39 141q3 23 3 38q-10 100 -69 100h-7q-33 0 -81 -96q-23 -12 -31 -12q-26 0 -70 116q-17 17 -42 17q-31 0 -70 -108q-21 -25 -49 -25q-51 0 -59 91v8q6 92 24 92q16 -108 39 -108h3q27 0 46 95q29 71 70 71zM817 602h14q189 0 303 -165q36 -84 36 -132v-19
q0 -215 -177 -292q-48 -15 -86 -15h-5q-127 0 -151 102v5q0 51 50 68q49 0 132 -87l25 -5q89 0 131 141q0 10 6 53q0 198 -213 258q-83 15 -121 15q-91 0 -243 -49h-10v5q99 117 309 117z" />
    <glyph glyph-name="Y" unicode="Y" horiz-adv-x="700" 
d="M175 440h4q68 -8 68 -67q-38 -167 -38 -231q0 -59 59 -59q90 0 113 294q12 42 26 42q27 0 37 -189q29 -142 93 -142h8q58 0 67 109q0 86 -63 230l13 9h34q104 0 130 -206v-201q0 -31 -13 -34h-33l-9 4q5 63 5 93v75q0 142 -42 172h-5q30 -92 30 -159q0 -146 -97 -189h-38
q-69 0 -96 80q-21 166 -21 176h-5q-20 -204 -67 -227q-27 -25 -59 -25q-120 0 -134 139v33q0 37 33 202v12q0 6 -12 13h-9q-11 0 -17 -42q5 -37 5 -46q-5 0 -42 -34h-9l-4 30v25q11 113 88 113zM817 602h14q189 0 303 -165q36 -84 36 -132v-19q0 -215 -177 -292
q-48 -15 -86 -15h-5q-127 0 -151 102v5q0 51 50 68q49 0 132 -87l25 -5q89 0 131 141q0 10 6 53q0 198 -213 258q-83 15 -121 15q-91 0 -243 -49h-10v5q99 117 309 117z" />
    <glyph glyph-name="Z" unicode="Z" horiz-adv-x="736" 
d="M770 9l-5 4q2 -2 3 -2.5t2 -1.5zM127 443h13q65 -10 65 -55v-16l-22 -156q0 -90 43 -113h9q-30 91 -30 151q0 135 103 176q16 9 35 9h13q80 0 112 -97v-12l43 75q33 34 87 34q133 0 155 -194v-12q0 -72 -48 -168h5q38 0 65 218q60 147 202 147q145 0 208 -180
q4 -29 4 -47v-8q0 -162 -142 -202q-6 -4 -31 -4h-4q-86 0 -86 59v4q0 46 39 46h17q74 -29 86 -29q68 28 69 109q0 92 -112 130q-5 0 -43 5q-140 0 -207 -227q-45 -72 -100 -72h-17q-9 0 -9 9q0 12 48 130q8 44 8 55q0 97 -120 113h-5q-63 0 -108 -84q-46 84 -112 84
q-108 -17 -108 -105q0 -87 91 -181v-4q0 -6 -26 -21h-26q-124 0 -173 122q-8 18 -8 67q0 17 26 181q-5 17 -26 17q-13 -15 -13 -34q4 -52 4 -55q-43 -37 -47 -37h-5q-4 42 -4 63q15 109 82 109z" />
    <glyph glyph-name="backslash" unicode="\" horiz-adv-x="820" 
d="M373 440q77 0 99 -115h4q32 115 107 115q119 0 139 -184q4 -12 4 -64v-192q0 -9 -8 -9h-36q-8 0 -8 9v158q0 145 -51 145q-8 11 -52 13q-61 0 -91 -90h-8q-29 90 -99 90q-88 -24 -88 -81q-4 -6 -4 -30q0 -92 80 -188q0 -7 -16 -17h-44q-102 0 -150 132q-4 29 -4 47v9
q0 20 23 184q-6 17 -12 17h-15q-8 -23 -8 -35q4 -53 4 -55l-44 -39h-4q-4 43 -4 65q14 111 75 111h12q60 -10 60 -56v-17q-20 -140 -20 -158q0 -93 44 -128v4q-20 51 -20 115v56q0 137 99 184q22 4 36 4z" />
    <glyph glyph-name="bracketright" unicode="]" horiz-adv-x="838" 
d="M395 285q45 -41 64 -86q27 -69 27 -133v-4h-7q-25 77 -89 147h-6q-7 -3 -25 -36l-2 -2h-2q-4 0 -4 7q0 57 33 105l2 2h9zM411 440q142 0 186 -141q9 -65 9 -79q0 -69 -50 -162q62 60 62 158q0 83 -58 216q14 8 25 8h17q88 0 120 -141q4 -70 4 -108v-188q0 -8 -8 -8h-13
q-30 0 -33 13v237q0 99 -37 99q16 -39 25 -120q0 -175 -117 -229q-6 -4 -20 -4h-13q-32 0 -37 17v8q91 112 91 183q-22 116 -153 116h-9q-137 -12 -137 -104v-16q0 -52 71 -183v-4q-15 -13 -29 -13h-21q-96 0 -137 108q-12 25 -12 75q0 24 29 191v9q0 6 -13 12h-12
q-8 -29 -8 -50l4 -37q-42 -38 -46 -38l-4 9v45q12 117 71 117h20q44 0 50 -71q-25 -116 -25 -154v-37q7 -104 58 -104q-45 61 -45 154q0 149 128 208q47 8 67 8z" />
    <glyph glyph-name="asciicircum" unicode="^" 
d="M-544 1042q18 0 26 -32q11 -50 15 -75q16 -56 34 -98q16 -29 45 -70q34 -43 49 -54q73 -66 153 -85q73 -19 86 -23q3 -1 3 -3v0q0 -5 -52 -7h-18q-86 0 -183 49q-23 12 -56 41q-19 17 -48 52q-31 45 -40 72q-14 25 -24 65q-18 72 -18 122q0 34 18 43q7 3 10 3zM-780 989
h28q132 0 188 -136q4 -22 4 -36v-24q0 -90 -104 -176h-4q-8 0 -8 12q0 7 64 116q4 46 8 52q0 90 -144 116q-12 0 -28 4q-132 -16 -132 -112q0 -60 80 -72q16 -17 16 -32v-4q-17 -68 -88 -68q-112 14 -112 108v12q3 24 12 24h8q9 -6 32 -72q29 -20 48 -20q8 4 12 4v4
q-72 62 -72 112v20q0 112 132 160q38 8 60 8z" />
    <glyph glyph-name="underscore" unicode="_" horiz-adv-x="395" 
d="M190 190q-56 0 -56 56q0 55 56 55q62 0 62 -55q0 -56 -62 -56z" />
    <glyph glyph-name="grave" unicode="`" horiz-adv-x="933" 
d="M151 492h5q78 -13 78 -68q0 -18 -63 -240v-44l24 -5h10q6 0 48 78q36 39 87 39q39 0 39 -78q0 -105 -116 -146q-34 -4 -34 -10q18 -108 106 -108h10q61 0 126 142h4q10 -1 10 -10v-39q0 -134 -106 -200q-34 -10 -58 -10q-112 0 -131 181v44l-53 29q-44 43 -44 108
q0 69 63 259q-5 18 -19 29q-29 -10 -29 -54v-39q-15 -23 -53 -44h-10v44q0 121 106 142zM408 477h19q78 0 116 -107h10q37 98 130 98q125 0 184 -176q5 -19 5 -44v-44q0 -73 -5 -196l-10 -5h-24q-9 0 -9 10v137q0 148 -97 186l-34 4h-24q-42 0 -121 -73h-10q-72 88 -116 88
h-14q-51 0 -102 -68h-5q-14 0 -14 53q22 137 121 137zM282 160h19q12 9 20 9v10q-36 -6 -39 -19z" />
    <glyph glyph-name="a" unicode="a" horiz-adv-x="788" 
d="M227 440q44 -8 44 -42q-64 -159 -64 -191q0 -75 80 -100h4q47 0 68 50q5 30 40 59h20q38 0 56 -92q26 -25 48 -25q55 0 64 87v25q0 62 -152 167v4q38 51 84 58q141 0 188 -154q12 -49 12 -112v-171q0 -8 -8 -8h-40q-8 0 -8 8v146q0 149 -76 195q-15 9 -32 9h-4
q92 -72 92 -179q0 -126 -100 -183h-16q-65 0 -88 62q0 33 -28 59q-21 0 -64 -88q-21 -25 -64 -25q-119 0 -148 175q0 55 56 199v9q0 8 -12 8q-28 -10 -28 -50v-12l4 -9q-52 -33 -68 -33v4q0 121 104 150h36z" />
    <glyph glyph-name="b" unicode="b" horiz-adv-x="806" 
d="M166 440q58 0 58 -58v-9q-21 -136 -21 -174q0 -82 50 -108h8q-45 69 -45 145q0 151 83 200q22 4 37 4h4q67 0 79 -104h4q28 100 87 100q116 -21 116 -162v-42q0 -65 -54 -166q63 57 63 174q0 96 -46 188l8 4h29q89 0 100 -167v-266q0 -8 -8 -8h-33q-9 0 -9 8q4 182 4 275
q-5 63 -20 66v-4q12 -72 12 -108q0 -161 -116 -225q-19 -8 -42 -8q-16 19 -16 29q91 126 91 200v8q-19 92 -87 92q-44 0 -75 -79l-8 -5h-8q-34 88 -71 88h-12q-53 0 -67 -75v-21q0 -79 75 -187v-29q-6 -17 -37 -17q-78 0 -133 83q-18 28 -25 113q4 54 25 174q0 25 -21 25
q-12 -15 -12 -29v-37l4 -21l-42 -37h-4l-4 29v25q9 116 79 116z" />
    <glyph glyph-name="c" unicode="c" horiz-adv-x="801" 
d="M261 440q122 0 122 -122v-12q0 -68 -42 -160q82 -75 127 -75q94 0 112 109v38q0 127 -141 159q-18 0 -18 8q31 51 112 51h29q104 0 150 -97q14 -47 14 -134v-201q0 -13 -61 -13l-5 8v198q0 151 -75 180q-16 0 -23 4l-5 -8q84 -57 84 -151v-17q0 -151 -145 -210l-28 -4
h-15q-88 0 -164 80q-73 -72 -113 -72h-19q-50 0 -70 68v16q17 130 136 130q21 0 52 -16h9q19 69 24 117q0 66 -52 76q-59 0 -89 -76q14 -25 14 -29q-25 -51 -33 -51h-5q-51 27 -51 68v4q0 84 141 134h28zM155 103v-16q0 -6 16 -16h4q23 0 44 40q-26 24 -44 24
q-20 -10 -20 -32z" />
    <glyph glyph-name="d" unicode="d" horiz-adv-x="810" 
d="M217 434q37 0 48 -51q0 -27 -74 -249q7 -63 52 -63q28 7 109 131q13 0 26 17v67q0 108 105 140q16 4 34 4h26q183 0 183 -207v-219q0 -9 -9 -9h-52v232q0 118 -117 118h-5q-95 0 -95 -105v-9l22 5h30q113 -25 113 -110v-38q-17 -97 -91 -97q-90 0 -131 131h-4
q-67 -131 -135 -131h-4q-126 14 -126 118v30q0 49 61 211v25h-5q-34 0 -34 -46q4 -31 4 -34l-57 -34l-4 8v47q0 91 100 118h30zM461 151q16 -92 69 -92h5q7 0 17 16v26q0 44 -69 59q-22 -4 -22 -9z" />
    <glyph glyph-name="e" unicode="e" horiz-adv-x="501" 
d="M265 423h8q123 0 164 -140q12 -50 12 -111q-28 -496 -28 -595v-82q0 -197 60 -197h4q35 0 40 53v70q0 32 20 41h20q28 -17 28 -74v-8q0 -157 -92 -181h-24q-77 0 -104 160q-4 54 -4 86v46q24 537 24 603v9q0 230 -120 230q-108 0 -108 -132v-4q0 -111 92 -111h60
q12 -4 12 -24v-5q0 -41 -76 -78q-7 -4 -20 -4h-28q-75 0 -132 99q-28 63 -28 119l28 29q24 -123 48 -123h4v4q-24 45 -24 115q0 148 124 201z" />
    <glyph glyph-name="f" unicode="f" horiz-adv-x="806" 
d="M170 440h8q54 -14 54 -54v-13q-29 -159 -29 -195v-12q0 -50 29 -104h4v8q-16 67 -20 125q23 233 108 233h20q16 0 54 -17v-4q-87 -110 -87 -221q0 -42 50 -74h29q34 0 58 87l17 12h12q39 0 54 -95q17 -17 33 -17h8q50 0 50 75q0 135 -128 204q26 50 66 50q108 0 154 -129
q12 -53 12 -100v-196q0 -8 -8 -8h-38q-8 0 -8 8v213q-17 137 -75 137h-4v-4q71 -48 71 -183q0 -126 -79 -175h-17q-64 0 -83 112l-8 4h-8q-6 0 -54 -91q-18 -17 -33 -17h-9q-86 0 -103 175v17q0 79 49 170h-4q-58 -54 -58 -166q0 -39 33 -179q-13 -13 -20 -13
q-96 12 -125 125q-4 4 -4 33v30q0 26 29 187q-6 16 -12 16h-13l-8 -29v-54q0 -5 -42 -41h-8v58q11 112 83 112z" />
    <glyph glyph-name="g" unicode="g" horiz-adv-x="810" 
d="M411 440q142 0 186 -141q9 -65 9 -79q0 -69 -50 -162q62 60 62 158q0 83 -58 216q14 8 25 8h17q88 0 120 -141q4 -70 4 -108v-188q0 -8 -8 -8h-13q-30 0 -33 13v237q0 99 -37 99q16 -39 25 -120q0 -175 -117 -229q-6 -4 -20 -4h-13q-32 0 -37 17v8q91 112 91 183
q-22 116 -153 116h-9q-137 -12 -137 -104v-16q0 -52 71 -183v-4q-15 -13 -29 -13h-21q-96 0 -137 108q-12 25 -12 75q0 24 29 191v9q0 6 -13 12h-12q-8 -29 -8 -50l4 -37q-42 -38 -46 -38l-4 9v45q12 117 71 117h20q44 0 50 -71q-25 -116 -25 -154v-37q7 -104 58 -104
q-45 61 -45 154q0 149 128 208q47 8 67 8z" />
    <glyph glyph-name="h" unicode="h" horiz-adv-x="801" 
d="M180 440h8q59 -5 59 -58q0 -19 -37 -200q-4 -36 -4 -41q0 -63 79 -63h11q64 10 64 92q0 26 -4 137q15 133 119 133q111 0 135 -170v-30q0 -66 -37 -174q48 28 56 174q0 76 -60 196h4l33 4q120 0 120 -237v-200q0 -8 -7 -8h-34q-8 0 -8 8v196q-6 170 -41 170v-4
q26 -57 26 -112v-42q0 -186 -112 -220h-18q-21 0 -30 17q59 154 59 232q0 104 -86 104h-7q-44 0 -52 -83l3 -8v-104q0 -95 -71 -137q-15 -9 -60 -13q-126 0 -145 129q0 38 41 241v9q-4 16 -23 16q-6 -13 -11 -37l11 -46q-33 -41 -37 -41h-8q-7 49 -7 74q17 96 71 96z" />
    <glyph glyph-name="i" unicode="i" 
d="M-361 921h28q132 0 188 -136q4 -22 4 -36v-24q0 -90 -104 -176h-4q-8 0 -8 12q0 7 64 116q4 46 8 52q0 90 -144 116q-12 0 -28 4q-132 -16 -132 -112q0 -60 80 -72q16 -17 16 -32v-4q-17 -68 -88 -68q-112 14 -112 108v12q3 24 12 24h8q9 -6 32 -72q29 -20 48 -20
q8 4 12 4v4q-72 62 -72 112v20q0 112 132 160q38 8 60 8z" />
    <glyph glyph-name="j" unicode="j" horiz-adv-x="815" 
d="M502 440h14q160 0 205 -133q5 -15 5 -42q0 -45 -56 -99q56 -31 56 -100v-67q0 -8 -9 -8h-47l-9 4l4 29v46q0 71 -79 71h-103q-9 0 -9 12q3 33 14 33h5q182 0 182 71q-19 71 -150 71h-32q-177 -20 -177 -104q-5 0 -10 -38q0 -49 98 -170v-8q-26 -17 -46 -17
q-201 28 -201 179v4q0 28 28 187q-5 17 -28 17q-14 -16 -14 -29v-9l5 -50q-42 -37 -56 -37v4q-5 35 -5 58q13 108 98 108h5q70 -10 70 -54v-16l-24 -154q0 -93 47 -117h14q-28 71 -28 113v29q0 130 135 195q45 21 98 21z" />
    <glyph glyph-name="k" unicode="k" horiz-adv-x="806" 
d="M178 440q67 0 67 -116v-71h20v4q0 129 96 175q16 8 46 8h8q127 0 170 -141q8 -45 8 -79q0 -68 -16 -146h8q29 61 29 137q0 99 -66 212q13 9 24 9h9q145 0 145 -216v-150q0 -75 -12 -75h-38l-8 4q4 83 4 125v75q0 158 -46 158v-4q34 -60 34 -146q-28 -212 -104 -212
q-17 0 -29 25q16 98 16 179v8q0 146 -128 146q-76 0 -91 -96v-4q119 0 161 -117v-45q0 -96 -78 -96q-88 0 -129 108q-8 38 -17 38h-12q-8 -2 -8 -9q0 -109 -46 -129h-25q-71 0 -83 96v8q0 90 95 133v92q-5 62 -20 62h-9q-11 0 -16 -41v-9l4 -41l-46 -38h-4l-4 21v33
q11 125 87 125h4zM137 82q0 -20 37 -20q17 23 17 62v13q-28 0 -54 -50v-5zM324 132q33 -91 83 -91h20q17 8 17 25q-24 66 -116 66h-4z" />
    <glyph glyph-name="l" unicode="l" horiz-adv-x="806" 
d="M162 440h12q46 0 54 -67l-25 -178q0 -67 29 -125h4v8q-16 78 -16 117v16q0 191 91 221q17 4 29 4q79 -14 79 -79q-4 -77 -4 -137v-9q0 -108 104 -108h4q95 0 95 92q4 0 4 4q0 108 -79 208q0 13 46 21q137 0 137 -225v-195q0 -9 -8 -9h-33q-9 0 -9 9v174q0 131 -45 162h-5
q29 -87 29 -145q-6 -164 -91 -200q-18 -8 -66 -8q-112 28 -112 83q-9 0 -13 79q0 10 4 63q0 103 -53 103q-58 0 -71 -112q0 -20 33 -183v-4q0 -29 -29 -29h-4q-105 37 -112 191q0 25 25 183v4q0 15 -13 25q-20 -6 -20 -41l4 -50l-42 -38h-4l-4 42v17q0 96 75 116z" />
    <glyph glyph-name="m" unicode="m" horiz-adv-x="800" 
d="M251 440h13q210 0 210 -54q4 -7 4 -17q0 -45 -88 -45h-13q-14 0 -21 4q-147 0 -147 -58v-5q0 -26 206 -41q21 -17 21 -21v-12q0 -13 -34 -17q-102 4 -117 4q-80 0 -80 -41q0 -40 214 -50q164 0 164 120q0 88 -84 208q19 8 55 8h21q104 0 147 -129q4 -21 4 -41v-250
q0 -8 -8 -8h-47q-8 0 -8 8v237q0 88 -67 109v-5q38 -66 38 -128q0 -162 -160 -217q-34 -8 -80 -8h-21q-177 0 -227 108l-4 29v13q0 46 46 70v5q-38 36 -38 58v20q0 43 67 71v4h-12q-72 0 -72 -91v-13q0 -8 -8 -8h-30q-8 0 -8 8v5q0 166 126 166q0 4 38 4z" />
    <glyph glyph-name="n" unicode="n" horiz-adv-x="801" 
d="M199 440q84 0 84 -100v-92q33 0 33 35q0 88 102 144q42 13 70 13h23q157 0 206 -148q9 -19 9 -70v-183q0 -48 -14 -48h-42q-9 0 -9 9v170q0 174 -145 174h-14q-112 0 -112 -91q205 -29 205 -157q0 -105 -116 -105q-77 0 -145 92l-18 56h-38q0 -139 -70 -139h-4
q-117 12 -117 91v9q0 93 126 144v83q0 51 -28 65q-23 -8 -23 -35v-35l4 -21l-56 -40h-4v26q0 10 -5 18q18 135 98 135zM148 87q3 -12 23 -22h23q20 0 24 61v9q-70 -19 -70 -48zM386 130q47 -91 116 -91q37 9 37 30q0 50 -153 66v-5z" />
    <glyph glyph-name="o" unicode="o" horiz-adv-x="446" 
d="M34 578h15q188 0 301 -161q36 -82 36 -129v-18q0 -210 -176 -285q-48 -15 -86 -15h-5q-126 0 -150 100v4q0 50 50 67q48 0 131 -85l25 -5q89 0 130 138q0 9 6 51q0 194 -212 252q-82 15 -121 15q-90 0 -241 -48h-10v5q98 114 307 114z" />
    <glyph glyph-name="p" unicode="p" horiz-adv-x="806" 
d="M225 440h9q46 -6 46 -38v-12q-64 -174 -64 -193v-9q28 -75 92 -75l87 -9q184 0 184 97v25q0 95 -32 201q15 9 27 9q110 0 143 -126q9 -42 9 -84v-222q0 -9 -9 -9h-42q-9 0 -9 9v113q0 160 -23 201h-14v-16q0 -45 5 -93q0 -161 -170 -214q-30 -4 -60 -4q-221 0 -262 159
v30q0 54 60 189q-5 7 -5 16h-13q-28 -17 -28 -42v-25l5 -8l-69 -38q-5 8 -5 13q20 151 110 151q0 4 28 4z" />
    <glyph glyph-name="q" unicode="q" horiz-adv-x="808" 
d="M219 440h12q35 0 46 -42q-62 -171 -62 -174q0 -13 -4 -29q16 -96 86 -96q0 -6 62 -12q138 0 182 74l4 25v21q0 67 -182 96v8q0 71 91 117q39 8 62 8h4q132 0 190 -137q12 -49 12 -100v-200q0 -8 -8 -8h-46q-8 0 -8 12q0 62 4 117q0 186 -107 216l-25 4h-41v-4
q67 -24 107 -91q13 -28 13 -38v-25q0 -130 -149 -183q-33 -8 -70 -8h-8q-170 0 -235 129q-8 15 -8 33v29q0 51 49 171q4 5 4 29q-8 4 -12 4q-29 -10 -29 -50v-4l4 -21q-53 -33 -70 -33v4q0 115 87 150q16 8 45 8zM416 239h2q16 0 62 -57q26 -36 44 -82q23 -63 23 -117
q0 -21 -2 -21q-3 3 -23 44q-22 43 -61 95q-19 24 -46 45q-3 2 -5 2q-10 0 -32 -38q-8 -10 -12 -10h-1q-3 0 -3 6v7q0 40 23 93q19 33 31 33z" />
    <glyph glyph-name="r" unicode="r" horiz-adv-x="809" 
d="M486 440h5q235 0 235 -218v-222q0 -9 -10 -9h-41q-10 0 -10 9v196q0 135 -138 135h-16q-103 0 -117 -122q-27 -214 -189 -214h-16q-10 0 -10 9v18q51 169 51 244q-10 104 -61 104q-21 -20 -21 -61v-4l5 -31l-56 -39h-10v70q29 113 97 113h15q92 0 108 -126q0 -11 5 -35
q0 -58 -41 -188h5q61 42 61 157v88q0 93 98 122z" />
    <glyph glyph-name="s" unicode="s" horiz-adv-x="801" 
d="M265 440q121 0 121 -133q0 -63 -50 -166q88 -71 112 -71h17q97 0 116 112v34q0 100 -71 212q14 8 25 8h46q121 0 141 -162q4 -17 4 -75v-196q0 -12 -62 -12l-4 8v50q0 44 4 71q0 203 -46 237h-8q33 -96 33 -146q0 -153 -145 -216l-25 -4h-25q-82 0 -158 79
q-69 -71 -128 -71q-75 13 -75 75v17q0 81 104 120h33q25 0 58 -20q25 63 25 108v33q-6 58 -50 58q-52 0 -87 -62v-13q0 -14 12 -29q-26 -50 -37 -54q-54 33 -54 71q0 88 145 137h29zM166 107v-4q0 -21 21 -29h4q45 11 45 46q-23 21 -41 21h-8q-21 -11 -21 -34z" />
    <glyph glyph-name="t" unicode="t" horiz-adv-x="792" 
d="M204 440h8q30 0 43 -37q0 -17 -55 -177q0 -29 -4 -29q0 -86 101 -95h35q71 4 71 25v4q0 16 -90 21q-51 33 -51 107q17 173 145 173h11q131 0 176 -206v-37q0 -49 -24 -128h8q35 36 35 124v24q0 93 -82 210v5q1 8 8 8h47q140 0 140 -243v-186q0 -8 -8 -8h-35q-8 0 -8 8
v165q0 135 -31 169q-20 16 -23 16v-4q35 -59 35 -136v-28q-20 -194 -109 -194h-8q-27 0 -27 21q43 90 43 156q-16 132 -113 132q0 4 -28 4h-43q-36 0 -54 -33v-20q121 -26 121 -58q9 -17 15 -54q0 -65 -54 -119q-33 -18 -90 -25q-175 23 -175 153v32q0 49 50 194q-3 8 -3 12
q-36 0 -36 -49v-16l4 -9q-16 -14 -58 -37l-4 8q0 110 74 149q15 8 43 8z" />
    <glyph glyph-name="u" unicode="u" 
d="M-130 0h25q8 -1 8 -8v-99q0 -477 -88 -538q-4 -19 -83 -41v-8q0 -9 25 -13q163 0 163 393q4 124 17 169h4q25 0 29 -297v-17q0 -291 -146 -339q-16 -8 -34 -8h-8q-125 0 -172 132q-4 35 -4 54q13 45 46 45q9 0 71 -37h9q88 0 108 298q4 12 4 99v37q0 17 5 33q-5 16 -5 33
v100q5 12 26 12z" />
    <glyph glyph-name="v" unicode="v" horiz-adv-x="825" 
d="M160 430h13q59 -29 103 -159q4 -17 4 -34v-21q0 -22 -22 -42h-5q-31 112 -93 172h-9q-14 -41 -14 -54h-4q-8 0 -36 50q20 88 63 88zM520 440q206 0 206 -201v-240q0 -8 -9 -8h-40q-9 0 -9 8v193q0 132 -54 156q-40 21 -80 21q-107 -17 -107 -88v-9q24 4 35 4
q127 0 148 -163q0 -118 -85 -118q-110 0 -148 151q-75 -108 -93 -126q-44 -25 -85 -25q-94 28 -94 109q8 88 45 88h8q14 0 18 -100q18 -21 36 -21h5q38 0 93 130l54 50v55q18 130 130 130q0 4 26 4zM431 171q27 -92 89 -92q23 6 23 29v21q-31 47 -85 47q-7 -5 -27 -5z" />
    <glyph glyph-name="w" unicode="w" horiz-adv-x="801" 
d="M219 440h12q35 0 46 -42q-62 -171 -62 -174q0 -13 -4 -29q16 -96 86 -96q0 -6 62 -12q138 0 182 74l4 25v21q0 67 -182 96v8q0 71 91 117q39 8 62 8h4q132 0 190 -137q12 -49 12 -100v-200q0 -8 -8 -8h-46q-8 0 -8 12q0 62 4 117q0 186 -107 216l-25 4h-41v-4
q67 -24 107 -91q13 -28 13 -38v-25q0 -130 -149 -183q-33 -8 -70 -8h-8q-170 0 -235 129q-8 15 -8 33v29q0 51 49 171q4 5 4 29q-8 4 -12 4q-29 -10 -29 -50v-4l4 -21q-53 -33 -70 -33v4q0 115 87 150q16 8 45 8z" />
    <glyph glyph-name="x" unicode="x" horiz-adv-x="815" 
d="M269 440q78 0 90 -129l21 -21q37 0 63 104q25 38 49 38q93 0 122 -200q0 -70 -38 -174q52 61 52 162q0 72 -59 203q7 5 31 9q126 0 126 -233v-200q0 -8 -7 -8h-35q-7 0 -7 8q4 167 4 192q0 141 -42 174h-4v-4q32 -60 32 -150q0 -159 -109 -220h-14q-18 0 -21 12v17
l39 141q3 23 3 38q-10 100 -69 100h-7q-33 0 -81 -96q-23 -12 -31 -12q-26 0 -70 116q-17 17 -42 17q-31 0 -70 -108q-21 -25 -49 -25q-51 0 -59 91v8q6 92 24 92q16 -108 39 -108h3q27 0 46 95q29 71 70 71z" />
    <glyph glyph-name="y" unicode="y" horiz-adv-x="806" 
d="M175 440h4q68 -8 68 -67q-38 -167 -38 -231q0 -59 59 -59q90 0 113 294q12 42 26 42q27 0 37 -189q29 -142 93 -142h8q58 0 67 109q0 86 -63 230l13 9h34q104 0 130 -206v-201q0 -31 -13 -34h-33l-9 4q5 63 5 93v75q0 142 -42 172h-5q30 -92 30 -159q0 -146 -97 -189h-38
q-69 0 -96 80q-21 166 -21 176h-5q-20 -204 -67 -227q-27 -25 -59 -25q-120 0 -134 139v33q0 37 33 202v12q0 6 -12 13h-9q-11 0 -17 -42q5 -37 5 -46q-5 0 -42 -34h-9l-4 30v25q11 113 88 113z" />
    <glyph glyph-name="z" unicode="z" horiz-adv-x="1247" 
d="M770 9l-5 4q2 -2 3 -2.5t2 -1.5zM127 443h13q65 -10 65 -55v-16l-22 -156q0 -90 43 -113h9q-30 91 -30 151q0 135 103 176q16 9 35 9h13q80 0 112 -97v-12l43 75q33 34 87 34q133 0 155 -194v-12q0 -72 -48 -168h5q38 0 65 218q60 147 202 147q145 0 208 -180
q4 -29 4 -47v-8q0 -162 -142 -202q-6 -4 -31 -4h-4q-86 0 -86 59v4q0 46 39 46h17q74 -29 86 -29q68 28 69 109q0 92 -112 130q-5 0 -43 5q-140 0 -207 -227q-45 -72 -100 -72h-17q-9 0 -9 9q0 12 48 130q8 44 8 55q0 97 -120 113h-5q-63 0 -108 -84q-46 84 -112 84
q-108 -17 -108 -105q0 -87 91 -181v-4q0 -6 -26 -21h-26q-124 0 -173 122q-8 18 -8 67q0 17 26 181q-5 17 -26 17q-13 -15 -13 -34q4 -52 4 -55q-43 -37 -47 -37h-5q-4 42 -4 63q15 109 82 109z" />
    <glyph glyph-name="braceleft" unicode="{" horiz-adv-x="700" 
d="M219 440h12q35 0 46 -42q-62 -171 -62 -174q0 -13 -4 -29q16 -96 86 -96q0 -6 62 -12q138 0 182 74l4 25v21q0 67 -182 96v8q0 71 91 117q39 8 62 8h4q132 0 190 -137q12 -49 12 -100v-200q0 -8 -8 -8h-46q-8 0 -8 12q0 62 4 117q0 186 -107 216l-25 4h-41v-4
q67 -24 107 -91q13 -28 13 -38v-25q0 -130 -149 -183q-33 -8 -70 -8h-8q-170 0 -235 129q-8 15 -8 33v29q0 51 49 171q4 5 4 29q-8 4 -12 4q-29 -10 -29 -50v-4l4 -21q-53 -33 -70 -33v4q0 115 87 150q16 8 45 8zM416 239h2q16 0 62 -57q26 -36 44 -82q23 -63 23 -117
q0 -21 -2 -21q-3 3 -23 44q-22 43 -61 95q-19 24 -46 45q-3 2 -5 2q-10 0 -32 -38q-8 -10 -12 -10h-1q-3 0 -3 6v7q0 40 23 93q19 33 31 33zM817 602h14q189 0 303 -165q36 -84 36 -132v-19q0 -215 -177 -292q-48 -15 -86 -15h-5q-127 0 -151 102v5q0 51 50 68q49 0 132 -87
l25 -5q89 0 131 141q0 10 6 53q0 198 -213 258q-83 15 -121 15q-91 0 -243 -49h-10v5q99 117 309 117z" />
    <glyph glyph-name="bar" unicode="|" horiz-adv-x="658" 
d="M466 660h12q63 0 106 -121h8q28 0 57 97q0 4 4 4q28 -27 28 -57v-12q0 -67 -73 -109q12 -59 12 -117v-20q0 -319 -255 -319h-4q-182 0 -243 141q-12 52 -12 77v4q0 39 24 202q0 16 -16 24h-4q-11 0 -16 -32v-4q0 -20 4 -61l-45 -40h-4q-4 40 -4 60v4q10 122 85 122h8
q57 -17 57 -57v-16q0 -34 -20 -149q0 -178 202 -178h8q118 0 158 129q16 45 25 137l-9 81h-16q-93 0 -142 93q-4 16 -4 32v16q16 69 69 69zM442 587v-12q49 -48 105 -48q-24 62 -73 81h-4q-25 -9 -28 -21z" />
    <glyph glyph-name="braceright" unicode="}" horiz-adv-x="701" 
d="M399 280q45 -41 64 -86q27 -69 27 -133v-4h-7q-25 77 -89 147h-6q-7 -3 -25 -36l-2 -2h-2q-4 0 -4 7q0 57 33 105l2 2h9zM411 440q142 0 186 -141q9 -65 9 -79q0 -69 -50 -162q62 60 62 158q0 83 -58 216q14 8 25 8h17q88 0 120 -141q4 -70 4 -108v-188q0 -8 -8 -8h-13
q-30 0 -33 13v237q0 99 -37 99q16 -39 25 -120q0 -175 -117 -229q-6 -4 -20 -4h-13q-32 0 -37 17v8q91 112 91 183q-22 116 -153 116h-9q-137 -12 -137 -104v-16q0 -52 71 -183v-4q-15 -13 -29 -13h-21q-96 0 -137 108q-12 25 -12 75q0 24 29 191v9q0 6 -13 12h-12
q-8 -29 -8 -50l4 -37q-42 -38 -46 -38l-4 9v45q12 117 71 117h20q44 0 50 -71q-25 -116 -25 -154v-37q7 -104 58 -104q-45 61 -45 154q0 149 128 208q47 8 67 8zM817 602h14q189 0 303 -165q36 -84 36 -132v-19q0 -215 -177 -292q-48 -15 -86 -15h-5q-127 0 -151 102v5
q0 51 50 68q49 0 132 -87l25 -5q89 0 131 141q0 10 6 53q0 198 -213 258q-83 15 -121 15q-91 0 -243 -49h-10v5q99 117 309 117z" />
    <glyph glyph-name="asciitilde" unicode="~" horiz-adv-x="797" 
d="M151 492h5q78 -13 78 -68q0 -18 -63 -240v-44l24 -5h10q6 0 48 78q36 39 87 39q39 0 39 -78q0 -105 -116 -146q-34 -4 -34 -10q18 -108 106 -108h10q61 0 126 142h4q10 -1 10 -10v-39q0 -134 -106 -200q-34 -10 -58 -10q-112 0 -131 181v44l-53 29q-44 43 -44 108
q0 69 63 259q-5 18 -19 29q-29 -10 -29 -54v-39q-15 -23 -53 -44h-10v44q0 121 106 142zM408 477h19q78 0 116 -107h10q37 98 130 98q125 0 184 -176q5 -19 5 -44v-44q0 -73 -5 -196l-10 -5h-24q-9 0 -9 10v137q0 148 -97 186l-34 4h-24q-42 0 -121 -73h-10q-72 88 -116 88
h-14q-51 0 -102 -68h-5q-14 0 -14 53q22 137 121 137zM282 160h19q12 9 20 9v10q-36 -6 -39 -19zM943 616h14q189 0 303 -165q36 -84 36 -132v-19q0 -215 -177 -292q-48 -15 -86 -15h-5q-127 0 -151 102v5q0 51 50 68q49 0 132 -87l25 -5q89 0 131 141q0 10 6 53
q0 198 -213 258q-83 15 -121 15q-91 0 -243 -49h-10v5q99 117 309 117z" />
    <glyph glyph-name="exclamdown" unicode="&#xa1;" 
d="M-111 -482q7 0 13 -17q0 -125 -79 -236q-20 -22 -74 -33v-16l20 -5h13q96 0 124 199h4q25 -9 29 -107v-5q0 -135 -124 -182q-7 -4 -21 -4q-141 0 -157 174v4q0 54 46 54q56 -41 74 -41q56 0 116 194q12 21 16 21z" />
    <glyph glyph-name="cent" unicode="&#xa2;" 
d="M-100 -521h2q6 0 9 -6q5 -4 7 -59q0 -9 3 -9q130 -28 130 -121v-2q0 -42 -30 -109q-31 -68 -47 -68q-9 0 -9 11q0 9 16 47q14 41 14 68q0 36 -21 63q-26 27 -75 27l-27 -2q-6 0 -6 10q0 25 24 119q5 24 9 29q0 2 1 2z" />
    <glyph glyph-name="yen" unicode="&#xa5;" 
d="M-651 -95h8q54 -14 54 -54v-13q-29 -159 -29 -195v-12q0 -50 29 -104h4v8q-16 67 -20 125q23 233 108 233h20q16 0 54 -17v-4q-87 -110 -87 -221q0 -42 50 -74h29q34 0 58 87l17 12h12q39 0 54 -95q17 -17 33 -17h8q50 0 50 75q0 135 -128 204q26 50 66 50
q108 0 154 -129q12 -53 12 -100v-196q0 -8 -8 -8h-38q-8 0 -8 8v213q-17 137 -75 137h-4v-4q71 -48 71 -183q0 -126 -79 -175h-17q-64 0 -83 112l-8 4h-8q-6 0 -54 -91q-18 -17 -33 -17h-9q-86 0 -103 175v17q0 79 49 170h-4q-58 -54 -58 -166q0 -39 33 -179
q-13 -13 -20 -13q-96 12 -125 125q-4 4 -4 33v30q0 26 29 187q-6 16 -12 16h-13l-8 -29v-54q0 -5 -42 -41h-8v58q11 112 83 112z" />
    <glyph glyph-name="copyright" unicode="&#xa9;" horiz-adv-x="589" 
d="M123 -438h-78q51 133 102 265t102 263t101 262.5t102 265.5h76z" />
    <glyph glyph-name="logicalnot" unicode="&#xac;" 
d="M7 696q-57 0 -57 76t57 76q56 0 56 -76t-56 -76zM-43 1v556h73v-556h-73z" />
    <glyph glyph-name="registered" unicode="&#xae;" 
d="M-652 -94q58 0 58 -58v-9q-21 -136 -21 -174q0 -82 50 -108h8q-45 69 -45 145q0 151 83 200q22 4 37 4h4q67 0 79 -104h4q28 100 87 100q116 -21 116 -162v-42q0 -65 -54 -166q63 57 63 174q0 96 -46 188l8 4h29q89 0 100 -167v-266q0 -8 -8 -8h-33q-9 0 -9 8
q4 182 4 275q-5 63 -20 66v-4q12 -72 12 -108q0 -161 -116 -225q-19 -8 -42 -8q-16 19 -16 29q91 126 91 200v8q-19 92 -87 92q-44 0 -75 -79l-8 -5h-8q-34 88 -71 88h-12q-53 0 -67 -75v-21q0 -79 75 -187v-29q-6 -17 -37 -17q-78 0 -133 83q-18 28 -25 113q4 54 25 174
q0 25 -21 25q-12 -15 -12 -29v-37l4 -21l-42 -37h-4l-4 29v25q9 116 79 116z" />
    <glyph glyph-name="macron" unicode="&#xaf;" 
d="M-632 -97h12q46 0 54 -67l-25 -178q0 -67 29 -125h4v8q-16 78 -16 117v16q0 191 91 221q17 4 29 4q79 -14 79 -79q-4 -77 -4 -137v-9q0 -108 104 -108h4q95 0 95 92q4 0 4 4q0 108 -79 208q0 13 46 21q137 0 137 -225v-195q0 -9 -8 -9h-33q-9 0 -9 9v174q0 131 -45 162
h-5q29 -87 29 -145q-6 -164 -91 -200q-18 -8 -66 -8q-112 28 -112 83q-9 0 -13 79q0 10 4 63q0 103 -53 103q-58 0 -71 -112q0 -20 33 -183v-4q0 -29 -29 -29h-4q-105 37 -112 191q0 25 25 183v4q0 15 -13 25q-20 -6 -20 -41l4 -50l-42 -38h-4l-4 42v17q0 96 75 116z" />
    <glyph glyph-name="plusminus" unicode="&#xb1;" horiz-adv-x="87" 
d="M-14 -176h4q39 0 62 -24q21 -26 21 -66q0 -61 -36 -111q-20 -27 -85 -108q-45 -63 -45 -87v-3q0 -15 24 -19q3 -2 5 -2h7q34 0 74 41q25 32 34 57q5 10 12 55q1 26 7 71q3 19 12 19q4 0 10 -11q5 -13 5 -45v-2q0 -125 -67 -199q-48 -46 -105 -46q-47 0 -63 44
q-3 12 -3 20v8q0 57 63 132q67 82 74 102q17 35 17 54q0 24 -17 39q-10 7 -22 7q-40 0 -52 -58q-5 -36 -10 -36h-1q-11 0 -12 39v8q0 75 40 105q23 16 47 16z" />
    <glyph glyph-name="twosuperior" unicode="&#xb2;" horiz-adv-x="75" 
d="M11 -180h4q46 0 80 -44q23 -34 23 -71q0 -57 -48 -85q-2 -1 -28 -17v0q34 -9 48 -20q14 -9 31 -32q17 -27 17 -70q0 -90 -60 -126q-27 -15 -55 -15q-36 0 -65 18q-10 7 -31 32q-27 41 -27 89v8q0 33 20 47h5q15 0 19 -19q2 -6 2 -12v-3q-2 -25 -2 -27v-4q0 -26 31 -47
q14 -8 34 -8q57 0 74 50q4 13 4 26v6q0 34 -26 59q-14 11 -34 17q-36 9 -67 9h-18q-18 0 -22 14v4q0 17 43 21q50 8 66 16q20 9 30 32q2 9 2 15q0 27 -19 46q-19 11 -39 11h-2q-51 0 -72 -70q-6 -16 -12 -16h-2q-7 0 -8 23q0 36 20 81q33 62 84 62z" />
    <glyph glyph-name="mu" unicode="&#xb5;" 
d="M-403 1140q13 -23 13 -43l-5 -28q20 -34 20 -43q0 -10 -5 -36q2 -4 2 -8l-5 -3h-33q-5 0 -5 5v4l13 43q-10 35 -10 38v2q0 5 15 40v4q0 6 -5 23zM-505 1046v-4q-56 -53 -56 -94q0 -60 107 -78q34 -2 43 -2q123 0 148 69q2 12 2 20v14q0 22 -43 73h5q74 -32 74 -87v-5
q0 -73 -99 -109q-29 -11 -92 -11q-150 0 -185 92q-3 8 -3 17v3q0 74 99 102zM-416 971h13q71 -8 71 -47v-10q0 -37 -63 -42h-13q-66 0 -77 40v16q15 43 69 43zM-464 917q0 -31 58 -31h5q44 0 52 26v5q0 29 -62 29q-53 0 -53 -29zM-419 822h25q116 0 165 -112q4 -17 4 -29
v-20q0 -74 -92 -144h-3q-7 0 -7 10q0 6 56 95q3 38 7 43q0 73 -127 95q-10 0 -24 3q-117 -13 -117 -92q0 -49 71 -59q14 -14 14 -26v-3q-15 -56 -77 -56q-99 11 -99 88v10q2 20 11 20h7q7 -5 28 -59q25 -17 42 -17q7 4 11 4v3q-64 51 -64 92v16q0 92 116 131q33 7 53 7z" />
    <glyph glyph-name="cedilla" unicode="&#xb8;" 
d="M-357 1065q21 -40 21 -73l-8 -49q32 -57 32 -73q0 -18 -8 -61q4 -7 4 -15l-8 -4h-53q-8 0 -8 8v7l20 73q-16 60 -16 65v4q0 9 24 68v8q0 10 -8 38zM-519 905v-8q-90 -90 -90 -160q0 -104 171 -134q55 -4 69 -4q197 0 236 118q4 21 4 35v23q0 38 -69 126h8
q118 -55 118 -149v-8q0 -125 -159 -187q-46 -19 -146 -19q-240 0 -297 157q-4 14 -4 30v4q0 127 159 176zM-377 775h20q114 -12 114 -82v-8q0 -65 -106 -78h-20q-100 0 -118 71v15q0 69 110 82zM-454 685q0 -52 89 -52h20q59 0 69 49v7q0 45 -93 45q-85 -6 -85 -49z" />
    <glyph glyph-name="ordmasculine" unicode="&#xba;" 
d="M-377 1065q21 -40 21 -73l-8 -49q32 -57 32 -73q0 -18 -8 -61q4 -7 4 -15l-8 -4h-53q-8 0 -8 8v7l20 73q-16 60 -16 65v4q0 9 24 68v8q0 10 -8 38zM-539 905v-8q-90 -90 -90 -160q0 -104 171 -134q55 -4 69 -4q197 0 236 118q4 21 4 35v23q0 38 -69 126h8
q118 -55 118 -149v-8q0 -125 -159 -187q-46 -19 -146 -19q-240 0 -297 157q-4 14 -4 30v4q0 127 159 176zM-387 775h20q114 -12 114 -82v-8q0 -65 -106 -78h-20q-100 0 -118 71v15q0 69 110 82zM-464 685q0 -52 89 -52h20q59 0 69 49v7q0 45 -93 45q-85 -6 -85 -49z" />
    <glyph glyph-name="guillemotright" unicode="&#xbb;" horiz-adv-x="665" 
d="M278 -19q37 0 67 -37q6 -12 6 -18q-2 -4 -3 -4h-2q-2 0 -19 10q-21 15 -39 15h-2q-21 0 -29 -15l-2 -2q0 -12 50 -24q51 -17 65 -31q17 -20 17 -38v-3q0 -25 -20 -47q-23 -18 -52 -18h-6q-46 0 -78 39q-12 15 -16 46q-2 5 -2 10v3q0 4 2 4t9 -13q19 -23 31 -26
q29 -15 50 -15h6q33 4 37 18q1 0 1 8q0 11 -42 23q-42 13 -64 27q-21 14 -21 35v4q0 17 14 33q17 16 42 16zM443 432h45q122 -29 122 -210v-223q0 -9 -9 -9h-41q-9 0 -9 9v84q0 235 -31 235l-5 -8v-67q0 -15 5 -38q-30 -219 -217 -219h-9q-186 0 -239 126l-5 42v17
q6 42 18 42q7 0 68 -80q51 -33 144 -33q167 7 167 50q14 0 18 76q0 74 -31 202z" />
    <glyph glyph-name="onequarter" unicode="&#xbc;" horiz-adv-x="896" 
d="M137 442q66 0 66 -129v-48h19q14 177 139 177h15q121 0 162 -129q7 -15 11 -76q0 -29 -15 -137q34 38 34 121v8q0 96 -65 197q13 8 23 8h8q146 0 146 -193v-137l27 -4q79 25 92 25q85 -16 85 -125l-8 -4q-24 56 -73 56q-100 -28 -115 -28h-8q-58 0 -58 56q4 139 4 169
q0 105 -42 105q27 -46 27 -113v-16q-22 -197 -93 -197h-19q-15 8 -15 24q15 102 15 161v4q0 141 -127 141q-65 0 -88 -69q0 -7 -8 -24q128 0 165 -112v-49q0 -72 -92 -80q-54 0 -108 85q-15 42 -15 52h-27v-4q0 -125 -58 -125h-11q-85 18 -85 85v20q0 74 96 116v76
q0 54 -27 69q-19 -8 -19 -32v-32l4 -21q-33 -32 -50 -32l-4 24v37q17 100 92 100zM95 121v-12q6 -17 27 -17h8q19 11 19 65v4q-29 -6 -54 -40zM280 157v-4q41 -85 88 -85q20 0 31 20v4q-20 65 -112 65h-7z" />
    <glyph glyph-name="onehalf" unicode="&#xbd;" horiz-adv-x="801" 
d="M403 1065q21 -40 21 -73l-8 -49q32 -57 32 -73q0 -18 -8 -61q4 -7 4 -15l-8 -4h-53q-8 0 -8 8v7l20 73q-16 60 -16 65v4q0 9 24 68v8q0 10 -8 38zM241 905v-8q-90 -90 -90 -160q0 -104 171 -134q55 -4 69 -4q197 0 236 118q4 21 4 35v23q0 38 -69 126h8q118 -55 118 -149
v-8q0 -125 -159 -187q-46 -19 -146 -19q-240 0 -297 157q-4 14 -4 30v4q0 127 159 176zM251 440h13q210 0 210 -54q4 -7 4 -17q0 -45 -88 -45h-13q-14 0 -21 4q-147 0 -147 -58v-5q0 -26 206 -41q21 -17 21 -21v-12q0 -13 -34 -17q-102 4 -117 4q-80 0 -80 -41
q0 -40 214 -50q164 0 164 120q0 88 -84 208q19 8 55 8h21q104 0 147 -129q4 -21 4 -41v-250q0 -8 -8 -8h-47q-8 0 -8 8v237q0 88 -67 109v-5q38 -66 38 -128q0 -162 -160 -217q-34 -8 -80 -8h-21q-177 0 -227 108l-4 29v13q0 46 46 70v5q-38 36 -38 58v20q0 43 67 71v4h-12
q-72 0 -72 -91v-13q0 -8 -8 -8h-30q-8 0 -8 8v5q0 166 126 166q0 4 38 4zM382 774h20q114 -12 114 -82v-8q0 -65 -106 -78h-20q-100 0 -118 71v15q0 69 110 82zM305 684q0 -52 89 -52h20q59 0 69 49v7q0 45 -93 45q-85 -6 -85 -49z" />
    <glyph glyph-name="threequarters" unicode="&#xbe;" 
 />
    <glyph glyph-name="questiondown" unicode="&#xbf;" horiz-adv-x="148" 
 />
    <glyph glyph-name="Agrave" unicode="&#xc0;" 
d="M-221 -95q113 0 149 -112q13 -57 13 -137v-179q0 -9 -9 -9h-38q-8 0 -8 9v170q0 171 -90 171q-73 0 -73 -88v-124q0 -150 -149 -150h-13q-124 0 -166 121q-9 66 -9 74q0 20 26 183v4q0 5 -17 17q-22 -8 -22 -33v-4l4 -50l-42 -38h-9l-4 50v4q10 117 94 117q64 -14 64 -63
v-8q-21 -138 -21 -170q0 -129 89 -129h22q89 0 89 91q-8 128 -8 146q0 70 47 112q35 25 81 25z" />
    <glyph glyph-name="Aacute" unicode="&#xc1;" horiz-adv-x="979" 
d="M265 456q165 0 227 -181q4 -22 4 -41l-8 -5q-6 0 -85 116q-52 53 -134 53q-72 0 -147 -94q-28 -51 -28 -95v-4q15 -157 154 -157q86 0 86 54q0 33 -106 33h-16q-25 4 -25 20q0 23 102 29q28 23 28 50q-10 37 -57 37q-28 -6 -28 -17q8 -29 8 -33q0 -5 -20 -20h-16
q-25 16 -25 41v16q0 59 94 74q81 -14 81 -78v-20q0 -31 -29 -62q49 -38 49 -79q0 -101 -126 -123h-20q-133 0 -179 160q-4 36 -4 58v29q0 130 118 210q55 29 102 29zM769 407h20q101 0 126 -149q4 -26 4 -57v-219q0 -8 -8 -8h-37q-8 0 -8 8v103q0 210 -28 210l-4 -8v-41
q0 -26 4 -62q0 -61 -45 -144q28 -94 28 -132h-8q-7 1 -48 99h-9q-42 -37 -122 -37q-166 0 -215 128l-4 41q5 49 16 49h4q7 0 53 -74q58 -41 146 -41q34 0 82 12q-35 54 -61 54q-14 -29 -21 -29h-8q-8 0 -8 12q0 37 37 83q50 -12 101 -95q33 21 33 91q0 86 -29 201z" />
    <glyph glyph-name="Acircumflex" unicode="&#xc2;" 
d="M-94 14l8 -8v-17q0 -109 -33 -269l100 37l4 -4v-17q0 -57 -104 -103q-37 0 -37 -38q-61 -156 -217 -331q-61 -50 -91 -50l-4 4v13q0 19 66 103l4 21q0 56 -133 137q-137 96 -137 182v8q0 117 125 166l37 4h21q60 0 191 -95q73 -37 125 -37q25 98 46 290l4 4h25z
M-618 -318q0 -53 154 -141q100 -77 100 -174v-8h8q124 172 150 270l-4 4h-13q-100 0 -266 107l-46 13h-21q-44 0 -62 -71z" />
    <glyph glyph-name="Atilde" unicode="&#xc3;" 
d="M-100 -1l7 -7v-15q0 -98 -31 -240l94 34l4 -4v-15q0 -51 -98 -92q-35 0 -35 -33q-57 -139 -204 -295q-57 -44 -86 -44l-4 4v11q0 17 63 92l4 18q0 50 -126 122q-129 85 -129 162v7q0 104 118 148l35 3h19q57 0 181 -84q68 -34 117 -34q24 88 43 258l4 4h24zM-594 -296
q0 -47 145 -125q94 -69 94 -155v-7h8q116 153 141 239l-4 4h-12q-94 0 -251 96l-43 11h-19q-42 0 -59 -63z" />
    <glyph glyph-name="Adieresis" unicode="&#xc4;" 
d="M-67 -493l7 -4v-9q0 -56 -28 -138l84 19l4 -2v-8q0 -30 -88 -53q-32 0 -32 -20q-51 -80 -183 -170q-51 -25 -77 -25l-4 2v6q0 10 56 54l4 10q0 29 -113 70q-116 50 -116 94v4q0 60 106 85l31 2h18q51 0 162 -49q61 -19 106 -19q21 51 38 149l4 2h21zM-511 -663
q0 -27 131 -72q84 -40 84 -89v-5h7q105 89 127 138l-4 3h-10q-85 0 -226 55l-38 6h-18q-38 0 -53 -36z" />
    <glyph glyph-name="Aring" unicode="&#xc5;" 
d="M-533 -87q82 0 100 -124l29 -29q36 0 79 116q30 29 46 29q111 0 142 -182q4 -20 4 -58t-25 -140q46 22 46 161q4 0 4 103v95q1 8 8 8h42q8 -1 8 -8v-128q0 -220 -71 -260q-27 -33 -79 -33h-8q-21 11 -21 33q42 127 42 169q0 94 -79 104h-4q-52 0 -96 -87q-23 -21 -38 -21
q-35 0 -87 116q-22 16 -37 16h-17q-37 0 -75 -103q-30 -29 -50 -29h-16q-56 0 -67 91v12q5 76 25 87q8 0 21 -74q21 -33 29 -33h12q20 8 54 115q33 54 79 54z" />
    <glyph glyph-name="AE" unicode="&#xc6;" 
d="M-528 -88q78 0 90 -129l21 -21q37 0 63 104q25 38 49 38q93 0 122 -200q0 -70 -38 -174q52 61 52 162q0 72 -59 203q7 5 31 9q126 0 126 -233v-200q0 -8 -7 -8h-35q-7 0 -7 8q4 167 4 192q0 141 -42 174h-4v-4q32 -60 32 -150q0 -159 -109 -220h-14q-18 0 -21 12v17
l39 141q3 23 3 38q-10 100 -69 100h-7q-33 0 -81 -96q-23 -12 -31 -12q-26 0 -70 116q-17 17 -42 17q-31 0 -70 -108q-21 -25 -49 -25q-51 0 -59 91v8q6 92 24 92q16 -108 39 -108h3q27 0 46 95q29 71 70 71z" />
    <glyph glyph-name="Ccedilla" unicode="&#xc7;" 
d="M-456 -96q11 -8 11 -22v-114q0 -156 57 -207q36 -18 81 -18q69 0 92 33q15 33 15 65v23q0 75 -153 125v9q0 50 33 61q20 10 50 10q150 0 197 -101q23 -51 23 -112v-16q-7 -179 -29 -179q-31 0 -31 43q0 12 2 145q0 51 -45 110q-55 41 -82 41h-11q-4 -1 -4 -4
q54 -39 74 -56q37 -45 37 -104v-19q0 -93 -68 -139q-44 -19 -84 -19h-12q-130 0 -157 82q-18 33 -18 106h-2q-23 -86 -81 -127q-81 -48 -166 -48h-13q-45 0 -45 35q0 43 113 43q66 11 99 39q51 56 72 142q22 173 37 173h8z" />
    <glyph glyph-name="Egrave" unicode="&#xc8;" 
d="M-524 -95h12q137 0 168 -125q18 -237 69 -237q0 -9 49 -16h8q107 0 107 221v20l-4 85q5 48 20 48h16q29 0 29 -104v-21q0 -263 -65 -285q-41 -32 -107 -32q-112 0 -151 92q-15 62 -32 201q-37 81 -103 81h-32q-106 0 -123 -161l-4 -32q0 -97 53 -97h12q45 0 45 121v8
q0 28 25 28q28 0 28 -68v-36q0 -125 -106 -125h-8q-60 0 -90 80l-8 61v32q0 261 192 261z" />
    <glyph glyph-name="Eacute" unicode="&#xc9;" 
d="M-691 585l29 -5v-5q-108 -355 -112 -558q-10 -415 225 -497q66 -15 100 -15h4q211 1 273 153q26 38 32 327q14 8 26 8l16 -1q8 -1 8 -9l-4 -172q-7 -318 -224 -396q-64 -20 -142 -18h-13q-226 6 -329 306q-27 112 -24 229l1 26q7 320 130 627h4z" />
    <glyph glyph-name="Ecircumflex" unicode="&#xca;" 
d="M-312 -226h4q27 3 110 -76q48 -47 83 -113q48 -88 56 -166q3 -32 -2 -32q-4 5 -42 62q-44 59 -115 128q-33 33 -79 61q-7 2 -9 2q-15 -2 -46 -60q-12 -19 -19 -19v0q-5 0 -6 10l-2 11q-6 58 24 139q25 51 43 53zM-691 575l29 -5v-4q-108 -342 -112 -538
q-10 -400 225 -479q66 -14 100 -15h4q211 1 273 147q26 37 32 315q14 8 26 8h16q8 -2 8 -9l-4 -166q-7 -306 -224 -381q-64 -20 -142 -18h-13q-226 6 -329 295q-27 108 -24 221l1 25q7 308 130 604h4z" />
    <glyph glyph-name="Edieresis" unicode="&#xcb;" horiz-adv-x="153" 
d="M-725 494l39 -6v-5q-146 -387 -152 -609q-13 -454 305 -544q89 -15 134 -16h6q286 1 370 167q34 42 43 357q19 9 34 9l23 -1q11 -1 10 -9l-5 -189q-9 -347 -304 -432q-86 -22 -191 -20h-17q-306 6 -446 334q-36 123 -32 251l1 28q9 349 176 685h6zM-628 583l6 -2l-1 -3
q-35 -36 -76 -122l-13 -1l-18 5q-12 3 -9 14q23 84 111 109z" />
    <glyph glyph-name="Igrave" unicode="&#xcc;" horiz-adv-x="105" 
d="M-235 -471l2 1q23 4 98 -60q46 -40 81 -98q48 -75 61 -147q7 -28 3 -30q-4 5 -42 54q-41 49 -106 107q-32 27 -74 51q-5 0 -7 -1q-12 -2 -33 -58q-8 -18 -13 -19h-1q-4 -1 -6 9l-2 9q-11 53 7 130q15 49 32 52zM-725 494l39 -6v-5q-146 -387 -152 -609q-13 -454 305 -544
q89 -15 134 -16h6q286 1 370 167q34 42 43 357q19 9 34 9l23 -1q11 -1 10 -9l-5 -189q-9 -347 -304 -432q-86 -22 -191 -20h-17q-306 6 -446 334q-36 123 -32 251l1 28q9 349 176 685h6zM-628 583l6 -2l-1 -3q-35 -36 -76 -122l-13 -1l-18 5q-12 3 -9 14q23 84 111 109z" />
    <glyph glyph-name="Iacute" unicode="&#xcd;" horiz-adv-x="200" 
d="M-725 466l39 -6v-4q-146 -380 -152 -597q-13 -443 305 -532q89 -15 134 -16h6q286 2 370 164q34 41 43 349q19 9 34 9l23 -1q11 -1 10 -9l-5 -184q-9 -340 -304 -424q-86 -21 -191 -19h-17q-306 6 -446 327q-36 120 -32 245l1 28q9 342 176 670h6zM-628 553l6 -2l-1 -3
q-35 -35 -76 -119l-13 -1l-18 4q-12 3 -9 15q23 82 111 106z" />
    <glyph glyph-name="Icircumflex" unicode="&#xce;" horiz-adv-x="7" 
d="M-139 0h4q13 -2 41 -58q44 -105 44 -254v-6q0 -185 -93 -334q-37 -52 -55 -63q-28 -25 -57 -41q-97 -49 -184 -49q-97 0 -198 45q-115 54 -165 169q-39 95 -39 212v7q0 115 37 232q24 61 41 61q9 0 9 -15v-3q0 -9 -13 -106q-6 -65 -6 -115q0 -155 78 -239q47 -49 100 -68
q69 -24 141 -24h5q146 0 230 78q23 21 41 48q28 47 45 115q18 74 18 142v11q0 61 -24 194q-4 27 -4 47v0q0 12 4 14z" />
    <glyph glyph-name="Idieresis" unicode="&#xcf;" horiz-adv-x="725" 
d="M331 -19q42 0 76 -33q14 -15 14 -27q0 -5 -5 -5q-3 0 -31 17q-24 12 -41 12q-39 -3 -39 -19q0 -12 59 -26q60 -17 81 -33q22 -22 22 -46q0 -29 -26 -53q-29 -19 -67 -19q-66 0 -103 47q-15 22 -20 53v6q0 6 2 6h2q29 -35 36 -36q13 -9 53 -19q17 -4 24 -4q39 0 51 21
q2 3 2 7v0q0 12 -41 22q-56 14 -87 31t-31 42v1q0 34 42 52q12 3 27 3zM179 437h9q44 -6 44 -38v-12q-62 -173 -62 -192v-8q27 -75 89 -75l84 -8q178 0 178 95v25q0 95 -31 200q15 9 27 9q106 0 138 -125q9 -42 9 -84v-220q0 -9 -9 -9h-40q-9 0 -9 9v112q0 159 -22 200h-14
v-17q0 -43 5 -91q0 -161 -165 -213q-29 -4 -58 -4q-214 0 -254 158v30q0 54 58 187q-4 7 -4 17h-13q-27 -17 -27 -42v-25l4 -8l-67 -38q-4 8 -4 13q19 150 107 150q0 4 27 4z" />
    <glyph glyph-name="Udieresis" unicode="&#xdc;" horiz-adv-x="100" 
d="M-14 439h31q73 0 104 -142q8 -108 8 -220v-75q0 -27 4 -54q-4 -15 -4 -46v-67q81 -49 94 -75l-9 -4q-2 0 -85 38v-4q-28 -575 -58 -575h-13q-6 0 -14 12v34q27 475 27 549l-27 9v-4q0 -444 -121 -542q-62 -50 -192 -50q-206 0 -264 167q-13 43 -13 87v13q0 206 233 337
q115 54 215 54h93v8q0 192 -18 500v42q1 8 9 8zM35 339q9 -167 13 -454q-4 -7 -4 -16l31 -9v204q0 275 -40 275zM-483 -494q0 -158 227 -158q164 0 198 71q53 145 53 408q-57 8 -68 8q-183 0 -330 -145q-80 -100 -80 -184zM209 590h15q190 0 305 -160q36 -82 36 -129v-18
q0 -210 -178 -284q-48 -15 -87 -15h-5q-128 0 -152 99v5q0 50 50 66q49 0 133 -84l25 -5q90 0 132 137q0 10 6 51q0 193 -215 251q-82 15 -121 15q-92 0 -245 -48h-10v5q99 114 311 114z" />
    <glyph glyph-name="Thorn" unicode="&#xde;" 
d="M-647 -73h21q56 -14 56 -54v-17l-25 -166q0 -80 47 -125v4q-22 61 -26 117q0 128 78 216q29 21 56 21h8q77 0 91 -100q0 -10 -5 -108q0 -129 130 -129q103 0 103 141v167q1 8 9 8h38q9 -1 9 -8v-171q-7 -194 -121 -237q-15 -8 -34 -8h-13q-125 0 -155 108q-4 16 -4 33v25
q0 158 -43 158q0 4 -13 4h-13q-55 0 -74 -99v-13q0 -28 39 -187q-3 -21 -13 -21h-26q-79 0 -129 138q-8 18 -8 54q0 28 25 187q-4 16 -25 16q-13 -16 -13 -37q0 -7 4 -50l-47 -37h-5q-4 41 -4 62q15 108 82 108z" />
    <glyph glyph-name="germandbls" unicode="&#xdf;" 
d="M-385 -100q68 0 139 -38q20 -10 39 -31q36 -39 36 -82q0 -50 -40 -77q-17 -8 -31 -8h-3q-23 0 -46 17q-9 11 -9 20q0 17 17 23h5q6 0 27 -13q5 -3 9 -3h1q17 0 24 20v7q0 32 -71 52q-41 9 -91 9q-101 0 -164 -49q-36 -29 -47 -65q-3 -11 -3 -23q0 -52 62 -100
q29 -22 51 -32q87 -46 221 -46q92 0 183 27q32 6 43 6q14 0 14 -7q0 -21 -65 -60q-90 -47 -182 -47h-13q-95 0 -187 38q-38 17 -77 46q-33 28 -54 58q-16 23 -25 44q-14 36 -14 78q0 75 54 145q27 29 41 39q70 52 156 52z" />
    <glyph glyph-name="agrave" unicode="&#xe0;" 
d="M-346 -107h2q80 0 128 -34q64 -41 64 -104q0 -48 -30 -88q-42 -50 -104 -50q-32 0 -41 18q-3 7 -3 13q0 22 26 28q6 2 10 2v0q10 0 30 -9l6 -2q18 0 40 24q14 18 14 35q0 36 -68 58q-30 7 -64 7h-2q-102 0 -191 -44q-22 -10 -44 -26q-54 -45 -54 -83v-5q0 -56 99 -89
q59 -17 122 -17q96 0 202 39q30 13 84 47q24 16 30 16h2q10 0 12 -37q0 -18 10 -111q2 -18 2 -29q0 -22 -16 -25v0q-22 0 -28 80q-2 18 -2 31v0q-4 -2 -28 -22q-140 -102 -248 -102h-6v0h-1h-7q-66 0 -147 36q-22 11 -50 28q-28 26 -34 37q-40 51 -40 113q0 70 58 143
q12 16 38 39q56 45 113 65q62 18 116 18z" />
    <glyph glyph-name="aacute" unicode="&#xe1;" 
d="M-298 -96q191 0 226 -170q9 -40 9 -114v-153q0 -8 -9 -8h-35q-8 0 -8 8v64q0 182 -31 182q-51 68 -157 68q-127 0 -161 -76q-9 -17 -13 -51q0 -47 87 -174q0 -6 -18 -17h-61q-157 36 -157 178v4q0 34 27 187v4q0 4 -18 17q-22 -7 -22 -38q5 -53 5 -55q-6 0 -48 -38
q-9 19 -9 55v4q12 119 92 119q69 -10 69 -64v-8l-21 -149v-29q0 -98 65 -115h4q-52 67 -52 132v21q7 154 135 199q36 17 101 17z" />
    <glyph glyph-name="acircumflex" unicode="&#xe2;" 
d="M-695 -87h14q66 -9 66 -52v-12l-40 -173v-36q0 -63 49 -97q-22 73 -22 121v12q0 157 119 209q7 4 22 4q62 -8 62 -28q-79 -127 -79 -205q0 -64 70 -80q55 0 84 84l18 12h22q39 0 62 -92q24 -17 49 -17q50 0 57 85v217q1 8 9 8h44q9 -1 9 -8v-153q0 -185 -71 -237
q-22 -12 -35 -12h-9q-62 0 -88 44q-17 69 -36 69q-21 -8 -70 -89q-24 -16 -40 -16h-14q-70 0 -106 88q-9 38 -9 61v24q0 78 58 177h-9q-66 -45 -66 -157v-36q0 -17 26 -137v-4q0 -6 -13 -12h-31q-72 0 -124 113q-13 32 -13 68q0 47 44 189v12q0 6 -13 12h-18l-9 -28v-49
q0 -5 -48 -36h-9v57q24 100 88 100z" />
    <glyph glyph-name="atilde" unicode="&#xe3;" 
d="M-706 -86h22q56 -14 56 -55v-16q-21 -133 -21 -156v-16q9 -105 69 -105h5q-44 57 -53 130q0 185 135 214h9q83 0 99 -105h5q30 96 91 96h26q126 -38 126 -163v-34q0 -81 -65 -159v-9q52 0 78 164v105q1 8 8 8h39q9 -1 9 -8v-101q0 -176 -152 -231q-17 -4 -35 -4
q-5 0 -21 21v4q0 28 74 122q17 56 17 76q-14 100 -96 100h-8q-50 0 -91 -80l-9 -4q-52 93 -100 93q-74 0 -86 -101q0 -68 86 -176q5 -8 5 -17v-4q0 -15 -52 -21q-123 0 -178 121q-9 32 -9 59q0 28 26 189q-6 17 -13 17h-9q-17 -6 -17 -38q0 -7 4 -50l-47 -38h-5q-4 42 -4 63
q15 109 82 109z" />
    <glyph glyph-name="adieresis" unicode="&#xe4;" 
d="M-249 -96q144 0 182 -121q18 -59 18 -127q0 -188 -24 -188l-9 -2q-29 0 -29 42l5 120q0 111 -47 139q-54 20 -119 20q-113 0 -134 -71q-1 -20 -7 -20h-11l-8 2l-9 -2h-5l-4 4q0 74 49 150q39 54 152 54zM-554 -126h3q26 -5 26 -24q0 -17 -62 -41q-78 -36 -121 -145
l-2 -34v-13q0 -60 46 -60q42 0 122 87q52 46 112 46q75 0 123 -56q20 -37 20 -65v-20q0 -54 -44 -83q-11 -6 -22 -6q-49 0 -79 61q-9 25 -9 42q19 11 35 14q22 -44 53 -44q19 0 31 14v6q-29 32 -79 32q-33 0 -108 -68q-78 -57 -135 -57h-4q-95 0 -117 141v27q0 120 134 217
q49 29 77 29z" />
    <glyph glyph-name="aring" unicode="&#xe5;" 
d="M-478 -117q77 0 99 -115h4q32 115 107 115q119 0 139 -184q4 -12 4 -64v-192q0 -9 -8 -9h-36q-8 0 -8 9v158q0 145 -51 145q-8 11 -52 13q-61 0 -91 -90h-8q-29 90 -99 90q-88 -24 -88 -81q-4 -6 -4 -30q0 -92 80 -188q0 -7 -16 -17h-44q-102 0 -150 132q-4 29 -4 47v9
q0 20 23 184q-6 17 -12 17h-15q-8 -23 -8 -35q4 -53 4 -55l-44 -39h-4q-4 43 -4 65q14 111 75 111h12q60 -10 60 -56v-17q-20 -140 -20 -158q0 -93 44 -128v4q-20 51 -20 115v56q0 137 99 184q22 4 36 4z" />
    <glyph glyph-name="egrave" unicode="&#xe8;" horiz-adv-x="765" 
d="M431 519h10q65 0 115 -98h5q57 23 57 78h16q18 0 26 -45v-4q0 -58 -78 -94q10 -63 15 -122q0 -164 -145 -232q-44 -16 -115 -16h-16q-200 0 -266 118q-10 33 -10 41v24q0 6 16 12h5q109 -101 151 -101q40 -9 89 -13q149 0 203 90q17 39 26 146q-5 22 -5 41
q-177 22 -177 102v8q7 65 78 65zM399 454q41 -41 105 -41h10q-39 61 -83 61q-23 0 -32 -20z" />
    <glyph glyph-name="eacute" unicode="&#xe9;" 
d="M-316 -100h13q134 0 172 -33v-2q0 -9 -112 -9q-154 -11 -266 -67q-67 -43 -79 -78q-6 -10 -11 -33q0 -81 92 -121q56 -22 138 -22q89 0 124 46q4 6 4 13v4q0 49 -137 77q-77 11 -84 14l-4 17q0 50 116 72q34 2 38 3q110 0 193 -48q69 -49 69 -149v-24q0 -93 -17 -93
q-5 -5 -15 -5h-2q-41 0 -41 54l2 9q0 23 2 73q0 74 -98 108q-31 11 -69 11q-11 0 -21 -6q0 -7 68 -32q71 -36 71 -95q0 -73 -133 -119q-30 -8 -71 -8q-143 0 -216 56q-86 62 -86 157v1q0 124 182 199q97 30 178 30z" />
    <glyph glyph-name="ecircumflex" unicode="&#xea;" horiz-adv-x="175" 
d="M-14 439h31q73 0 104 -142q8 -108 8 -220v-75q0 -27 4 -54q-4 -15 -4 -46v-67q81 -49 94 -75l-9 -4q-2 0 -85 38v-4q-28 -575 -58 -575h-13q-6 0 -14 12v34q27 475 27 549l-27 9v-4q0 -444 -121 -542q-62 -50 -192 -50q-206 0 -264 167q-13 43 -13 87v13q0 206 233 337
q115 54 215 54h93v8q0 192 -18 500v42q1 8 9 8zM35 339q9 -167 13 -454q-4 -7 -4 -16l31 -9v204q0 275 -40 275zM-483 -494q0 -158 227 -158q164 0 198 71q53 145 53 408q-57 8 -68 8q-183 0 -330 -145q-80 -100 -80 -184z" />
    <glyph glyph-name="edieresis" unicode="&#xeb;" horiz-adv-x="247" 
d="M-24 439h31q118 0 118 -323v-279q118 -83 118 -153v-31q0 -52 -87 -279v-7q0 -19 25 -19q78 0 94 152q0 45 -7 140l13 6q37 -65 37 -146v-12q-27 -210 -162 -210q-55 19 -55 77q0 26 87 253q6 25 6 51v19q0 50 -62 89h-7q-18 -342 -43 -514l-44 -38h-6q31 532 31 583
l-12 7h-13q0 -416 -130 -539q-72 -45 -174 -45h-68q-185 0 -249 191q-6 41 -6 82q0 214 286 349q99 38 223 38h50l13 -6v12q0 120 -19 539q2 13 12 13zM26 338q12 -192 12 -470l13 -6h19v101q0 375 -44 375zM-521 -500q0 -133 162 -177h118q124 0 168 95q56 156 56 406
q-4 0 -81 6q-148 0 -311 -114q-112 -110 -112 -216z" />
    <glyph glyph-name="igrave" unicode="&#xec;" horiz-adv-x="223" 
d="M-27 439h29q88 0 112 -150q13 -80 13 -316v-104q170 -28 170 -134v-4q0 -63 -50 -104q71 -35 71 -112v-13q-12 -133 -92 -133h-20q-70 0 -88 96v4q10 92 25 92q10 -3 25 -34q-12 -22 -12 -50q17 -46 62 -46q58 0 58 63v17q0 100 -129 100l-8 12v12q0 12 83 25
q29 26 29 63v12q0 61 -108 84l-16 4q0 -98 -42 -571q-6 0 -46 -37h-4q29 528 29 595l4 21l-29 4q0 -298 -66 -478q-65 -134 -254 -134h-17q-199 0 -266 142q-25 49 -25 116v5q0 174 175 299q152 104 378 104h21q-4 223 -21 504v38q2 8 9 8zM27 339v-4q12 -277 12 -450l9 -4
h20v13q0 82 5 112q0 303 -46 333zM-522 -489v-5q0 -140 145 -179q65 -12 100 -12q154 0 208 112q50 138 50 375v37h-4q-376 0 -491 -274q-8 -38 -8 -54z" />
    <glyph glyph-name="iacute" unicode="&#xed;" horiz-adv-x="151" 
d="M-11 436h17q74 0 100 -162q8 -74 8 -187v-96q0 -386 -12 -840l-30 -21h-8q4 734 4 915q0 291 -33 291h-4q12 -212 12 -570v-154q0 -167 -20 -295q25 -43 25 -67l-9 -4q-7 0 -29 25q-23 -88 -91 -141q-47 -21 -96 -21q-148 0 -187 137q-4 16 -4 34v16q0 102 96 146
q24 12 87 16q90 0 166 -79h4q13 82 13 138v8q0 816 -17 907zM-293 -704q0 -83 108 -91h25q88 0 124 108v12q-66 71 -141 71q-101 0 -116 -100z" />
    <glyph glyph-name="icircumflex" unicode="&#xee;" horiz-adv-x="173" 
d="M2 437h18q116 0 116 -316v-329q0 -27 -5 -84q29 21 45 21h8q66 0 76 -83v-4q0 -79 -129 -242q-18 -38 -18 -54v-4q0 -6 14 -12h22q96 19 102 212q7 17 14 17q13 -3 13 -34v-37q0 -159 -120 -217l-27 -4h-9q-43 0 -53 63v8q0 62 115 216q18 43 18 59q0 32 -22 41h-22
q-14 0 -54 -91l-9 -4q-8 21 -8 75v441q0 262 -36 262h-5q14 -175 14 -462v-296q0 -143 -22 -266q10 0 26 -54v-4q0 -9 -9 -9l-31 25q-9 -64 -89 -137q-54 -25 -102 -25q-155 0 -205 117q-9 37 -9 54v16q0 102 102 146q26 13 94 17q100 0 182 -84q14 75 14 134v116
q0 738 -18 808zM-301 -704q0 -83 116 -91h27q96 0 138 116q-62 71 -152 71q0 4 -4 4q-107 0 -125 -100z" />
    <glyph glyph-name="idieresis" unicode="&#xef;" horiz-adv-x="168" 
d="M3 437h13q125 0 125 -346v-133q0 -240 -18 -329v-4h4q24 42 67 42q66 0 85 -88v-25q0 -52 -62 -74v-9q55 0 71 -96v-8q0 -84 -71 -116q-24 -5 -40 -5q-78 0 -99 121q9 54 27 54q7 0 18 -16v-46q0 -46 62 -46q48 0 58 71q0 75 -129 75l-9 12v9q0 9 107 29q18 22 18 41
q-6 42 -45 42h-13q-31 0 -67 -67h-9q-9 0 -9 13q0 176 5 266q-5 152 -5 358q0 162 -31 175h-4q0 -21 -5 -21l5 -8q9 -170 9 -325v-445q0 -129 -23 -213q31 -65 31 -74l-8 -5h-5l-31 25q0 -62 -94 -137q-40 -25 -98 -25q-155 0 -205 117q-9 37 -9 54v16q0 102 103 146
q25 13 93 17q110 0 179 -84h4q13 67 18 175q-7 883 -22 883zM-301 -704q0 -77 107 -91h36q102 0 138 120q-77 71 -156 71q-106 0 -125 -100z" />
    <glyph glyph-name="eth" unicode="&#xf0;" horiz-adv-x="293" 
d="M-284 -669q-343 -109 -503.5 -1t-146.5 353q5 99 44 341l13 -3q-24 -213 -28 -285q-14 -247 139.5 -332t486.5 14zM-15 436h16q69 0 100 -133q13 -81 13 -261v-86q-7 -832 -15 -832q-7 -9 -17 -9q-19 0 -19 83v12q6 502 6 660v24q0 421 -17 421q-7 17 -21 23
q-1 -23 -3 -23q13 -106 13 -575v-148q0 -339 -75 -424q-58 -59 -145 -59h-5q-102 0 -160 68q-24 49 -24 101v3q0 95 83 136q139 19 159 36q18 18 26 71l4 3h24q4 -1 4 -6q0 -115 -71 -157l-113 -18q-28 -19 -28 -42v-11q0 -54 81 -54h20q124 0 150 92q27 100 27 258
q-5 817 -15 817q-4 16 -4 24z" />
    <glyph glyph-name="ograve" unicode="&#xf2;" horiz-adv-x="870" 
d="M116 451h13q47 0 58 -66l-21 -146v-16q0 -96 42 -129h4v4q-25 60 -25 104v50q0 126 91 182q27 9 38 9h20q85 0 113 -100q4 -8 4 -12h4q21 116 95 116h34q101 0 162 -162q20 -93 20 -228q-4 -151 -16 -229q37 26 79 63q8 0 8 -13q0 -51 -91 -125q-12 -9 -59 -178
q-58 -166 -174 -287q-102 -95 -191 -95l-4 8q0 69 54 96q41 34 41 83q0 116 -203 191q-154 83 -154 220v21q0 132 175 153h20q107 0 229 -91q111 -67 195 -67q17 150 17 241v4q0 18 4 34q0 249 -117 249q-78 0 -124 -117h-8q-48 113 -117 113h-12q-79 0 -79 -146
q0 -87 104 -141v-12q0 -19 -83 -21q-93 0 -158 112q-13 47 -13 75q0 23 25 178v17q-4 12 -25 12q-12 -22 -12 -37q0 -3 4 -54l-46 -37h-4q-4 41 -4 62v4q0 92 87 108zM133 -209q0 -87 220 -179q125 -77 125 -178v-25l-5 -50q140 147 183 357q0 9 4 17q-144 0 -319 133
q-61 29 -104 29q-104 0 -104 -104z" />
    <glyph glyph-name="divide" unicode="&#xf7;" horiz-adv-x="760" 
d="M470 -37q49 0 87 -43q9 -12 9 -24q-1 -5 -5 -5v0q-4 0 -33 18q-26 13 -44 13h-3q-25 0 -36 -14q-3 -4 -3 -6v0q0 -14 63 -29q67 -19 88 -37q22 -24 22 -48q0 -29 -24 -56q-31 -23 -72 -23h-5q-66 0 -109 48q-20 36 -20 68q0 5 2 5h1q30 -37 49 -44q41 -18 71 -18h3
q36 0 50 18q5 5 5 12q0 14 -71 31q-52 16 -77 32q-22 16 -22 35v8q0 32 42 54q18 5 32 5zM373 440q77 0 99 -115h4q32 115 107 115q119 0 139 -184q4 -12 4 -64v-192q0 -9 -8 -9h-36q-8 0 -8 9v158q0 145 -51 145q-8 11 -52 13q-61 0 -91 -90h-8q-29 90 -99 90
q-88 -24 -88 -81q-4 -6 -4 -30q0 -92 80 -188q0 -7 -16 -17h-44q-102 0 -150 132q-4 29 -4 47v9q0 20 23 184q-6 17 -12 17h-15q-8 -23 -8 -35q4 -53 4 -55l-44 -39h-4q-4 43 -4 65q14 111 75 111h12q60 -10 60 -56v-17q-20 -140 -20 -158q0 -93 44 -128v4q-20 51 -20 115
v56q0 137 99 184q22 4 36 4z" />
    <glyph glyph-name="oslash" unicode="&#xf8;" 
d="M-361 921h28q132 0 188 -136q4 -22 4 -36v-24q0 -90 -104 -176h-4q-8 0 -8 12q0 7 64 116q4 46 8 52q0 90 -144 116q-12 0 -28 4q-132 -16 -132 -112q0 -60 80 -72q16 -17 16 -32v-4q-17 -68 -88 -68q-112 14 -112 108v12q3 24 12 24h8q9 -6 32 -72q29 -20 48 -20
q8 4 12 4v4q-72 62 -72 112v20q0 112 132 160q38 8 60 8z" />
    <glyph glyph-name="ugrave" unicode="&#xf9;" 
d="M-355 788q11 0 42 -54q31 -70 31 -134q0 -17 -1 -17q0 1 -12 30q-13 32 -34 73q-10 15 -26 33q-1 2 -3 2q-5 0 -18 -27q-5 -8 -8 -8q-2 1 -2 6q0 35 16 78q9 18 15 18zM-361 921h28q132 0 188 -136q4 -22 4 -36v-24q0 -90 -104 -176h-4q-8 0 -8 12q0 7 64 116q4 46 8 52
q0 90 -144 116q-12 0 -28 4q-132 -16 -132 -112q0 -60 80 -72q16 -17 16 -32v-4q-17 -68 -88 -68q-112 14 -112 108v12q3 24 12 24h8q9 -6 32 -72q29 -20 48 -20q8 4 12 4v4q-72 62 -72 112v20q0 112 132 160q38 8 60 8z" />
    <glyph glyph-name="uacute" unicode="&#xfa;" horiz-adv-x="600" 
d="M148 413h8q60 -6 60 -56v-4q-24 -130 -24 -144l12 -36h4v32q0 9 -4 16q0 135 104 176q30 8 56 8h8q121 0 164 -128q12 -51 12 -96q0 -200 -184 -332q-53 -34 -240 -136q-96 -71 -96 -196q0 -147 120 -216h8q16 4 16 20l-40 108l-8 44q0 146 168 224q51 16 96 16h20
q179 0 260 -172q16 -37 16 -92v-12q0 -141 -96 -240q-6 0 -12 12q44 110 44 188v28q0 139 -164 184q-21 4 -40 4h-36q-118 0 -168 -128l-4 -24v-32q0 -30 44 -140v-20q-8 -44 -40 -44h-12q-120 0 -220 172q-28 66 -28 128v8q0 282 392 416q140 75 140 216v24
q-13 120 -100 120h-32q-73 0 -92 -104v-24q0 -49 56 -124v-8q0 -6 -12 -12h-4q-119 0 -168 128q-4 14 -4 40q0 17 24 148q0 12 -16 20q-20 -6 -20 -28v-4l4 -48l-44 -32h-4l-4 48q0 76 60 100q7 4 20 4z" />
    <glyph glyph-name="udieresis" unicode="&#xfc;" horiz-adv-x="957" 
d="M815 595h4q79 -27 79 -117v-8q0 -41 -37 -62q16 -58 16 -175v-59q-17 -820 -58 -820q-36 -100 -108 -100h-16q-95 0 -183 254q-30 50 -71 50h-4q-70 0 -145 -221q-44 -83 -112 -83q-100 0 -141 117q-17 54 -17 108v21q0 201 183 312q75 38 274 58q108 29 153 92
q54 105 54 196q-18 133 -104 133h-8q-65 0 -120 -96h-4q-61 104 -121 104q-91 -12 -91 -129v-21q0 -71 41 -179v-4q-17 -17 -41 -17q-75 0 -141 117q-13 37 -13 83v9q0 28 25 191q-8 19 -16 21h-5q-16 -4 -16 -42q4 -51 4 -54l-46 -41h-4q-4 56 -4 70q14 117 91 117
q63 -14 63 -71l-25 -179q9 -121 45 -121v5q-20 69 -20 120v25q0 170 99 213q27 8 38 8h20q86 0 117 -129h4q32 129 128 129q139 0 162 -212q5 -29 5 -46q0 -302 -212 -396q-80 -33 -295 -71q-166 -47 -166 -208q0 -111 91 -146h9q68 0 116 188q53 146 145 146
q103 0 162 -192q53 -137 108 -137q75 16 75 145q41 616 41 775v46q0 87 -25 87q-128 30 -128 117q0 49 41 58q54 0 104 -87h8q7 0 17 16v13q0 26 -33 67v4q1 8 8 8zM732 516q0 -4 -4 -4q0 -21 50 -34v5q-25 33 -46 33z" />
    <glyph glyph-name="yacute" unicode="&#xfd;" horiz-adv-x="901" 
d="M493 1045q21 -40 21 -73l-8 -49q32 -57 32 -73q0 -18 -8 -61q4 -7 4 -15l-8 -4h-53q-8 0 -8 8v7l20 73q-16 60 -16 65v4q0 9 24 68v8q0 10 -8 38zM331 885v-8q-90 -90 -90 -160q0 -104 171 -134q55 -4 69 -4q197 0 236 118q4 21 4 35v23q0 38 -69 126h8q118 -55 118 -149
v-8q0 -125 -159 -187q-46 -19 -146 -19q-240 0 -297 157q-4 14 -4 30v4q0 127 159 176zM174 440h11q54 -10 54 -53v-17l-18 -151q0 -102 54 -135h4v4q-40 66 -40 131v8q0 154 108 205l36 4h11q80 0 112 -102q1 -9 7 -9q0 70 87 103q20 4 29 4q112 0 158 -164q7 -31 7 -57
v-25q0 -149 -140 -270q-110 -53 -234 -53q-239 -21 -278 -58q-133 -92 -133 -229v-17q0 -139 147 -237q81 -37 155 -37l8 12q-13 27 -105 95q-68 76 -68 147v33q0 171 212 254q63 16 108 16h29q239 0 328 -229q11 -36 11 -82v-8q0 -202 -133 -308q-34 -16 -62 -16h-3
q-5 0 -11 12q133 137 133 185q18 46 18 69v33q0 152 -191 217q-47 12 -101 16q-224 -10 -266 -151q-4 -16 -4 -29q0 -96 166 -196q43 -39 43 -78q0 -82 -126 -82h-22q-199 0 -302 233q-22 64 -22 160q0 196 155 320q93 65 202 65h166q185 0 234 78q25 54 25 98v17
q0 124 -94 147h-18q-66 0 -111 -86q-63 94 -123 94h-18q-68 0 -83 -110q0 -104 126 -176v-5q-11 -24 -47 -24q-158 0 -201 139l-4 49v8q0 20 22 177q-4 16 -22 16q-11 -15 -11 -33q4 -51 4 -53l-40 -37h-3q-4 41 -4 62q13 106 68 106zM487 753h20q114 -12 114 -82v-8
q0 -65 -106 -78h-20q-100 0 -118 71v15q0 69 110 82zM410 663q0 -52 89 -52h20q59 0 69 49v7q0 45 -93 45q-85 -6 -85 -49z" />
    <glyph glyph-name="thorn" unicode="&#xfe;" horiz-adv-x="1328" 
d="M493 1045q21 -40 21 -73l-8 -49q32 -57 32 -73q0 -18 -8 -61q4 -7 4 -15l-8 -4h-53q-8 0 -8 8v7l20 73q-16 60 -16 65v4q0 9 24 68v8q0 10 -8 38zM331 885v-8q-90 -90 -90 -160q0 -104 171 -134q55 -4 69 -4q197 0 236 118q4 21 4 35v23q0 38 -69 126h8q118 -55 118 -149
v-8q0 -125 -159 -187q-46 -19 -146 -19q-240 0 -297 157q-4 14 -4 30v4q0 127 159 176zM174 440h11q54 -10 54 -53v-17l-18 -151q0 -102 54 -135h4v4q-40 66 -40 131v8q0 154 108 205l36 4h11q80 0 112 -102q1 -9 7 -9q0 70 87 103q20 4 29 4q112 0 158 -164q7 -31 7 -57
v-25q0 -149 -140 -270q-110 -53 -234 -53q-239 -21 -278 -58q-133 -92 -133 -229v-17q0 -139 147 -237q81 -37 155 -37l8 12q-13 27 -105 95q-68 76 -68 147v33q0 171 212 254q63 16 108 16h29q239 0 328 -229q11 -36 11 -82v-8q0 -202 -133 -308q-34 -16 -62 -16h-3
q-5 0 -11 12q133 137 133 185q18 46 18 69v33q0 152 -191 217q-47 12 -101 16q-224 -10 -266 -151q-4 -16 -4 -29q0 -96 166 -196q43 -39 43 -78q0 -82 -126 -82h-22q-199 0 -302 233q-22 64 -22 160q0 196 155 320q93 65 202 65h166q185 0 234 78q25 54 25 98v17
q0 124 -94 147h-18q-66 0 -111 -86q-63 94 -123 94h-18q-68 0 -83 -110q0 -104 126 -176v-5q-11 -24 -47 -24q-158 0 -201 139l-4 49v8q0 20 22 177q-4 16 -22 16q-11 -15 -11 -33q4 -51 4 -53l-40 -37h-3q-4 41 -4 62q13 106 68 106zM973 526l28 -2q154 -12 238 -184
q18 -72 14 -113l-1 -16q-20 -208 -197 -249q-21 -2 -36 -1h-8q-100 9 -129 91l1 16q13 59 57 56l8 -1q44 -4 82 -79l27 -14q67 -6 116 99q11 31 14 67q14 178 -161 250q-58 12 -87 15h-8q-81 7 -212 -43l-3 9q112 111 257 99zM477 753h20q114 -12 114 -82v-8q0 -65 -106 -78
h-20q-100 0 -118 71v15q0 69 110 82zM400 663q0 -52 89 -52h20q59 0 69 49v7q0 45 -93 45q-85 -6 -85 -49z" />
    <glyph glyph-name="scaron" unicode="&#x161;" 
d="M-699 1091q3 1 9 5q2 -2 4 -2t4 -2zM-863 1112q5 3 9 6l8 6q3 -5 6 -9t5 -8zM-447 759q52 0 82 -44q13 -22 13 -40v-4q0 -27 -21 -52q-24 -23 -40 -23h-4q-4 0 -4 4t19 16q27 21 27 46q0 23 -22 38q-18 12 -43 12h-6q-39 0 -61 -28q-6 -11 -6 -22q0 -27 36 -51
q11 -8 11 -13v0q-1 -2 -5 -2q-18 0 -46 24q-21 23 -21 49v3q0 35 35 67q26 20 56 20zM-443 908q166 0 220 -124l8 -49v-12q0 -112 -124 -194h-9q-8 0 -8 12q79 108 79 169v9q0 98 -141 115h-33q-162 0 -162 -128q0 -67 92 -152l4 -17l-13 -4q-153 65 -153 190v12
q0 119 145 161q38 12 95 12z" />
    <glyph glyph-name="fhook" unicode="&#x192;" horiz-adv-x="746" 
d="M47 210l-2 107h630l2 -107h-630z" />
    <glyph glyph-name="quoteleft" unicode="&#x2018;" horiz-adv-x="296" 
d="M172 256q21 17 31.5 35.5t10.5 37.5q0 4 -1 10t-3 12q-5 0 -14 -3l-15 -5q-33 9 -33 47q0 51 44 51q28 0 43 -30q7 -13 10.5 -27t3.5 -29q0 -89 -70 -122z" />
    <glyph glyph-name="quoteright" unicode="&#x2019;" horiz-adv-x="302" 
d="M182 343q-34 10 -34 47q0 51 44 51q27 0 43 -30q6 -13 10 -27t4 -29q0 -89 -70 -122l-5 24q19 16 29.5 34.5t10.5 37.5v3v4v3t-0.5 5t-0.5 5v3z" />
    <glyph glyph-name="quotedblleft" unicode="&#x201c;" horiz-adv-x="503" 
d="M285 365q-3 -1 -8 -3t-8 -3q-25 0 -25 43q0 18 9 34q9 17 21 17q17 0 29 -29q10 -24 10 -53q0 -46 -14 -77.5t-45 -50.5v23q17 18 25.5 37t9.5 41zM368 358q-24 11 -24 46q0 49 29 49q39 0 39 -84q0 -89 -58 -125v22q33 36 33 79q0 3 -0.5 8t-1.5 14z" />
    <glyph glyph-name="dagger" unicode="&#x2020;" horiz-adv-x="196" 
d="M83 -302v915h61v-915h-61z" />
    <glyph glyph-name="daggerdbl" unicode="&#x2021;" horiz-adv-x="855" 
d="M90 -51v74h692v-74h-692zM428 55q-164 0 -256 100q-82 89 -99 250h43q62 -237 312 -237t312 237h44q-9 -79 -34.5 -142.5t-65.5 -107.5q-46 -49 -110 -74.5t-146 -25.5z" />
    <glyph glyph-name="guilsinglleft" unicode="&#x2039;" horiz-adv-x="798" 
d="M202 79q-34 42 -66 82.5t-65 83.5q17 21 33 42t32 41.5t32.5 41t33.5 42.5h25l-82 -168q20 -40 41.5 -82.5t40.5 -82.5h-25zM115 227v36h625v-36h-625z" />
    <glyph glyph-name="guilsinglright" unicode="&#x203a;" horiz-adv-x="884" 
d="M680 52h-29l93 183l-46 92t-47 93h29q39 -47 76.5 -92t75.5 -93zM57 217v39h712v-39h-712z" />
    <glyph glyph-name="trademark" unicode="&#x2122;" 
d="M-527 1304q6 2 9 5q7 -4 8 -4zM-357 749q52 0 82 -44q13 -22 13 -40v-4q0 -27 -21 -52q-24 -23 -40 -23h-4q-4 0 -4 4t19 16q27 21 27 46q0 23 -22 38q-18 12 -43 12h-6q-39 0 -61 -28q-6 -11 -6 -22q0 -27 36 -51q11 -8 11 -13v0q-1 -2 -5 -2q-18 0 -46 24
q-21 23 -21 49v3q0 35 35 67q26 20 56 20zM-353 908q166 0 220 -124l8 -49v-12q0 -112 -124 -194h-9q-8 0 -8 12q79 108 79 169v9q0 98 -141 115h-33q-162 0 -162 -128q0 -67 92 -152l4 -17l-13 -4q-153 65 -153 190v12q0 119 145 161q38 12 95 12z" />
    <glyph glyph-name="oe" unicode="&#x153;" horiz-adv-x="804" 
d="M231 442q115 0 156 -86l32 -219q28 -51 76 -51h12q91 0 91 180l-4 66q0 106 28 106l20 4h8q68 0 68 -137q0 -305 -20 -305l-4 -4h-8q-20 11 -20 35l8 200q-3 125 -20 125v-137q0 -166 -72 -207q-46 -16 -79 -16h-12q-148 0 -148 203q-22 137 -76 137q0 7 -36 8
q-127 0 -127 -164v-4q0 -98 44 -98h8q44 0 44 102v31q0 21 16 28q31 0 31 -63v-51q0 -121 -99 -121h-4q-81 0 -96 148v32q0 219 148 254z" />
    <glyph glyph-name="space" unicode=" " horiz-adv-x="1" 
 />
    <glyph glyph-name="Ydieresis" unicode="&#x178;" horiz-adv-x="855" 
d="M493 1045q21 -40 21 -73l-8 -49q32 -57 32 -73q0 -18 -8 -61q4 -7 4 -15l-8 -4h-53q-8 0 -8 8v7l20 73q-16 60 -16 65v4q0 9 24 68v8q0 10 -8 38zM331 885v-8q-90 -90 -90 -160q0 -104 171 -134q55 -4 69 -4q197 0 236 118q4 21 4 35v23q0 38 -69 126h8q118 -55 118 -149
v-8q0 -125 -159 -187q-46 -19 -146 -19q-240 0 -297 157q-4 14 -4 30v4q0 127 159 176zM487 753h20q114 -12 114 -82v-8q0 -65 -106 -78h-20q-100 0 -118 71v15q0 69 110 82zM410 663q0 -52 89 -52h20q59 0 69 49v7q0 45 -93 45q-85 -6 -85 -49zM139 440q61 -15 61 -71
q-29 -163 -29 -179q11 -125 41 -125v4q-16 57 -16 113v29q0 168 102 221q28 8 49 8q97 0 130 -117l4 -16l37 71q48 58 110 58q109 0 159 -129q16 -56 16 -113v-16q0 -267 -196 -379q-79 -42 -269 -67q-94 -8 -179 -54q-53 -40 -53 -121q0 -101 86 -175v5q0 10 -4 62
q0 148 159 208q30 0 122 58q73 25 114 25q53 0 73 -25v-4q0 -16 -142 -41v-4q125 -34 171 -113q28 -49 28 -104v-17q-30 -237 -203 -237h-4q-127 0 -143 117l4 37q-73 46 -73 125v29q-37 -46 -37 -100v-8q0 -24 24 -108v-13q-6 -17 -28 -17q-66 0 -167 150q-41 88 -41 146v8
q0 261 322 317q135 0 261 50q110 86 110 216q-19 167 -122 167q-67 0 -131 -100h-4q-70 100 -126 100h-13q-78 0 -89 -146v-8q0 -95 49 -171q0 -6 -12 -12h-9q-131 0 -171 129q-8 18 -8 66q0 29 29 192v17q0 6 -13 12h-8q-12 0 -16 -50q4 -28 4 -46q-4 0 -45 -37h-4l-4 50
v12q0 103 90 121h4zM355 -514q0 -37 40 -83h5q29 50 73 50h12q48 0 57 -62v-9q-13 -70 -65 -70h-12q-17 0 -53 8q15 -67 98 -67h24q126 31 126 154q0 120 -167 159q-20 4 -53 4q-81 0 -81 -46zM436 -630v-4q37 -8 37 -13q33 0 33 29v5q-5 12 -25 12h-4q-23 0 -41 -29z" />
    <glyph glyph-name="dieresis" unicode="&#xa8;" 
d="M-201 907q9 0 14 -26q5 -43 8 -64q7 -47 17 -81q8 -25 23 -59q17 -36 25 -45q37 -55 79 -71q37 -16 44 -20q1 -1 1 -2v0q0 -4 -27 -6h-9q-44 0 -93 41q-13 11 -30 34q-9 15 -24 44q-16 38 -21 60q-7 22 -12 54q-10 61 -10 103q0 28 10 35q4 3 5 3zM-448 902h28
q132 0 188 -136q4 -22 4 -36v-24q0 -90 -104 -176h-4q-8 0 -8 12q0 7 64 116q4 46 8 52q0 90 -144 116q-12 0 -28 4q-132 -16 -132 -112q0 -60 80 -72q16 -17 16 -32v-4q-17 -68 -88 -68q-112 14 -112 108v12q3 24 12 24h8q9 -6 32 -72q29 -20 48 -20q8 4 12 4v4
q-72 62 -72 112v20q0 112 132 160q38 8 60 8z" />
    <glyph glyph-name="emdash" unicode="&#x2014;" horiz-adv-x="521" 
d="M-38 217v74h600v-74h-600z" />
    <glyph glyph-name="periodcentered" unicode="&#xb7;" 
d="M12 902q-73 0 -73 77q0 30 21 50t52 20q28 0 49 -21q21 -22 21 -49q0 -33 -19 -55t-51 -22z" />
    <glyph glyph-name="endash" unicode="&#x2013;" horiz-adv-x="256" 
d="M155 254q-60 0 -60 64q0 25 17 41.5t43 16.5q23 0 40 -18q18 -18 18 -40q0 -28 -16 -46t-42 -18zM155 38q-60 0 -60 63q0 26 17 42t43 16q23 0 40 -17q18 -18 18 -41q0 -27 -16 -45t-42 -18z" />
    <glyph glyph-name="ordfeminine" unicode="&#xaa;" horiz-adv-x="927" 
d="M151 492h5q78 -13 78 -68q0 -18 -63 -240v-44l24 -5h10q6 0 48 78q36 39 87 39q39 0 39 -78q0 -105 -116 -146q-34 -4 -34 -10q18 -108 106 -108h10q61 0 126 142h4q10 -1 10 -10v-39q0 -134 -106 -200q-34 -10 -58 -10q-112 0 -131 181v44l-53 29q-44 43 -44 108
q0 69 63 259q-5 18 -19 29q-29 -10 -29 -54v-39q-15 -23 -53 -44h-10v44q0 121 106 142zM408 477h19q78 0 116 -107h10q37 98 130 98q125 0 184 -176q5 -19 5 -44v-44q0 -73 -5 -196l-10 -5h-24q-9 0 -9 10v137q0 148 -97 186l-34 4h-24q-42 0 -121 -73h-10q-72 88 -116 88
h-14q-51 0 -102 -68h-5q-14 0 -14 53q22 137 121 137zM282 160h19q12 9 20 9v10q-36 -6 -39 -19z" />
    <glyph glyph-name="exclam" unicode="!" 
d="M-441 793q13 0 46 -58q34 -75 34 -143q0 -18 -2 -18q0 2 -13 32q-14 35 -37 77q-11 17 -28 37q-2 1 -4 1q-5 0 -19 -29q-6 -9 -9 -9q-2 2 -2 8q0 37 18 82q9 20 16 20zM-213 907q9 0 13 -26q6 -43 9 -64q7 -47 17 -81q8 -25 23 -59q17 -36 26 -45q37 -55 79 -71
q38 -16 45 -20q1 -1 1 -2v0q0 -4 -27 -6h-10q-44 0 -94 41q-12 11 -30 34q-9 15 -24 44q-16 38 -21 60q-7 22 -12 54q-10 61 -10 103q0 28 10 35q3 3 5 3zM-444 909h27q126 0 180 -130q3 -20 3 -34v-23q0 -86 -99 -168h-4q-7 0 -7 11q0 7 61 111q4 44 7 50q0 86 -137 110
q-12 0 -27 4q-126 -15 -126 -107q0 -57 77 -68q15 -16 15 -31v-4q-17 -65 -84 -65q-107 13 -107 104v11q2 23 11 23h8q8 -6 31 -69q27 -19 45 -19q8 4 12 4v4q-69 59 -69 107v19q0 106 126 152q36 8 57 8z" />
    <glyph glyph-name="one" unicode="1" horiz-adv-x="956" 
d="M703 683h12q57 0 98 -100q0 -21 8 -21q52 30 52 84l13 8q24 -17 24 -50v-8q0 -64 -69 -105q16 -154 16 -195q0 -226 -109 -283q-34 -17 -65 -17q-45 0 -45 37v5q0 19 65 137q20 45 20 92q-16 116 -105 116h-4q-78 0 -126 -104h-8q-65 97 -82 100q-15 8 -32 8h-20
q-80 0 -90 -108v-17q0 -64 77 -208v-21q-14 -25 -36 -25q-153 0 -203 159q-4 22 -4 41v13q0 54 48 229q-5 25 -24 25q-16 -19 -16 -58v-34q-37 -41 -53 -41v41q0 118 93 142q65 -17 65 -63v-8l-40 -192v-25q10 -137 89 -162v4q-61 87 -61 167v29q0 188 142 241q10 0 33 5
q95 0 118 -125h4q40 116 126 116h12q120 0 154 -183v-37q0 -114 -73 -225v-4h4q60 0 89 208v37l-12 171h-8q-146 28 -146 112v17q11 75 69 75zM683 608q0 -27 89 -50q-21 75 -61 75q-28 -7 -28 -25z" />
    <glyph glyph-name="currency" unicode="&#xa4;" horiz-adv-x="423" 
d="M203 159l86 88l-86 89l-89 -89zM59 247l144 147l143 -147l-143 -145z" />
    <glyph glyph-name="threesuperior" unicode="&#xb3;" horiz-adv-x="801" 
d="M225 440h9q46 -6 46 -38v-12q-64 -174 -64 -193v-9q28 -75 92 -75l87 -9q184 0 184 97v25q0 95 -32 201q15 9 27 9q110 0 143 -126q9 -42 9 -84v-222q0 -9 -9 -9h-42q-9 0 -9 9v113q0 160 -23 201h-14v-16q0 -45 5 -93q0 -161 -170 -214q-30 -4 -60 -4q-221 0 -262 159
v30q0 54 60 189q-5 7 -5 16h-13q-28 -17 -28 -42v-25l5 -8l-69 -38q-5 8 -5 13q20 151 110 151q0 4 28 4zM443 277h1q19 0 72 -66q30 -42 52 -96q26 -72 26 -135q0 -24 -3 -24q-3 4 -26 51q-26 50 -71 110q-22 27 -53 52q-4 3 -6 3q-12 0 -37 -44q-9 -13 -14 -13h-1
q-3 0 -3 8v8q0 47 27 108q21 38 36 38z" />
    <glyph glyph-name="acute" unicode="&#xb4;" horiz-adv-x="824" 
d="M399 280q45 -41 64 -86q27 -69 27 -133v-4h-7q-25 77 -89 147h-6q-7 -3 -25 -36l-2 -2h-2q-4 0 -4 7q0 57 33 105l2 2h9zM411 440q142 0 186 -141q9 -65 9 -79q0 -69 -50 -162q62 60 62 158q0 83 -58 216q14 8 25 8h17q88 0 120 -141q4 -70 4 -108v-188q0 -8 -8 -8h-13
q-30 0 -33 13v237q0 99 -37 99q16 -39 25 -120q0 -175 -117 -229q-6 -4 -20 -4h-13q-32 0 -37 17v8q91 112 91 183q-22 116 -153 116h-9q-137 -12 -137 -104v-16q0 -52 71 -183v-4q-15 -13 -29 -13h-21q-96 0 -137 108q-12 25 -12 75q0 24 29 191v9q0 6 -13 12h-12
q-8 -29 -8 -50l4 -37q-42 -38 -46 -38l-4 9v45q12 117 71 117h20q44 0 50 -71q-25 -116 -25 -154v-37q7 -104 58 -104q-45 61 -45 154q0 149 128 208q47 8 67 8z" />
    <glyph glyph-name="sterling" unicode="&#xa3;" horiz-adv-x="810" 
d="M373 440q77 0 99 -115h4q32 115 107 115q119 0 139 -184q4 -12 4 -64v-192q0 -9 -8 -9h-36q-8 0 -8 9v158q0 145 -51 145q-8 11 -52 13q-61 0 -91 -90h-8q-29 90 -99 90q-88 -24 -88 -81q-4 -6 -4 -30q0 -92 80 -188q0 -7 -16 -17h-44q-102 0 -150 132q-4 29 -4 47v9
q0 20 23 184q-6 17 -12 17h-15q-8 -23 -8 -35q4 -53 4 -55l-44 -39h-4q-4 43 -4 65q14 111 75 111h12q60 -10 60 -56v-17q-20 -140 -20 -158q0 -93 44 -128v4q-20 51 -20 115v56q0 137 99 184q22 4 36 4z" />
    <glyph glyph-name="guillemotleft" unicode="&#xab;" horiz-adv-x="256" 
d="M7 977h4q176 0 240 -215q16 -72 16 -182v-28q0 -348 -4 -794q0 -308 56 -388q41 -32 68 -32h20q75 0 88 137v4q0 31 -24 137v5q0 11 16 14q76 -38 76 -192q0 -156 -124 -219l-28 -5h-20q-107 0 -168 128q-28 76 -28 256q16 684 16 803v32q0 311 -84 393q-59 50 -128 50
q-119 0 -168 -114q-8 -41 -8 -59v-19q0 -70 72 -141l8 -32v-5q-8 -50 -40 -50h-8q-48 0 -112 128q-12 61 -12 87v4q0 213 176 279q36 18 100 18z" />
    <glyph glyph-name="paragraph" unicode="&#xb6;" horiz-adv-x="510" 
d="M383 480v-903h-14v903h-99v-903h-15v540q-38 2 -66 6t-47 12q-97 38 -97 168q0 55 17 88q50 96 171 96h208v-7h-58z" />
    <glyph glyph-name="quotedbl" unicode="&#x22;" horiz-adv-x="506" 
d="M326 237q50 41 50 91q0 5 -0.5 11t-1.5 13q-4 -1 -12.5 -4t-14.5 -5q-34 8 -34 53q0 57 44 57q25 0 40 -36q8 -14 11.5 -30t3.5 -34q0 -50 -22 -86t-64 -57v27zM184 237q50 42 50 91q0 4 -1.5 9.5t-6.5 13.5q-13 -8 -24 -8q-34 0 -34 50q0 23 13 40q15 20 32 20
q26 0 42 -32v0q13 -29 13 -64q0 -53 -19.5 -89.5t-64.5 -57.5v27z" />
    <glyph glyph-name="numbersign" unicode="#" 
d="M-457 791q12 0 44 -53q33 -70 33 -134q0 -17 -2 -17q0 2 -12 30q-14 32 -36 72q-10 15 -27 34q-2 1 -3 1q-5 0 -19 -27q-5 -8 -9 -8q-1 2 -1 7q0 35 17 77q9 18 15 18zM-471 906h26q121 0 172 -125q4 -20 4 -33v-22q0 -83 -95 -162h-4q-8 0 -8 11q0 7 59 107q4 42 8 47
q0 83 -133 107q-11 0 -25 3q-122 -14 -122 -102q0 -55 74 -66q15 -16 15 -30v-4q-16 -62 -81 -62q-103 12 -103 99v11q2 22 11 22h7q8 -5 30 -66q26 -18 44 -18q7 3 11 3v4q-66 57 -66 103v18q0 103 121 147q34 8 55 8zM-195 863q64 0 125 -125q17 -52 17 -99v-20
q-2 -45 -11 -45q-11 10 -26 88q-35 86 -91 116q0 -51 -31 -51q-34 8 -34 34v3q7 99 43 99h8z" />
    <glyph glyph-name="zero" unicode="0" horiz-adv-x="439" 
d="M225 438h6q102 0 152 -115l7 -25h-1l-36 -12q-62 55 -83 55l-26 4q-108 0 -162 -183l-28 -20l-3 37v4q0 107 82 210q45 45 92 45zM390 292q4 0 4 -37q0 -135 -108 -226q-40 -29 -78 -29q-82 0 -131 78q-21 38 -22 62v2l33 4q29 -66 96 -66q77 0 137 80q20 47 36 101z" />
    <glyph glyph-name="dollar" unicode="$" 
d="M-1446 1385q1 -1 6 -5l-16 5h10zM-176 853q8 0 12 -24q5 -35 8 -54q7 -39 16 -68q6 -22 20 -52q17 -29 25 -38q34 -47 72 -61q35 -13 42 -17l1 -1v0q0 -4 -25 -5h-9q-41 0 -86 35q-12 9 -27 29q-10 12 -23 38q-15 32 -21 51q-5 18 -10 45q-9 53 -9 88q0 25 9 32q3 2 5 2z
M-369 863h10q91 0 140 -83l2 -14v-6q0 -38 -95 -62q-162 -73 -193 -73q-7 3 -7 6v6q19 32 153 89q48 24 49 32v8q0 18 -69 30h-3q-83 0 -148 -90q-22 -40 -22 -71q0 -13 17 -89v-8q0 -20 -29 -26h-3q-60 0 -85 89q-3 20 -3 36q0 2 3 53v6l-17 -8q-7 3 -8 8v4q0 26 42 38h6
q14 0 14 -18q-10 -65 -10 -75q0 -64 43 -91h7v6q-22 54 -22 83v10q0 94 98 172q63 38 130 38z" />
    <glyph glyph-name="ucircumflex" unicode="&#xfb;" horiz-adv-x="600" 
d="M343 1045q21 -40 21 -73l-8 -49q32 -57 32 -73q0 -18 -8 -61q4 -7 4 -15l-8 -4h-53q-8 0 -8 8v7l20 73q-16 60 -16 65v4q0 9 24 68v8q0 10 -8 38zM181 885v-8q-90 -90 -90 -160q0 -104 171 -134q55 -4 69 -4q197 0 236 118q4 21 4 35v23q0 38 -69 126h8q118 -55 118 -149
v-8q0 -125 -159 -187q-46 -19 -146 -19q-240 0 -297 157q-4 14 -4 30v4q0 127 159 176zM323 755h20q114 -13 114 -80v-16q0 -64 -101 -72h-21q-105 0 -122 68v27q23 73 110 73zM246 663q0 -53 93 -53h8q70 0 82 45v8q0 50 -98 50q-85 0 -85 -50zM148 413h8q60 -6 60 -56v-4
q-24 -130 -24 -144l12 -36h4v32q0 9 -4 16q0 135 104 176q30 8 56 8h8q121 0 164 -128q12 -51 12 -96q0 -200 -184 -332q-53 -34 -240 -136q-96 -71 -96 -196q0 -147 120 -216h8q16 4 16 20l-40 108l-8 44q0 146 168 224q51 16 96 16h20q179 0 260 -172q16 -37 16 -92v-12
q0 -141 -96 -240q-6 0 -12 12q44 110 44 188v28q0 139 -164 184q-21 4 -40 4h-36q-118 0 -168 -128l-4 -24v-32q0 -30 44 -140v-20q-8 -44 -40 -44h-12q-120 0 -220 172q-28 66 -28 128v8q0 282 392 416q140 75 140 216v24q-13 120 -100 120h-32q-73 0 -92 -104v-24
q0 -49 56 -124v-8q0 -6 -12 -12h-4q-119 0 -168 128q-4 14 -4 40q0 17 24 148q0 12 -16 20q-20 -6 -20 -28v-4l4 -48l-44 -32h-4l-4 48q0 76 60 100q7 4 20 4z" />
    <glyph glyph-name="comma" unicode="," horiz-adv-x="351" 
d="M84 442q69 0 164 -176q57 -107 57 -252q0 -167 -89 -296h-3q33 150 33 240q0 184 -140 328q2 -21 2 -24q-4 -68 -35 -68h-10q-32 0 -38 68q9 176 48 176q0 4 11 4z" />
    <glyph glyph-name="period" unicode="." horiz-adv-x="587" 
d="M84 442q69 0 164 -176q57 -107 57 -252q0 -167 -89 -296h-3q33 150 33 240q0 184 -140 328q2 -21 2 -24q-4 -68 -35 -68h-10q-32 0 -38 68q9 176 48 176q0 4 11 4zM324 462q69 0 164 -176q57 -107 57 -252q0 -167 -89 -296h-3q33 150 33 240q0 184 -140 328q2 -21 2 -24
q-4 -68 -35 -68h-10q-32 0 -38 68q9 176 48 176q0 4 11 4z" />
    <glyph glyph-name="oacute" unicode="&#xf3;" horiz-adv-x="395" 
d="M177 141q32 42 32 82q0 4 -2 17q0 1 -0.5 2.5t-0.5 2.5q-5 -4 -10.5 -5.5t-11.5 -2.5q-24 2 -36.5 12t-14.5 29q2 51 59 51q21 0 41 -33l-1 1q4 -12 6.5 -24.5t1.5 -26.5q-5 -84 -59 -114z" />
    <glyph glyph-name="ocircumflex" unicode="&#xf4;" horiz-adv-x="397" 
d="M198 190q-66 0 -66 69q0 28 19 46t47 18q25 0 44 -19q20 -20 20 -45q0 -29 -17.5 -49t-46.5 -20z" />
    <glyph glyph-name="parenleft" unicode="(" 
d="M-547 982q21 0 29 -30q11 -45 19 -71q18 -51 41 -90q16 -28 51 -67q38 -38 58 -50q85 -60 178 -79q86 -17 101 -22l4 -1v0q0 -5 -62 -7h-22q-98 0 -211 45q-29 12 -68 38q-21 18 -55 49q-36 44 -50 67q-13 23 -27 61q-21 68 -21 114q0 31 21 41q8 2 14 2z" />
    <glyph glyph-name="parenright" unicode=")" 
d="M-230 863h13q117 0 180 -83l2 -14v-6q0 -38 -122 -62q-208 -73 -248 -73q-8 3 -8 6v6q24 32 196 89q61 24 62 32v8q0 18 -87 30h-5q-107 0 -190 -90q-28 -40 -28 -71q0 -13 22 -89v-8q0 -20 -37 -26h-4q-77 0 -109 89q-4 20 -4 36q0 2 4 53v6l-21 -8q-10 3 -11 8v4
q0 26 53 38h9q17 0 17 -18q-13 -65 -13 -75q0 -64 56 -91h8v6q-27 54 -27 83v10q0 94 126 172q80 38 166 38z" />
    <glyph glyph-name="brokenbar" unicode="&#xa6;" horiz-adv-x="487" 
d="M272 -152q-139 143 -139 349q0 74 17.5 140t50.5 122q33 54 82.5 98.5t111.5 75.5v-29q-60 -34 -95.5 -88t-51.5 -132q-8 -44 -13 -87t-5 -87q0 -117 24 -207t65 -145q14 -16 33 -34t43 -34v-29q-40 21 -70.5 42.5t-52.5 44.5z" />
    <glyph glyph-name="section" unicode="&#xa7;" horiz-adv-x="539" 
d="M133 -210q165 96 165 395q0 242 -89 351q-16 20 -34.5 37t-41.5 31v29q37 -20 68.5 -41.5t54.5 -44.5q139 -138 139 -350q0 -74 -17.5 -140t-50.5 -123q-34 -55 -82.5 -98.5t-111.5 -74.5v29z" />
    <glyph glyph-name="degree" unicode="&#xb0;" 
d="M1 1055q-12 0 -21 -3.5t-16 -11.5q-14 -13 -14 -36q0 -22 14 -37q14 -13 37 -13q22 0 36 13q14 15 14 37q0 23 -14 36q-14 15 -36 15zM1 1087q35 0 59 -24q24 -23 24 -59q0 -18 -6 -33t-18 -27t-27 -17.5t-32 -5.5q-18 0 -33 5.5t-27 17.5t-18 27t-6 33q0 17 6 32t18 27
q12 13 27 18.5t33 5.5z" />
    <glyph glyph-name="Scaron" unicode="&#x160;" horiz-adv-x="765" 
d="M484 435h50q135 -29 135 -212v-224q0 -9 -10 -9h-45q-10 0 -10 9v84q0 238 -35 238l-5 -9v-68q0 -15 5 -38q-32 -220 -239 -220h-10q-206 0 -265 127l-5 42v17q6 43 20 43q7 0 75 -81q56 -34 160 -34q184 8 184 51q15 0 20 76q0 75 -35 204zM-130 0h25q8 -1 8 -8v-99
q0 -477 -88 -538q-4 -19 -83 -41v-8q0 -9 25 -13q163 0 163 393q4 124 17 169h4q25 0 29 -297v-17q0 -291 -146 -339q-16 -8 -34 -8h-8q-125 0 -172 132q-4 35 -4 54q13 45 46 45q9 0 71 -37h9q88 0 108 298q4 12 4 99v37q0 17 5 33q-5 16 -5 33v100q5 12 26 12z" />
    <glyph glyph-name="question" unicode="?" horiz-adv-x="400" 
d="M227 198l-9 -32q-19 -5 -32 -5q-126 0 -126 118q0 58 90.5 146t90.5 138q0 85 -88 85q-72 0 -99 -61l-9 59q43 33 121 33q69 0 109 -38t40 -102q0 -59 -94.5 -158.5t-94.5 -131.5q0 -55 63 -55q18 0 38 4zM109 37q0 54 58 54q57 0 57 -54q0 -53 -57 -53q-58 0 -58 53z
" />
    <glyph glyph-name="J" unicode="J" horiz-adv-x="2395" 
d="M571 536q97 0 138 -101q15 -46 15 -76v-34q0 -46 -75 -553q-11 -149 -11 -198q11 -215 75 -215q0 -5 11 -5q89 0 89 140v29q0 60 -48 477q-7 69 -11 173q0 255 74 333q13 13 38 13q83 0 100 -287v-101q0 -112 -29 -477v-55q0 -91 29 -118h12q23 0 29 131v38q0 47 -33 409
q-4 30 -4 76q0 290 86 371q14 9 30 9q71 -31 71 -241q3 -16 3 -76q0 -77 -33 -439v-4q0 -110 37 -152q27 0 37 114v13q-33 381 -33 519q0 262 89 262q60 -31 60 -76q26 -70 26 -173l-26 -443q7 -106 26 -106q34 12 34 84v5q-19 407 -19 460q0 182 52 232q13 11 34 17
q79 0 93 -199v-8l-30 -384q0 -73 30 -101h15q19 40 19 101v42l-23 363v13q12 177 86 177q90 -22 90 -198v-5q0 -63 -4 -312q5 -76 30 -76q19 5 19 34q-23 280 -23 342q9 215 78 215q64 0 79 -207q-8 -124 -8 -219q5 -51 19 -51q12 0 19 46q-19 183 -19 228v30q0 147 63 173
h23q37 0 59 -68h4q0 57 97 68h8q175 0 175 -25v-26q-7 -15 -22 -21q-115 9 -161 9q-48 0 -48 -47q-17 -63 -45 -63h-15q-20 6 -52 105l-8 5q-22 -20 -22 -119q0 -50 19 -249q-10 -109 -79 -109h-3q-53 0 -68 105q4 215 4 262q0 32 -19 97h-3q-19 -86 -19 -152l22 -333
q0 -93 -85 -93q-53 0 -75 114v17q0 61 4 325q0 60 -26 130h-8q-23 0 -30 -122q0 -34 26 -388q0 -129 -55 -178q-28 -8 -30 -8q-82 0 -94 165v8l30 380q0 77 -30 139h-11q-26 -75 -26 -194l19 -435v-25q-12 -139 -90 -139q-82 0 -82 169q23 385 23 430v42q0 82 -27 148h-7
q-26 -78 -26 -198q7 -216 33 -498v-34q0 -111 -63 -161q-14 -8 -34 -8q-53 0 -82 122q-7 49 -7 102q33 376 33 434q0 137 -26 245h-3q-49 -118 -49 -308q0 -50 37 -452v-80q0 -145 -63 -181l-26 -9q-68 0 -93 140q0 34 -4 67q33 404 33 532v13q0 247 -52 291
q-45 -86 -45 -253v-51q0 -127 56 -582v-85q0 -150 -100 -190q-26 -4 -41 -4q-153 0 -153 279q0 159 67 557q15 100 15 206q0 114 -79 114q-85 0 -85 -126l41 -321v-25q0 -135 -131 -135q-112 21 -112 118v17q0 45 30 291v25q0 68 -63 68q-41 0 -41 -64l26 -329v-21
q0 -114 -82 -143h-26q-76 0 -90 114v8q16 152 52 152q15 0 45 8q0 -4 4 -4q-30 -95 -30 -118v-34q0 -42 30 -42q29 0 37 72l-4 8v21q0 74 -37 275q-4 22 -4 42q0 131 101 152l26 4q123 -16 123 -135v-30q-26 -236 -26 -295q0 -80 52 -80q56 11 56 88v22q0 29 -41 308v12
q0 129 90 178q28 8 52 8z" />
    <glyph glyph-name="B" unicode="B" horiz-adv-x="2582" 
d="M194 439h3q8 0 22 -79q-114 -357 -114 -636v-31q0 -276 133 -362q35 -11 51 -11h12q119 0 222 149q7 0 12 -86q-4 0 -25 -36q0 -55 66 -67l42 -7q89 0 120 110q25 131 25 373v19q-69 28 -123 28h-32q-101 -8 -101 -28v-8q120 -22 120 -55q16 -22 16 -58q0 -97 -101 -158
q-37 -19 -111 -19q-132 0 -184 133q-9 27 -12 71q0 115 101 212q127 98 231 98q35 -19 35 -27q-304 -108 -304 -271v-4q0 -92 95 -126l44 -8q104 0 143 79v16q0 40 -57 51q-26 0 -114 -4q-22 14 -22 35q0 96 164 130q23 4 57 4q74 0 155 -36v122q0 99 -9 405l6 3h22
q31 -19 51 -106q12 0 22 -494l85 -110q-31 209 -31 345v83q0 222 72 294q18 4 26 4q54 0 82 -153q13 -77 13 -192q0 -129 -32 -480v-11q4 -113 35 -130h16q23 0 31 145q0 34 -38 417v55q3 276 86 341q12 4 22 4q51 0 66 -188q3 -18 3 -63v-75q0 -68 -31 -373v-4
q9 -145 44 -145q28 0 38 110q0 27 -28 338q-4 61 -4 125v47q0 224 83 224q54 0 76 -157q3 -22 3 -63q0 -44 -22 -428q4 -94 25 -94q41 0 41 86q-19 337 -19 425q0 231 82 231h4q60 0 82 -161v-43q0 -26 -29 -342v-4q0 -67 32 -94h16q21 13 25 118q-25 319 -25 361
q0 140 76 169h12q76 -30 76 -173q3 0 3 -39q0 -37 -6 -247q4 -91 32 -91q25 0 25 36q-22 257 -22 306q8 208 73 208h6q33 0 60 -114q6 -46 6 -78q-6 -162 -6 -201q0 -41 22 -51q22 11 22 44q-19 198 -19 223q0 181 76 181q43 0 67 -78h3q0 66 89 74h22q161 0 161 -19v-28
q0 -6 -13 -16q-135 4 -170 4q-48 0 -48 -51q-17 -51 -41 -51h-10q-15 4 -50 98q-10 4 -10 8q-23 0 -28 -122l19 -223q0 -89 -70 -102q-60 0 -69 109v4q0 61 6 197q-11 129 -29 129q-22 -70 -22 -145l22 -310q0 -81 -75 -91q-76 18 -76 138v16q0 39 6 247q-8 144 -38 149
q-26 0 -35 -118q26 -321 26 -365q0 -143 -70 -165q-3 0 -10 -4q-61 0 -85 114q-3 28 -3 47l28 354v8q0 90 -38 125q-30 -14 -34 -180q0 -36 19 -421q0 -104 -64 -137l-22 -4q-76 0 -76 149v12l22 424q-7 142 -38 157q-28 -57 -28 -168v-32q0 -131 32 -455v-28
q-16 -161 -86 -161q-64 0 -85 130q-7 29 -7 74q0 28 32 346v86q0 127 -25 208h-3q-54 -75 -54 -298q0 -67 35 -389q3 -38 3 -75q0 -152 -57 -188q-12 -7 -32 -12q-76 0 -88 177v20q0 34 28 377q3 51 3 110q0 212 -44 282q-3 0 -10 4q-44 -78 -44 -259v-47q0 -134 51 -519
v-70q0 -139 -79 -173q-18 -4 -26 -4q-107 0 -107 212q6 53 6 193v23q0 26 3 79h-12q0 -483 -86 -538q-37 -20 -88 -20h-7q-99 0 -133 98v8q-92 -94 -161 -94h-28q-157 0 -225 290q-19 82 -19 173v67q0 255 149 703zM453 380q56 0 79 -102h3q26 102 83 102q97 0 114 -177
q3 -170 3 -235l-7 -4q-34 3 -34 12v35q0 232 -23 232q-31 23 -63 23q-47 0 -69 -82h-10q-23 82 -70 82h-6q-73 -16 -73 -90q0 -12 -3 -12q0 -77 63 -173v-4q0 -14 -44 -19q-85 0 -123 121q-3 27 -3 44v15q0 22 19 165q0 6 -13 16h-3q-13 -6 -13 -27v-16l3 -39
q-31 -36 -35 -36h-3l-3 47v12q9 102 67 102q50 -7 50 -63q-16 -130 -16 -149q9 -126 42 -126v4q-26 65 -26 122q0 183 89 216q12 4 25 4zM785 262q0 -9 3 -15q4 -181 4 -279v-150q0 -5 9 -11h3q3 53 3 78v208q0 114 -15 169h-7zM852 -295q-3 -99 -7 -303q9 -98 54 -98h7
q53 0 53 126v15q0 79 -19 197q-47 0 -63 39z" />
    <glyph glyph-name="quotedblright" unicode="&#x201d;" horiz-adv-x="468" 
d="M227 351q-4 0 -11.5 -3t-11.5 -4q-36 1 -36 50q0 21 13 39q13 20 30 20q25 0 43 -33q14 -28 14 -62q0 -53 -20 -89.5t-65 -58.5v27q24 21 37 43t13 47zM347 343q-34 12 -34 53q0 57 43 57q56 0 56 -97q0 -103 -85 -145v26q49 42 49 91q0 4 -1 9.5t-2 15.5z" />
    <glyph glyph-name="percent" unicode="%" 
d="M-377 863h11q101 0 155 -83l2 -14v-6q0 -38 -105 -62q-180 -73 -215 -73q-7 3 -7 6v6q21 32 170 89q53 24 54 32v8q0 18 -76 30h-4q-92 0 -164 -90q-24 -40 -24 -71q0 -13 18 -89v-8q0 -20 -31 -26h-4q-67 0 -94 89q-4 20 -4 36q0 2 4 53v6l-19 -8q-8 3 -9 8v4
q0 26 46 38h8q14 0 14 -18q-11 -65 -11 -75q0 -64 48 -91h8v6q-24 54 -24 83v10q0 94 109 172q69 38 144 38zM-155 853q64 0 125 -125q17 -52 17 -99v-20q-2 -45 -11 -45q-11 10 -26 88q-35 86 -91 116q0 -51 -31 -51q-34 8 -34 34v3q7 99 43 99h8z" />
    <glyph glyph-name="softhyphen" unicode="&#xad;" horiz-adv-x="546" 
d="M397 -4l-128 179l-134 -179h-90l179 239l-155 215h90l111 -153l115 153h87l-159 -214l174 -240h-90z" />
    <glyph glyph-name="ampersand" unicode="&#x26;" 
d="M-425 909h26q124 0 177 -128q4 -20 4 -34v-23q0 -85 -98 -165h-4q-7 0 -7 11q0 7 60 109q4 44 8 49q0 85 -136 109q-11 0 -26 4q-124 -15 -124 -105q0 -56 75 -68q15 -16 15 -30v-4q-16 -64 -83 -64q-105 13 -105 102v11q2 23 11 23h8q8 -6 30 -68q27 -19 45 -19
q7 4 11 4v4q-67 58 -67 105v19q0 105 124 150q35 8 56 8zM-155 853q64 0 125 -125q17 -52 17 -99v-20q-2 -45 -11 -45q-11 10 -26 88q-35 86 -91 116q0 -51 -31 -51q-34 8 -34 34v3q7 99 43 99h8z" />
    <glyph glyph-name="quotedblbase" unicode="&#x201e;" horiz-adv-x="356" 
d="M113 98q-4 -12 2 -15.5t11 -6.5q6 -3 25 -8t24 -5q9 0 26 4.5t23 6.5q8 1 13.5 7t2.5 15l-56 209q-7 5 -14 0zM49 88l104 361q11 15 24 15t21 -15l104 -361q11 -34 -5 -52t-34 -23q-20 -10 -43 -13.5t-46 -3.5h4q-23 0 -47 3.5t-45 13.5q-10 5 -19.5 10t-15 14t-6.5 20
t4 31z" />
    <glyph glyph-name="quotesingle" unicode="'" horiz-adv-x="292" 
d="M172 256q21 17 31.5 35.5t10.5 37.5q0 4 -1.5 10t-2.5 12q-5 -1 -14 -3.5t-15 -4.5q-33 9 -33 47q0 51 44 51q27 0 43 -31q6 -13 10 -26.5t4 -28.5q0 -89 -70 -122z" />
    <glyph glyph-name="bullet" unicode="&#x2022;" horiz-adv-x="298" 
d="M107 211q-3 0 -5.5 2t-2.5 5l3 41q0 4 2 6t6 2l148 1q3 0 5.5 -2.5t2.5 -5.5l-3 -41q0 -3 -2 -5.5t-6 -2.5h-148zM175 294q-51 0 -51 54q0 21 14.5 35t36.5 14q20 0 35 -15t15 -34q0 -24 -13.5 -39t-36.5 -15zM175 87q-51 0 -51 54q0 21 14.5 35t36.5 14q20 0 35 -15
t15 -34q0 -23 -13.5 -38.5t-36.5 -15.5z" />
    <glyph glyph-name="hyphenminus" unicode="-" horiz-adv-x="550" 
d="M103 182l-2 82l395 2l2 -82z" />
    <glyph glyph-name="perthousand" unicode="&#x2030;" 
d="M-353 1140q13 -23 13 -43l-5 -28q20 -34 20 -43q0 -10 -5 -36q2 -4 2 -8l-5 -3h-33q-5 0 -5 5v4l13 43q-10 35 -10 38v2q0 5 15 40v4q0 6 -5 23zM-455 1046v-4q-56 -53 -56 -94q0 -60 107 -78q34 -2 43 -2q123 0 148 69q2 12 2 20v14q0 22 -43 73h5q74 -32 74 -87v-5
q0 -73 -99 -109q-29 -11 -92 -11q-150 0 -185 92q-3 8 -3 17v3q0 74 99 102zM-357 974h13q71 -7 71 -48v-4q0 -39 -66 -46h-13q-63 0 -74 41v9q0 41 69 48zM-405 922q0 -31 56 -31h12q37 0 43 28v5q0 26 -58 26q-53 -4 -53 -28zM-372 816h25q115 0 165 -120q3 -19 3 -31v-21
q0 -80 -91 -155h-4q-7 0 -7 11q0 6 57 102q3 40 7 45q0 79 -127 102q-11 0 -25 4q-116 -15 -116 -99q0 -52 71 -63q14 -15 14 -28v-4q-16 -59 -78 -59q-98 11 -98 94v11q2 21 11 21h7q7 -5 28 -63q25 -18 42 -18q7 4 10 4v3q-63 55 -63 99v17q0 98 116 141q33 7 53 7z" />
    <glyph glyph-name="quotesinglbase" unicode="&#x201a;" horiz-adv-x="815" 
d="M708 379l46 4q0 -69 -23 -126t-66 -98.5t-104.5 -64t-139.5 -22.5q-76 0 -136.5 22.5t-104 63.5t-67 98t-24.5 127l47 -4q12 -62 40 -103t66 -66t84 -35.5t95 -10.5t95.5 10.5t85 35.5t66.5 66t40 103z" />
    <glyph glyph-name="ntilde" unicode="&#xf1;" 
d="M-312 -538l-4 4l2.5 -2.5zM-759 -104h9q45 -10 45 -55v-16l-15 -156q0 -90 30 -113h6q-21 91 -21 151q0 135 72 176q11 9 24 9h9q56 0 78 -97v-12l30 75q23 34 60 34q93 0 108 -194v-12q0 -72 -33 -168h3q26 0 45 218q42 147 141 147q100 0 144 -180q3 -29 3 -47v-8
q0 -162 -99 -202q-4 -4 -21 -4h-3q-60 0 -60 59v4q0 46 27 46h12q51 -29 60 -29q47 28 48 109q0 92 -78 130q-4 0 -30 5q-97 0 -144 -227q-31 -72 -69 -72h-12q-6 0 -6 9q0 12 33 130q6 44 6 55q0 97 -84 113h-3q-44 0 -75 -84q-33 84 -78 84q-75 -17 -75 -105
q0 -87 63 -181v-4q0 -6 -18 -21h-18q-86 0 -120 122q-6 18 -6 67q0 17 18 181q-3 17 -18 17q-9 -15 -9 -34q3 -52 3 -55q-30 -37 -33 -37h-3q-3 42 -3 63q11 109 57 109z" />
    <glyph glyph-name="ydieresis" unicode="&#xff;" horiz-adv-x="501" 
 />
    <glyph glyph-name="odieresis" unicode="&#xf6;" horiz-adv-x="975" 
d="M523 1057q21 -40 21 -73l-8 -49q32 -57 32 -73q0 -18 -8 -61q4 -7 4 -15l-8 -4h-53q-8 0 -8 8v7l20 73q-16 60 -16 65v4q0 9 24 68v8q0 10 -8 38zM361 897v-8q-90 -90 -90 -160q0 -104 171 -134q55 -4 69 -4q197 0 236 118q4 21 4 35v23q0 38 -69 126h8q118 -55 118 -149
v-8q0 -125 -159 -187q-46 -19 -146 -19q-240 0 -297 157q-4 14 -4 30v4q0 127 159 176zM517 773h20q114 -12 114 -82v-8q0 -65 -106 -78h-20q-100 0 -118 71v15q0 69 110 82zM440 683q0 -52 89 -52h20q59 0 69 49v7q0 45 -93 45q-85 -6 -85 -49zM265 456q165 0 227 -181
q4 -22 4 -41l-8 -5q-6 0 -85 116q-52 53 -134 53q-72 0 -147 -94q-28 -51 -28 -95v-4q15 -157 154 -157q86 0 86 54q0 33 -106 33h-16q-25 4 -25 20q0 23 102 29q28 23 28 50q-10 37 -57 37q-28 -6 -28 -17q8 -29 8 -33q0 -5 -20 -20h-16q-25 16 -25 41v16q0 59 94 74
q81 -14 81 -78v-20q0 -31 -29 -62q49 -38 49 -79q0 -101 -126 -123h-20q-133 0 -179 160q-4 36 -4 58v29q0 130 118 210q55 29 102 29zM769 407h20q101 0 126 -149q4 -26 4 -57v-219q0 -8 -8 -8h-37q-8 0 -8 8v103q0 210 -28 210l-4 -8v-41q0 -26 4 -62q0 -61 -45 -144
q28 -94 28 -132h-8q-7 1 -48 99h-9q-42 -37 -122 -37q-166 0 -215 128l-4 41q5 49 16 49h4q7 0 53 -74q58 -41 146 -41q34 0 82 12q-35 54 -61 54q-14 -29 -21 -29h-8q-8 0 -8 12q0 37 37 83q50 -12 101 -95q33 21 33 91q0 86 -29 201z" />
    <glyph glyph-name="otilde" unicode="&#xf5;" horiz-adv-x="1393" 
d="M265 456q165 0 227 -181q4 -22 4 -41l-8 -5q-6 0 -85 116q-52 53 -134 53q-72 0 -147 -94q-28 -51 -28 -95v-4q15 -157 154 -157q86 0 86 54q0 33 -106 33h-16q-25 4 -25 20q0 23 102 29q28 23 28 50q-10 37 -57 37q-28 -6 -28 -17q8 -29 8 -33q0 -5 -20 -20h-16
q-25 16 -25 41v16q0 59 94 74q81 -14 81 -78v-20q0 -31 -29 -62q49 -38 49 -79q0 -101 -126 -123h-20q-133 0 -179 160q-4 36 -4 58v29q0 130 118 210q55 29 102 29zM769 407h20q101 0 126 -149q4 -26 4 -57v-219q0 -8 -8 -8h-37q-8 0 -8 8v103q0 210 -28 210l-4 -8v-41
q0 -26 4 -62q0 -61 -45 -144q28 -94 28 -132h-8q-7 1 -48 99h-9q-42 -37 -122 -37q-166 0 -215 128l-4 41q5 49 16 49h4q7 0 53 -74q58 -41 146 -41q34 0 82 12q-35 54 -61 54q-14 -29 -21 -29h-8q-8 0 -8 12q0 37 37 83q50 -12 101 -95q33 21 33 91q0 86 -29 201zM1007 571
h15q190 0 305 -160q36 -82 36 -129v-18q0 -210 -178 -284q-48 -15 -87 -15h-5q-128 0 -152 99v5q0 50 50 66q49 0 133 -84l25 -5q90 0 132 137q0 10 6 51q0 193 -215 251q-82 15 -121 15q-92 0 -245 -48h-10v5q99 114 311 114z" />
    <glyph glyph-name="Eth" unicode="&#xd0;" 
d="M-623 -99q84 0 84 -100v-92q33 0 33 35q0 88 102 144q42 13 70 13h23q157 0 206 -148q9 -19 9 -70v-183q0 -48 -14 -48h-42q-9 0 -9 9v170q0 174 -145 174h-14q-112 0 -112 -91q205 -29 205 -157q0 -105 -116 -105q-77 0 -145 92l-18 56h-38q0 -139 -70 -139h-4
q-117 12 -117 91v9q0 93 126 144v83q0 51 -28 65q-23 -8 -23 -35v-35l4 -21l-56 -40h-4v26q0 10 -5 18q18 135 98 135zM-674 -452q3 -12 23 -22h23q20 0 24 61v9q-70 -19 -70 -48zM-436 -409q47 -91 116 -91q37 9 37 30q0 50 -153 66v-5z" />
    <glyph glyph-name="Ntilde" unicode="&#xd1;" 
d="M-398 -91h9q74 0 120 -37l5 -6v-9q0 -4 -11 -6q-33 4 -49 4h-25q-93 0 -161 -72q-43 -60 -43 -124q0 -63 49 -108q24 -17 41 -17h2q4 0 4 5v2q-33 65 -33 72v17q0 85 110 132q39 8 67 8h2q137 0 219 -111q34 -57 34 -116v-13q-2 -37 -16 -43h-6q-10 0 -34 89
q-62 109 -181 109q-90 0 -110 -64v-16q0 -23 33 -98v-6q0 -33 -67 -37h-13q-86 0 -157 101q-29 58 -29 114v4q0 115 101 185q63 41 139 41z" />
    <glyph glyph-name="Ograve" unicode="&#xd2;" 
d="M-624 -85h8q35 0 54 -8q-4 -90 -4 -133v-5q0 -170 41 -170q0 -8 37 -13q51 0 87 96q15 13 29 13h17q25 0 45 -75q0 -34 50 -42q57 0 66 87v25q0 64 -145 167v4q37 54 83 54h25q98 0 153 -141q17 -61 17 -154v-125q0 -8 -8 -8h-38q-8 0 -8 8v66q0 215 -45 229
q-25 38 -54 38h-17q91 -68 91 -154v-21q0 -144 -103 -183h-13q-87 8 -87 79q-16 41 -29 42q-22 -3 -62 -88q-29 -25 -58 -25q-79 0 -137 100q-12 41 -12 108q0 59 4 208q5 21 13 21z" />
    <glyph glyph-name="Oacute" unicode="&#xd3;" 
d="M-288 -85h13q152 0 205 -170q9 -33 9 -72v-186q0 -9 -13 -9q-39 3 -39 13v13q0 233 -27 233q-54 51 -162 51q-91 0 -91 -47v-12q157 -15 157 -102v-30q-31 -123 -127 -123q-4 -4 -35 -4h-17q-126 0 -175 102q-13 49 -13 84l26 187q-7 17 -13 17h-9q-18 -6 -18 -34
q5 -53 5 -55l-48 -38h-5q-4 42 -4 63q16 111 83 111h13q66 -10 66 -56v-17l-22 -156q0 -94 92 -94q0 -4 65 -8q79 8 79 25v5q0 18 -105 21q-61 35 -61 114q0 111 109 166q33 8 62 8z" />
    <glyph glyph-name="Ocircumflex" unicode="&#xd4;" 
d="M-312 -506q58 -12 136 -114q64 -120 64 -176q8 -17 8 -42v-5q0 -5 -5 -5q-12 10 -75 136q-74 117 -123 134h-3q-27 -36 -32 -37h-8q-7 2 -7 15v5q0 22 35 82zM-133 20h42l8 -4q5 -77 5 -113v-41q45 0 118 -76v-4q0 -8 -8 -8q-28 12 -110 37v-8q0 -429 -98 -509
q-61 -79 -194 -79h-22q-203 0 -266 154q-17 49 -17 100v5q0 259 322 383q79 17 118 17h102l-5 29v42q0 22 -4 71zM-612 -501v-5q0 -113 132 -162q44 -13 88 -13h43q135 0 173 113q43 163 43 388q-31 8 -72 8q-168 0 -326 -142q-81 -105 -81 -187z" />
    <glyph glyph-name="Otilde" unicode="&#xd5;" 
d="M-775 -143v0q8 0 8 -16v-2q0 -4 -6 -72v-14q0 -93 62 -137q36 -29 80 -41q80 -26 153 -26h2q84 0 151 32h3v1l-21 27q-29 49 -29 84q0 39 37 64q27 16 61 16h4q62 0 88 -49q8 -15 8 -36q0 -54 -44 -97l-12 -13q22 -9 50 -13q10 0 18 -2q39 0 82 29q26 21 44 42q10 9 16 9
t6 -7v-5q0 -22 -22 -62q-6 -13 -32 -37q-40 -29 -86 -29h-2q-56 0 -113 32l-1 2v0q-56 -41 -83 -50q-62 -28 -133 -28q-83 0 -153 28q-30 12 -70 43q-38 31 -54 55q-18 25 -28 51q-16 46 -16 91v11q0 50 18 103q6 16 14 16zM-316 -349v-4q0 -18 37 -50h5h1q29 10 41 31
q8 13 8 23q0 26 -32 34q-6 2 -13 2q-29 0 -43 -25q-4 -6 -4 -11z" />
    <glyph glyph-name="Odieresis" unicode="&#xd6;" 
d="M-311 -281q67 -40 103 -146q8 -38 8 -58v-14h-4q-20 46 -65 105q-20 21 -44 41q-17 0 -40 -41h-4v6q0 55 44 107h2zM-298 -96q193 0 228 -170q9 -40 9 -114v-153q0 -8 -9 -8h-35q-9 0 -9 8v64q0 182 -30 182q-52 68 -158 68q-129 0 -163 -76q-9 -17 -13 -51
q0 -47 88 -174q0 -6 -18 -17h-61q-158 36 -158 178v4q0 34 26 187v4q0 4 -17 17q-22 -7 -22 -38q4 -53 4 -55q-6 0 -48 -38q-9 19 -9 55v4q12 119 92 119q70 -10 70 -64v-8l-22 -149v-29q0 -98 66 -115h5q-53 67 -53 132v21q7 154 136 199q36 17 101 17z" />
    <glyph glyph-name="multiply" unicode="&#xd7;" horiz-adv-x="760" 
d="M348 269h1q19 0 72 -66q30 -42 52 -96q26 -72 26 -135q0 -24 -3 -24q-3 4 -26 51q-26 50 -71 110q-22 27 -53 52q-4 3 -6 3q-12 0 -37 -44q-9 -13 -14 -13h-1q-3 0 -3 8v8q0 47 27 108q21 38 36 38zM481 435h50q134 -29 134 -212v-224q0 -9 -10 -9h-45q-9 0 -9 9v84
q0 238 -35 238l-5 -9v-68q0 -15 5 -38q-32 -220 -238 -220h-10q-205 0 -263 127l-5 42v17q6 43 20 43q7 0 74 -81q56 -34 159 -34q183 8 183 51q15 0 20 76q0 75 -34 204z" />
    <glyph glyph-name="Oslash" unicode="&#xd8;" horiz-adv-x="606" 
d="M348 269h1q19 0 72 -66q30 -42 52 -96q26 -72 26 -135q0 -24 -3 -24q-3 4 -26 51q-26 50 -71 110q-22 27 -53 52q-4 3 -6 3q-12 0 -37 -44q-9 -13 -14 -13h-1q-3 0 -3 8v8q0 47 27 108q21 38 36 38zM481 435h50q134 -29 134 -212v-224q0 -9 -10 -9h-45q-9 0 -9 9v84
q0 238 -35 238l-5 -9v-68q0 -15 5 -38q-32 -220 -238 -220h-10q-205 0 -263 127l-5 42v17q6 43 20 43q7 0 74 -81q56 -34 159 -34q183 8 183 51q15 0 20 76q0 75 -34 204zM749 585h15q190 0 305 -160q36 -82 36 -129v-18q0 -210 -178 -284q-48 -15 -87 -15h-5
q-128 0 -152 99v5q0 50 50 66q49 0 133 -84l25 -5q90 0 132 137q0 10 6 51q0 193 -215 251q-82 15 -121 15q-92 0 -245 -48h-10v5q99 114 311 114z" />
    <glyph glyph-name="Ugrave" unicode="&#xd9;" 
d="M-133 20h42l8 -4q5 -77 5 -113v-41q45 0 118 -76v-4q0 -8 -8 -8q-28 12 -110 37v-8q0 -429 -98 -509q-61 -79 -194 -79h-22q-203 0 -266 154q-17 49 -17 100v5q0 259 322 383q79 17 118 17h102l-5 29v42q0 22 -4 71zM-612 -501v-5q0 -113 132 -162q44 -13 88 -13h43
q135 0 173 113q43 163 43 388q-31 8 -72 8q-168 0 -326 -142q-81 -105 -81 -187z" />
    <glyph glyph-name="Uacute" unicode="&#xda;" 
d="M-75 -26q15 -4 15 -19q0 -127 -360 -192q-120 -43 -120 -115v-17q0 -84 112 -118q42 -11 83 -11q175 0 221 96q23 51 23 148v91q0 5 11 5q28 0 30 -49q0 -249 -49 -269q-67 -82 -214 -82h-7q-193 0 -263 118q-15 35 -15 71v6q0 151 300 205q129 20 173 55q26 25 41 74
l4 3h15z" />
    <glyph glyph-name="Ucircumflex" unicode="&#xdb;" 
d="M-99 -588h13l12 -12q-16 -59 -136 -113l-58 -8h-25l-161 20q-62 -9 -62 -51v-8q0 -82 186 -82h17q170 0 198 117q5 63 16 63h4q17 -5 17 -35v-12q0 -128 -145 -183q-60 -12 -115 -12h-4q-244 0 -244 144v4q0 89 107 113h21l206 -23q85 0 153 78z" />
    <glyph glyph-name="Yacute" unicode="&#xdd;" horiz-adv-x="100" 
d="M-11 436h17q74 0 100 -162q8 -74 8 -187v-96q0 -386 -12 -840l-30 -21h-8q4 734 4 915q0 291 -33 291h-4q12 -212 12 -570v-154q0 -167 -20 -295q25 -43 25 -67l-9 -4q-7 0 -29 25q-23 -88 -91 -141q-47 -21 -96 -21q-148 0 -187 137q-4 16 -4 34v16q0 102 96 146
q24 12 87 16q90 0 166 -79h4q13 82 13 138v8q0 816 -17 907zM-293 -704q0 -83 108 -91h25q88 0 124 108v12q-66 71 -141 71q-101 0 -116 -100zM229 572l28 -2q154 -12 238 -184q18 -72 14 -113l-1 -16q-20 -208 -197 -249q-21 -2 -36 -1h-8q-100 9 -129 91l1 16q13 59 57 56
l8 -1q44 -4 82 -79l27 -14q67 -6 116 99q11 31 14 67q14 178 -161 250q-58 12 -87 15h-8q-81 7 -212 -43l-3 9q112 111 257 99z" />
    <glyph glyph-name="ae" unicode="&#xe6;" horiz-adv-x="756" 
d="M481 435h50q134 -29 134 -212v-224q0 -9 -10 -9h-45q-9 0 -9 9v84q0 238 -35 238l-5 -9v-68q0 -15 5 -38q-32 -220 -238 -220h-10q-205 0 -263 127l-5 42v17q6 43 20 43q7 0 74 -81q56 -34 159 -34q183 8 183 51q15 0 20 76q0 75 -34 204z" />
    <glyph glyph-name="ccedilla" unicode="&#xe7;" horiz-adv-x="596" 
d="M481 435h50q134 -29 134 -212v-224q0 -9 -10 -9h-45q-9 0 -9 9v84q0 238 -35 238l-5 -9v-68q0 -15 5 -38q-32 -220 -238 -220h-10q-205 0 -263 127l-5 42v17q6 43 20 43q7 0 74 -81q56 -34 159 -34q183 8 183 51q15 0 20 76q0 75 -34 204zM749 585h15q190 0 305 -160
q36 -82 36 -129v-18q0 -210 -178 -284q-48 -15 -87 -15h-5q-128 0 -152 99v5q0 50 50 66q49 0 133 -84l25 -5q90 0 132 137q0 10 6 51q0 193 -215 251q-82 15 -121 15q-92 0 -245 -48h-10v5q99 114 311 114z" />
    <glyph glyph-name="asterisk" unicode="*" 
d="M-424 935q93 0 182 -182q25 -77 25 -144v-29q-3 -66 -17 -66q-15 14 -37 128q-51 126 -132 169q0 -74 -45 -74q-50 11 -50 49v5q10 144 62 144h12z" />
    <glyph glyph-name="bracketleft" unicode="[" horiz-adv-x="797" 
d="M225 440h9q46 -6 46 -38v-12q-64 -174 -64 -193v-9q28 -75 92 -75l87 -9q184 0 184 97v25q0 95 -32 201q15 9 27 9q110 0 143 -126q9 -42 9 -84v-222q0 -9 -9 -9h-42q-9 0 -9 9v113q0 160 -23 201h-14v-16q0 -45 5 -93q0 -161 -170 -214q-30 -4 -60 -4q-221 0 -262 159
v30q0 54 60 189q-5 7 -5 16h-13q-28 -17 -28 -42v-25l5 -8l-69 -38q-5 8 -5 13q20 151 110 151q0 4 28 4zM443 277h1q19 0 72 -66q30 -42 52 -96q26 -72 26 -135q0 -24 -3 -24q-3 4 -26 51q-26 50 -71 110q-22 27 -53 52q-4 3 -6 3q-12 0 -37 -44q-9 -13 -14 -13h-1
q-3 0 -3 8v8q0 47 27 108q21 38 36 38z" />
    <glyph glyph-name="eight" unicode="8" horiz-adv-x="750" 
d="M476 666h13q63 0 107 -122h9q28 0 58 98q0 4 4 4q29 -28 29 -58v-12q0 -67 -75 -110q13 -60 13 -118v-21q0 -322 -261 -322h-5q-186 0 -248 143q-13 52 -13 77v4q0 39 25 204q0 17 -17 25h-4q-10 0 -16 -33v-4q0 -20 4 -61l-46 -41h-4q-4 41 -4 61v4q11 123 87 123h8
q58 -17 58 -57v-17q0 -34 -20 -151q0 -179 207 -179h8q120 0 162 130q17 46 25 139l-8 82h-17q-96 0 -145 94q-4 15 -4 32v17q15 69 70 69zM451 593v-13q50 -49 108 -49q-25 63 -74 82h-5q-25 -8 -29 -20z" />
    <glyph glyph-name="U" unicode="U" 
d="M-90 -7v-4q-107 -107 -107 -167q0 -30 90 -76q48 -56 48 -100v-12q0 -116 -114 -356q-48 -79 -75 -79h-4q-55 16 -55 121v17q0 90 34 209h38v-4q-21 -106 -27 -184q3 -35 14 -67h13q32 0 111 259q6 45 6 59q0 41 -89 96q-45 42 -45 83q0 106 128 205h34z" />
    <glyph glyph-name="circumflexmod" unicode="&#x2c6;" horiz-adv-x="556" 
d="M269 66q-44 0 -84.5 14t-71.5 38.5t-49.5 58t-18.5 71.5t12.5 73t39.5 62t69.5 42.5t102.5 15.5q59 0 102 -15.5t70.5 -42t40 -61.5t12.5 -74q0 -35 -18 -68.5t-49.5 -58.5t-72 -40t-85.5 -15zM271 139q77 0 115.5 28.5t39.5 80.5q0 24 -13 42.5t-35 31t-50.5 19
t-58.5 6.5q-31 0 -58 -6t-48 -18.5t-34 -31t-15 -43.5q-1 -24 9 -43.5t30.5 -34t50 -23t67.5 -8.5z" />
    <glyph glyph-name="OE" unicode="&#x152;" horiz-adv-x="810" 
d="M227 440q44 -8 44 -42q-64 -159 -64 -191q0 -75 80 -100h4q47 0 68 50q5 30 40 59h20q38 0 56 -92q26 -25 48 -25q55 0 64 87v25q0 62 -152 167v4q38 51 84 58q141 0 188 -154q12 -49 12 -112v-171q0 -8 -8 -8h-40q-8 0 -8 8v146q0 149 -76 195q-15 9 -32 9h-4
q92 -72 92 -179q0 -126 -100 -183h-16q-65 0 -88 62q0 33 -28 59q-21 0 -64 -88q-21 -25 -64 -25q-119 0 -148 175q0 55 56 199v9q0 8 -12 8q-28 -10 -28 -50v-12l4 -9q-52 -33 -68 -33v4q0 121 104 150h36z" />
    <glyph glyph-name="plus" unicode="+" horiz-adv-x="550" 
d="M298 191v-195h-53v195h-200v52h200v196h53v-196h202v-52h-202z" />
    <glyph glyph-name="slash" unicode="/" horiz-adv-x="239" 
d="M-153 977h4q176 0 240 -215q16 -72 16 -182v-28q0 -348 -4 -794q0 -308 56 -388q41 -32 68 -32h20q75 0 88 137v4q0 31 -24 137v5q0 11 16 14q76 -38 76 -192q0 -156 -124 -219l-28 -5h-20q-107 0 -168 128q-28 76 -28 256q16 684 16 803v32q0 311 -84 393
q-59 50 -128 50q-119 0 -168 -114q-8 -41 -8 -59v-19q0 -70 72 -141l8 -32v-5q-8 -50 -40 -50h-8q-48 0 -112 128q-12 61 -12 87v4q0 213 176 279q36 18 100 18z" />
    <glyph glyph-name="Zcaron" unicode="&#x17d;" 
d="M-599 -103q66 0 66 -128v-48h20q13 176 140 176h16q122 0 164 -128q7 -16 11 -76q0 -29 -15 -136q35 38 35 120v8q0 95 -66 196q12 8 23 8h8q148 0 148 -192v-136l27 -4q80 24 94 24q86 -15 86 -124l-8 -4q-25 56 -74 56q-102 -28 -117 -28h-8q-58 0 -58 56q3 138 3 168
q0 104 -42 104q27 -45 27 -112v-16q-22 -196 -94 -196h-19q-16 8 -16 24q16 101 16 160v4q0 140 -129 140q-66 0 -90 -68q0 -7 -8 -24q131 0 168 -112v-48q0 -72 -94 -80q-54 0 -109 84q-16 42 -16 52h-27v-4q0 -124 -58 -124h-12q-86 17 -86 84v20q0 74 98 116v76
q0 54 -28 68q-19 -7 -19 -32v-32l4 -20q-34 -32 -51 -32l-4 24v36q17 100 94 100zM-642 -423v-12q6 -16 27 -16h8q19 11 19 64v4q-29 -6 -54 -40zM-455 -387v-4q41 -84 90 -84q19 0 31 20v4q-20 64 -113 64h-8z" />
    <glyph glyph-name="tildemod" unicode="&#x2dc;" horiz-adv-x="164" 
d="M150 927l-67 -1zM-283 -669q-296 -109 -434 -1t-126 353q4 99 38 341l11 -3q-21 -213 -24 -285q-12 -247 120 -332t419 14zM-15 436h16q69 0 100 -133q13 -81 13 -261v-86q-7 -832 -15 -832q-7 -9 -17 -9q-19 0 -19 83v12q6 502 6 660v24q0 421 -17 421q-7 17 -21 23
q-1 -23 -3 -23q13 -106 13 -575v-148q0 -339 -75 -424q-58 -59 -145 -59h-5q-102 0 -160 68q-24 49 -24 101v3q0 95 83 136q139 19 159 36q18 18 26 71l4 3h24q4 -1 4 -6q0 -115 -71 -157l-113 -18q-28 -19 -28 -42v-11q0 -54 81 -54h20q124 0 150 92q27 100 27 258
q-5 817 -15 817q-4 16 -4 24z" />
    <glyph glyph-name="euro" unicode="&#x20ac;" horiz-adv-x="565" 
d="M420 -4l-137 190l-142 -190h-96l191 255l-165 229h95l119 -163l122 163h93l-169 -228l185 -256h-96z" />
    <glyph glyph-name="two" unicode="2" horiz-adv-x="870" 
d="M116 451h4q66 -11 66 -58v-12l-33 -173q12 -136 54 -136v4q-29 61 -29 128v24q10 169 99 202l37 9q98 0 149 -124h4q34 124 124 124h4q157 0 157 -306v-8q0 -193 -25 -313h5q31 7 103 37h4q0 -81 -62 -103q-74 -13 -74 -42q-69 -294 -240 -490q-24 -21 -41 -21l-13 25
q25 90 25 119q0 103 -215 235q-103 83 -103 165v33q37 165 186 165q65 0 256 -107q46 -25 99 -25h21v5q20 153 20 243q0 260 -107 260h-16q-60 0 -116 -99h-4q-49 111 -128 111q-91 -17 -91 -132v-12q0 -49 53 -157v-8q-18 -17 -45 -17q-161 31 -161 186q0 41 37 202
q-8 19 -17 21h-4q-14 0 -20 -50q4 -22 4 -41q-43 -37 -54 -37v58q14 115 87 115zM203 -271q0 -80 140 -152q141 -90 141 -227q68 69 169 338l4 29h-54q-92 0 -239 86q-39 13 -71 13q-90 -17 -90 -87z" />
    <glyph glyph-name="zcaron" unicode="&#x17e;" horiz-adv-x="767" 
d="M403 598q21 -40 21 -73l-8 -49q32 -57 32 -73q0 -18 -8 -61q4 -7 4 -15l-8 -4h-53q-8 0 -8 8v7l20 73q-16 60 -16 65v4q0 9 24 68v8q0 10 -8 38zM241 438v-8q-90 -90 -90 -160q0 -104 171 -134q55 -4 69 -4q197 0 236 118q4 21 4 35v23q0 38 -69 126h8q118 -55 118 -149
v-8q0 -125 -159 -187q-46 -19 -146 -19q-240 0 -297 157q-4 14 -4 30v4q0 127 159 176zM397 314h20q114 -12 114 -82v-8q0 -65 -106 -78h-20q-100 0 -118 71v15q0 69 110 82zM320 224q0 -52 89 -52h20q59 0 69 49v7q0 45 -93 45q-85 -6 -85 -49z" />
    <glyph glyph-name="three" unicode="3" horiz-adv-x="870" 
d="M129 450h8q60 0 67 -71q-33 -166 -33 -187q0 -113 62 -142h5v4q-42 65 -42 146q0 197 138 250h25q96 0 126 -104q8 -27 8 -29h4q0 52 71 112q39 13 59 13q105 0 159 -154q17 -66 17 -113v-25q0 -274 -218 -366q-92 -34 -293 -63q-188 -45 -188 -179q0 -118 96 -195h4v4
q-4 66 -4 79q0 158 180 216q55 9 80 9q157 0 247 -159q16 -47 16 -95q-29 -196 -83 -196l-9 12v17q38 103 38 121v12q0 135 -201 159q-123 0 -180 -92q-21 -40 -21 -87q0 -21 29 -117q-6 -17 -12 -17h-25q-68 13 -147 134q-54 102 -54 170v50q0 167 205 267q72 25 301 66
q115 39 143 92q42 62 42 154q0 140 -114 162h-33q-47 0 -105 -87h-12q-53 92 -122 92q-89 0 -109 -125q0 -85 101 -171q0 -4 4 -13q0 -25 -67 -29h-8q-109 0 -168 113q-17 34 -17 79q0 55 38 212q-4 15 -17 25q-22 0 -25 -54l4 -42l-50 -37l-4 8v63q22 108 84 108z" />
    <glyph glyph-name="ellipsis" unicode="&#x2026;" 
d="M-361 -60h17q156 0 258 -164q34 -80 34 -221v-292q0 -10 -11 -10h-45l-11 5q5 186 5 282v41q0 257 -191 303q-22 5 -45 5h-11q1 -9 118 -62q118 -81 118 -241v-31q0 -229 -169 -292q-30 -5 -44 -5q-23 26 -23 31q4 16 84 113q34 72 34 112v52q0 65 -95 82h-29
q-41 0 -95 -93h-17q-45 103 -95 103h-17q-96 0 -96 -113q0 -93 107 -225l6 -36l-28 -21h-17q-163 0 -214 164q-11 60 -11 72q6 62 34 205q-6 26 -23 36q-22 -3 -22 -41v-31l5 -36q-3 0 -56 -51q-11 23 -11 67v5q12 143 107 143q67 0 78 -87q-28 -157 -28 -189v-6q0 -5 -5 -5
q0 -112 84 -138q-62 73 -62 149v46q29 189 73 189q32 36 79 36h22q86 0 101 -118h12q31 113 106 113q118 0 158 -148q7 -58 11 -72q0 -89 -79 -226q84 71 84 210v11q0 200 -118 246q-146 39 -146 87q22 46 79 46z" />
    <glyph glyph-name="four" unicode="4" horiz-adv-x="500" 
d="M262 462h9q100 0 137 -84l4 -31q0 -56 -75 -89v-1q113 -18 113 -107v-3q0 -96 -122 -139q-37 -9 -66 -9h-11q-150 0 -195 130q-11 39 -11 72v42q0 52 22 52q18 0 18 -32q0 -134 73 -156q25 -15 88 -15h40q48 0 84 30q11 15 11 28v20q0 49 -132 59q-100 5 -100 21v2
q0 17 146 22q47 19 47 61q0 57 -85 64h-11q-65 0 -95 -52l11 -28v-5q-3 -21 -22 -21q-21 0 -29 33v13q0 68 91 112q27 11 60 11z" />
    </font>
</defs>
</svg>
