<?xml version="1.0" standalone="no"?>
<!DOCTYPE svg PUBLIC "-//W3C//DTD SVG 1.1//EN" "http://www.w3.org/Graphics/SVG/1.1/DTD/svg11.dtd" >
<svg xmlns="http://www.w3.org/2000/svg" xmlns:xlink="http://www.w3.org/1999/xlink" version="1.1">
<metadata>
Created by FontForge 20161003 at Thu Sep 12 02:59:01 2019
 By www-data
Copyright 2019 I Wayan Sukanta All Right Reserved
</metadata>
<defs>
<font id="BaliJelihjih" horiz-adv-x="0" >
  <font-face 
    font-family="Bali Jelihjih"
    font-weight="400"
    font-stretch="normal"
    units-per-em="2048"
    panose-1="2 11 8 3 5 3 2 2 2 4"
    ascent="1638"
    descent="-410"
    x-height="915"
    cap-height="1935"
    bbox="-1961 -1827 3006 2140"
    underline-thickness="100"
    underline-position="-40"
    unicode-range="U+0020-2122"
  />
<missing-glyph horiz-adv-x="1" 
 />
    <glyph glyph-name=".notdef" horiz-adv-x="1" 
 />
    <glyph glyph-name="five" unicode="5" horiz-adv-x="1180" 
d="M533 987q200 0 325 -177q53 -76 71 -144q36 -113 36 -309q0 -173 -29 -400q-43 -309 -43 -411v-52q0 -272 107 -453q68 -109 68 -132v-15q0 -19 -14 -19q-29 0 -139 158q-33 53 -50 98q-75 200 -75 427v37q0 125 43 396q39 268 39 400q0 200 -82 298q-93 121 -236 121
q-207 0 -317 -223q-29 -68 -29 -143v-26q0 -163 129 -280q82 -67 171 -67h18q57 0 100 22q21 15 32 61q3 11 3 22q0 34 -28 64q-25 12 -104 27q-100 11 -114 22q-25 12 -25 38v0q0 45 57 45q82 -7 97 -7h10q40 0 75 41q25 38 25 64v8q0 45 -39 75q-36 27 -68 27h-3
q-43 0 -54 -30l-4 -8v-4q0 -7 11 -45v-15q0 -19 -21 -38q-15 -11 -25 -11q-54 0 -61 90q-3 12 -3 19q0 83 71 140q46 34 96 34h4q75 0 132 -64q39 -61 39 -136q0 -87 -57 -159q-18 -18 -21 -18v0q28 -27 46 -53q36 -53 36 -117q0 -94 -57 -177q-50 -61 -125 -80
q-40 -7 -75 -7q-157 0 -264 143q-93 155 -93 355q0 252 121 418q114 170 293 170z" />
    <glyph glyph-name="six" unicode="6" horiz-adv-x="1504" 
d="M618 910q124 0 221 -57q48 -27 48 -37q-4 -3 -7 -3v0q-7 0 -93 10h-31q-114 0 -234 -50q-38 -17 -97 -64q-117 -117 -117 -247q0 -127 117 -241q25 -24 42 -30v3q0 97 27 157q62 131 172 174q90 40 197 40h3q176 0 313 -90q62 -50 83 -80q93 -124 93 -254v-4
q0 -87 -17 -117h-7q-17 0 -52 90q-55 124 -213 204q-76 34 -159 34q-124 0 -223 -67q-52 -47 -62 -70q-35 -50 -35 -137v-41q0 -33 -31 -33v0q-51 0 -137 30q-173 67 -245 218q-55 120 -55 227q0 137 93 261q58 67 117 97q131 77 289 77z" />
    <glyph glyph-name="seven" unicode="7" horiz-adv-x="1893" 
d="M1375 1129q70 0 174 -100q40 -44 93 -118q13 -15 15 -15q34 0 62 24q22 29 22 69v5q0 25 -8 69q2 1 4 1q90 -50 122 -138q14 -34 14 -72q0 -102 -86 -155q-12 -7 -43 -20v-1q24 -105 24 -199q0 -149 -67 -291q-27 -49 -73 -101q-40 -42 -67 -56q-59 -33 -142 -33
q-123 0 -224 73q-64 51 -92 159q-16 64 -16 201q0 40 -12 115q-40 146 -193 146q-148 0 -201 -151q-12 -38 -12 -78q0 -143 155 -336q30 -46 30 -72q0 -24 -28 -33q-16 -3 -24 -3q-83 0 -127 16q-77 24 -141 54q-139 70 -185 189q-32 74 -32 186q0 72 26 279q0 7 1 29
q0 47 -22 65q-13 8 -22 8h-4q-53 0 -70 -121q-9 -94 -9 -118q0 -39 37 -84q18 -25 18 -41q-5 -25 -40 -25q-81 0 -108 143q-5 24 -5 52v4q0 102 64 193q44 58 129 84q23 3 32 3q70 0 124 -40q48 -40 48 -117q0 -32 -27 -218q-5 -40 -5 -82v-3q0 -188 82 -238q43 -31 64 -31
q9 2 9 9v5q0 10 -38 75q-45 96 -45 206v22q0 151 60 264q19 34 73 86q68 55 138 65q31 7 59 7q116 0 201 -74q53 -56 64 -119q12 -47 19 -243q9 -69 20 -109q27 -88 91 -131q62 -39 139 -39h5q149 0 219 141q27 63 27 134q0 62 -23 159q0 7 -68 14q-57 12 -99 29
q-64 27 -123 80q-80 85 -80 193v14q0 97 59 129q22 6 38 6zM1381 972v-7q0 -29 70 -66q53 -22 82 -22q15 2 15 6v1q-8 36 -94 100q-27 15 -43 15q-30 -5 -30 -27z" />
    <glyph glyph-name="nine" unicode="9" horiz-adv-x="1714" 
d="M1220 1235q79 0 162 -82q39 -47 62 -88q17 -34 32 -68h2q48 17 66 54q18 34 18 87q0 30 -12 73q2 5 4 5h5q27 -6 63 -68q35 -65 35 -144q0 -113 -46 -175q-2 -4 -20 -32q51 -175 51 -272q0 -113 -37 -236q-109 -293 -309 -293q-136 0 -238 119q-29 42 -43 75
q-17 38 -32 103l-30 194q-4 18 -6 18q-67 -216 -140 -329q-23 -40 -67 -83q-33 -24 -62 -36q-59 -22 -107 -22h-9q-96 0 -198 89q-43 40 -69 117q-40 99 -40 223q0 102 47 261q23 74 23 104v8q0 31 -26 41q-6 1 -9 1h-4q-28 0 -55 -60q-35 -117 -35 -153q0 -19 25 -68
q5 -12 5 -21v-6q0 -14 -26 -17q-66 0 -79 104q-2 15 -2 31v6q0 98 69 187q24 26 43 38q54 31 93 31h8q53 0 105 -44q32 -33 32 -77v-7q0 -43 -44 -180q-26 -103 -26 -155q9 -58 19 -89q17 -45 57 -85q53 -49 124 -49q93 0 154 91q38 51 70 113q50 91 98 258q8 34 22 113
q15 45 44 45q23 0 28 -44q1 -20 1 -35v-42q0 -194 65 -370q20 -48 49 -86q40 -51 128 -73q34 -7 54 -7q75 0 146 69q30 34 45 70q41 92 41 173v0q0 115 -49 203h-2q-31 -10 -59 -10q-131 0 -225 131q-76 94 -76 218q0 81 32 130q19 23 55 23zM1233 1075q0 -50 78 -89
q27 -13 47 -13q10 0 10 9q0 22 -56 79q-43 36 -62 36q-15 0 -17 -21v-1z" />
    <glyph glyph-name="colon" unicode=":" horiz-adv-x="747" 
d="M574 558q-88 -79 -216 -79q-69 0 -114 32.5t-45 97.5q0 66 32.5 101t108.5 32q38 -2 60 -26t40 -74q-12 -20 -37 -37l-31 24q-22 18 -43 16t-26 -30q2 -26 15.5 -36t32.5 -10q49 0 90.5 13.5t76 37.5t62.5 56.5t51 70.5l47 6q-27 -124 -104 -195zM574 196
q-88 -79 -216 -79q-69 0 -114 32.5t-45 97.5q0 66 32.5 101t108.5 31q38 -2 60 -25.5t40 -73.5q-10 -18 -37 -37l-31 24q-22 18 -43 16t-26 -30q2 -26 15.5 -36t32.5 -10q49 0 90.5 13.5t76 37.5t62.5 56.5t51 70.5l47 5q-27 -123 -104 -194z" />
    <glyph glyph-name="semicolon" unicode=";" horiz-adv-x="905" 
d="M408 913h18q108 0 194 -94q89 -108 89 -253q0 -193 -171 -285q-61 -26 -81 -26q3 -3 65 -41q44 -30 86 -79q100 -140 100 -336v-22q0 -169 -93 -705q-87 -544 -87 -638q0 -65 30 -80q7 -3 10 -3h8q34 0 53 58q10 40 16 125q8 107 36 107h4q23 0 29 -73q2 -25 2 -44
q0 -175 -53 -277q-43 -71 -93 -71h-11q-41 0 -89 49q-43 51 -43 190q0 193 94 859q54 369 54 504v21q0 140 -36 231q-18 40 -53 75q-30 28 -71 52q-38 22 -92 38q-112 18 -141 25q-37 17 -37 38v6q0 25 47 35q39 4 123 8q73 11 117 26q48 19 76 41q87 76 87 170v7
q0 110 -122 171q-41 17 -78 17h-10q-81 0 -135 -82q-21 -40 -21 -77v-5q0 -30 26 -59q14 -24 14 -45v-4q0 -45 -41 -63q-6 -2 -11 -2h-6q-28 0 -60 46q-32 51 -32 137q0 135 97 241q52 57 150 82q24 5 42 5z" />
    <glyph glyph-name="less" unicode="&#x3c;" horiz-adv-x="2431" 
d="M873 894q117 0 197 -101q66 -79 66 -256v-205q0 -204 48 -263q40 -31 94 -31q106 0 132 118q7 45 7 83v24q0 52 -29 232q-7 32 -7 70q0 163 109 246q84 52 157 52h22q95 0 190 -59q76 -59 106 -153q14 -55 14 -118v-13q0 -91 -54 -309q-15 -69 -15 -166q0 -163 95 -194
q25 -4 44 -4q84 0 105 62q4 18 4 35q0 24 -22 125v3q0 39 40 45h11q40 0 84 -72q55 -97 55 -167v-14q0 -93 -73 -163q-73 -55 -168 -55h-14q-146 0 -234 90q-95 111 -95 274v10q0 87 47 316q8 45 11 111q0 104 -80 135q-25 7 -47 7q-70 0 -113 -52q-26 -38 -26 -121
q0 -39 11 -236q0 -125 -55 -219q-55 -72 -146 -97q-40 -10 -73 -10h-14q-92 0 -172 62q-88 70 -88 177v18q0 13 15 142q7 55 7 121q0 128 -51 191q-29 20 -76 20v0q-88 0 -121 -107q-4 -17 -4 -49v-45q0 -322 -43 -381q-30 -66 -77 -97q-58 -42 -164 -42q-139 0 -223 84
q-51 59 -51 142v3q0 122 128 215q25 14 40 14q18 0 22 -28l-18 -131v-7q0 -97 76 -122q11 -3 29 -3q59 0 103 45q36 52 36 152v39q0 52 -29 256v45v17q0 177 109 257q81 52 168 52z" />
    <glyph glyph-name="equal" unicode="=" horiz-adv-x="1495" 
d="M218 229v98h1202v-98h-1202zM218 455v98h1202v-98h-1202z" />
    <glyph glyph-name="greater" unicode="&#x3e;" horiz-adv-x="2492" 
d="M939 916h17q142 0 200 -156q16 -36 33 -90h1q2 1 40 84q23 47 61 94q51 56 156 56q150 0 238 -122q88 -112 88 -303q0 -240 -145 -439q-39 -46 -61 -46q-7 0 -10 19q0 45 60 152q60 137 60 244q0 145 -131 218q-55 29 -129 29q-141 0 -209 -162q-12 -24 -15 -25h-4
q-3 2 -30 65q-23 42 -57 73q-77 56 -149 56q-70 0 -165 -68q-60 -61 -60 -161q0 -84 50 -210q25 -46 64 -97l75 -90q1 -2 1 -5v-1q0 -28 -98 -33h-5q-111 0 -232 50q-101 55 -148 175q-27 72 -27 172v24q0 60 23 279q1 14 1 33q0 56 -25 75q-15 7 -26 7q-56 0 -72 -130
q-6 -70 -9 -127q0 -48 37 -91q21 -31 23 -49q0 -26 -44 -29q-87 0 -117 168q-4 48 -4 49q0 110 65 211q55 65 109 83q29 14 64 14q103 0 157 -74q24 -39 24 -100q0 -34 -23 -211q0 -25 -7 -101q0 -221 95 -274q5 -4 26 -16q2 5 2 9q-4 25 -42 124q-36 114 -36 204v28
q0 140 75 280q48 70 93 92q70 43 142 43zM1806 900q149 0 318 -327q86 -174 130 -430q41 -293 41 -498v-37q0 -85 -3 -147q119 -185 119 -393q0 -287 -136 -467q-13 -13 -19 -13h-2q-5 0 -7 17q4 32 34 191q6 34 9 97q0 79 -28 180h-1q-22 -135 -51 -230q-82 -269 -168 -416
q-28 -50 -82 -108q-51 -46 -81 -46q-12 0 -12 11t43 82q62 110 118 282q49 146 91 360q32 197 32 256q1 0 1 1l-38 39q-25 -247 -58 -396q-52 -241 -115 -388q-49 -119 -117 -213q-71 -83 -187 -83h-16q-157 0 -229 122l-79 133q-56 83 -109 83q-70 0 -175 -173
q-31 -48 -71 -90q-65 -63 -172 -63q-223 0 -389 306q-85 165 -85 406v7q0 292 164 622q47 88 121 180q17 16 25 16q16 0 16 -89v-17q0 -53 -42 -125q-126 -254 -126 -483v-32q0 -223 135 -408q46 -55 77 -67q79 -49 148 -49h2q99 0 159 114q58 101 77 131q69 100 151 100
q68 0 123 -59q32 -38 86 -133q84 -130 209 -130q136 0 221 222q28 67 61 227q36 190 36 238q8 69 15 207q-174 92 -268 92q-66 0 -75 -44v-9q0 -25 59 -159q36 -97 36 -173v-22q0 -143 -95 -223q-61 -43 -143 -43q-100 0 -213 105q-132 154 -132 354q0 100 62 245
q25 63 31 63h1q11 0 15 -115q12 -141 32 -183q32 -98 125 -147q36 -18 64 -18h14q55 0 76 45q2 12 2 21q0 42 -57 158q-16 42 -16 83q0 169 151 287q68 49 154 49h4q84 0 177 -42q0 140 -40 406q-60 342 -109 462q-23 68 -94 209q-6 22 -6 33q0 30 48 43q9 2 33 3zM1961 583
q-1 -10 -2 -10q0 -27 37 -142q31 -88 71 -301q28 -146 52 -429q0 -51 6 -51q12 -9 40 -34v3q0 452 -101 758q-47 142 -88 196q-8 10 -15 10z" />
    <glyph glyph-name="at" unicode="@" horiz-adv-x="1386" 
d="M790 547q-48 0 -93.5 -42.5t-88.5 -123.5q-77 -143 -77 -241q0 -82 67 -82q54 0 102.5 41t91.5 119q36 67 55 128t19 116q0 85 -76 85zM731 -358q-132 0 -240.5 42.5t-185.5 121t-119.5 189.5t-42.5 248q0 150 46 272t130 208.5t202 134t262 47.5q112 0 201.5 -32.5
t151.5 -93t95.5 -147.5t33.5 -196q0 -92 -29 -178.5t-79.5 -153.5t-119.5 -107.5t-150 -40.5q-108 0 -108 162q-156 -162 -241 -162q-27 0 -50.5 13.5t-41 36t-28 52t-10.5 62.5q0 147 114 306q123 172 261 172q59 0 105 -52q31 30 149 49q-143 -513 -143 -529q0 -44 42 -44
q114 0 199 160q74 137 74 270q0 90 -30.5 163.5t-86 126t-133.5 81t-173 28.5q-125 0 -228.5 -47.5t-177.5 -131.5t-115 -198.5t-41 -247.5q0 -236 137 -379h-1q136 -145 375 -145q364 0 528 369h55q-21 -64 -52 -121t-66 -100q-88 -100 -205 -154t-264 -54z" />
    <glyph glyph-name="A" unicode="A" horiz-adv-x="1547" 
d="M431 919q58 0 116 -41q45 -38 45 -102q0 -53 -54 -245q-27 -105 -27 -171q0 -51 17 -70q30 -44 83 -44h2q85 0 142 98q43 98 67 112q26 19 63 19q76 0 107 -145q13 -45 34 -63q37 -27 80 -27q94 0 132 130q6 29 6 53v9q0 107 -76 171q-43 40 -83 64q-81 55 -95 90
q-9 19 -9 40q0 59 62 97q31 16 63 16h17q87 0 185 -64q62 -49 96 -94q43 -60 63 -112q10 -27 18 -64h1q0 13 39 100q60 119 234 194q87 34 181 34h23q186 0 333 -139q150 -136 150 -343q0 -216 -150 -335q-125 -88 -252 -88q-150 0 -192 81q-13 29 -13 53q0 65 72 88
q20 4 35 4q52 0 144 -47q40 -17 65 -17h7q57 0 126 87q44 59 44 133q0 85 -65 163q-107 101 -313 101q-260 0 -407 -208q-62 -100 -62 -115q-9 -27 -25 -27h-3q-26 0 -43 45q-4 25 -8 120q-12 63 -26 92q-16 40 -67 107q-76 81 -117 81q-15 -1 -15 -11v-2q0 -16 64 -74
q67 -70 81 -113q24 -64 24 -140v-2q0 -175 -109 -307q-55 -62 -127 -62q-70 0 -123 37q-29 28 -41 58q-34 104 -43 120q-17 23 -34 23q-44 0 -93 -109q-20 -42 -50 -75q-37 -37 -103 -37q-48 0 -101 23q-25 0 -80 54q-81 84 -81 236v12q0 117 50 325q12 57 12 84
q0 44 -33 55l-10 2q-71 0 -94 -238q0 -26 32 -77q9 -18 9 -28v-5q-4 -21 -31 -21h-5q-57 0 -83 79q-13 45 -13 91q0 111 79 209q40 39 72 52q46 20 81 20z" />
    <glyph glyph-name="C" unicode="C" horiz-adv-x="1572" 
d="M519 919q67 0 134 -47q50 -40 50 -123q0 -94 -102 -342q-18 -38 -29 -55v-1q54 -15 177 -107q69 -60 153 -60q98 0 167 49q74 66 74 160q0 92 -61 199q-66 103 -218 156q-73 30 -73 73q0 45 64 70q53 19 124 19q171 0 290 -89q67 -58 83 -89q24 -29 48 -86q8 -21 14 -42
h1q24 61 53 101q42 57 122 105q148 92 337 92q268 0 452 -204q98 -118 98 -262v-4q0 -3 1 -5l-1 -6v-7q0 -130 -82 -240q-25 -30 -65 -62q-142 -101 -300 -101h-8q-180 0 -217 101q-5 16 -5 24v13q0 43 55 73q29 10 54 10h17q53 0 154 -46q49 -17 75 -17q78 0 158 101
q37 54 37 116q0 89 -78 165q-58 46 -140 70q-86 25 -187 25h-32q-184 0 -335 -103q-72 -59 -98 -95q-33 -43 -71 -104q-7 -7 -29 -37q-19 -18 -41 -18h-7q-21 0 -23 21v1q4 57 4 69v22q0 130 -62 234q-15 27 -68 70q-86 55 -121 56q-2 -1 -4 -1v-3q0 -11 52 -49
q146 -125 146 -314v-2q0 -213 -202 -344q-88 -50 -171 -50h-5q-116 0 -210 84q-1 0 -108 96q-32 24 -45 24h-4q-13 0 -39 -46q-17 -26 -61 -61q-59 -34 -108 -34q-63 0 -95 63q-9 25 -9 49v11q0 75 83 145q65 47 150 47h17q5 16 42 120q48 183 48 259q0 68 -49 88
q-5 2 -13 2h-1q-63 0 -117 -147q-20 -42 -20 -67v-10q0 -16 20 -72l1 -12q0 -16 -21 -21q-11 -2 -14 -3q-51 0 -79 48q-13 34 -13 68q0 123 111 230q49 37 92 47q51 12 83 12zM298 158q1 -17 19 -17q45 0 79 65q8 19 8 30q-2 4 -8 4h-6q-33 -2 -62 -23q-30 -30 -30 -59z" />
    <glyph glyph-name="D" unicode="D" horiz-adv-x="1587" 
d="M1227 915q265 0 383 -209q19 -39 30 -87q6 -33 6 -38h1q18 64 41 110q60 116 215 186q73 27 151 27q213 0 358 -206q77 -120 77 -269v-18q0 -157 -82 -273q-53 -62 -81 -76q-93 -64 -183 -64h-13q-132 0 -166 89q-8 23 -8 41v6q0 57 53 82q17 7 40 7q47 0 125 -46
q36 -17 59 -17h8q50 0 111 90q37 60 37 129q0 94 -67 174q-95 91 -264 91q-246 0 -408 -260q-31 -43 -46 -75q-40 -58 -64 -58h-5q-14 0 -14 24q0 10 18 139q1 25 1 31q0 104 -53 204q-39 69 -125 99q-53 14 -98 14h-9q-129 0 -200 -105q-30 -55 -30 -133v-10q0 -3 -1 -3
l1 -6v-18q0 -30 2 -44h11q59 0 135 -63q68 -70 68 -177q0 -119 -78 -170q-17 -9 -36 -9h-8q-49 0 -106 51q-34 41 -48 101q-5 21 -8 44h-1q-35 -23 -115 -96q-152 -120 -235 -120q-12 -4 -36 -4h-10q-99 0 -176 106q-45 73 -45 168q0 123 73 384q16 62 16 91v12q0 45 -34 60
q-4 3 -12 3q-53 0 -82 -146q-17 -82 -17 -108q0 -24 29 -82q7 -16 7 -25v-8q0 -19 -33 -21q-50 0 -75 70q-15 46 -15 101q0 119 76 224q38 52 122 77q15 3 31 5q49 0 104 -37q58 -49 58 -128v-9q0 -55 -55 -218q-32 -110 -32 -203q0 -112 37 -136q21 -17 39 -17q32 0 110 82
q187 181 209 181q11 5 21 5v4q-10 93 -10 130v15q0 237 185 314q60 21 136 21zM1054 224v-2q0 -27 33 -75q19 -20 34 -20h4q26 0 40 28l1 6q0 22 -48 60q-24 13 -45 13h-6q-13 0 -13 -10z" />
    <glyph glyph-name="E" unicode="E" horiz-adv-x="1200" 
d="M941 1775q17 0 24 -18v-7q0 -49 -134 -106q-131 -57 -149 -99q-10 -18 -10 -36q0 -49 103 -70q97 -22 128 -50q58 -46 58 -145q0 -103 -68 -181q-104 -96 -300 -96q-107 0 -107 29v0q0 28 42 56q37 15 158 47q76 28 114 60q48 46 48 78v3q0 53 -148 78q-59 14 -90 36
q-65 49 -65 141q0 85 51 152q21 25 62 50q45 28 121 50q107 28 162 28zM794 898q117 0 217 -97q46 -50 57 -82q50 -105 50 -245q0 -106 -43 -314q-49 -232 -93 -676q-18 -200 -18 -318q0 -173 36 -214q8 -8 15 -8h1q25 0 38 66q4 30 10 130q6 51 24 51q21 0 34 -90
q5 -40 5 -74q0 -156 -82 -194q-17 -4 -28 -4q-66 0 -109 87q-42 103 -42 296v19q0 325 111 977q24 153 24 231v14q0 158 -99 229q-58 44 -108 44h-12q-61 0 -124 -53q-39 -43 -47 -70q-27 -61 -27 -127v-6q0 -96 67 -196q67 -107 67 -140q-4 -12 -27 -23q-38 -16 -77 -16h-9
q-89 0 -172 52q-34 27 -61 73q-50 80 -50 219v9q0 65 20 259l2 32q0 54 -23 69q-9 4 -15 4q-33 0 -49 -82q-11 -94 -11 -149q0 -38 30 -82q12 -24 12 -38q-5 -22 -30 -22q-63 0 -84 134q-4 27 -4 49v10q0 94 50 185q42 59 99 77q10 3 19 3h10q62 0 105 -55q24 -39 24 -95
q0 -31 -20 -192q-5 -43 -5 -92v-9q0 -185 66 -226q25 -17 70 -32h2q-44 45 -60 90q-44 99 -44 216v11q0 141 69 260q46 75 134 107q59 18 105 18z" />
    <glyph glyph-name="F" unicode="F" horiz-adv-x="2126" 
d="M381 920h6q87 0 153 -59q34 -39 34 -89q0 -48 -52 -223q-20 -85 -20 -156v-3q0 -127 80 -198q8 -11 21 -21q-33 121 -33 207v23q0 170 57 321q59 127 164 169q29 9 60 9q74 0 105 -38q8 -11 8 -29q0 -49 -79 -185q-68 -130 -68 -223q0 -106 89 -162q40 -19 81 -19
q95 0 126 81q41 95 65 107q24 18 57 18q91 0 114 -118q11 -43 23 -66q37 -44 91 -44h3q78 0 131 88q23 51 23 111q0 117 -99 183q-21 18 -109 70q-69 45 -69 95v6q0 59 72 97q34 13 70 13q127 0 246 -93q87 -80 119 -152q17 -37 17 -42h2q16 42 48 92q19 30 73 75
q131 92 244 114q71 15 145 15h10q278 0 466 -216q91 -116 91 -262q0 -180 -124 -297q-82 -67 -156 -89q-81 -33 -169 -33h-17q-173 0 -215 95q-8 24 -8 37q0 59 71 85q25 6 50 6q57 0 143 -38q60 -25 93 -25h8q69 0 146 88q47 58 47 128v4q0 88 -80 166q-125 94 -345 94
q-237 0 -409 -140q-56 -48 -91 -108q-9 -19 -25 -64q-25 -53 -42 -53q-16 0 -19 104q0 52 -30 139q-34 81 -111 152q-60 49 -91 49q-11 -1 -11 -8v-1q0 -17 78 -90q96 -97 96 -236v-26q0 -132 -95 -260q-67 -85 -154 -85q-90 0 -144 47q-21 19 -43 72q-27 93 -49 110
q-12 7 -25 7q-45 0 -101 -115q-17 -36 -56 -74q-40 -30 -94 -30h-15q-92 0 -161 66q-49 45 -80 161q-13 59 -13 103v19q0 122 96 319q17 38 17 53q0 11 -11 14q-38 0 -89 -114q-54 -138 -54 -249v-7q0 -111 55 -276q7 -28 7 -41q0 -44 -71 -44q-83 0 -161 53q-21 8 -87 65
q-92 85 -92 237q0 104 55 309q11 48 11 73v14q0 37 -34 51l-9 1h-6q-48 0 -77 -86q-31 -118 -31 -160v-5q0 -23 37 -78q10 -21 10 -29q0 -19 -28 -25h-18q-46 0 -79 53q-27 55 -27 116v9q0 113 88 215q53 45 89 56q48 20 85 20z" />
    <glyph glyph-name="G" unicode="G" horiz-adv-x="1769" 
d="M2137 924q185 0 319 -143q134 -135 134 -342q0 -223 -144 -341q-110 -82 -224 -82q-129 0 -171 73q-16 32 -16 56v12q0 46 50 76q26 9 47 9q48 0 129 -46q42 -18 66 -18q62 0 129 103q29 55 29 114v7q0 91 -67 168q-100 93 -265 93h-24q-252 0 -430 -288q-17 -22 -30 -22
q-17 0 -20 55q0 37 -22 147q-18 64 -41 113q-30 57 -49 57q-10 -2 -10 -11v-10q0 -12 30 -123q13 -56 13 -110v-4q0 -180 -105 -317q-66 -88 -134 -120q-77 -31 -140 -31h-14q-37 0 -49 21q-3 7 -3 10q0 25 72 93q47 55 47 56q100 132 100 221q0 93 -118 194
q-103 76 -261 76q-251 0 -322 -151q-28 -57 -28 -112q0 -107 130 -294q42 -59 42 -77t-45 -20h-11q-96 0 -254 79q-167 98 -167 325v26q0 63 25 269q1 13 1 33v9q0 50 -27 65q-11 5 -16 5h-3q-47 0 -65 -104q-11 -98 -11 -143q0 -36 22 -67q31 -42 31 -61q0 -22 -40 -26
q-79 0 -105 153q-3 15 -3 40v20q0 93 59 189q44 61 125 87q14 3 33 5q74 0 127 -48q40 -41 40 -110v-8q0 -36 -27 -225q-4 -39 -4 -67v-31q1 -180 82 -232q22 -17 49 -32h1v2q-72 86 -85 160q-18 66 -18 132q0 112 59 245q65 115 194 177q31 15 125 31q61 9 99 9
q136 0 271 -68q107 -59 159 -192q34 -95 34 -184v-12q0 -155 -94 -287q-33 -42 -33 -56l4 -2q30 7 86 92q76 129 76 247q0 130 -88 324q-13 38 -13 54q0 53 76 72l18 2q72 0 158 -82q73 -86 96 -186h1q11 41 55 109q149 170 353 170z" />
    <glyph glyph-name="H" unicode="H" horiz-adv-x="2016" 
d="M1294 922q160 0 254 -109q36 -44 58 -93q55 -126 55 -250v-2q0 -125 -75 -286q-5 -13 -5 -17v-5q26 7 69 69q57 101 57 233q0 142 -107 316q-27 44 -27 71q0 50 89 67q14 1 21 1q106 0 217 -141q41 -60 62 -128q2 0 2 -3h1q17 45 47 86q51 59 99 89q133 88 282 88h24
q230 0 399 -212q83 -118 83 -274q0 -208 -140 -327q-125 -95 -263 -95q-152 0 -192 85q-12 29 -12 49q0 60 64 86q21 6 39 6h6q50 0 138 -44q42 -20 69 -20h8q57 0 124 87q44 59 44 131v5q0 73 -50 144q-50 70 -195 108q-67 11 -131 11q-245 0 -415 -201q-33 -38 -47 -65
q-33 -39 -53 -39h-4q-21 0 -21 54q3 31 3 96q0 135 -98 237q-22 17 -33 17q-7 -2 -7 -9q0 -14 38 -92q39 -83 39 -180q0 -168 -88 -309q-27 -42 -91 -90q-89 -61 -147 -61h-9q-49 0 -66 43q-2 11 -2 17v10q0 40 71 177q57 128 57 231q0 122 -68 202q-59 53 -142 53h-16
q-112 0 -146 -113q-10 -39 -10 -78q10 -168 10 -194q0 -204 -118 -269q-27 -20 -83 -38q-80 -24 -163 -24h-20q-194 0 -297 101q-49 46 -75 169q-9 40 -9 85v23q0 83 40 304q4 28 4 50v5q0 53 -37 64l-7 1h-5q-49 0 -73 -102q-20 -115 -20 -154q0 -33 43 -92q9 -19 9 -28v-3
q0 -21 -36 -25h-5q-81 0 -108 140q-4 28 -4 46v19q0 99 71 202q39 43 74 61q57 28 98 28h2q89 0 151 -62q29 -40 29 -90v-13q0 -41 -40 -238q-9 -67 -9 -115q0 -122 31 -154q21 -36 79 -55q64 -16 127 -16h6q135 0 172 84q21 48 21 114q0 25 -17 200q-1 4 -2 49
q0 213 156 274q72 27 146 27z" />
    <glyph glyph-name="I" unicode="I" 
d="M-585 1603q26 0 88 -108q68 -147 68 -272q-3 -34 -7 -34q0 3 -22 61q-26 64 -75 143q-16 34 -52 71q-3 3 -7 3q-13 0 -39 -57q-10 -17 -16 -17q-3 6 -3 17q0 71 36 156q16 37 29 37zM-520 1935q126 0 233 -59q111 -67 151 -207q21 -78 21 -147q0 -160 -106 -320
q-49 -61 -71 -71q-42 -37 -135 -37q-15 2 -15 6v4q12 17 39 33q42 31 76 62q55 60 78 101q49 91 49 162v7q0 73 -64 142q-89 90 -236 90h-10q-149 0 -232 -71q-74 -75 -74 -175v-1q0 -94 73 -208q31 -41 53 -60q39 -34 111 -67q14 -9 14 -16q0 -11 -60 -11h-30
q-98 0 -192 26q-15 0 -75 25q-93 52 -130 148q-27 73 -27 194q0 46 13 240v17q0 57 -23 71q-9 4 -15 4q-35 0 -48 -86q-4 -34 -7 -131q0 -48 28 -82q17 -30 17 -45v-1q0 -19 -31 -23q-63 0 -86 140q-4 23 -4 46v13q0 82 41 164q33 60 98 86q13 5 31 5q64 0 103 -49
q28 -36 28 -104q0 -24 -15 -193q-2 -17 -2 -50v-16q0 -148 45 -215q29 -33 74 -57q8 -4 12 -4q0 1 1 1q0 5 -40 67q-22 40 -36 89q-21 83 -21 140v21q0 104 51 219q54 101 163 151q95 32 182 32z" />
    <glyph glyph-name="K" unicode="K" horiz-adv-x="1785" 
d="M427 923h11q77 0 135 -52q49 -50 49 -211v-39q0 -61 -10 -145q39 0 39 5q13 177 38 249q35 108 110 151q72 42 184 42h6q205 0 301 -125q38 -48 59 -90q63 -130 63 -266q0 -117 -46 -233q-3 -5 -3 -12v-1q0 -6 8 -10q33 0 81 143q15 64 15 114v13q0 138 -103 317
q-44 63 -44 85v5q0 31 76 46q15 2 32 2q103 0 213 -112q37 -47 58 -92q16 -43 16 -47q3 2 14 26q71 121 246 190q85 31 180 31h16q253 0 427 -225q77 -118 77 -250v-22q0 -145 -85 -260q-66 -74 -116 -95q-102 -60 -216 -60q-149 0 -195 79q-15 32 -15 57q0 58 64 85
q25 6 46 6q54 0 145 -45q44 -19 71 -19h9q45 0 103 57q71 73 71 160v8q0 90 -74 169q-112 94 -315 94q-223 0 -383 -153q-59 -61 -81 -123q-30 -57 -54 -57q-10 0 -22 20q-7 25 -7 38q1 70 1 105q0 102 -62 214q-45 67 -85 67q-4 0 -7 -4v-2q0 -12 36 -70q23 -42 36 -100
q16 -62 16 -114q0 -121 -65 -264q-100 -174 -182 -174q-42 0 -57 40q-2 10 -2 15v9q0 24 36 133q23 85 23 159q0 149 -83 257q-89 98 -225 98q-143 0 -202 -126q-34 -65 -38 -118q0 -4 -1 -10q0 -7 58 -7q120 0 235 -54q122 -64 122 -192v-8q0 -84 -51 -143
q-60 -58 -152 -58q-90 0 -191 61q-57 46 -74 89q-16 25 -45 98q-4 2 -10 2h-9q-18 0 -56 -1l-1 -2v-6q0 -53 -29 -137q-31 -60 -104 -60q-123 0 -162 116q-7 27 -7 50q0 88 131 163q23 15 66 36q0 158 -23 307q-24 97 -72 97h-8q-30 0 -56 -60q-19 -71 -19 -161v-7
q0 -45 40 -95q9 -19 9 -29v-2q-5 -23 -38 -23q-81 0 -110 134q-5 39 -5 54q0 108 76 202q80 73 152 73zM772 258q24 -61 100 -109q77 -45 132 -45h13q52 0 68 36q1 2 1 5v4q0 47 -136 87q-56 13 -129 19zM390 177q0 -22 39 -25h3q28 0 28 47v13q0 11 -1 33h-1
q-68 -37 -68 -68z" />
    <glyph glyph-name="L" unicode="L" horiz-adv-x="1886" 
d="M422 923h11q79 0 136 -56q33 -40 33 -105q0 -40 -26 -211q-7 -113 -7 -128q0 -124 25 -171q16 -39 61 -85q13 -10 21 -10q3 1 3 6v4q0 8 -29 114q-17 71 -17 127v21q0 109 37 264q26 83 56 129q45 68 127 93q31 7 50 7h13q108 0 168 -88q35 -55 35 -130q-7 -134 -7 -169
v-31q0 -150 40 -186q23 -32 60 -51q68 -38 169 -38h3q177 0 236 122q16 41 16 82v12q0 124 -115 313q-19 38 -19 61q0 50 60 82q20 7 39 7h10q80 0 161 -87q45 -56 75 -131q20 -66 20 -89h1q33 104 90 163q151 146 350 146q221 0 372 -181q103 -122 103 -294v-2
q0 -253 -196 -366q-95 -52 -190 -52q-131 0 -175 68q-20 32 -20 60v8q0 54 58 81q24 6 44 6q48 0 134 -44q41 -19 70 -19q66 0 136 103q29 54 29 110v10q0 73 -55 147q-47 48 -79 60q-90 48 -215 48h-20q-254 0 -432 -251l-39 -49q-5 -3 -9 -3h-1q-20 2 -20 19
q-10 23 -18 99q-11 83 -36 138q-53 113 -90 113q-16 -4 -16 -15q0 -4 28 -73q40 -120 40 -223v-6q0 -149 -73 -266q-90 -139 -262 -139q-133 0 -243 73q-57 51 -76 101q-32 59 -32 185q1 50 1 81q0 160 -47 215q-47 35 -82 35h-5q-2 0 -2 1l-2 -1h-3q-59 0 -108 -51
q-22 -25 -42 -73q-26 -63 -26 -112q0 -89 83 -349q5 -18 5 -32v-9q0 -51 -68 -60h-13q-47 0 -140 51q-80 54 -119 126q-56 92 -56 257q0 79 24 278q3 15 3 42v2q0 55 -30 70q-12 4 -20 4q-44 0 -65 -95q-13 -99 -13 -146v-12q0 -34 40 -85q14 -23 14 -32v-8q0 -19 -39 -23
h-2q-87 0 -112 167q-2 25 -2 36q0 115 74 213q57 56 112 71q23 6 37 6z" />
    <glyph glyph-name="M" unicode="M" horiz-adv-x="1440" 
d="M591 926q254 0 336 -68q27 -31 27 -68q0 -55 -35 -84q-25 -12 -68 -12q-114 1 -140 2q-146 0 -184 -26q-78 -43 -78 -89q0 -56 105 -70q61 -12 233 -23q54 -10 75 -30q18 -16 18 -35q0 -25 -30 -38q-14 -5 -38 -5h-14l-188 5q-136 0 -164 -58q-4 -8 -4 -20q0 -46 84 -73
q33 -14 142 -30q101 -13 158 -13q252 0 304 137q27 56 27 125q0 122 -91 292q-29 63 -29 93v11q0 44 65 54q9 0 17 1q94 0 186 -76q50 -52 70 -92q50 -105 50 -178h1q19 73 42 124q56 121 218 196q83 38 184 38h9q186 0 324 -140q140 -136 140 -341q0 -159 -83 -272
q-49 -57 -72 -70q-108 -77 -228 -77q-160 0 -188 106q-3 11 -4 27q0 58 60 85q20 5 37 5h8q46 0 133 -46q42 -17 64 -17q51 0 109 68q56 66 56 152q0 83 -60 159q-42 43 -85 61q-85 42 -200 42h-23q-173 0 -317 -128q-71 -72 -92 -109q-66 -91 -66 -99q-22 -35 -52 -35
q-27 0 -27 27q11 77 11 121v13q0 166 -109 287q-19 18 -29 18q-11 0 -11 -15q0 -13 40 -97q32 -85 32 -166v-10q0 -111 -45 -225q-68 -149 -195 -208q-91 -37 -215 -37h-22q-166 0 -300 65q-92 48 -133 162q-12 39 -12 67q0 105 81 162l10 10v3q0 2 -33 34q-43 51 -43 105v1
q0 109 116 163q18 11 23 16q-36 6 -52 6q-86 0 -127 -139q-8 -37 -8 -62v-10q0 -22 23 -83q3 -12 3 -20v-5q-3 -22 -25 -22h-3q-48 0 -71 69q-9 39 -9 77v14q0 125 87 224q45 40 97 63q75 31 197 31z" />
    <glyph glyph-name="N" unicode="N" horiz-adv-x="1384" 
d="M965 917q197 0 314 -118q57 -56 74 -91q34 -65 35 -79v-1h1q3 16 38 81q17 27 58 68q105 87 203 112q66 15 125 15q231 0 385 -203q87 -118 87 -273v-13q0 -173 -102 -291q-50 -49 -86 -68q-97 -56 -182 -56h-26q-112 0 -158 63q-24 36 -24 71q0 50 47 79q23 11 50 11h5
q51 0 133 -45q42 -18 69 -18h1q60 0 125 90q39 57 39 131q0 86 -63 164q-103 99 -290 99h-9q-227 0 -366 -182q-41 -59 -41 -71q-38 -124 -80 -124q-24 0 -33 41q-2 13 -3 42q1 48 1 57q0 198 -102 260q-103 67 -211 67q-149 0 -208 -133q-14 -21 -29 -75q-3 -15 -6 -44
q0 -6 59 -6q73 0 170 -27q189 -61 189 -220q0 -101 -69 -161q-57 -43 -136 -43q-99 0 -200 67q-48 43 -48 51q-22 30 -48 91q-14 37 -18 37h-73q0 -55 -27 -137q-30 -66 -104 -66h-4q-123 0 -162 115q-7 28 -7 49q0 92 144 169q9 7 49 26q-6 213 -17 266q-16 129 -71 129
q-40 0 -61 -84q-10 -76 -10 -132v-15q0 -37 33 -85q11 -21 11 -33v-1q-4 -23 -34 -23h-3q-75 0 -98 149q-2 21 -2 38q0 104 65 197q46 47 82 60q32 15 61 15q71 0 122 -48q48 -45 48 -220v-25q0 -58 -8 -141l5 -2q41 2 50 2q4 0 11 98q11 89 27 145q35 110 110 155
q73 44 193 44zM765 258q10 -38 77 -92q93 -62 172 -62q65 0 78 42v2q0 46 -132 85q-35 11 -161 23q-8 0 -34 2zM378 180v-5q0 -18 36 -23h10q27 0 27 51q0 10 -1 42h-2q-70 -39 -70 -65z" />
    <glyph glyph-name="O" unicode="O" horiz-adv-x="1809" 
d="M847 932q78 0 141 -45q35 -34 49 -60q31 -51 65 -171q8 -28 12 -30h1q5 7 26 81q30 87 56 124q37 43 68 53q46 23 96 23h6q95 0 194 -85q55 -58 73 -89q57 -82 82 -225q19 -95 19 -198q0 -367 -150 -617q-110 -172 -371 -266q-49 -21 -150 -44q-64 -14 -274 -46
q-163 -31 -255 -68q-76 -29 -126 -75q-99 -100 -99 -239q0 -122 51 -246q24 -52 63 -110q66 -88 88 -88q14 0 14 35q0 6 -10 92q-1 17 -1 32v6q0 227 146 377q93 82 227 115q79 18 147 18q232 0 412 -187q132 -142 132 -357v-7q0 -156 -87 -346q-40 -80 -69 -80h-3
q-16 0 -25 29q-1 3 -2 18q0 33 43 131q39 96 39 178q0 115 -81 210q-61 59 -145 86q-95 36 -188 36q-125 0 -244 -61q-37 -19 -85 -69q-50 -65 -70 -130q-19 -59 -19 -108v-12q0 -70 39 -160q23 -56 23 -81v-7q0 -36 -42 -44q-5 -1 -10 -1q-75 0 -191 117q-63 68 -79 95
q-44 64 -76 133q-32 72 -59 155q-29 99 -29 207v26q0 192 89 335q17 34 81 110q65 69 120 105q55 40 140 78q75 37 319 75q345 68 424 121q140 73 206 238q37 107 37 210v21q0 156 -87 284q-27 34 -50 47q-71 41 -141 41q-85 0 -149 -67q-44 -52 -61 -83q-20 -33 -33 -45
l-4 -1q-11 3 -55 69q-38 57 -72 82q-49 35 -112 35h-4q-113 0 -180 -80q-63 -89 -63 -198v-2q0 -116 68 -201q58 -73 85 -97q55 -54 55 -74v-7q0 -26 -49 -48q-40 -13 -82 -13h-7q-38 0 -79 14q-40 4 -114 59q-109 83 -150 208q-35 102 -35 235q0 78 24 294q2 28 2 44
q0 65 -34 77q-5 2 -9 2h-5q-33 0 -56 -75q-9 -39 -16 -162q0 -15 -1 -24q0 -42 25 -78q26 -41 26 -59v-3q0 -18 -27 -25h-13q-62 0 -92 117q-11 48 -11 90v15q0 90 47 187q41 74 123 108q24 7 44 7q76 0 128 -57q33 -43 33 -115q0 -51 -31 -254q-12 -89 -12 -150
q0 -127 49 -186q26 -24 54 -41h1q-16 38 -33 119q-16 88 -16 159q0 141 58 306q21 59 72 130q75 98 201 98z" />
    <glyph glyph-name="P" unicode="P" horiz-adv-x="1368" 
d="M1818 922h4q229 0 381 -224q65 -115 65 -238v-9q0 -3 1 -5q-1 -1 -1 -4v-6q0 -152 -84 -266q-47 -54 -68 -66q-106 -73 -202 -73h-20q-134 0 -168 91q-8 21 -8 42q0 49 44 77q22 11 50 11h4q45 0 117 -39q45 -23 71 -23h5q57 0 121 92q35 57 35 121v6q0 84 -61 161
q-99 96 -274 96h-14q-191 0 -335 -155q-59 -73 -124 -191q-16 -27 -51 -53q-7 -4 -14 -4q-8 2 -8 17q0 9 15 110q2 19 2 42v7q0 96 -35 189q-20 41 -34 41t-17 -50v-3q0 -10 13 -142v-40q0 -116 -62 -243q-67 -119 -177 -166q-74 -27 -162 -27q-276 0 -394 186
q-26 47 -51 139q-13 59 -13 137q0 73 22 262q2 24 2 38q0 51 -24 66q-9 4 -13 4h-8q-29 0 -49 -69q-15 -106 -15 -159q0 -39 28 -77q18 -29 18 -44v-1q-4 -23 -29 -23h-7q-68 0 -92 142q-3 24 -3 48q0 108 64 199q65 71 131 71q76 0 121 -57q25 -32 27 -55q0 -4 1 -19
q0 -38 -26 -229q-4 -46 -5 -95q0 -122 29 -154q28 -42 92 -59q75 -18 172 -18h2q220 0 273 61q58 54 58 183q0 102 -35 287q-4 27 -5 52q0 73 52 99q14 5 27 5h1q65 0 136 -106q25 -38 48 -108q26 -89 26 -133h2q22 83 45 128q57 123 227 196q73 27 156 27z" />
    <glyph glyph-name="Q" unicode="Q" horiz-adv-x="1537" 
d="M1129 927q187 0 307 -139q58 -75 70 -147q1 0 3 -18h1q23 75 83 138q153 142 362 142q244 0 407 -208q77 -110 77 -246v-14q0 -148 -90 -259q-57 -57 -90 -73q-103 -62 -216 -62q-145 0 -184 76q-15 27 -15 52q0 52 55 78q23 8 49 8q54 0 136 -42q45 -19 74 -19
q64 0 133 93q36 53 36 118q0 83 -66 157q-106 95 -303 95q-239 0 -395 -182q-11 -11 -118 -132q-13 -13 -16 -13h-1l-2 1q-5 -5 -12 -5q-17 0 -17 48q0 16 2 93q0 99 -74 183q-58 70 -144 94q-15 4 -33 4q-38 0 -38 -22t53 -47q100 -61 142 -174q12 -37 12 -73v-4
q0 -84 -49 -183q-18 -31 -69 -86q93 -202 93 -237q0 -11 -8 -11q-18 12 -42 54l-102 146q-3 0 -28 -15q-93 -56 -267 -56q-185 0 -331 113q-62 57 -79 90q-17 26 -35 86q-24 52 -24 128v18q0 71 32 256q3 24 3 41v10q0 44 -32 55h-6h-6q-66 0 -78 -218v-5q0 -28 37 -76
q9 -20 9 -28q0 -15 -21 -22q-6 -1 -10 -1h-7q-72 0 -96 131q-2 21 -2 37v9q0 79 51 162q39 61 134 89q25 3 28 3q70 0 125 -45q34 -36 34 -88v-12q0 -34 -31 -192q-10 -65 -10 -118q0 -112 26 -140q43 -38 93 -51q88 -25 171 -25q73 0 189 26v1q-78 92 -153 139
q-43 24 -62 24q-14 0 -31 -61q-14 -36 -27 -36q-25 9 -25 71q0 65 22 141q8 18 28 18h6q62 0 204 -106q80 -70 93 -93q24 -27 47 -63q50 27 74 96q5 22 5 40v5q0 77 -77 132q-28 18 -62 30q-39 12 -141 28q-47 14 -62 38q-11 20 -11 41v4q0 103 132 174q71 31 160 31z" />
    <glyph glyph-name="R" unicode="R" horiz-adv-x="1348" 
d="M967 929h6q113 0 228 -55q104 -53 161 -211q18 -56 25 -107h1q18 66 42 119q61 120 220 189q71 26 148 26h7q218 0 364 -217q68 -113 68 -245v-3q0 -5 1 -9q-1 -5 -1 -10v-5q0 -130 -67 -242q-40 -57 -86 -89q-98 -70 -202 -70q-127 0 -165 74q-15 31 -15 59q0 54 52 82
q20 7 41 7h3q45 0 123 -45q38 -18 65 -18q49 0 106 77q45 62 45 141q0 84 -60 161q-43 45 -108 70q-71 27 -150 27h-24q-243 0 -411 -275q-27 -35 -27 -38q-27 -64 -41 -65q-15 0 -18 51q-1 20 -1 24q1 96 1 118q0 85 -45 152q-48 52 -81 65q-73 39 -145 39h-5
q-110 0 -175 -93q-46 -68 -46 -186q0 -31 -17 -116q-18 -72 -41 -120q-20 -49 -76 -111q-56 -51 -131 -68q-53 -13 -81 -13q-20 0 -28 22q-3 10 -3 19v4q3 47 11 66q33 74 49 142q18 84 18 177q0 156 -55 295q-32 68 -67 68h-2q-52 0 -79 -147q-10 -56 -10 -89v-14
q0 -38 33 -88q15 -26 15 -41v-3q0 -19 -30 -23h-5q-78 0 -98 143q-3 21 -3 49q0 119 73 223q39 54 124 79q17 2 25 2q112 0 174 -122q46 -108 46 -269q0 -162 -51 -297q-10 -26 -10 -39q0 -8 7 -10q32 0 80 104q38 86 38 199q0 15 -3 171q0 166 55 222q75 87 208 87z" />
    <glyph glyph-name="S" unicode="S" horiz-adv-x="1420" 
d="M535 913h9q69 0 132 -58q33 -40 33 -105q0 -88 -91 -323q-12 -26 -33 -64h1q52 -23 170 -118q53 -43 123 -43h3q92 0 157 44q36 31 47 57q24 51 24 93q0 75 -95 248q-47 92 -47 135q0 70 69 100q27 8 46 8h9q81 0 156 -72q65 -66 103 -180q9 -32 9 -34h2q21 54 56 100
q44 47 84 74q141 96 312 96h8q245 0 414 -206q84 -112 84 -260v-2q0 -176 -110 -288q-57 -51 -105 -72q-94 -48 -195 -48q-147 0 -191 75q-16 31 -16 54q0 56 61 83q25 6 45 6h4q53 0 144 -45q43 -17 70 -17h1q70 0 145 103q31 53 31 111q0 87 -72 163q-110 93 -310 93
q-206 0 -346 -125q-74 -74 -106 -136q-51 -91 -85 -91q-14 0 -14 22v1l6 103q0 179 -109 308q-17 16 -30 16q-14 0 -14 -18q0 -17 49 -122q45 -107 45 -197q0 -154 -147 -287q-106 -83 -208 -83h-7q-117 0 -217 100q-107 105 -129 110h-8q-13 0 -36 -46q-19 -29 -54 -60
q-58 -39 -106 -39h-8q-54 0 -85 57q-13 26 -13 63q0 91 92 162q58 41 132 41h8q18 0 45 -3q3 14 34 102q47 184 47 255q0 75 -54 89h-5q-45 0 -85 -85q-42 -94 -42 -127q0 -19 19 -75v-13q0 -17 -26 -20q-1 -1 -6 -1q-51 0 -75 53q-8 28 -8 60q0 112 93 213q41 43 117 60
q31 5 49 5zM296 178v-7q4 -13 14 -13h8q41 0 74 70q7 18 7 26q0 4 -4 6h-9q-32 0 -66 -29q-24 -29 -24 -53z" />
    <glyph glyph-name="T" unicode="T" horiz-adv-x="1763" 
d="M1025 923q143 0 234 -75q53 -44 82 -87q112 -163 112 -320q0 -136 -49 -248q-9 -22 -9 -34q0 -16 13 -16q36 0 77 126q18 71 18 141v6q0 150 -106 345q-26 53 -26 79q0 53 65 78q12 3 23 3h8q57 0 139 -64q54 -50 68 -81q76 -133 76 -256h1q46 156 88 212q49 59 91 86
q123 89 272 89q184 0 316 -133q146 -137 146 -346q0 -148 -72 -259q-43 -59 -99 -95q-100 -64 -204 -64q-137 0 -177 80q-13 28 -13 49v6q0 55 56 81q19 7 38 7h8q47 0 131 -46q40 -18 64 -18q63 0 131 103q30 54 30 116q0 96 -73 175q-105 86 -262 86h-28q-218 0 -385 -210
q-65 -80 -99 -115q-2 -2 -19 -3q-21 0 -25 66q0 241 -104 366q-25 24 -40 24q-15 -4 -15 -18v-5q0 -17 35 -82q55 -124 55 -245t-61 -269q-53 -114 -141 -147q-29 -11 -57 -11q-51 0 -70 25l-2 8v3q0 14 35 79q21 42 37 101q23 96 23 156q0 180 -158 257q-93 34 -186 34h-26
q-137 0 -170 -53q-19 -25 -19 -45q0 -24 32 -32q18 -4 118 -20q67 -15 104 -49q64 -60 64 -161q0 -112 -91 -217q-41 -47 -162 -65q-32 -7 -70 -7h-20q-101 0 -203 44q-100 58 -148 184q-36 92 -36 197v13q0 64 26 279v22q0 1 1 1l-1 2v10q0 53 -38 64h-8q-49 0 -65 -113
q-10 -91 -10 -129q0 -40 37 -87q15 -25 15 -38q-5 -25 -38 -25q-77 0 -105 141q-4 28 -4 50v13q0 103 66 198q46 49 79 61q38 20 72 20q83 0 136 -58q29 -39 29 -92v-16q0 -37 -30 -233q-3 -54 -3 -70q0 -72 15 -125q8 -19 44 -48q93 -49 238 -49q131 0 162 46q3 9 3 11v4
q0 38 -117 38h-28q-99 0 -155 100q-27 54 -27 124q0 117 62 225q90 145 279 145z" />
    <glyph glyph-name="V" unicode="V" horiz-adv-x="1630" 
d="M1150 919q239 0 377 -194q29 -48 29 -55q3 0 21 34q69 109 243 177q91 31 196 31q257 0 431 -208q83 -113 83 -256v-7q0 -180 -123 -296q-141 -106 -297 -106h-4q-166 0 -203 95q-7 17 -7 34q0 58 69 82q25 4 43 4q55 0 156 -45q36 -17 69 -17q62 0 138 92q39 58 39 123
q0 92 -79 167q-116 89 -312 89q-293 0 -489 -256q-25 -34 -36 -34q-7 0 -7 55q0 17 -18 61q-55 106 -156 143q-80 24 -170 24q-189 0 -265 -105q-32 -48 -36 -82q0 -11 36 -14q120 -31 174 -92q29 -34 44 -68q21 -52 21 -92q0 -89 -79 -174q-40 -31 -73 -31h-11
q-72 0 -123 82q-36 65 -36 129v4h-4q-36 -17 -177 -130q-116 -92 -192 -92h-7q-91 0 -167 78q-36 41 -36 93v3q0 99 69 171q29 20 61 20q36 0 47 -24v-7q0 -24 -43 -82q-15 -23 -15 -40q0 -14 26 -18q43 0 141 86q134 116 188 146q73 45 76 48q15 103 33 171q40 140 120 208
q90 75 235 75zM346 899q51 0 116 -82q36 -55 58 -150q14 -89 14 -168q0 -64 -11 -64v0q-21 0 -79 119q-29 58 -51 72q-18 13 -40 13h-7q-58 0 -76 -54q-15 -65 -22 -65h-4q-14 7 -32 54q-11 41 -11 79q0 119 87 215q29 31 58 31zM867 216v-3q0 -17 58 -62q37 -20 62 -20h4
q32 0 39 34q0 31 -50 51q-26 10 -58 10h-11q-40 0 -44 -10z" />
    <glyph glyph-name="W" unicode="W" horiz-adv-x="1522" 
d="M1122 919q177 0 297 -135q39 -50 52 -85q27 -62 27 -96h1q26 81 84 145q155 146 357 146q245 0 406 -219q76 -115 76 -258q0 -148 -76 -259q-70 -98 -211 -145q-51 -14 -98 -14h-15q-132 0 -176 76q-15 30 -15 52v8q0 50 55 78q26 9 49 9q51 0 143 -48q38 -16 62 -16h5
q55 0 121 83q44 61 44 135q0 90 -68 166q-106 95 -288 95h-18q-178 0 -317 -118q-73 -71 -111 -121q-60 -73 -87 -99l-16 -4q-17 0 -17 53q2 71 2 96q0 134 -130 242q-67 47 -119 47q-27 0 -37 -15q0 -3 -2 -7q0 -24 54 -49q22 -13 67 -56q85 -99 85 -197v-14
q0 -83 -52 -191q-86 -137 -230 -184q-72 -22 -189 -22q-177 0 -319 112q-67 60 -86 102q-16 24 -35 89q-22 53 -22 136v6q0 81 32 271q3 22 3 41v17q0 41 -32 53q-6 1 -10 1h-3q-31 0 -53 -61q-11 -22 -24 -157v-13q0 -30 37 -80q9 -20 9 -30q0 -20 -34 -23h-2q-57 0 -86 87
q-13 47 -13 91q0 96 59 184q23 31 55 52q55 33 95 33h7q70 0 121 -49q33 -37 33 -94q0 -38 -33 -214q-7 -56 -7 -103v-27q0 -95 22 -128q39 -43 128 -64q68 -17 137 -17q110 0 262 49q33 15 61 42q43 55 43 108v15q0 65 -63 122q-45 39 -134 57q-79 11 -107 23
q-46 23 -46 77q0 107 135 182q73 31 155 31z" />
    <glyph glyph-name="X" unicode="X" horiz-adv-x="2106" 
d="M710 917v0q129 0 190 -88q17 -30 42 -128q15 -37 61 -74q15 -13 29 -13q36 0 82 54q22 23 54 104q64 125 157 125h14q72 0 151 -47q57 -48 89 -95q36 -57 54 -108q28 -81 28 -175v-3q0 -132 -75 -243q-25 -51 -25 -61v0q36 7 93 105q47 108 47 199v6q0 135 -93 307
q-18 37 -18 54q0 41 82 57h18h7q79 0 172 -70q61 -48 89 -152q4 -14 7 -44h4q50 115 207 192q129 61 269 61h21q257 0 443 -199q97 -118 97 -273q0 -179 -129 -293q-146 -115 -322 -115q-153 0 -203 71q-18 30 -18 60q0 54 68 81q25 7 50 7q57 0 157 -44q47 -17 79 -17
q75 0 157 102q32 50 32 111v3q0 88 -82 165q-122 88 -318 88h-29q-297 0 -508 -260q-25 -30 -36 -30q-35 0 -50 101q-7 155 -25 199q-21 68 -46 101q-25 31 -39 31v0q-15 0 -18 -21q7 -16 32 -67q32 -108 32 -185q0 -139 -100 -307q-111 -159 -215 -159h-7q-36 0 -46 31
q-4 6 -4 17v0q0 50 64 148q58 111 58 202t-65 165q-53 48 -121 48h-15q-110 0 -182 -118q-68 -91 -125 -91h-7q-72 0 -136 107q-50 105 -93 129q-32 23 -82 23q-97 0 -140 -84q-18 -24 -54 -108q-32 -47 -103 -67q-22 -4 -40 -4h-7q-82 0 -139 61q-36 50 -36 121v10
q0 88 46 169q8 10 15 10q18 0 25 -94q18 -68 61 -105q21 -17 43 -17q64 0 100 128q75 206 225 206z" />
    <glyph glyph-name="Y" unicode="Y" horiz-adv-x="1660" 
d="M2091 921h7q234 0 392 -224q74 -116 74 -268q0 -218 -140 -339q-118 -90 -240 -90h-4q-149 0 -184 93q-8 23 -8 39v9q0 53 57 81q21 7 41 7h3q48 0 119 -39q52 -27 83 -27q60 0 125 93q40 60 40 132q0 80 -54 156q-22 28 -53 48q-97 66 -252 66q-173 0 -308 -114
q-66 -61 -88 -93q-15 -19 -88 -121q-10 -9 -16 -9q-23 0 -30 102q-10 88 -21 137q-15 52 -37 97q-26 49 -42 49h-2q-7 -4 -7 -16q0 -21 37 -137q23 -85 23 -141v-5q0 -146 -78 -285q-20 -33 -47 -54q-45 -35 -100 -46q-20 -4 -39 -4h-7q-82 0 -155 45q-46 28 -72 119
q-19 68 -42 271q-7 89 -12 114h-2q-6 -26 -27 -165q-38 -194 -66 -241q-13 -33 -58 -78q-51 -45 -137 -45h-6q-99 0 -200 71q-110 104 -110 290q0 109 53 327q6 34 6 48v13q0 33 -27 46q-12 3 -14 3q-38 0 -63 -71q-28 -114 -28 -156q0 -23 31 -72q9 -17 9 -27v-4
q0 -17 -29 -20h-8q-53 0 -78 76q-13 38 -13 85q0 111 81 205q56 47 102 56q14 4 39 6q51 0 106 -33q53 -37 53 -103q0 -43 -44 -209q-25 -139 -25 -203v-14q0 -53 30 -101q47 -43 114 -43h3q64 0 113 61q48 53 81 155q35 124 35 160q16 140 26 206q15 85 53 85q46 0 55 -136
q11 -141 25 -221q23 -118 49 -174q30 -63 76 -107q44 -26 85 -26q68 0 118 59q45 58 45 153v1q0 91 -58 248q-32 89 -32 132q6 83 57 105q6 4 19 4h8q67 0 144 -102q31 -46 51 -97t30 -117q5 -26 5 -40h1q29 103 60 158q76 120 237 182q72 24 150 24z" />
    <glyph glyph-name="Z" unicode="Z" horiz-adv-x="1978" 
d="M770 9l-5 4q2 -2 3 -2.5t2 -1.5zM444 924q91 0 151 -62q33 -40 33 -108q0 -38 -29 -226q-6 -55 -6 -97q0 -83 16 -109q7 -27 34 -64q37 -35 67 -35q2 0 5 5q-26 64 -44 125q-25 91 -25 176v9q0 183 117 295q99 77 215 77h9q150 0 211 -124q26 -46 46 -103h3q13 21 44 83
q33 59 73 94q55 45 158 45h9q151 0 243 -101q61 -64 79 -123q29 -82 29 -168v-16q0 -186 -114 -350v-3q63 0 102 109q16 34 29 98q25 187 52 262q24 75 81 132q52 49 103 78q119 65 241 65h26q171 0 305 -115q171 -140 171 -358v-2q0 -221 -161 -336q-115 -77 -235 -77
q-163 0 -197 99q-5 23 -5 33q0 54 56 81q21 8 45 8h6q50 0 141 -45q41 -18 66 -18q60 0 126 83q45 60 45 127v13q0 79 -66 157q-110 96 -302 96q-254 0 -351 -196q-40 -72 -99 -213q-29 -61 -86 -114q-82 -62 -167 -62q-37 0 -43 24v4q0 15 32 79q97 154 97 284v1
q0 144 -156 212q-58 20 -112 20h-2q-4 0 -6 1l-8 -1h-9q-143 0 -220 -156q-11 -21 -15 -22h-3q-4 0 -29 52q-25 39 -62 71q-84 55 -167 55q-76 0 -176 -63q-41 -35 -48 -60q-20 -48 -20 -90q0 -80 58 -199q21 -41 129 -153q15 -14 15 -22v-2q0 -20 -66 -29q-65 -7 -105 -7
q-250 0 -332 180q-34 73 -34 189q0 72 27 288q3 16 3 47q0 65 -42 75h-14q-33 0 -59 -67q-13 -28 -21 -183v-14q0 -34 44 -89q13 -22 13 -35v-4q0 -20 -37 -24h-9q-82 0 -113 152q-5 36 -5 58q0 108 67 209q54 65 139 89q18 5 39 5z" />
    <glyph glyph-name="backslash" unicode="\" horiz-adv-x="1911" 
d="M446 920q78 0 135 -52q40 -41 40 -119q0 -42 -27 -232q-5 -41 -6 -97q0 -211 90 -264q9 -6 30 -18h1v1q-57 99 -62 134q-24 86 -24 184v32q0 197 100 318q62 58 105 72q62 23 115 23h14q145 0 205 -139q16 -28 38 -91h1q6 4 30 59q27 56 66 105q56 62 163 62h18
q185 0 287 -188q46 -99 46 -277q0 -269 -24 -361q-16 -41 -39 -41h-5q-30 0 -35 59q-2 11 -2 21q5 199 5 280v9q0 129 -64 183q-76 80 -203 80q-148 0 -218 -149q-15 -33 -21 -33q-5 0 -26 48q-23 41 -61 77q-82 55 -156 55h-3q-72 0 -167 -61q-35 -29 -45 -56
q-21 -49 -21 -101q0 -73 47 -186q21 -50 115 -150q62 -67 63 -67q11 -8 11 -14q0 -20 -84 -25q-13 -1 -28 -1q-139 0 -267 56q-90 46 -143 174q-25 76 -25 176q0 69 26 291q3 15 3 45v2q0 58 -29 73q-11 5 -15 5h-6q-49 0 -68 -110q-12 -98 -12 -147v-10q0 -36 42 -92
q13 -21 13 -35v-4q0 -21 -35 -25h-9q-73 0 -105 137q-8 44 -8 77q0 110 65 213q50 65 132 89q15 5 37 5z" />
    <glyph glyph-name="bracketright" unicode="]" horiz-adv-x="1894" 
d="M953 568v0q28 0 101 -119q42 -71 69 -169q38 -129 38 -238q0 -44 -3 -44q-7 7 -35 92q-38 84 -100 193q-28 48 -73 95q-3 3 -7 3q-14 0 -52 -78q-14 -23 -17 -23h-4q-3 0 -3 17v13q0 82 38 190q28 68 48 68zM1057 923q121 0 249 -59q119 -63 167 -196q34 -90 34 -186v-6
q0 -167 -109 -309q-14 -20 -14 -30q0 -1 3 -3q29 9 84 88q75 116 75 237q0 134 -87 328q-12 36 -12 54q0 51 72 70q16 2 20 2q59 0 137 -65q124 -124 124 -341q0 -47 -17 -327q-6 -151 -13 -151q-18 -29 -50 -29q-54 10 -54 43q24 274 24 367v2q0 223 -74 307q-10 10 -18 10
q-10 -3 -10 -16t35 -145q9 -50 9 -90v-15q0 -160 -82 -284q-26 -39 -79 -92q-53 -46 -128 -64q-47 -10 -76 -10h-16q-38 0 -49 21q-3 5 -3 11q0 22 68 89q74 83 100 134q45 85 45 140q0 92 -115 191q-100 75 -253 75q-240 0 -312 -144q-28 -60 -28 -117q0 -106 138 -306
q28 -41 28 -58t-44 -19h-10q-62 0 -205 37q-102 34 -139 96q-74 86 -74 255q0 63 24 270q2 11 2 41v3q0 48 -21 64q-12 8 -20 8h-7q-31 0 -53 -68q-10 -26 -18 -172v-8q0 -34 38 -86q12 -19 12 -33v-5q-6 -22 -35 -22q-86 0 -107 173q0 11 -1 26q0 103 60 199q25 31 49 48
q56 40 105 40q79 0 131 -59q29 -39 29 -98v-2q0 -42 -26 -224q-4 -40 -5 -82q5 -101 14 -141q18 -66 61 -99q44 -31 65 -31q6 2 6 4v2q0 5 -48 67q-60 106 -60 233v2q0 116 60 248q62 105 178 164q37 17 96 29q82 14 130 14z" />
    <glyph glyph-name="asciicircum" unicode="^" 
d="M-450 2063q23 0 33 -69l21 -165q20 -123 43 -213q21 -65 58 -154q44 -93 64 -117q94 -144 198 -185q95 -42 112 -52q3 -3 3 -7v0q0 -10 -67 -14h-24q-111 0 -236 107q-30 27 -74 89q-23 38 -61 114q-40 99 -53 158q-17 55 -31 140q-23 158 -23 268q0 73 23 93q10 7 14 7z
M-890 1926q111 0 225 -60q103 -63 142 -197q23 -77 23 -152v-7q0 -135 -73 -261q-36 -64 -88 -126q-36 -40 -70 -40h-2q-27 0 -32 20l-1 5q0 22 65 90q72 91 93 144q26 61 26 99v10q0 78 -95 170q-89 72 -210 72h-23q-199 0 -261 -138q-22 -54 -22 -96v-13q0 -95 125 -290
q18 -31 18 -42q0 -17 -35 -20h-10q-65 0 -185 43q-101 46 -145 149q-29 71 -29 184q0 59 20 252q1 11 1 38v5q0 49 -20 62q-8 5 -13 5h-5q-26 0 -44 -68q-13 -90 -13 -157v-4q0 -35 31 -81q10 -24 10 -33q0 -21 -29 -24q-66 0 -85 151l-2 34q0 91 45 179q33 58 100 84
q14 4 27 4q59 0 102 -48q27 -38 27 -94v-9q0 -35 -20 -199q-4 -39 -5 -83q0 -184 67 -229q45 -39 59 -39h2q3 2 3 3q0 8 -34 52q-32 57 -32 69q-27 79 -27 162q0 97 44 215q52 113 171 173q37 16 85 25q66 11 99 11z" />
    <glyph glyph-name="underscore" unicode="_" horiz-adv-x="534" 
d="M362 251q-85 0 -85 85t85 85q95 0 95 -85t-95 -85z" />
    <glyph glyph-name="grave" unicode="`" horiz-adv-x="2094" 
d="M467 913h13q85 0 148 -67q44 -53 44 -152q0 -56 -37 -333q-4 -49 -4 -81v-24q0 -53 8 -53q35 -28 44 -28h3q17 0 40 81q71 171 210 171q39 0 54 -26q26 -44 26 -120v-5q0 -148 -74 -220q-48 -63 -164 -100q-58 -11 -58 -14q5 -63 31 -120q38 -74 140 -108q19 -6 38 -6h15
q131 0 230 238q29 65 43 65q17 -9 17 -71v-21q0 -144 -87 -315q-50 -86 -135 -118q-55 -19 -102 -19q-113 0 -202 133q-55 101 -55 262q2 23 2 58v2q0 6 1 17q0 13 -24 19q-92 49 -108 74q-25 27 -51 80q-30 72 -30 182q0 66 30 368v25q0 77 -34 96q-13 7 -22 7
q-50 0 -74 -121q-16 -130 -16 -204v-16q0 -48 44 -113q18 -32 18 -51v-4q-5 -32 -45 -32h-1q-104 0 -130 238q-1 21 -1 36q0 137 71 267q56 84 151 118q19 5 33 5zM1091 897h15q166 0 247 -239q4 -8 5 -8l40 88q75 136 225 136q163 0 294 -191q82 -153 82 -283
q-8 -482 -16 -482q-11 -39 -47 -39q-33 0 -37 51q-2 9 -2 29q0 55 7 284q0 148 -55 227q-45 68 -88 91q-67 48 -137 48q-116 0 -214 -117q-44 -55 -62 -55h-3q-20 0 -63 74q-74 92 -98 105q-36 26 -76 26h-8q-127 0 -198 -128q-22 -31 -35 -31q-19 0 -25 111q0 179 135 272
q58 31 114 31zM831 241v-6q0 -5 15 -7h7q22 0 59 37l2 5v5q-1 4 -8 4h-1q-34 0 -72 -35z" />
    <glyph glyph-name="a" unicode="a" horiz-adv-x="1702" 
d="M1188 924q116 0 228 -84q179 -148 179 -400v-25q0 -21 -13 -312q0 -68 -37 -90q-9 -3 -17 -3q-41 9 -41 62v8q14 211 14 309q0 188 -155 322q-45 35 -71 35q-17 -2 -17 -15q0 -16 59 -68q67 -65 82 -100q39 -73 39 -164v-26q0 -131 -78 -258q-54 -81 -112 -105
q-31 -10 -59 -10q-88 0 -143 49q-21 26 -34 57q-32 101 -46 124q-17 20 -34 20q-46 0 -97 -114q-30 -61 -67 -92q-41 -26 -95 -26q-155 0 -257 179q-36 72 -36 158q0 109 64 325q17 61 17 91v5q0 38 -32 51q-6 1 -11 1h-5q-33 0 -64 -66q-19 -44 -42 -172v-14q0 -20 33 -82
q5 -14 5 -23v-2q-4 -23 -34 -23q-70 0 -93 101q-6 39 -6 64q0 114 79 216q46 51 92 66q43 19 74 19h13q55 0 117 -43q48 -40 48 -103v-2q0 -54 -53 -219q-37 -136 -37 -207v-4q0 -29 44 -68q43 -30 85 -30q74 0 125 61q20 33 55 111q31 56 85 56q92 0 115 -124
q14 -70 40 -89q37 -29 80 -29h12q85 0 129 118q11 40 11 78q0 117 -83 186q-33 32 -109 82q-87 56 -87 119q0 60 65 101q38 18 76 18z" />
    <glyph glyph-name="b" unicode="b" horiz-adv-x="2094" 
d="M451 916q87 0 144 -56q36 -39 36 -105q0 -44 -30 -231q-3 -36 -4 -84q5 -129 18 -137q16 -32 47 -63q42 -34 92 -40h1q2 0 2 3q0 10 -50 73q-23 29 -40 80q-24 75 -24 135q0 114 53 248q22 51 71 98q78 61 147 69q40 3 44 3q145 0 193 -126q14 -36 30 -95h1q2 0 33 73
q53 101 120 123q41 12 73 12h4q135 0 241 -122q76 -92 76 -235v-24q0 -130 -91 -269q-66 -85 -66 -95v-4h3q51 12 111 107q68 121 68 249q0 157 -74 282q-13 26 -13 44q0 46 71 59h12q75 0 163 -83q89 -109 89 -296v-27q0 -26 -12 -269q1 -97 1 -122q0 -91 -62 -91
q-51 0 -51 55v16q0 20 17 319v45q0 224 -69 274q-9 3 -11 3h-2q-4 -2 -4 -6q0 -5 25 -96q12 -54 12 -110q0 -175 -107 -333q-61 -88 -199 -131q-65 -17 -90 -17q-44 0 -59 40q-1 4 -1 9v1q0 23 41 59q194 181 194 336q0 149 -155 200q-45 12 -75 12q-112 0 -175 -118
q-31 -53 -47 -53q-20 0 -53 64q-68 121 -169 121h-5q-99 0 -163 -88q-31 -50 -31 -115v-1q0 -132 115 -269q22 -31 75 -88q11 -20 11 -41q0 -35 -46 -40l-11 -1q-196 0 -307 45q-91 47 -145 170q-24 71 -24 162q0 69 27 279q2 15 2 43v2q0 50 -23 66q-13 9 -23 9h-7
q-37 0 -62 -77q-17 -103 -17 -169v-8q0 -37 43 -90q13 -21 13 -32v-4q-6 -24 -41 -24q-81 0 -111 132q-9 40 -9 72q0 114 75 213q83 80 164 80z" />
    <glyph glyph-name="c" unicode="c" horiz-adv-x="1600" 
d="M1001 921h30q132 0 248 -57q203 -119 203 -437q0 -65 -19 -354q-11 -56 -52 -56q-31 0 -41 37q-5 28 -5 53q10 173 10 210v24q0 222 -91 342q-71 85 -176 116q-17 3 -28 3h-6q-7 -1 -7 -3q14 -16 62 -41q37 -19 89 -69q36 -42 57 -82q44 -95 44 -168v-18q0 -119 -66 -228
q-24 -37 -80 -90q-121 -103 -249 -103h-5q-134 0 -249 114q-16 13 -79 68q-36 28 -52 28q-15 0 -42 -49q-50 -67 -121 -88q-29 -9 -51 -9h-7q-61 0 -94 63q-12 27 -12 58q0 89 98 160q63 42 142 42h28q2 0 38 101q49 186 49 257q0 70 -51 90q-7 1 -11 1h-2q-52 0 -98 -104
q-37 -81 -37 -113q0 -21 19 -74q1 -10 2 -12q0 -25 -31 -25h-10q-35 0 -62 32q-22 29 -22 83q0 121 110 227q72 58 176 58q73 0 142 -58q36 -41 36 -101v-18q0 -80 -94 -317l-29 -55q66 -21 208 -128q58 -42 136 -42q81 0 151 26q49 25 83 108q22 61 22 112q0 176 -137 251
q-35 23 -128 62q-86 49 -86 98v3q0 51 94 68q24 4 53 4zM316 163v-1q0 -17 20 -17q42 0 76 57q15 27 15 39q-3 5 -5 6h-11q-30 0 -70 -28q-25 -32 -25 -56z" />
    <glyph glyph-name="d" unicode="d" horiz-adv-x="1800" 
d="M435 920h12q56 0 115 -49q43 -49 43 -118q0 -59 -58 -224q-30 -107 -30 -192v-21q0 -101 46 -140q13 -7 26 -7q65 0 216 162q96 93 131 93q-11 104 -11 139q0 242 183 326q70 27 142 27h7q4 0 8 1q4 -1 9 -1h5q214 0 342 -201q51 -81 51 -255q0 -79 -17 -375
q-11 -40 -22 -40q0 -4 -20 -9h-11q-32 0 -43 65q-4 33 -4 59q0 21 8 255q0 179 -96 276q-73 61 -188 61q-129 0 -199 -101q-35 -52 -35 -148q0 -68 4 -68h5q71 0 150 -72q59 -71 59 -165q0 -111 -70 -165q-23 -15 -49 -15q-56 0 -114 56q-41 53 -52 133v6h-1
q-28 -17 -79 -63q-170 -150 -278 -150q-83 0 -173 71q-91 83 -91 212v14q0 118 76 386q13 55 13 87q0 45 -34 63q-8 2 -13 2q-43 0 -71 -96q-28 -119 -28 -151v-10q0 -19 31 -80q5 -15 5 -26q-3 -24 -30 -24h-2q-62 0 -83 95q-8 32 -8 70v12q0 117 84 225q39 39 82 57
q37 13 57 13zM1070 224q0 -29 35 -79q21 -17 35 -17q28 0 42 29v6q0 24 -50 59q-23 14 -46 14q-16 0 -16 -12z" />
    <glyph glyph-name="e" unicode="e" horiz-adv-x="1200" 
d="M794 898q117 0 217 -97q46 -50 57 -82q50 -105 50 -245q0 -106 -43 -314q-49 -232 -93 -676q-18 -200 -18 -318q0 -173 36 -214q8 -8 15 -8h1q25 0 38 66q4 30 10 130q6 51 24 51q21 0 34 -90q5 -40 5 -74q0 -156 -82 -194q-17 -4 -28 -4q-66 0 -109 87q-42 103 -42 296
v19q0 325 111 977q24 153 24 231v14q0 158 -99 229q-58 44 -108 44h-12q-61 0 -124 -53q-39 -43 -47 -70q-27 -61 -27 -127v-6q0 -96 67 -196q67 -107 67 -140q-4 -12 -27 -23q-38 -16 -77 -16h-9q-89 0 -172 52q-34 27 -61 73q-50 80 -50 219v9q0 65 20 259l2 32
q0 54 -23 69q-9 4 -15 4q-33 0 -49 -82q-11 -94 -11 -149q0 -38 30 -82q12 -24 12 -38q-5 -22 -30 -22q-63 0 -84 134q-4 27 -4 49v10q0 94 50 185q42 59 99 77q10 3 19 3h10q62 0 105 -55q24 -39 24 -95q0 -31 -20 -192q-5 -43 -5 -92v-9q0 -185 66 -226q25 -17 70 -32h2
q-44 45 -60 90q-44 99 -44 216v11q0 141 69 260q46 75 134 107q59 18 105 18z" />
    <glyph glyph-name="f" unicode="f" horiz-adv-x="2110" 
d="M482 915q75 0 143 -50q44 -40 44 -99v-7q0 -47 -52 -226q-20 -92 -20 -157q0 -126 75 -199q27 -34 45 -34q4 4 4 8v6q0 12 -32 135q-10 57 -10 102v6q0 117 51 287q51 143 155 201q42 21 86 21q74 0 105 -38q8 -12 8 -30q0 -51 -80 -189q-68 -134 -68 -228q0 -89 64 -148
q47 -37 107 -37q96 0 126 82q36 83 59 106q28 22 63 22q74 0 102 -73q9 -23 26 -90q29 -69 103 -69h2q79 0 131 90q23 51 23 113q0 121 -102 190q-14 11 -119 77q-56 42 -56 88v7q0 54 61 93q36 19 81 19q117 0 229 -81q75 -64 93 -96q90 -113 90 -311q-7 -355 -21 -355
q-16 -42 -42 -42h-1q-35 0 -49 68q0 7 -1 24l16 254q2 12 2 22q0 194 -174 323q-36 21 -53 22q-13 0 -13 -9v-1q0 -18 79 -92q96 -100 96 -241v-27q0 -125 -85 -252q-71 -100 -166 -100q-77 0 -135 39q-43 44 -57 104q-30 98 -63 98h-6q-45 0 -96 -109q-23 -45 -58 -81
q-40 -33 -100 -33h-12q-123 0 -197 109q-59 115 -59 228v19q0 125 97 325q16 40 16 55q0 8 -7 13h-8q-23 0 -61 -64q-21 -33 -54 -140q-24 -90 -24 -166v-7q0 -113 54 -278q8 -31 8 -45q0 -30 -26 -39q-51 -14 -84 -14q-77 0 -127 36q-33 12 -116 87q-82 88 -82 218v27
q0 91 55 306q12 47 12 80q0 47 -39 58q-5 1 -10 1h-4q-39 0 -71 -73q-16 -46 -34 -165q-2 -7 -2 -14q0 -28 38 -82q10 -20 10 -33v-2q0 -20 -39 -23h-1q-60 0 -91 68q-22 54 -22 112q0 118 90 222q57 52 120 69q31 9 60 9z" />
    <glyph glyph-name="g" unicode="g" horiz-adv-x="1911" 
d="M1069 913q122 0 252 -59q121 -62 170 -193q34 -90 34 -184v-6q0 -166 -110 -306q-15 -19 -15 -29q0 -2 4 -3q29 8 84 87q76 115 76 234q0 133 -88 324q-12 36 -12 53q0 51 73 70q16 2 21 2q60 0 138 -64q126 -122 126 -338q0 -46 -18 -323q-6 -150 -13 -150
q-18 -28 -50 -28q-54 10 -54 42q24 271 24 363v3q0 220 -75 303q-11 10 -19 10q-10 -3 -10 -16q0 -12 35 -143q9 -49 9 -89v-15q0 -158 -82 -281q-27 -39 -81 -91q-53 -45 -130 -63q-47 -10 -77 -10h-15q-39 0 -51 21q-2 5 -2 11q0 21 68 88q75 82 102 132q46 84 46 138
q0 92 -117 189q-101 74 -256 74q-244 0 -317 -142q-28 -59 -28 -115q0 -105 140 -304q28 -39 28 -56t-45 -20h-10q-63 0 -208 37q-103 34 -141 95q-75 85 -75 252q0 62 25 267q2 12 2 41v3q0 48 -21 63q-12 9 -21 9h-7q-32 0 -54 -68q-10 -26 -17 -170v-8q0 -34 38 -85
q12 -19 12 -32v-6q-7 -22 -36 -22q-86 0 -108 172q0 11 -1 25q0 102 61 197q25 31 49 48q57 39 107 39q80 0 133 -58q29 -38 29 -97v-2q0 -41 -27 -221q-3 -40 -4 -82q4 -99 14 -139q19 -66 62 -98q44 -30 66 -30q6 1 6 3v2q0 5 -49 66q-60 105 -60 231v2q0 115 60 246
q63 103 181 162q37 16 97 28q83 14 132 14z" />
    <glyph glyph-name="h" unicode="h" horiz-adv-x="2200" 
d="M1343 921h24q136 0 238 -90q78 -78 114 -180q31 -97 31 -171v-22q0 -112 -83 -267q-10 -25 -13 -38q2 -6 4 -6q49 12 105 100q38 74 38 160v26q0 167 -116 344q-38 52 -38 75q0 41 77 60q12 2 32 3q97 0 199 -91q60 -59 86 -126q48 -115 48 -322q-8 -359 -26 -359
q-7 -10 -38 -10h-2q-84 0 -84 62q23 204 23 333v35q0 160 -61 238q-45 66 -77 70h-5q-5 -2 -5 -10q0 -12 50 -111q39 -100 39 -193v-23q0 -151 -79 -261q-36 -45 -94 -83q-110 -64 -180 -64q-53 0 -72 39q-5 14 -5 26q0 46 69 173q66 134 66 244q-6 188 -129 233
q-55 20 -106 20q-112 0 -148 -93q-17 -44 -17 -91v-5l9 -177v-8q0 -248 -189 -314q-92 -31 -205 -31q-193 0 -305 91q-94 88 -94 278v22q0 33 26 228q8 60 8 92q0 58 -33 72q-9 4 -20 4q-49 0 -72 -100q-13 -104 -13 -144v-16q0 -34 44 -87q14 -23 14 -35v-3q0 -21 -40 -25
h-4q-96 0 -121 179q-1 18 -1 29q0 105 67 202q48 63 142 91q18 3 32 3h11q80 0 140 -51q41 -41 41 -115q0 -36 -27 -213q-8 -52 -8 -105q0 -75 15 -136q19 -33 53 -61q55 -29 85 -29q69 -13 120 -13h5q172 0 172 194q0 32 -18 201q-1 7 -2 50q0 209 156 272q76 30 147 30z
" />
    <glyph glyph-name="i" unicode="i" 
d="M-523 1935q114 0 230 -60q106 -63 147 -197q23 -77 23 -152v-7q0 -135 -75 -261q-37 -64 -90 -126q-37 -40 -72 -40h-2q-28 0 -33 20l-1 5q0 22 67 90q74 91 95 144q27 61 27 99v10q0 78 -98 170q-91 72 -215 72h-24q-204 0 -268 -138q-22 -54 -22 -96v-13
q0 -95 128 -290q19 -31 19 -42q0 -17 -36 -20h-11q-66 0 -190 43q-103 46 -148 149q-30 71 -30 184q0 59 20 252q2 11 2 38v5q0 49 -21 62q-8 5 -13 5h-6q-26 0 -44 -68q-14 -90 -14 -157v-4q0 -35 32 -81q10 -24 10 -33q0 -21 -30 -24q-67 0 -87 151l-2 34q0 91 46 179
q34 58 103 84q14 4 28 4q60 0 104 -48q28 -38 28 -94v-9q0 -35 -21 -199q-4 -39 -5 -83q0 -184 69 -229q47 -39 61 -39h1q4 2 4 3q0 8 -35 52q-33 57 -33 69q-28 79 -28 162q0 97 46 215q53 113 175 173q37 16 87 25q68 11 102 11z" />
    <glyph glyph-name="j" unicode="j" horiz-adv-x="1600" 
d="M1076 923h17q189 0 321 -117q60 -56 90 -180q2 -19 2 -30v-15q0 -78 -52 -154q-12 -15 -65 -66v-1q38 -16 79 -61q39 -55 39 -117v-23q0 -90 -22 -148q-9 -11 -16 -11h-2q-17 0 -30 40q-2 15 -2 19q1 72 1 85q0 63 -46 105q-58 55 -202 55q-106 6 -118 15q-61 19 -61 37
q0 34 221 66q106 18 153 50q46 36 46 76q0 88 -199 129q-70 10 -139 10h-17q-234 0 -334 -119q-46 -72 -46 -148v-16q0 -126 171 -315q17 -25 17 -33v-4q0 -14 -45 -19h-23q-89 0 -219 43q-104 42 -159 169q-28 72 -28 164v28q0 63 27 286v31q0 54 -32 69q-11 2 -15 2
q-49 0 -67 -107q-11 -97 -11 -146q0 -41 40 -91q14 -26 14 -37q-5 -26 -39 -26h-2q-79 0 -108 151q-3 28 -3 44v19q0 108 71 208q79 80 153 80q73 0 130 -49q40 -41 40 -111v-10q0 -38 -27 -220q-5 -55 -5 -104q0 -161 43 -203q34 -37 48 -37h3q9 0 11 10q0 9 -30 73
q-28 93 -28 189q0 86 39 202q68 144 205 214q111 49 211 49z" />
    <glyph glyph-name="k" unicode="k" horiz-adv-x="2000" 
d="M1064 917h4q219 0 322 -126q42 -48 64 -92q68 -132 68 -269q0 -122 -53 -247v-3q2 -11 11 -11q22 0 60 81q42 91 42 187q0 161 -143 382q-14 26 -14 40v6q0 36 83 43q7 2 22 2q123 0 238 -121q109 -123 109 -382q0 -83 -20 -333q-8 -45 -21 -59q-14 -15 -34 -15h-3
q-50 0 -50 100q0 29 13 246q1 5 1 40q0 196 -95 317q-33 32 -55 41q-9 4 -26 7q-9 -1 -9 -3v-1q0 -7 48 -77q58 -100 58 -198v-16q0 -130 -61 -266q-38 -71 -109 -134q-50 -47 -102 -47q-49 0 -63 46q-1 10 -1 16q0 25 36 129q28 88 28 171q0 134 -74 242q-50 71 -158 104
q-47 14 -99 14q-148 0 -210 -118q-47 -80 -47 -143q8 -3 109 -6q134 -12 235 -70q101 -64 101 -182q0 -87 -55 -148q-64 -60 -161 -60q-100 0 -207 62q-56 44 -70 73q-30 47 -57 116q-7 3 -10 3q-48 -1 -72 -1v-9q0 -49 -30 -135q-30 -65 -115 -65q-112 0 -160 91
q-19 40 -19 77q0 89 133 162q54 31 65 33q-8 204 -16 249q0 45 -28 119q-26 46 -60 46q-53 0 -75 -97q-11 -80 -11 -133q0 -46 39 -93q13 -21 13 -33v-4q0 -19 -37 -23h-6q-90 0 -117 155q-1 16 -1 27v18q0 97 75 192q52 48 89 59q42 20 84 20q81 0 144 -49q29 -27 42 -84
q14 -62 14 -155q0 -63 -10 -162q1 0 1 -1q3 1 4 1q10 0 46 1q9 0 9 49q16 146 32 193q36 112 107 158q77 53 215 53zM836 242v-2q24 -56 100 -105q86 -49 149 -49h15q49 0 69 30q4 6 4 14q0 45 -133 86q-110 23 -178 23q0 2 -26 3zM427 159q0 -22 41 -25h4q30 0 30 52
q-1 33 -1 43h-1q-73 -38 -73 -70z" />
    <glyph glyph-name="l" unicode="l" horiz-adv-x="2102" 
d="M452 925q83 0 143 -51q39 -42 39 -102v-17q0 -33 -28 -214q-6 -96 -6 -108q0 -204 57 -245q33 -27 56 -29h2q1 0 4 4v8q0 8 -33 122q-16 70 -16 125v4q0 130 45 289q45 133 124 180q61 34 121 34h2q157 0 209 -143q10 -36 10 -67v-12q-7 -134 -7 -181q0 -153 33 -191
q37 -57 138 -86q54 -13 104 -13h17q133 0 209 73q51 54 51 136q0 129 -121 319q-20 36 -20 59v8q0 46 66 78q20 7 40 7h5q81 0 160 -76q59 -64 85 -133q36 -80 36 -208q-6 -215 -6 -269v-112q0 -98 -30 -107q-6 -4 -12 -4h-5q-25 0 -43 39q-7 16 -7 50q4 169 4 279v55
q0 150 -70 244q-33 52 -56 52q-19 -3 -19 -14v-3q0 -3 32 -79q38 -119 38 -206v-21q0 -110 -51 -221q-96 -178 -301 -178q-123 0 -245 61q-128 71 -128 263q4 136 4 150v10q0 85 -32 153q-21 34 -88 52q-12 1 -18 1h-5q-74 0 -128 -64q-61 -95 -61 -174q0 -86 89 -349
q5 -27 5 -35q0 -45 -48 -59q-16 -5 -33 -5h-4q-70 0 -170 61q-47 34 -74 68q-92 105 -92 303q0 72 28 296v31q0 49 -30 65q-12 4 -21 4q-47 0 -69 -92q-14 -99 -14 -157q0 -39 43 -89q15 -25 15 -37q-6 -26 -41 -26h-3q-87 0 -115 154q-4 15 -4 41v15q0 104 73 201
q46 46 86 63q46 20 81 20z" />
    <glyph glyph-name="m" unicode="m" horiz-adv-x="1600" 
d="M643 915q216 0 327 -49q56 -31 56 -85q0 -53 -35 -80q-26 -14 -66 -14q-109 1 -183 1h-3q-114 0 -158 -22q-89 -42 -89 -90v-5q0 -52 133 -68q101 -12 228 -19q51 -8 77 -30q18 -16 18 -32q0 -44 -83 -44q-170 6 -202 6q-134 0 -171 -50q-8 -13 -8 -25q0 -38 48 -57
q29 -17 100 -33q154 -26 251 -26h14q249 0 309 123q34 59 34 128v13q0 112 -97 285q-30 60 -30 91q0 40 45 54q11 4 43 6q102 0 199 -77q71 -68 98 -145q28 -71 28 -146v-24q0 -74 -17 -409q-11 -90 -66 -90q-46 0 -46 79q0 15 18 267q3 52 3 90q0 179 -124 297q-14 9 -19 9
h-5q-9 0 -10 -12q0 -14 43 -99q34 -86 34 -167q0 -98 -42 -210q-77 -169 -226 -224q-96 -32 -227 -32q-197 0 -340 71q-25 12 -70 54q-71 82 -71 166q0 102 87 159l9 9q0 5 -25 25q-56 55 -56 111v5q0 72 61 123q31 21 78 45q16 11 17 13q-39 7 -69 7h-8q-89 0 -137 -121
q-13 -42 -13 -70q0 -23 28 -82q4 -10 4 -21q0 -22 -33 -22q-44 0 -71 44q-21 42 -21 96q0 138 118 229q31 21 61 32q130 41 211 41q30 1 41 1z" />
    <glyph glyph-name="n" unicode="n" horiz-adv-x="1711" 
d="M455 925q92 0 149 -57q48 -50 48 -228q0 -53 -11 -175l4 -2q62 0 62 5q11 128 25 187q16 63 38 109q51 93 152 131q71 25 174 25h6q295 0 410 -179q91 -114 91 -338v-57q0 -248 -32 -311q-20 -35 -49 -35h-7q-55 0 -55 148l6 213v17q0 214 -108 276q-120 74 -248 74h-6
q-157 0 -225 -122q-44 -75 -44 -114q-1 0 -4 -18q0 -6 26 -6q158 0 282 -45q167 -64 167 -203v-10q0 -93 -71 -153q-67 -47 -150 -47h-16q-104 0 -220 64q-62 49 -78 84q-27 43 -50 98q-5 3 -9 3h-76q-4 0 -6 -41q-15 -73 -32 -106q-34 -60 -118 -60q-136 0 -182 111
q-11 31 -11 55q0 92 154 167q26 15 65 31q-9 274 -26 321q-22 101 -77 101q-49 0 -72 -92q-11 -81 -11 -134v-2q0 -47 42 -97q9 -19 9 -28v-2q0 -17 -28 -23q-7 -1 -13 -1q-93 0 -117 163q0 11 -1 26q0 100 69 192q29 31 57 49q64 36 117 36zM846 243v-1q25 -59 121 -113
q85 -40 149 -40h4q67 0 83 37q2 6 2 8q0 39 -118 78q-103 25 -154 25q-61 6 -87 6zM408 163q0 -23 45 -26h2q34 0 34 51q-1 35 -2 44q-71 -34 -79 -67v-2z" />
    <glyph glyph-name="o" unicode="o" horiz-adv-x="1128" 
d="M559 929h14q191 0 335 -146q143 -136 143 -346q0 -207 -130 -329q-126 -102 -259 -102h-11q-136 0 -177 78q-17 31 -17 58q0 57 58 85q17 10 41 10h10q48 0 130 -48q44 -17 68 -17h7q68 0 140 109q27 54 27 112q0 88 -61 170q-106 101 -301 101h-10q-270 0 -451 -264
q-27 -41 -38 -41q-3 7 -3 10v10q0 129 68 302q58 129 233 211q88 37 184 37z" />
    <glyph glyph-name="p" unicode="p" horiz-adv-x="1600" 
d="M425 926q87 0 139 -63q24 -38 24 -77q0 -55 -25 -221q-7 -62 -7 -106q0 -127 31 -155q66 -72 287 -72q250 0 303 71q54 54 54 164v16q0 103 -40 288q-3 28 -3 43v5q0 72 58 96q15 6 28 6q75 0 157 -120q73 -131 73 -275v-12q-9 -453 -19 -453q-10 -51 -44 -51
q-48 0 -48 83q0 14 13 200q2 70 2 122v4q0 141 -49 230q-16 21 -24 21h-3q-14 0 -17 -44v-8q0 -16 13 -139q1 -20 1 -32q0 -128 -67 -252q-115 -195 -356 -195h-23q-157 0 -279 62q-130 76 -173 201q-32 90 -32 194v2q0 75 25 276q0 10 1 29q0 48 -21 65q-12 8 -20 8h-5
q-49 0 -64 -112q-10 -93 -10 -124q0 -39 35 -83q16 -26 16 -41q-4 -24 -37 -24q-75 0 -103 138q-4 30 -4 55v3q0 100 59 190q43 59 124 84q21 3 30 3z" />
    <glyph glyph-name="q" unicode="q" horiz-adv-x="1600" 
d="M1117 920h17q165 0 283 -132q51 -60 83 -163q20 -67 20 -165q0 -34 -8 -300q1 -25 1 -65v-20q0 -37 -18 -47q-14 -5 -27 -5q-41 0 -57 28q-9 19 -9 52v20l9 199v3q0 285 -193 391q-39 19 -68 19h-9q-28 0 -33 -18v-6q0 -21 54 -48q64 -45 98 -100q50 -76 50 -159
q0 -90 -54 -199q-23 -36 -65 -83q47 -88 107 -246q5 -21 5 -28v-4q0 -8 -5 -10h-4q-9 4 -41 52q-50 76 -128 184q-36 -22 -80 -40q-75 -26 -188 -26h-18q-156 0 -293 99q-63 54 -74 75q-43 48 -63 147q-15 62 -15 120q0 76 33 269q5 30 5 52q0 44 -28 58q-10 3 -13 3h-7
q-33 0 -56 -65q-12 -40 -22 -143q0 -6 -1 -19q0 -33 36 -80q11 -20 11 -30v-5q0 -16 -35 -21q-75 0 -99 122q-5 23 -6 55q0 92 57 179q44 61 129 86q16 4 28 4h11q69 0 123 -46q36 -36 36 -97q0 -41 -33 -208q-9 -63 -9 -115q0 -136 49 -175q26 -21 98 -32q27 -5 63 -5h26
q69 0 190 13q-111 117 -188 133q-16 0 -34 -67q-14 -34 -27 -34q-21 0 -26 68v6q0 66 24 148q8 16 32 16q68 0 224 -120q75 -68 112 -121q53 24 82 99q7 30 7 51q0 91 -95 151q-54 26 -79 29q-87 15 -117 24q-54 21 -54 80q0 107 130 180q70 32 146 32z" />
    <glyph glyph-name="r" unicode="r" horiz-adv-x="1600" 
d="M1038 915h29q132 0 250 -62q95 -58 140 -178q37 -84 37 -311q0 -11 1 -71q-1 -239 -9 -239q-13 -47 -48 -47h-1q-28 0 -39 42q-6 28 -6 59q0 48 1 114q-1 79 -1 102q1 82 1 119q0 92 -47 157q-46 50 -87 63q-80 40 -169 40q-156 0 -214 -117q-25 -62 -25 -93l-13 -142
q0 -36 -31 -129q-26 -61 -64 -107q-54 -58 -92 -72q-97 -43 -167 -43q-26 0 -32 36l-1 6q0 22 40 98q47 111 49 157q9 50 9 115v13q0 160 -56 280q-40 75 -89 75q-63 0 -83 -108q-13 -75 -13 -106v-13q0 -41 45 -98q15 -22 15 -36v-2q0 -20 -39 -23q-78 0 -108 114
q-9 36 -9 69v20q0 95 67 191q37 40 58 51q62 37 112 37q69 0 130 -45q109 -92 109 -323v-35q0 -79 -31 -190q0 -11 -34 -109q-3 -7 -4 -17q2 -10 10 -10q40 0 92 157q18 62 18 134l-7 207q0 139 67 191q85 79 239 79z" />
    <glyph glyph-name="s" unicode="s" horiz-adv-x="1600" 
d="M562 919q67 0 134 -48q53 -42 53 -126q0 -97 -100 -344q-14 -28 -14 -31v-1q52 -17 191 -121q63 -50 146 -50q100 0 177 46q42 35 51 59q28 49 28 98q0 78 -103 253q-56 100 -56 146q0 72 76 103q32 10 60 10q100 0 189 -89q135 -148 135 -379q0 -66 -20 -369
q-7 -32 -21 -45q-16 -12 -31 -12h-4q-46 0 -46 91q11 195 11 235q0 194 -71 302q-55 90 -88 90q-14 -4 -14 -14v-7q0 -18 56 -131q47 -110 47 -189v-17q0 -136 -134 -267q-130 -112 -266 -112q-138 0 -252 111q-113 103 -117 103q-9 3 -11 3h-3q-17 -2 -68 -66
q-45 -45 -70 -55q-59 -29 -102 -29q-68 0 -103 69q-10 27 -10 50v16q0 72 83 147q75 55 159 55h30q6 0 18 -1q35 75 71 271q7 47 7 76q0 69 -48 91q-13 4 -17 4q-51 0 -98 -99q-44 -99 -44 -128q0 -19 22 -81q1 -9 1 -10q0 -26 -36 -26q-63 0 -85 63q-9 26 -9 56
q0 124 110 235q77 64 186 64zM319 173v-5q0 -16 23 -16q43 0 82 67q10 23 10 34v1q0 2 -5 4h-10q-36 0 -76 -31q-24 -31 -24 -54z" />
    <glyph glyph-name="t" unicode="t" horiz-adv-x="1894" 
d="M1054 918h16q180 0 292 -130q45 -53 73 -106q67 -126 67 -242q0 -140 -54 -255q-6 -17 -6 -29q3 -13 13 -13h4q27 0 68 99q26 82 26 166v5q0 150 -108 345q-27 51 -27 80q0 42 51 69q20 10 46 10q71 0 166 -83q124 -127 124 -378v-28q0 -125 -24 -398q-5 -18 -15 -25
q-14 -5 -24 -5q-43 4 -43 30q0 12 -2 16q16 312 16 347v27q0 177 -72 294q-41 58 -66 58h-1q-14 0 -16 -16v-6q0 -16 47 -105q46 -118 46 -219q0 -130 -71 -285q-81 -140 -195 -140h-2q-74 4 -74 34v2q0 15 39 81q18 32 38 108q22 87 22 146q0 171 -152 249q-93 40 -217 40
q-140 0 -175 -42q-31 -30 -31 -56q0 -29 46 -35q124 -17 156 -30q71 -29 102 -91q23 -53 23 -105q0 -113 -95 -218q-38 -38 -131 -57q-60 -13 -118 -13q-119 0 -224 48q-88 54 -118 119q-65 114 -65 247v30q0 55 25 260q1 12 1 31v6q0 58 -38 68q-6 2 -9 2q-47 0 -66 -100
q-12 -97 -12 -139v-5q0 -38 39 -85q15 -26 15 -35q0 -18 -24 -25q-11 -1 -17 -1q-79 0 -108 148q-3 44 -3 47q0 97 57 189q46 64 132 91q20 4 28 4h12q76 0 130 -52q35 -39 35 -102v-3q0 -41 -27 -214q-4 -40 -5 -88q4 -113 13 -124q27 -40 70 -64q93 -37 208 -37h29
q106 0 147 39q6 10 6 17v4q0 37 -117 37q-87 0 -114 22q-104 61 -104 200q0 107 53 207q92 162 289 162z" />
    <glyph glyph-name="u" unicode="u" 
d="M-129 20q13 0 13 -36v-15q0 -94 -65 -416q-62 -257 -134 -424q-46 -105 -193 -413q-65 -138 -68 -196q0 -32 29 -47q17 -3 26 -3q49 0 108 72q42 65 82 160q52 123 110 358q30 131 53 283q9 87 23 279q6 47 16 47q23 0 36 -167q3 -43 3 -91v-18q0 -420 -144 -822
q-32 -90 -88 -174q-107 -170 -231 -170q-95 0 -150 80q-33 54 -33 134q0 155 127 376q114 214 160 301q150 283 202 485q26 102 72 319q26 98 46 98z" />
    <glyph glyph-name="v" unicode="v" horiz-adv-x="1800" 
d="M1244 915q254 0 398 -206q65 -89 65 -255q0 -20 4 -222q0 -139 -27 -172q-14 -14 -33 -14q-40 0 -53 36q-4 17 -4 26q1 178 1 212q0 180 -72 240q-48 58 -155 83q-70 14 -129 14q-209 0 -284 -117q-28 -49 -30 -70v-2q0 -5 68 -20q122 -35 169 -106q48 -66 48 -129v-6
q0 -85 -79 -165q-40 -36 -85 -36q-83 0 -138 89q-34 65 -34 124h-1q-37 -16 -173 -123q-130 -96 -209 -96h-8q-97 0 -173 79q-35 38 -35 91q0 105 76 173q26 18 53 18h4q50 -4 50 -31q0 -24 -50 -89q-12 -18 -12 -25v-8q0 -12 22 -15h8q46 0 169 107q143 112 206 142
q43 23 43 28q20 140 43 201q35 86 73 131q96 113 284 113zM405 904q137 0 245 -156q59 -80 59 -172q0 -60 -47 -81h-6q-28 0 -53 76q-33 82 -89 151q-86 95 -126 95h-9q-49 0 -68 -138v-14q0 -38 44 -80q24 -26 24 -40q0 -16 -35 -18h-4q-75 0 -118 101q-10 28 -10 60
q0 79 60 158q58 58 133 58zM934 220q11 -25 61 -60q37 -21 64 -21h7q26 0 34 29v6q0 33 -66 53q-24 5 -46 5h-4q-50 0 -50 -12z" />
    <glyph glyph-name="w" unicode="w" horiz-adv-x="1600" 
d="M421 915q82 0 131 -55q26 -33 26 -91q0 -35 -23 -188q-6 -47 -7 -91q0 -118 41 -192q42 -54 105 -54q83 -11 153 -11h29q132 0 206 34q51 25 78 95q8 28 8 54q0 86 -84 144q-45 31 -155 47q-94 13 -94 88q0 105 121 177q67 34 156 34q195 0 313 -177q52 -88 60 -162
q10 -46 10 -139q-8 -374 -16 -374q-13 -50 -41 -50h-10q-26 0 -43 42q-7 31 -7 67q0 67 2 203q0 181 -54 262q-13 27 -65 83q-73 62 -133 62q-35 -3 -35 -18v-3q0 -25 50 -49q49 -34 88 -87q56 -82 56 -168q0 -90 -50 -195q-16 -28 -54 -73q-67 -79 -189 -115
q-68 -15 -151 -15q-181 0 -320 123q-72 75 -93 139q-34 91 -34 177q-1 0 -1 31q0 78 22 255q3 14 3 40q0 51 -28 64q-7 3 -12 3h-8q-30 0 -51 -62q-11 -32 -17 -155v-10q0 -31 37 -79q12 -18 12 -30v-3q0 -18 -32 -21h-8q-66 0 -95 121q-6 36 -6 62q0 102 68 192
q71 68 141 68z" />
    <glyph glyph-name="x" unicode="x" horiz-adv-x="2200" 
d="M741 925h5q120 0 182 -79q27 -37 52 -139q8 -34 64 -86q19 -12 32 -12q32 0 83 55q25 36 63 123q62 118 153 118h11q91 0 176 -63q66 -64 93 -120q73 -125 73 -256q0 -115 -88 -270q-24 -47 -24 -60q1 -2 1 -4h5q34 7 80 79q73 123 73 255q0 115 -91 281q-36 66 -36 90v4
q0 45 89 60h22q82 0 179 -76q114 -103 114 -379l-7 -256v-32q0 -25 1 -59q0 -99 -73 -99q-34 0 -42 28q-3 12 -5 38q5 119 5 190q0 313 -38 385q0 19 -48 98q-24 32 -39 32h-5q-12 -6 -12 -17v-3q0 -12 38 -79q46 -107 46 -202q0 -192 -129 -352q-88 -91 -183 -113
q-15 -4 -30 -4h-6q-38 0 -51 29q-2 7 -4 22q0 47 75 171q51 105 51 191v3q0 100 -70 175q-56 46 -130 46q-120 0 -195 -122q-66 -99 -131 -99h-2q-62 0 -122 82q-18 29 -67 117q-44 72 -136 72q-102 0 -148 -99q-13 -22 -52 -104q-60 -71 -145 -71h-1q-100 0 -159 83
q-26 51 -26 115q0 93 46 178q10 12 19 12q16 0 26 -101q1 -17 26 -65q40 -57 72 -57h13q42 0 75 72q47 141 94 195q65 79 158 79z" />
    <glyph glyph-name="y" unicode="y" horiz-adv-x="1894" 
d="M1533 925h8q70 0 139 -76q122 -143 122 -490v-72q0 -51 1 -123q0 -121 -22 -146q-11 -12 -29 -12q-36 0 -48 45q-3 14 -3 27q7 172 7 223q0 330 -85 402q-13 9 -22 9h-1q-13 0 -13 -18q0 -21 43 -149q22 -82 22 -137v-5q0 -163 -92 -307q-37 -58 -138 -89q-30 -7 -61 -7
h-1q-91 0 -170 46q-59 43 -77 118q-26 88 -47 275q-8 94 -15 129h-1q-7 -33 -38 -207q-42 -193 -78 -237q-65 -101 -186 -101q-144 0 -250 88q-45 39 -58 67q-53 76 -53 186v25q0 112 59 337q5 36 5 51v12q0 35 -30 48q-10 2 -15 2q-40 0 -68 -74q-30 -115 -30 -160
q0 -24 34 -75q9 -18 9 -28v-3q0 -14 -20 -19q-4 -2 -13 -2h-2q-75 0 -98 107q-6 28 -6 60q0 109 82 203q49 45 91 58q38 14 71 14q68 0 130 -46q41 -38 41 -93q0 -46 -49 -221q-26 -151 -26 -205v-19q0 -45 23 -83q55 -57 137 -57h3q76 0 135 76q25 27 54 87q30 73 51 160
q13 66 31 236q14 86 27 106q18 25 39 25q34 0 51 -74q7 -50 22 -213q18 -119 40 -193q24 -71 52 -111q47 -75 98 -86q14 -6 52 -9q82 0 138 73q40 58 40 141v9q0 92 -67 263q-32 87 -32 132v2q0 70 64 101q13 4 23 4z" />
    <glyph glyph-name="z" unicode="z" horiz-adv-x="2953" 
d="M770 9l-5 4q2 -2 3 -2.5t2 -1.5zM444 924q91 0 151 -62q33 -40 33 -108q0 -38 -29 -226q-6 -55 -6 -97q0 -83 16 -109q7 -27 34 -64q37 -35 67 -35q2 0 5 5q-26 64 -44 125q-25 91 -25 176v9q0 183 117 295q99 77 215 77h9q150 0 211 -124q26 -46 46 -103h3q13 21 44 83
q33 59 73 94q55 45 158 45h9q151 0 243 -101q61 -64 79 -123q29 -82 29 -168v-16q0 -186 -114 -350v-3q63 0 102 109q16 34 29 98q25 187 52 262q24 75 81 132q52 49 103 78q119 65 241 65h26q171 0 305 -115q171 -140 171 -358v-2q0 -221 -161 -336q-115 -77 -235 -77
q-163 0 -197 99q-5 23 -5 33q0 54 56 81q21 8 45 8h6q50 0 141 -45q41 -18 66 -18q60 0 126 83q45 60 45 127v13q0 79 -66 157q-110 96 -302 96q-254 0 -351 -196q-40 -72 -99 -213q-29 -61 -86 -114q-82 -62 -167 -62q-37 0 -43 24v4q0 15 32 79q97 154 97 284v1
q0 144 -156 212q-58 20 -112 20h-2q-4 0 -6 1l-8 -1h-9q-143 0 -220 -156q-11 -21 -15 -22h-3q-4 0 -29 52q-25 39 -62 71q-84 55 -167 55q-76 0 -176 -63q-41 -35 -48 -60q-20 -48 -20 -90q0 -80 58 -199q21 -41 129 -153q15 -14 15 -22v-2q0 -20 -66 -29q-65 -7 -105 -7
q-250 0 -332 180q-34 73 -34 189q0 72 27 288q3 16 3 47q0 65 -42 75h-14q-33 0 -59 -67q-13 -28 -21 -183v-14q0 -34 44 -89q13 -22 13 -35v-4q0 -20 -37 -24h-9q-82 0 -113 152q-5 36 -5 58q0 108 67 209q54 65 139 89q18 5 39 5z" />
    <glyph glyph-name="braceleft" unicode="{" horiz-adv-x="1303" 
d="M1785 912h4q225 0 375 -213q63 -110 63 -226v-9q0 -3 1 -4q-1 -2 -1 -4v-6q0 -145 -82 -253q-47 -52 -67 -63q-104 -69 -199 -69h-19q-132 0 -165 86q-8 20 -8 40q0 46 44 73q21 11 49 11h4q44 0 114 -38q45 -21 70 -21h5q56 0 118 87q34 54 34 115v6q0 80 -59 153
q-97 92 -269 92h-13q-188 0 -330 -148q-57 -70 -121 -181q-16 -26 -51 -51q-6 -4 -13 -4q-8 2 -8 16q0 9 15 105q1 18 1 40v7q0 91 -34 179q-19 39 -33 39t-17 -48v-2q0 -10 13 -136v-37q0 -93 -45 -199q8 -23 11 -23q3 -2 11 -25q5 0 14 -34q7 0 26 -66q11 -31 11 -36
q0 -2 -2 -3q-2 0 -7 13q-5 0 -7 9q-4 0 -10 12q-2 0 -7 8q-3 0 -7 9q-2 1 -8 11q-4 0 -6 9q-5 0 -8 9q-4 0 -8 8l-35 41q-14 -25 -69 -80q-64 -51 -136 -66q-53 -12 -112 -12q-271 0 -386 177q-26 45 -50 133q-13 55 -13 130q0 68 22 249q2 23 2 36q0 48 -24 63q-9 4 -13 4
h-7q-29 0 -49 -66q-15 -101 -15 -152q0 -37 28 -73q18 -27 18 -42v-1q-4 -21 -29 -21h-7q-66 0 -90 134q-3 24 -3 46q0 104 63 190q64 67 128 67q75 0 120 -54q24 -31 26 -52q0 -4 1 -18q0 -36 -25 -218q-4 -44 -5 -91q0 -116 28 -146q28 -40 90 -56q74 -18 169 -18h25
q7 0 22 1l-13 40q1 5 1 9l-7 25q2 4 2 6q-5 12 -5 16l1 9l-4 11q1 6 1 9q0 2 -3 13q2 3 2 6l-3 10l2 7q-2 7 -2 10q1 3 1 6q-1 6 -1 10q0 1 1 6q-1 3 -1 5v11l-1 5q1 4 1 6v7q1 4 1 6l-1 4q1 4 1 6l-1 7l2 5l-1 6q0 5 2 5l-1 5v1q0 3 2 6q-1 4 -1 7l2 4q0 1 -1 6q3 11 3 15
q-1 2 -1 3q6 18 17 18h5q6 0 34 -16l32 -20q8 -3 27 -19q6 -3 19 -16q7 -2 15 -13q3 0 14 -12q2 0 11 -11q3 0 8 -7q2 0 13 -12q3 0 5 -7q4 0 8 -9q5 0 7 -8q3 0 8 -8q3 0 7 -8q3 0 6 -8q5 0 7 -9q4 0 9 -11q11 -13 12 -13q0 -5 8 -12q2 -8 7 -8q23 49 23 127q0 97 -35 274
q-4 26 -5 49q0 69 52 94q13 5 26 5h1q64 0 133 -100q25 -37 48 -103q25 -85 25 -127h2q22 79 44 122q57 117 223 186q72 26 153 26zM852 275v-5v-1q0 -3 -1 -6q0 -7 1 -7q89 0 165 27q12 7 12 8q-2 0 -22 19q-2 0 -15 11q-43 31 -48 31q0 2 -13 9q-23 13 -27 13q0 1 -9 4v1
l-1 -1q-3 0 -3 4h-2q-4 -7 -11 -12q0 -2 -9 -17q-11 -33 -17 -78v0z" />
    <glyph glyph-name="bar" unicode="|" horiz-adv-x="1387" 
d="M1042 1230q128 0 208 -166q18 -45 23 -54h3q59 16 88 53q31 51 31 76q5 14 8 83l3 3h2q15 -19 36 -60q26 -59 26 -121q0 -119 -139 -189q51 -150 51 -310v-26q0 -143 -69 -285q-86 -151 -232 -201q-101 -34 -205 -34q-178 0 -322 93q-59 41 -102 83q-34 39 -65 111
q-27 71 -27 207v1q0 125 29 311q5 28 5 52v14q0 41 -27 53q-8 2 -13 2q-30 0 -52 -65q-10 -32 -20 -157v-4q0 -30 33 -79q9 -20 9 -30q0 -19 -31 -23h-2q-50 0 -75 76q-16 49 -16 99q0 92 55 181q21 29 48 49q52 34 93 34q66 0 116 -50q28 -37 28 -91q0 -36 -30 -204
q-8 -55 -8 -106v-6q0 -139 51 -195q52 -74 168 -105q105 -29 218 -29q118 0 201 51q53 41 75 85q76 121 76 266q0 92 -26 215v1q-33 -2 -45 -2q-105 0 -219 74q-86 61 -86 167q0 90 64 135q29 17 63 17zM995 1103v-2q0 -30 105 -75q66 -25 102 -25h1q5 0 6 3v4
q-18 70 -64 116q-41 42 -77 42q-45 0 -71 -51q-2 -7 -2 -12z" />
    <glyph glyph-name="braceright" unicode="}" horiz-adv-x="1751" 
d="M988 583h3q25 0 96 -120q42 -75 70 -170q35 -130 35 -243q0 -44 -3 -44q-4 7 -35 92q-36 89 -96 195q-31 51 -70 99q-7 3 -11 3q-14 0 -49 -78q-14 -24 -18 -24h-3q-4 0 -4 13v17q0 82 36 191q28 69 49 69zM2222 910q186 0 320 -143q134 -136 134 -344q0 -223 -144 -341
q-110 -83 -224 -83q-130 0 -172 74q-15 32 -15 56v12q0 46 49 76q26 9 47 9q48 0 130 -46q41 -19 66 -19q62 0 129 104q29 55 29 114v7q0 91 -67 169q-100 93 -266 93h-23q-253 0 -432 -289q-17 -22 -30 -22q-16 0 -20 56q0 36 -21 146q-18 65 -42 115q-30 57 -49 57
q-10 -3 -10 -11v-11q0 -12 30 -123q14 -56 14 -110v-5q0 -180 -106 -318q-65 -88 -134 -120q-77 -31 -140 -31h-15q-36 0 -49 21q-2 8 -2 10q0 25 72 93q47 55 47 56q100 133 100 222q0 94 -118 195q-104 76 -261 76q-252 0 -323 -151q-28 -57 -28 -112q0 -108 130 -296
q42 -59 42 -77t-45 -20h-11q-96 0 -255 79q-166 98 -166 326v27q0 62 24 270q1 12 1 32v9q0 50 -27 66q-11 5 -15 5h-4q-46 0 -65 -104q-11 -99 -11 -144q0 -36 23 -67q30 -42 30 -62q0 -22 -39 -25q-80 0 -106 153q-3 15 -3 40v21q0 93 59 189q44 61 126 87q13 3 32 5
q74 0 128 -49q39 -40 39 -109v-8q0 -37 -27 -226q-3 -39 -3 -67v-32q1 -180 82 -233q21 -16 49 -31h1v1q-72 86 -85 161q-18 66 -18 132q0 113 58 247q66 115 195 177q31 14 126 31q60 9 98 9q136 0 272 -68q107 -59 159 -193q34 -95 34 -185v-12q0 -155 -94 -288
q-33 -41 -33 -56l4 -2q30 8 86 93q76 129 76 247q0 131 -88 325q-13 39 -13 55q0 53 76 72l18 2q72 0 158 -82q74 -86 97 -187h1q10 42 55 110q148 170 353 170z" />
    <glyph glyph-name="asciitilde" unicode="~" horiz-adv-x="1505" 
d="M883 914q151 0 219 -213q4 -7 5 -7q28 72 52 108q65 90 171 90h9q134 0 243 -156q52 -84 73 -196h1q15 53 42 109q44 79 120 139q122 101 273 101q247 0 408 -280q72 -140 72 -315v-5q0 -250 -127 -395q-81 -84 -177 -116q-44 -11 -74 -11h-24q-139 0 -177 110
q-10 28 -10 51v7q0 69 59 102q22 9 44 9q53 0 139 -58q44 -22 67 -22q71 0 144 140q25 65 25 133q0 119 -74 217q-108 111 -290 111q-268 0 -444 -312q-38 -63 -51 -63q-21 0 -33 72q-1 0 -1 15v11q0 9 8 99q0 102 -79 195q-82 75 -151 75h-16q-102 0 -201 -132
q-21 -19 -28 -19h-7q-16 2 -55 69q-70 87 -96 98q-27 14 -55 14q-113 0 -173 -112q-21 -29 -29 -29h-1q-19 0 -23 91v9q0 149 107 231q50 35 115 35zM394 908q64 0 111 -66q32 -52 32 -150q0 -58 -27 -330q-3 -49 -3 -81v-41q11 -17 38 -27h3q16 0 28 67q53 166 146 166h1
q2 0 3 2q37 0 47 -39q14 -43 14 -107q0 -155 -60 -229q-35 -61 -123 -92q-32 -9 -32 -12v-2q2 -57 23 -117q26 -69 96 -104q22 -9 38 -9q101 0 169 229q24 70 33 70h2q10 0 12 -76v-8q0 -148 -62 -314q-34 -86 -103 -122q-40 -16 -65 -16h-12q-63 0 -127 104
q-52 101 -52 281v85q-24 8 -50 26q-63 52 -83 128q-19 68 -19 169q0 69 20 351q1 11 1 41q0 86 -33 99h-8q-39 0 -55 -135q-10 -129 -10 -185v-15q0 -49 32 -111q13 -34 13 -51v-4q0 -26 -28 -31h-8q-64 0 -88 194q-4 47 -4 75q0 154 62 286q65 101 128 101zM652 231
q5 -8 13 -9q19 0 46 40l2 5v6l-7 3q-23 0 -52 -36q-2 -6 -2 -9z" />
    <glyph glyph-name="exclamdown" unicode="&#xa1;" 
d="M-181 -1100q6 -3 6 -13v-7q-9 -77 -59 -174q-32 -53 -55 -70q-50 -50 -122 -90q-85 -57 -85 -107v-7q0 -47 69 -60q10 -4 23 -4h3q89 0 154 114q17 34 26 64q20 70 20 93q10 124 17 124q3 13 13 13q16 -10 16 -90q0 -120 -33 -241q-49 -140 -160 -200q-50 -27 -105 -27
q-85 0 -135 90q-16 40 -16 84q0 80 49 154q39 46 89 73q29 17 108 60q39 24 78 67q37 47 50 77q23 47 36 67q6 10 13 10z" />
    <glyph glyph-name="cent" unicode="&#xa2;" 
d="M-205 -1120h3q10 0 16 -10q10 -6 13 -108q0 -16 6 -16q243 -50 243 -220v-4q0 -75 -57 -196q-58 -125 -87 -125q-16 0 -16 20q0 16 29 85q26 75 26 125q0 65 -39 114q-48 50 -140 50l-51 -4q-10 0 -10 17q0 46 45 216q9 43 16 53q0 3 3 3z" />
    <glyph glyph-name="yen" unicode="&#xa5;" 
d="M-1573 -192q74 0 139 -50q43 -40 43 -99v-7q0 -47 -50 -226q-20 -92 -20 -157q0 -126 74 -199q26 -34 44 -34q3 4 3 8v6q0 12 -31 135q-10 57 -10 102v6q0 117 50 287q49 143 151 201q41 21 83 21q72 0 103 -38q8 -12 8 -30q0 -51 -78 -189q-66 -134 -66 -228
q0 -89 62 -148q45 -37 104 -37q94 0 123 82q35 83 58 106q27 22 61 22q72 0 99 -73q9 -23 25 -90q29 -69 101 -69h2q77 0 128 90q23 51 23 113q0 121 -101 190q-13 11 -115 77q-55 42 -55 88v7q0 54 60 93q35 19 79 19q113 0 223 -81q73 -64 90 -96q88 -113 88 -311
q-7 -355 -20 -355q-16 -42 -41 -42h-2q-33 0 -47 68q0 7 -2 24l17 254q1 12 1 22q0 194 -169 323q-35 21 -52 22q-12 0 -12 -9v-1q0 -18 76 -92q94 -100 94 -241v-27q0 -125 -82 -252q-70 -100 -162 -100q-76 0 -132 39q-42 44 -56 104q-28 98 -62 98h-5q-43 0 -94 -109
q-22 -45 -56 -81q-39 -33 -98 -33h-11q-120 0 -192 109q-57 115 -57 228v19q0 125 94 325q16 40 16 55q0 8 -8 13h-7q-22 0 -59 -64q-21 -33 -53 -140q-23 -90 -23 -166v-7q0 -113 52 -278q8 -31 8 -45q0 -30 -25 -39q-50 -14 -82 -14q-76 0 -124 36q-32 12 -113 87
q-80 88 -80 218v27q0 91 54 306q11 47 11 80q0 47 -37 58q-5 1 -10 1h-4q-38 0 -69 -73q-16 -46 -34 -165q-1 -7 -1 -14q0 -28 36 -82q10 -20 10 -33v-2q0 -20 -37 -23h-2q-58 0 -89 68q-21 54 -21 112q0 118 88 222q55 52 116 69q31 9 59 9z" />
    <glyph glyph-name="copyright" unicode="&#xa9;" horiz-adv-x="1100" 
d="M233 -1176h-157q103 316 205.5 627t204.5 621t204 621t205 627h153z" />
    <glyph glyph-name="logicalnot" unicode="&#xac;" 
d="M-4 1566q-76 0 -76 101t76 101q74 0 74 -101t-74 -101zM-47 619v619h73v-619h-73z" />
    <glyph glyph-name="registered" unicode="&#xae;" 
d="M-1555 -201q83 0 138 -55q33 -38 33 -103q0 -43 -28 -226q-3 -37 -4 -83q5 -127 17 -135q16 -31 45 -62q40 -32 87 -38h1q3 0 3 2q0 10 -48 72q-22 29 -38 78q-23 74 -23 133q0 112 51 244q20 49 67 96q74 60 140 67q38 3 42 3q138 0 184 -123q12 -36 28 -94h1q1 1 31 72
q50 99 115 121q38 11 69 11h4q128 0 229 -119q73 -91 73 -231v-23q0 -128 -87 -264q-63 -84 -63 -94v-3h3q48 11 105 105q65 118 65 244q0 154 -71 277q-11 25 -11 43q0 45 67 57h11q71 0 155 -81q85 -107 85 -291v-26q0 -26 -12 -264q2 -95 2 -120q0 -89 -59 -89
q-49 0 -49 54v16q0 20 16 313v44q0 220 -66 269q-8 3 -10 3h-1q-5 -2 -5 -7q0 -4 24 -93q12 -53 12 -109q0 -171 -102 -327q-58 -85 -190 -128q-61 -16 -86 -16q-41 0 -55 38q-1 5 -1 9v1q0 23 39 59q184 177 184 329q0 146 -147 197q-43 12 -72 12q-106 0 -166 -116
q-30 -52 -44 -52q-19 0 -51 63q-65 118 -161 118h-5q-94 0 -155 -86q-29 -49 -29 -113v-1q0 -129 109 -264q21 -31 72 -86q10 -20 10 -41q0 -34 -44 -39l-10 -1q-186 0 -292 45q-87 46 -138 166q-23 70 -23 159q0 68 25 274q3 15 3 42v2q0 49 -22 64q-13 9 -22 9h-7
q-35 0 -59 -75q-16 -101 -16 -165v-8q0 -37 41 -89q12 -20 12 -32v-3q-5 -24 -38 -24q-78 0 -107 130q-8 39 -8 71q0 112 72 209q78 78 155 78z" />
    <glyph glyph-name="macron" unicode="&#xaf;" 
d="M-1550 -201q79 0 138 -50q38 -40 38 -99v-16q0 -32 -28 -208q-6 -94 -6 -105q0 -199 55 -239q32 -25 55 -28h1q2 0 5 5v7q0 8 -32 118q-16 68 -16 122v4q0 127 43 281q43 129 120 175q58 33 116 33h3q151 0 202 -139q9 -35 9 -65v-12q-7 -130 -7 -176q0 -148 32 -186
q36 -55 133 -83q52 -12 100 -12h17q129 0 202 70q49 53 49 133q0 125 -117 309q-19 35 -19 58v7q0 46 63 76q20 7 39 7h5q78 0 155 -74q57 -62 82 -129q34 -77 34 -202q-6 -209 -6 -262v-108q0 -95 -28 -104q-7 -4 -12 -4h-5q-25 0 -42 38q-7 16 -7 48q5 165 5 271v54
q0 146 -68 237q-31 50 -54 50q-18 -2 -18 -13v-3q0 -3 31 -77q36 -115 36 -200v-20q0 -107 -49 -215q-92 -173 -290 -173q-119 0 -237 60q-124 68 -124 255q4 132 4 145v10q0 83 -31 149q-20 33 -84 51q-12 1 -18 1h-5q-71 0 -123 -63q-59 -92 -59 -168q0 -84 86 -340
q5 -26 5 -34q0 -44 -47 -57q-15 -5 -32 -5h-3q-68 0 -164 59q-46 33 -72 66q-89 102 -89 294q0 71 28 288v31q0 47 -29 63q-12 4 -20 4q-46 0 -67 -90q-14 -96 -14 -152q0 -39 42 -87q14 -24 14 -36q-5 -25 -39 -25h-3q-85 0 -111 150q-4 14 -4 39v15q0 101 70 196
q45 44 83 60q45 20 79 20z" />
    <glyph glyph-name="plusminus" unicode="&#xb1;" 
d="M251 -271h14q101 0 165 -57q56 -60 56 -157q0 -145 -97 -263q-55 -64 -230 -256q-119 -150 -119 -206v-8q0 -36 64 -46q9 -4 14 -4h18q92 0 198 96q69 79 92 135q14 26 32 132q5 61 18 168q10 46 33 46q13 0 27 -25q14 -32 14 -107v-7q0 -295 -179 -470
q-129 -110 -281 -110q-128 0 -170 103q-9 29 -9 50v18q0 135 170 313q179 196 198 242q46 82 46 129q0 56 -46 92q-28 17 -60 17q-106 0 -138 -138q-14 -85 -27 -85h-5q-28 0 -32 92v17q0 179 110 250q60 39 124 39z" />
    <glyph glyph-name="twosuperior" unicode="&#xb2;" 
d="M191 -390h6q89 0 154 -91q43 -72 43 -150q0 -120 -92 -180q-3 -2 -52 -35v0q65 -19 91 -43q27 -19 59 -68q33 -55 33 -147q0 -188 -115 -263q-52 -33 -104 -33q-69 0 -125 39q-19 13 -59 66q-52 87 -52 188v16q0 69 39 98h10q26 0 36 -39q3 -12 3 -26v-6q-3 -52 -3 -56
v-9q0 -53 59 -98q26 -16 65 -16q109 0 141 103q7 30 7 56v13q0 72 -49 124q-26 22 -66 35q-69 20 -127 20h-36q-33 0 -40 30v6q0 36 82 45q95 17 125 33q39 20 58 68q4 20 4 30q0 59 -36 98q-36 22 -76 22h-3q-98 0 -137 -146q-13 -33 -23 -33h-4q-13 0 -16 49q0 76 39 170
q63 130 161 130z" />
    <glyph glyph-name="mu1" unicode="&#xb5;" 
d="M-899 2105v0q8 0 13 -34q17 -92 17 -98v0h-39h-29q-5 0 -5 3q22 95 34 122q5 7 9 7zM-903 1959h8q60 0 136 -27q132 -58 132 -129q0 -48 -55 -99q-30 -20 -60 -30q-21 -10 -51 -17q-64 -17 -115 -17q-72 0 -140 27q-43 17 -77 37q-68 51 -68 102q0 38 47 82q38 27 55 34
q22 10 56 20q76 17 132 17zM-1112 1806q0 -47 77 -81q21 -7 55 -17q51 -14 89 -14q56 0 128 34q60 31 60 68q0 41 -81 75q-21 10 -68 20q-39 10 -73 10q-76 0 -144 -40q-39 -24 -43 -45v-10zM-1350 1850q4 0 17 -27q42 -85 170 -149q43 -21 94 -34q93 -24 170 -24
q102 0 221 44q30 14 85 51q39 27 47 37q17 17 43 58q21 31 34 31q4 0 4 -14q0 -27 -43 -98q-17 -27 -46 -58q-137 -136 -366 -136q-158 0 -281 75q-43 27 -73 54q-63 58 -80 122q-9 28 -9 45q4 23 13 23v0zM-863 1487q118 0 217 -36q103 -40 140 -123q20 -47 20 -89
q0 -96 -99 -192q-46 -37 -66 -43q-38 -22 -126 -22q-14 1 -14 4v2q12 11 37 20q39 19 70 37q52 36 73 61q46 55 46 97v4q0 44 -59 86q-84 54 -220 54h-10q-138 0 -216 -43q-68 -45 -68 -105v-1q0 -56 68 -124q28 -25 49 -37q37 -20 103 -40q13 -5 13 -9q0 -7 -55 -7h-28
q-91 0 -179 15q-14 0 -70 16q-87 31 -121 89q-25 43 -25 116q0 27 12 144v10q0 35 -21 43q-8 2 -14 2q-32 0 -45 -52q-4 -20 -6 -78q0 -29 25 -49q17 -19 17 -27v-1q0 -12 -29 -14q-59 0 -81 84q-3 14 -3 28v8q0 49 38 98q31 36 91 52q13 3 29 3q59 0 96 -29q26 -22 26 -63
q0 -14 -14 -116q-2 -10 -2 -30v-10q0 -88 42 -129q27 -19 69 -34q7 -2 11 -2h1q0 4 -37 41q-20 24 -34 53q-19 50 -19 84v13q0 62 47 131q50 61 152 91q88 19 169 19z" />
    <glyph glyph-name="cedilla" unicode="&#xb8;" 
d="M-917 1852h12q88 0 203 -51q192 -99 192 -232q0 -88 -85 -172q-44 -41 -81 -59q-34 -18 -78 -33q-89 -29 -166 -29q-104 0 -207 47q-56 30 -107 70q-100 88 -100 184q0 66 70 147q52 47 78 58q29 19 81 37q107 33 188 33zM-1220 1577q0 -85 115 -147q29 -15 78 -33
q73 -22 129 -22q81 0 188 62q85 55 85 121q0 70 -114 133q-33 18 -100 36q-55 15 -103 15q-115 0 -215 -70q-52 -44 -59 -77q-4 -7 -4 -18zM-1564 1658q8 0 23 -52q63 -154 247 -268q67 -37 137 -62q137 -44 248 -44q151 0 321 80q45 22 126 92q56 52 63 66q30 33 70 103
q30 55 45 55q7 0 7 -18q0 -52 -59 -180q-26 -48 -70 -107q-200 -242 -533 -242q-229 0 -410 132q-63 52 -104 99q-92 107 -118 224q-11 44 -11 74q4 48 18 48v0zM-924 1931q-2 -6 1.5 -8t6.5 -4q4 -1 8.5 -1h8.5h9.5t8.5 1q5 1 8.5 4.5t1.5 7.5l-23 62q-4 2 -9 0zM-979 1910
l66 192q6 8 14.5 8t13.5 -8l67 -192q6 -18 -4 -27.5t-22 -12.5q-12 -5 -26.5 -7t-29.5 -2h3q-16 0 -30.5 2t-28.5 7q-7 3 -13 5.5t-9 7t-4 11t3 16.5z" />
    <glyph glyph-name="ordmasculine" unicode="&#xba;" 
d="M-784 1931q-2 -6 1.5 -8t6.5 -4q4 -1 8.5 -1h8.5h9.5t8.5 1q5 1 8.5 4.5t1.5 7.5l-23 62q-4 2 -9 0zM-839 1910l66 192q6 8 14.5 8t13.5 -8l67 -192q6 -18 -4 -27.5t-22 -12.5q-12 -5 -26.5 -7t-29.5 -2h3q-16 0 -30.5 2t-28.5 7q-7 3 -13 5.5t-9 7t-4 11t3 16.5z
M-755 1849h12q88 0 203 -51q192 -99 192 -232q0 -88 -85 -172q-44 -41 -81 -59q-34 -18 -78 -33q-89 -29 -166 -29q-104 0 -207 47q-56 30 -107 70q-100 88 -100 184q0 66 70 147q52 47 78 58q29 19 81 37q107 33 188 33zM-1058 1574q0 -85 115 -147q29 -15 78 -33
q73 -22 129 -22q81 0 188 62q85 55 85 121q0 70 -114 133q-33 18 -100 36q-55 15 -103 15q-115 0 -215 -70q-52 -44 -59 -77q-4 -7 -4 -18zM-1402 1655q8 0 23 -52q63 -154 247 -268q67 -37 137 -62q137 -44 248 -44q151 0 321 80q45 22 126 92q56 52 63 66q30 33 70 103
q30 55 45 55q7 0 7 -18q0 -52 -59 -180q-26 -48 -70 -107q-200 -242 -533 -242q-229 0 -410 132q-63 52 -104 99q-92 107 -118 224q-11 44 -11 74q4 48 18 48v0z" />
    <glyph glyph-name="guillemotright" unicode="&#xbb;" horiz-adv-x="1292" 
d="M998 921v0q70 0 149 -120q70 -138 70 -286q0 -244 -114 -425q-63 -98 -86 -98q-15 3 -15 28v0q0 28 44 102q79 163 79 290v21q0 103 -41 202q-19 28 -32 28q-16 -4 -16 -49v-4q0 -14 13 -155v-22q0 -130 -63 -261q-76 -131 -190 -173q-83 -29 -181 -29q-181 0 -288 103
q-54 56 -83 113q-41 92 -41 177v0q6 113 25 120h4q6 0 28 -67q19 -50 48 -89q38 -46 72 -63q99 -50 232 -50h25q231 0 279 89q38 53 38 152v21q0 99 -35 282q-3 29 -3 53v4q0 78 57 102q16 4 25 4zM599 -61q101 0 181 -99q16 -32 16 -50q-4 -11 -7 -11h-6q-6 0 -51 29
q-57 39 -104 39h-7q-57 0 -79 -39l-3 -7q0 -32 133 -64q139 -46 177 -85q45 -53 45 -102v-7q0 -67 -54 -128q-63 -49 -140 -49h-15q-127 0 -213 106q-31 42 -44 124q-3 14 -3 28v7q0 11 3 11q6 0 25 -36q54 -60 86 -70q76 -39 133 -39h16q89 10 101 49q3 0 3 21
q0 29 -114 61q-114 35 -171 74q-60 39 -60 95v11q0 46 41 88q45 43 111 43z" />
    <glyph glyph-name="onequarter" unicode="&#xbc;" horiz-adv-x="1633" 
d="M1109 903h14q286 0 405 -165q52 -60 81 -163q18 -73 18 -201q0 -41 -2 -137l-1 -5q2 -4 2 -11q-2 -31 -2 -33v-4q0 -9 16 -9q76 7 278 37q28 2 43 2h13q162 0 248 -232q5 -18 5 -30q-2 -18 -12 -18q-8 0 -33 44q-42 56 -151 56q-64 0 -194 -40q-75 -21 -134 -21
q-102 0 -156 52q-31 12 -49 38q-16 27 -16 81v27l6 195q0 208 -95 268q-74 55 -203 78q-33 4 -62 4h-7q-167 0 -235 -129q-41 -70 -41 -121q0 -4 108 -6q86 -9 125 -18q100 -21 177 -75q72 -60 72 -151q0 -116 -103 -172q-61 -28 -123 -28h-15q-110 0 -227 66q-53 41 -65 63
q-26 35 -56 100q-5 15 -13 15h-79q-2 0 -2 -3q0 -55 -34 -137q-35 -62 -121 -62q-108 0 -164 70q-31 47 -31 89v7q0 99 217 186l-1 2q0 143 -23 297q-21 77 -38 89q-20 20 -42 20q-46 0 -71 -78q-15 -86 -15 -140q0 -50 40 -94q13 -23 13 -34q-5 -23 -36 -23h-12
q-50 0 -86 63q-27 59 -27 120v1q0 96 67 184q48 57 138 81q17 4 33 4h13q82 0 141 -51q53 -44 53 -222v-7q0 -58 -9 -151q0 -12 9 -13q20 0 59 2q4 15 11 99q20 119 40 163q48 108 150 150q74 31 191 31zM859 244v-1q22 -50 104 -100q95 -49 171 -49h3q71 0 85 39v4
q0 50 -170 89q-124 17 -193 18zM417 169v-6q0 -17 43 -23h3q34 0 34 49v3q0 15 -1 41h-1q-72 -34 -78 -64z" />
    <glyph glyph-name="onehalf" unicode="&#xbd;" horiz-adv-x="1556" 
d="M867 1877q-3 -7 1 -8.5t7 -2.5q4 -2 8 -2h8h9t8 2q4 0 8 3t2 8l-23 58q-3 3 -8 0zM815 1857l63 182q6 8 13.5 8t13.5 -8l63 -182q5 -17 -4 -26.5t-21 -11.5q-12 -5 -25.5 -7t-27.5 -2h3q-15 0 -29.5 2t-27.5 7q-6 2 -11.5 4.5t-8.5 7.5t-4 10.5t3 15.5zM877 1802h10
q80 0 183 -48q174 -93 174 -217q0 -82 -77 -162q-40 -37 -73 -55q-30 -17 -70 -31q-81 -27 -151 -27q-93 0 -187 45q-50 27 -96 65q-91 83 -91 172q0 62 64 138q47 45 70 55q27 17 73 35q97 30 171 30zM603 1544q0 -79 103 -138q27 -13 71 -31q66 -20 116 -20q74 0 171 58
q76 52 76 114q0 65 -103 124q-30 17 -90 34q-50 14 -94 14q-103 0 -193 -65q-47 -42 -54 -73q-3 -6 -3 -17zM292 1620q7 0 21 -48q56 -145 223 -252q60 -34 124 -58q123 -41 223 -41q137 0 291 75q40 21 113 86q50 49 57 62q27 31 64 97q26 51 40 51q6 0 6 -17
q0 -48 -53 -169q-23 -44 -64 -99q-180 -228 -480 -228q-207 0 -371 124q-57 49 -93 93q-84 100 -107 210q-10 42 -10 69q3 45 16 45v0zM620 935q210 0 318 -50q56 -32 56 -88q0 -53 -35 -82q-25 -14 -64 -14q-107 1 -179 1h-3q-112 0 -154 -22q-86 -43 -86 -92v-5
q0 -54 129 -70q98 -12 223 -19q49 -9 74 -31q18 -16 18 -33q0 -45 -81 -45q-166 6 -197 6q-131 0 -166 -51q-8 -13 -8 -26q0 -38 46 -58q28 -17 98 -33q150 -27 245 -27h14q243 0 301 125q33 61 33 132v13q0 115 -95 291q-29 62 -29 94q0 41 44 55q10 4 42 6q100 0 194 -79
q69 -69 96 -147q27 -74 27 -150v-25q0 -76 -17 -419q-11 -92 -64 -92q-45 0 -45 81q0 15 18 273q2 54 2 92q0 184 -120 304q-14 10 -19 10h-5q-8 0 -10 -13q0 -14 43 -100q32 -89 32 -172q0 -100 -40 -215q-76 -173 -221 -229q-93 -33 -221 -33q-193 0 -332 73
q-25 12 -68 55q-70 84 -70 170q0 104 86 163q4 5 8 9q0 5 -24 26q-55 56 -55 114v5q0 73 59 125q31 22 77 46q15 11 16 13q-38 8 -67 8h-8q-86 0 -133 -123q-13 -44 -13 -72q0 -24 27 -84q4 -11 4 -22q0 -23 -32 -23q-43 0 -70 46q-20 43 -20 98q0 141 115 234q31 21 59 33
q127 42 206 42q30 1 41 1z" />
    <glyph glyph-name="threequarters" unicode="&#xbe;" 
 />
    <glyph glyph-name="questiondown" unicode="&#xbf;" horiz-adv-x="320" 
 />
    <glyph glyph-name="Agrave" unicode="&#xc0;" 
d="M-413 -195h17q133 0 225 -97q56 -68 77 -165q19 -86 19 -224q0 -43 -3 -189q1 -89 1 -116q-7 -122 -44 -122h-1q-32 0 -55 79q-16 66 -16 251v79q0 168 -40 237q-49 90 -153 90q-103 0 -134 -113q-11 -43 -11 -87v-3l8 -179v-7q0 -249 -155 -316q-78 -32 -162 -32h-7
q-4 0 -5 -1l-7 1h-6q-129 0 -222 68q-60 45 -89 150q-21 92 -21 149q-1 19 -1 30q0 70 23 285q2 16 2 44v1q0 57 -26 73q-9 3 -17 5q-43 0 -61 -101q-12 -97 -12 -148v-13q0 -36 37 -89q12 -23 12 -36v-4q0 -19 -34 -23h-4q-71 0 -98 151q-3 24 -4 59q0 116 67 219
q72 79 137 79h5q81 0 130 -63q26 -37 26 -104q0 -39 -23 -217q-6 -55 -6 -103q4 -130 13 -130q14 -38 49 -77q21 -20 67 -32q70 -15 115 -15q144 0 144 197q0 30 -15 204q-1 10 -1 37v18q0 208 130 271q63 29 129 29z" />
    <glyph glyph-name="Aacute" unicode="&#xc1;" horiz-adv-x="1910" 
d="M672 984l18 1q135 5 288 -92q52 -42 83 -82q104 -135 108 -242v-7q2 -33 -13 -34q-15 3 -49 53q-63 101 -101 151q-76 85 -150 112q-85 33 -162 30q-112 -4 -226 -82q-173 -147 -167 -301l1 -15q6 -165 170 -254q82 -41 166 -38l21 1q70 3 127 31q35 27 33 71
q-1 29 -35 54q-22 6 -98 11q-146 5 -147 12q-25 7 -26 25v7q-2 37 71 40q69 3 91 4q65 2 103 62q14 23 13 41q-1 33 -39 61q-41 21 -81 19q-54 -2 -68 -28q0 -4 1 -7v-8q12 -36 12 -40l1 -7q1 -22 -31 -42q-15 -4 -22 -4q-47 -2 -68 63q-1 19 -1 30q-3 62 53 116
q57 39 119 41l11 1q87 3 148 -53q42 -50 44 -109q3 -70 -49 -134q-11 -8 -25 -20q33 -21 56 -42q46 -46 48 -101v-4q3 -88 -67 -160q-73 -77 -208 -82l-18 -1q-160 -6 -292 121q-103 110 -110 290l-1 15q-9 239 149 396q81 76 160 98q86 29 159 32zM1726 959q65 2 150 -108
q78 -133 83 -266l1 -22q5 -147 -44 -288q-10 -23 -20 -42q105 -161 106 -187q0 -11 -3 -11h-4q-7 0 -49 49q-61 68 -80 86q-62 -106 -87 -107h-4q-11 3 -12 22v7q-1 26 43 108q10 19 10 23q-53 49 -56 56l-21 -44q-64 -124 -182 -177q-83 -29 -181 -33q-291 -11 -399 235
q-25 69 -27 128q0 106 17 118v0q15 1 35 -57q25 -66 74 -112q46 -49 167 -70q58 -9 124 -7l14 1q233 9 281 88q4 4 7 12q-140 123 -220 127h-4q-14 -1 -19 -63q-6 -45 -20 -45h-4q-7 -1 -19 25q-16 36 -19 117q-3 73 7 88q11 12 29 12q62 3 203 -76q49 -28 94 -70h4
q-1 22 -1 33l-1 7q-4 103 -43 267q-9 40 -10 70q-3 73 51 97q11 8 29 9zM1780 640v-15q0 -11 14 -129v-36q0 -48 -11 -103l55 -78q29 96 29 162v19q0 95 -37 191q-21 33 -32 33q-18 -8 -18 -44z" />
    <glyph glyph-name="Acircumflex" unicode="&#xc2;" 
d="M-173 -4q53 -4 77 -145q10 -78 7 -146v-32q-4 -124 -52 -319v0h3q56 -3 146 53q49 32 63 32q17 -7 17 -42v-11q-3 -71 -59 -138q-66 -57 -149 -75q-25 -7 -70 -7q-7 -7 -35 -92q-80 -202 -222 -418q-66 -103 -181 -231q-156 -159 -222 -156q-24 0 -24 28v8q0 42 104 156
q45 63 45 109q4 89 -132 178q-170 113 -267 181q-60 46 -122 110q-56 70 -70 127q-10 46 -10 99l3 4q4 206 209 316q80 39 174 35q121 -3 239 -85q101 -60 178 -96q170 -71 260 -71l11 -3q10 0 10 21q31 163 38 277q0 39 -7 241v25q4 49 25 63zM-1197 -756v-3
q-4 -61 62 -103q66 -50 254 -170q55 -39 114 -100q73 -81 91 -134q24 -71 24 -100q3 -3 7 -42v0q14 14 69 92q84 121 136 216q118 224 122 248q-4 8 -11 8h-73q-163 7 -448 170q-101 46 -177 49q-97 4 -153 -71q-17 -28 -17 -60z" />
    <glyph glyph-name="Atilde" unicode="&#xc3;" 
d="M-153 -10q41 -4 59 -110q7 -56 7 -106v-25q-7 -92 -45 -233h3v-4q45 0 117 39q38 25 52 25q14 -7 14 -32v-11q-3 -49 -48 -99q-55 -42 -121 -53q-21 -7 -55 -7q-7 -7 -28 -67q-65 -149 -183 -308q-51 -78 -144 -170q-128 -116 -180 -113q-20 0 -20 21v4q0 35 82 117
q38 46 38 81q4 64 -103 131q-138 85 -214 138q-48 35 -100 85q-45 49 -52 92q-10 35 -10 74v0q7 156 172 234q66 28 142 24q96 -3 189 -63q80 -50 145 -75q135 -53 207 -56h11q3 0 6 14q28 120 32 205q0 29 -4 177v21q0 36 21 46zM-981 -559v-3q-3 -43 52 -78
q52 -35 200 -124q45 -32 93 -78q59 -60 73 -99q20 -53 20 -74q0 -4 4 -32v0q10 11 55 67q69 89 110 160q97 166 97 184q0 3 -7 3q-48 0 -55 4q-135 3 -362 127q-80 39 -142 39q-79 4 -124 -50q-14 -21 -14 -46z" />
    <glyph glyph-name="Adieresis" unicode="&#xc4;" 
d="M-221 -1441l-8 -5h5zM-293 -1120q42 0 63 -58q10 -30 10 -58v-13q0 -51 -31 -129v0v0q45 0 114 23q34 14 48 14q14 -3 14 -17v-7q0 -27 -41 -54q-52 -24 -114 -34q-21 0 -56 -4q-3 -3 -24 -37q-58 -81 -162 -170q-52 -44 -135 -95q-121 -68 -172 -68q-18 0 -21 10v4
q0 17 79 64q35 27 35 44q0 38 -111 72q-134 44 -210 68q-49 20 -100 44q-45 27 -56 51q-10 17 -10 41v0q0 81 155 129q63 17 135 17q97 0 190 -31q79 -24 142 -37q134 -24 203 -24h11q3 0 6 7q21 68 21 112q0 17 -10 99v10q0 20 17 27h10zM-1000 -1450v-3q0 -17 45 -34
q48 -10 179 -48q42 -13 83 -34q55 -27 66 -40q20 -24 20 -34l4 -14v0q10 7 48 31q55 40 93 71q76 75 76 85q-3 3 -10 3q-38 -3 -45 -3q-117 0 -321 51q-69 13 -124 13q-69 0 -101 -23q-13 -11 -13 -21z" />
    <glyph glyph-name="Aring" unicode="&#xc5;" 
d="M-1159 -195q111 0 171 -73q25 -32 43 -95q0 -20 26 -80q47 -66 75 -66h3q34 0 83 60q22 36 58 119q47 86 95 104q25 11 57 11q95 0 177 -67q51 -53 78 -101q70 -113 70 -285q0 -119 -51 -237q-15 -50 -15 -67v-9q0 -2 4 -2q27 19 44 50q69 114 69 310v50q0 29 -5 217v5
q0 106 47 106q25 0 36 -26q19 -92 19 -270v-1q0 -399 -151 -510q-55 -49 -138 -49q-72 0 -72 60v9q0 40 54 156q39 100 39 176q0 97 -64 171q-51 48 -126 48h-2q-113 0 -182 -113q-66 -104 -127 -104h-7q-65 0 -130 104q-50 107 -84 134q-38 29 -84 29h-17q-97 0 -145 -116
q-31 -69 -47 -94q-60 -62 -133 -62q-86 0 -145 72q-32 51 -32 125q0 92 43 176q13 13 18 13q16 0 26 -102q0 -15 26 -66q37 -55 75 -55q62 0 97 130q75 215 224 215z" />
    <glyph glyph-name="AE" unicode="&#xc6;" 
d="M-1333 -184h6q114 0 174 -80q26 -37 50 -139q8 -34 61 -87q19 -12 30 -12q31 0 81 56q23 36 59 123q60 118 147 118h11q88 0 169 -62q63 -65 89 -121q71 -126 71 -258q0 -115 -85 -271q-23 -47 -23 -60q1 -3 1 -4h4q33 7 78 79q69 123 69 256q0 116 -87 283
q-35 66 -35 91v3q0 46 86 61h21q79 0 172 -76q109 -104 109 -381l-7 -258v-33q0 -25 1 -59q0 -99 -70 -99q-32 0 -40 28q-3 12 -5 39q5 119 5 191q0 314 -36 387q0 18 -46 98q-23 32 -38 32h-5q-11 -6 -11 -17v-3q0 -12 36 -79q44 -107 44 -203q0 -194 -123 -354
q-84 -92 -176 -114q-14 -4 -29 -4h-6q-36 0 -48 29q-2 7 -4 22q0 48 72 172q48 106 48 192v4q0 100 -66 175q-54 46 -125 46q-115 0 -187 -122q-63 -99 -126 -99h-1q-60 0 -118 82q-17 29 -64 117q-43 73 -130 73q-98 0 -143 -99q-12 -22 -50 -106q-57 -71 -138 -71h-2
q-96 0 -152 83q-25 52 -25 117q0 93 44 179q10 12 18 12q16 0 25 -102q2 -18 25 -65q39 -58 69 -58h13q40 0 72 72q45 143 90 196q63 80 151 80z" />
    <glyph glyph-name="Ccedilla" unicode="&#xc7;" 
d="M-902 -122h4q18 0 29 -42q2 -20 2 -26q-4 -109 -4 -174q0 -342 77 -445q21 -27 38 -40q80 -57 180 -57h3q127 0 164 101q21 51 21 109q0 127 -140 241q-35 25 -91 54q-64 37 -64 86v4q0 45 85 82q49 20 110 20h13q154 0 288 -139q40 -45 59 -83q53 -99 53 -277v-13
q0 -164 -29 -292q-19 -64 -43 -64h-3q-34 0 -47 83q-2 13 -2 26v9l8 168q1 35 1 52q0 160 -86 277q-41 46 -59 56q-73 52 -119 52q-18 0 -18 -10q2 -15 63 -65q145 -134 145 -305q0 -121 -73 -242q-29 -44 -76 -79q-80 -55 -177 -55q-100 0 -194 47q-81 46 -127 175
q-25 71 -25 159q1 38 4 53v0h-1q-26 -98 -57 -158q-72 -138 -222 -200q-42 -16 -101 -29q-85 -18 -129 -18h-14q-70 0 -91 52q-5 19 -5 27q0 54 74 81q20 6 131 12q68 9 94 18q20 4 77 33q77 48 128 160q37 72 55 143q19 77 47 313q10 69 21 94q13 26 23 26z" />
    <glyph glyph-name="Egrave" unicode="&#xc8;" 
d="M-965 -190q130 0 218 -62q48 -42 61 -66q63 -98 63 -232v-79q0 -174 74 -219q48 -31 116 -31q125 0 187 101q46 89 46 200v11q-6 191 -6 244q0 100 23 119q11 10 24 10v0q36 0 69 -57q18 -43 18 -115q4 -54 4 -114q0 -274 -18 -331q-12 -56 -28 -90q-22 -47 -58 -96
q-41 -51 -87 -75q-85 -44 -169 -44q-91 0 -183 41q-67 32 -100 99q-12 27 -23 76q-10 42 -19 140q-5 92 -12 132q-10 50 -24 82q-35 81 -99 109q-54 23 -113 23h-8q-110 0 -193 -65q-39 -35 -52 -61q-16 -25 -32 -75q-16 -55 -16 -93v-16q0 -74 38 -146q38 -53 97 -53
q62 0 84 69q10 33 10 79q0 21 -7 122q0 45 23 57q3 1 6 1h4q34 0 63 -177q5 -36 5 -64v-18q0 -128 -77 -201q-52 -44 -107 -44q-88 0 -151 72q-29 39 -44 71q-57 125 -57 246v11q0 156 70 282q24 41 65 87q44 44 72 63q115 77 243 77z" />
    <glyph glyph-name="Eacute" unicode="&#xc9;" 
d="M-1239 -10q26 0 30 -14v-4q0 -20 -82 -115q-195 -252 -195 -512q0 -185 114 -309q55 -62 88 -85q45 -26 91 -47q182 -71 387 -71q208 0 368 94q149 86 198 224q29 97 29 212v18q0 156 -71 359q-20 50 -75 147q-16 29 -16 53q3 50 22 50q33 0 114 -112q49 -77 78 -153
q85 -209 85 -362v-26q0 -142 -59 -315q-29 -71 -81 -148q-26 -38 -81 -96q-69 -63 -127 -95q-55 -38 -127 -52q-169 -42 -303 -42q-149 0 -276 30q-107 26 -218 108q-39 36 -78 77q-107 118 -146 235q-46 130 -46 262q0 209 101 392q45 85 117 179q85 97 124 112q19 6 35 6z
" />
    <glyph glyph-name="Ecircumflex" unicode="&#xca;" 
d="M-1245 -92q25 0 32 -13v-6q0 -16 -84 -109q-206 -244 -206 -495q0 -179 115 -299q60 -60 98 -82q45 -27 94 -46q193 -68 413 -68t388 93q157 81 206 214q35 93 35 204v17q0 152 -77 348q-21 49 -81 141q-17 30 -17 52q7 49 24 49q39 0 123 -109q49 -73 84 -147
q87 -201 87 -351v-27q0 -133 -63 -302q-31 -68 -84 -141q-28 -38 -87 -95q-74 -60 -133 -93q-59 -35 -136 -52q-178 -38 -318 -38q-161 0 -294 28q-115 27 -230 109q-42 29 -84 73q-116 112 -154 225q-49 126 -49 254q0 200 108 380q46 82 123 172q87 93 132 108q21 6 35 6z
M-713 -751h7q62 6 255 -141q112 -90 192 -214q112 -166 129 -316q7 -60 -3 -60q-11 11 -98 117q-102 112 -266 242q-77 63 -185 117q-14 3 -21 3q-35 -3 -105 -114q-28 -36 -45 -36v0q-11 0 -14 19l-4 22q-14 109 56 261q56 98 102 100z" />
    <glyph glyph-name="Edieresis" unicode="&#xcb;" horiz-adv-x="285" 
d="M-25 880h4q63 0 141 -377q85 -451 92 -858q11 -475 -120 -808q-60 -145 -212 -323q-234 -256 -626 -263q-283 -6 -590 95q-576 235 -587 851q-7 266 127 562q22 40 39 40h11q32 -10 32 -50q0 -13 -39 -266q-14 -138 -14 -229q7 -336 282 -565q92 -64 163 -91
q254 -98 541 -91q477 7 657 343q50 85 113 270q92 306 85 649v84q-7 360 -78 734q-53 192 -53 222q4 68 32 71z" />
    <glyph glyph-name="Igrave" unicode="&#xcc;" horiz-adv-x="219" 
d="M-321 -890h6q60 6 239 -159q108 -102 186 -246q108 -188 127 -360q11 -67 0 -70q-9 13 -94 134q-98 124 -252 274q-75 70 -176 134h-20q-32 -4 -98 -134q-23 -39 -36 -41h-3q-10 0 -13 22l-3 22q-17 127 45 306q49 112 92 118zM74 -25q47 0 155 -197q88 -207 88 -471v-8
q0 -390 -255 -707q-154 -179 -423 -264q-228 -70 -412 -70h-52q-527 0 -865 299q-63 70 -63 74q-166 215 -166 534v15q0 246 104 496q66 126 118 126q24 0 24 -31q0 -35 -69 -239q-52 -159 -52 -307q0 -390 398 -598q258 -119 549 -119h34q338 0 600 133q43 29 84 56
q77 68 115 110q132 148 177 334q25 116 25 243q0 183 -103 471q-19 78 -19 102q0 14 8 18z" />
    <glyph glyph-name="Iacute" unicode="&#xcd;" horiz-adv-x="1035" 
d="M-36 38q46 0 150 -208q85 -218 85 -496v-8q0 -411 -246 -745q-149 -189 -409 -278q-220 -74 -398 -74h-50q-509 0 -836 315q-61 74 -61 78q-160 226 -160 563v15q0 260 100 523q64 133 114 133q24 0 24 -33q0 -37 -67 -252q-50 -167 -50 -323q0 -411 384 -630
q249 -126 531 -126h32q327 0 580 141q42 30 81 59q75 71 111 115q128 156 171 352q24 123 24 256q0 193 -99 497q-18 82 -18 107q0 15 7 19z" />
    <glyph glyph-name="Icircumflex" unicode="&#xce;" horiz-adv-x="7" 
d="M-234 -5h6q25 -4 77 -102q83 -181 83 -440v-12q0 -322 -173 -581q-70 -90 -104 -110q-52 -43 -108 -71q-180 -86 -343 -86q-181 0 -371 79q-216 94 -309 294q-73 165 -73 369v12q0 200 69 405q45 106 77 106q17 0 17 -28v-4q0 -16 -24 -184q-11 -114 -11 -201
q0 -271 146 -416q87 -86 187 -118q129 -43 264 -43h10q271 0 430 137q42 36 77 83q52 82 83 200q35 130 35 248v19q0 106 -45 338q-7 47 -7 82v0q0 20 7 24z" />
    <glyph glyph-name="Idieresis" unicode="&#xcf;" horiz-adv-x="1600" 
d="M820 -171q83 0 151 -66q27 -30 27 -54q0 -11 -9 -11q-6 0 -61 35q-49 24 -83 24q-77 -7 -77 -38q0 -24 117 -51q119 -35 162 -66q43 -44 43 -92q0 -58 -52 -106q-58 -38 -132 -38q-132 0 -206 93q-30 44 -40 106v13q0 11 4 11h3q58 -69 73 -72q25 -17 105 -38
q34 -7 49 -7q77 0 101 41q3 7 3 14v0q0 24 -80 45q-113 27 -175 61q-61 35 -61 83v3q0 68 83 103q24 7 55 7zM415 908q88 0 139 -71q24 -43 24 -87q0 -62 -25 -249q-6 -70 -6 -120q0 -143 30 -175q66 -81 288 -81q249 0 303 80q54 61 54 185v18q0 117 -40 325q-3 31 -3 48v6
q0 81 58 109q15 6 28 6q75 0 157 -135q73 -148 73 -311v-13q-9 -511 -19 -511q-10 -58 -44 -58q-49 0 -49 94q0 16 14 226q2 79 2 138v3q0 161 -49 260q-16 24 -25 24h-2q-14 0 -17 -49v-10q0 -17 13 -157q1 -21 1 -35q0 -145 -67 -285q-115 -220 -356 -220h-23
q-157 0 -279 70q-131 86 -174 227q-32 101 -32 219v2q0 84 25 312q0 10 1 33q0 53 -20 72q-13 10 -21 10h-5q-49 0 -64 -127q-10 -105 -10 -140q0 -44 35 -93q16 -29 16 -46q-4 -28 -37 -28q-75 0 -103 156q-4 34 -4 61v4q0 113 59 215q43 66 124 94q21 4 30 4z" />
    <glyph glyph-name="Udieresis" unicode="&#xdc;" horiz-adv-x="257" 
d="M716 923h16q258 0 412 -240q50 -92 50 -204v-18q0 -282 -302 -374l-74 -8q-133 0 -180 75l-16 55q0 71 98 81h20q19 0 160 -55l24 -3q84 0 153 140l7 52v22q0 139 -160 203q-78 34 -192 34q-263 0 -423 -237q-45 -103 -60 -104h-7q-25 27 -70 222q-45 119 -83 119v-4
q87 -417 87 -1254q0 -551 -102 -832q-103 -228 -255 -304q-147 -59 -357 -59h-43q-367 0 -517 192q-137 146 -137 382v11q0 378 431 566q348 156 474 247q141 97 141 308q17 32 43 44h24q28 -7 35 -104q0 -198 -220 -381q-76 -48 -470 -229q-271 -147 -302 -285
q-7 0 -15 -88q0 -214 121 -285q137 -112 431 -112q369 0 471 134q125 175 125 880q0 1038 -117 1298q-14 8 -28 67q0 38 59 44h8q115 0 235 -155q38 -63 70 -159h8q44 158 145 221q133 97 282 97z" />
    <glyph glyph-name="Thorn" unicode="&#xde;" 
d="M-1301 -197q75 0 130 -49q37 -39 37 -105v-9q0 -38 -30 -232q-6 -54 -6 -95v-27q0 -137 40 -180q30 -45 52 -50h1q4 0 5 8q0 6 -33 128q-13 66 -13 119q0 109 33 257q21 71 45 117q16 31 54 68q62 49 129 49h11q109 0 165 -93q30 -52 30 -106v-9q0 -4 1 -6l-1 -6v-1
q-7 -135 -7 -172q0 -160 37 -194q29 -47 115 -74q46 -14 108 -14h1q163 0 223 108q22 45 22 129q0 73 -17 341v11q0 34 29 39q5 1 8 1q39 0 51 -66q4 -38 4 -91v-36q0 -19 -1 -31l6 -181v-29q0 -134 -69 -268q-88 -154 -263 -154q-125 0 -228 68q-48 40 -59 65
q-49 68 -49 209v107q0 104 -33 175q-19 31 -80 48q-15 1 -18 2q-58 0 -107 -49q-21 -24 -44 -76q-22 -59 -22 -103v-10q0 -82 80 -335q4 -24 4 -30q0 -45 -8 -45q-16 -19 -52 -19q-77 0 -173 70q-55 53 -69 81q-66 95 -66 268q0 74 26 289v29q0 49 -27 64q-11 5 -15 5h-4
q-47 0 -65 -102q-11 -94 -11 -141q0 -39 39 -87q14 -26 14 -36q0 -21 -39 -25q-81 0 -107 149q-3 14 -3 39v20q0 83 54 176q31 42 66 63q54 34 99 34z" />
    <glyph glyph-name="germandbls" unicode="&#xdf;" 
d="M-785 -196q168 0 342 -97q47 -25 95 -77q89 -100 89 -209q0 -126 -99 -194q-41 -22 -75 -22h-7q-58 0 -113 45q-23 26 -23 51q0 42 41 58h13q14 0 65 -35q14 -6 24 -6h3q41 0 58 51v16q0 81 -174 132q-102 23 -222 23q-249 0 -402 -123q-89 -74 -116 -164q-7 -29 -7 -58
q0 -132 150 -254q72 -55 126 -81q212 -116 543 -116q225 0 447 68q79 16 106 16q34 0 34 -19q0 -52 -160 -152q-219 -119 -444 -119h-34q-232 0 -458 97q-92 42 -187 116q-82 70 -133 148q-41 58 -62 109q-34 91 -34 197q0 190 133 367q65 74 99 100q171 132 382 132z" />
    <glyph glyph-name="agrave" unicode="&#xe0;" 
d="M-562 -195h4q138 0 221 -65q110 -79 110 -199q0 -92 -52 -168q-72 -96 -179 -96q-55 0 -72 35q-4 13 -4 24q0 44 45 54q10 4 17 4v0q17 0 52 -17l10 -4q31 0 69 45q24 34 24 68q0 69 -117 110q-52 14 -110 14h-4q-176 0 -331 -83q-38 -20 -76 -51q-93 -86 -93 -158v-10
q0 -106 172 -171q101 -31 211 -31q166 0 348 75q52 24 145 89q42 31 52 31h4q17 0 20 -72q0 -34 18 -212q3 -34 3 -55q0 -41 -28 -48v0q-38 0 -48 154q-3 34 -3 58v0q-7 -3 -49 -41q-241 -195 -428 -195h-10v0h-3h-11q-114 0 -255 69q-38 20 -86 54q-49 48 -59 69
q-69 99 -69 216q0 133 100 274q21 31 66 75q96 86 196 124q107 34 200 34z" />
    <glyph glyph-name="aacute" unicode="&#xe1;" 
d="M-517 -201h15q115 0 238 -63q109 -62 156 -199q33 -103 33 -223v-5q0 -42 -13 -333q-6 -86 -47 -86t-41 110q5 159 5 231v2q0 109 -28 154q-7 18 -51 64q-101 99 -269 99h-2q-237 0 -301 -155q-22 -54 -22 -103q0 -111 138 -319q20 -33 20 -42v-7q-8 -18 -47 -18
q-82 0 -205 58q-92 36 -143 136q-40 80 -40 214q0 71 20 263q3 25 3 52q0 51 -22 67q-9 5 -15 5h-3q-39 0 -54 -94q-12 -104 -12 -146q0 -43 34 -91q11 -24 11 -36v-2q-4 -25 -32 -25h-1q-67 0 -90 146q-4 24 -4 55q0 101 52 195q31 43 48 53q48 36 88 36q68 0 113 -51
q31 -38 31 -109q0 -33 -23 -221q-4 -44 -4 -85q0 -193 70 -242q21 -19 64 -44q0 2 1 2q0 5 -43 62q-24 41 -35 77q-26 86 -26 158v10q0 104 52 232q53 110 178 177q33 16 99 29q65 12 104 12z" />
    <glyph glyph-name="acircumflex" unicode="&#xe2;" 
d="M-1450 -197q74 0 142 -46q47 -40 47 -95v-11q0 -45 -52 -218q-20 -82 -20 -141v-18q0 -104 62 -169q17 -20 41 -41q-34 111 -34 218q0 140 44 285q53 140 156 192q44 21 88 21q55 0 96 -25q19 -16 19 -37v-3q0 -54 -85 -191q-65 -125 -65 -209v-9q0 -102 95 -157
q39 -16 74 -16h8q95 0 126 80q44 100 73 110q23 12 45 12h9q90 0 114 -113q10 -44 23 -67q19 -30 79 -46q17 -2 22 -2h11q65 0 112 64q30 48 30 147v91q0 49 2 101q-2 58 -6 143q0 69 46 89q7 3 13 3h9q50 0 61 -113q1 -13 1 -27q0 -388 -9 -388q0 -43 -34 -145
q-81 -171 -202 -171h-14q-89 0 -148 43q-23 24 -37 51q-37 104 -48 119q-16 21 -36 21q-47 0 -96 -100q-52 -94 -105 -107q-33 -10 -67 -10q-116 0 -190 86q-24 30 -46 84q-30 87 -30 166q0 126 93 312q22 44 22 62v2q0 13 -11 13q-42 0 -97 -129q-49 -130 -49 -233
q0 -111 59 -281q4 -24 4 -31v-5q0 -39 -61 -39q-136 0 -275 128q-83 83 -83 214v15q0 98 61 315q7 39 7 60v7q0 40 -36 53l-13 1q-75 0 -104 -186q-5 -16 -9 -57q0 -28 41 -83q7 -19 7 -26v-4q-4 -22 -32 -22q0 -1 -8 -1q-67 0 -98 80q-16 42 -16 84v21q0 89 75 187
q51 61 148 86q24 6 51 6z" />
    <glyph glyph-name="atilde" unicode="&#xe3;" 
d="M-1408 -201h14q71 0 123 -49q37 -38 37 -110q0 -36 -24 -205q-7 -52 -7 -101q0 -97 22 -161q18 -30 49 -58q51 -31 79 -31q2 0 4 3q0 7 -62 89q-48 100 -48 191q0 107 47 232q23 57 63 97q84 78 180 78h18q142 0 186 -144l20 -71h1q4 5 27 62q33 67 71 101q47 40 121 40
h1q123 0 220 -108q61 -71 73 -142q11 -58 11 -114q0 -174 -104 -298q-43 -53 -43 -64v-2q1 -2 2 -2h3q38 0 94 63q40 56 64 135q17 49 17 217q0 46 18 106q15 32 29 32q21 0 25 -68q2 -56 2 -94q0 -211 -48 -292q-11 -27 -49 -79q-56 -65 -102 -94q-84 -58 -139 -58h-4
q-50 0 -59 60q0 45 69 117q124 138 124 263q0 159 -173 202q-23 5 -41 5h-7q-1 0 -1 1l-2 -1h-7q-100 0 -170 -136q-18 -30 -30 -30h-2q-17 0 -57 76q-62 104 -154 104q-109 0 -169 -99q-21 -45 -21 -102q0 -125 111 -263q24 -32 69 -80q12 -20 12 -41q0 -41 -61 -41
q-105 0 -266 56q-100 47 -150 162q-26 69 -26 170q0 67 25 271q2 16 2 42q0 54 -28 69q-12 4 -18 4q-47 0 -65 -101q-11 -90 -11 -135v-14q0 -32 39 -83q12 -22 12 -34v-2q0 -21 -37 -24h-2q-78 0 -106 150q-3 31 -3 49q0 100 60 194q24 32 57 55q57 35 95 35z" />
    <glyph glyph-name="adieresis" unicode="&#xe4;" 
d="M-506 -202q112 0 233 -74q67 -53 96 -96q50 -70 76 -159q29 -98 29 -190q0 -58 -24 -300q-13 -75 -52 -75q-41 0 -48 81v23q0 20 15 270v10q0 91 -41 132q-53 54 -89 69q-104 52 -234 52q-137 0 -232 -72q-37 -35 -53 -84q-5 -14 -5 -21q0 -6 69 -18q99 -26 153 -90
q54 -71 54 -153v-5q0 -4 1 -6l-1 -6v-5q0 -104 -73 -168q-30 -22 -58 -22h-8q-58 0 -120 56q-28 30 -41 67q-22 59 -22 96h-1q-25 -11 -88 -65q-90 -77 -158 -108q-97 -47 -162 -47h-16q-90 0 -162 80q-78 103 -78 245q0 207 174 375q70 66 95 78q111 65 165 65q44 0 61 -42
l2 -11q0 -27 -76 -54q-90 -40 -158 -100q-83 -81 -124 -172q-26 -63 -26 -117v-16q0 -97 56 -128q16 -6 30 -6h11q77 0 191 120q85 80 108 93q87 56 134 56q6 0 19 108q16 83 35 124q58 125 180 177q84 33 163 33zM-803 -869q17 -51 55 -75q25 -17 48 -17h10q36 0 59 27l1 6
q0 22 -77 59q-39 12 -71 12q-25 0 -25 -12z" />
    <glyph glyph-name="aring" unicode="&#xe5;" 
d="M-1401 -197q75 0 130 -52q39 -41 39 -119q0 -42 -26 -230q-5 -42 -6 -97q0 -211 88 -264q8 -6 29 -17h1v1q-55 98 -60 133q-23 86 -23 184v31q0 197 97 317q60 59 101 72q61 23 113 23h13q141 0 199 -139q15 -27 37 -90h1q6 3 29 59q26 55 65 104q54 62 158 62h17
q180 0 279 -188q45 -98 45 -275q0 -269 -23 -360q-15 -41 -38 -41h-5q-29 0 -35 58q-1 12 -1 22q5 198 5 279v9q0 128 -62 183q-74 78 -198 78q-143 0 -211 -148q-16 -33 -21 -33t-26 48q-22 41 -59 77q-79 55 -151 55h-3q-70 0 -162 -61q-34 -29 -44 -55q-21 -50 -21 -102
q0 -72 46 -184q20 -51 112 -150q60 -67 62 -67q10 -8 10 -14q0 -20 -82 -25q-12 -1 -27 -1q-135 0 -260 55q-86 47 -138 175q-24 75 -24 175q0 69 25 290q2 15 2 44v3q0 57 -27 73q-11 4 -15 4h-6q-48 0 -66 -109q-12 -98 -12 -147v-10q0 -35 41 -92q13 -21 13 -35v-3
q0 -21 -34 -25h-9q-71 0 -102 136q-8 44 -8 77q0 110 64 212q48 65 128 89q14 5 36 5z" />
    <glyph glyph-name="egrave" unicode="&#xe8;" horiz-adv-x="1263" 
d="M1202 1261v0q8 -3 37 -51q34 -65 34 -129v-7q0 -99 -112 -166q-30 -14 -30 -17v0q64 -160 64 -334v-3q0 -156 -75 -309q-22 -41 -60 -89q-130 -156 -335 -156h-11q-127 0 -272 65q-41 17 -82 51q-60 51 -68 68q-29 37 -44 74q-45 99 -45 187q0 65 22 82h8q18 0 82 -99
q48 -61 112 -98q37 -24 100 -44q108 -34 198 -34h7q131 0 224 64q49 44 60 68q78 119 78 262q0 102 -34 228l-52 -4q-108 0 -227 68q-93 61 -93 167v6q0 85 67 130q30 17 63 17h8q111 0 193 -126q27 -41 41 -82q4 -7 8 -7v0q60 14 93 55q26 44 30 68q7 37 7 92zM770 1132
q0 -27 63 -55q22 -13 78 -30q56 -14 79 -14q7 0 7 4v3q-22 82 -86 129q-33 24 -59 24h-8q-44 0 -71 -51q-3 -7 -3 -10z" />
    <glyph glyph-name="eacute" unicode="&#xe9;" 
d="M-645 -152q200 0 334 -38q55 -22 55 -38t-101 -16q-337 0 -649 -112q-68 -25 -149 -77q-133 -100 -133 -202v-7q0 -1 -1 -3q1 -1 1 -3v-3q0 -99 114 -185l35 -21q46 -27 121 -48q125 -31 247 -31q154 0 246 68q32 28 32 52v9q0 38 -54 80q-52 38 -139 63q-81 24 -154 36
q-110 17 -131 31q-20 15 -20 35q0 45 87 99q98 53 251 53q168 0 326 -52q251 -91 251 -367v-6q0 -9 1 -12q-1 -7 -1 -13q-4 -183 -8 -183q-15 -67 -66 -67q-40 0 -72 51q-19 39 -19 98v16q0 14 8 144q0 178 -277 245q-44 11 -80 11h-9q-50 -2 -50 -14v-1q0 -14 108 -50
q43 -17 91 -46q63 -42 76 -68q31 -47 31 -108q0 -105 -150 -202q-123 -76 -280 -76h-24q-155 0 -316 53q-67 24 -139 67q-64 40 -90 67q-48 49 -69 88q-50 99 -50 193q0 179 205 326q122 80 266 117q167 47 345 47z" />
    <glyph glyph-name="ecircumflex" unicode="&#xea;" horiz-adv-x="394" 
d="M-25 922h10q141 0 259 -220q135 -324 135 -1064v-73q0 -463 -95 -1263q-21 -56 -55 -56h-5q-40 0 -40 56v17l60 952l10 423q0 752 -135 980l-25 12l-5 -6q85 -371 85 -1206v-34q0 -785 -204 -997q-123 -174 -450 -174h-75q-412 0 -554 276q-70 116 -70 276v23
q0 372 399 552q470 221 530 309q70 92 70 180v40q0 60 70 73q30 -30 30 -90v-29q0 -235 -295 -416q-522 -227 -614 -372q-50 -74 -50 -147v-39q0 -222 150 -287q120 -85 339 -85h70q368 0 445 175q89 217 89 772v90q0 1094 -134 1290v28q15 34 55 34z" />
    <glyph glyph-name="edieresis" unicode="&#xeb;" horiz-adv-x="544" 
d="M26 922h4q126 0 240 -156q180 -286 180 -1202v-74l-4 -108v-4h4q60 108 161 108q147 0 181 -175l4 -45q0 -185 -169 -394q-196 -263 -196 -346v-11q7 -49 74 -49q107 0 212 179q41 48 67 376q13 33 20 33h12q27 -16 27 -126v-26q0 -404 -263 -558q-61 -23 -106 -23
q-99 0 -134 89q-15 33 -15 79q0 171 220 439q111 167 117 268q-14 107 -86 107h-4q-88 0 -133 -215q-54 -168 -102 -168q-32 0 -32 104l12 614v82q0 685 -126 934q-24 30 -43 30v-4q86 -412 86 -1183v-104q0 -779 -212 -994q-122 -182 -494 -182h-51q-368 0 -519 193
q-137 146 -137 384v11q0 385 440 573q346 158 439 227q165 99 165 294q14 82 63 82q43 -14 43 -108v-8q0 -173 -184 -346q-124 -95 -342 -178q-222 -104 -373 -220q-110 -113 -110 -238l4 -19v-3q0 -215 153 -287q126 -89 393 -89q368 0 475 130q126 175 126 893
q0 1091 -126 1317q-16 26 -16 45v22q20 30 55 30z" />
    <glyph glyph-name="igrave" unicode="&#xec;" horiz-adv-x="547" 
d="M-41 922h8q119 0 233 -164q172 -298 172 -1179l-7 -298v-4h3q68 127 176 127q120 0 191 -160l16 -93q0 -158 -165 -231v-3q180 -73 180 -246v-15q0 -246 -180 -312l-65 -12q-195 0 -244 261l-4 52q0 114 61 130h8q30 -18 30 -56l-4 -111q33 -108 130 -108h8
q134 0 157 163l-4 4v15q0 130 -119 171q-114 30 -187 30q-19 12 -19 30v7q0 42 149 52q118 0 149 112q0 141 -126 141q-122 0 -180 -234q-38 -71 -68 -71q-27 15 -27 93v41l11 610v34q0 703 -122 956l-11 15l-31 15v-4q84 -417 84 -1224v-41q0 -786 -199 -1008
q-122 -190 -497 -190h-42q-358 0 -504 193q-134 146 -134 384v11q0 385 428 573q330 154 428 227q165 101 165 320q0 35 57 56q42 -17 42 -108q0 -206 -218 -383q-56 -44 -397 -201q-274 -140 -337 -272q-30 -73 -30 -134q0 -223 133 -298q131 -100 402 -100q368 0 466 138
q119 181 119 881q0 1086 -123 1321q-15 24 -15 45v22q16 30 53 30z" />
    <glyph glyph-name="iacute" unicode="&#xed;" horiz-adv-x="419" 
d="M123 913l11 -1q71 -2 137 -244q74 -329 52 -977q-13 -385 -97 -1182q-24 -195 -32 -252q-9 -35 -21 -35h-3q-23 1 -40 66q-3 21 -4 47q1 18 45 382q62 549 72 826l1 39q19 568 -25 892q-22 135 -46 188q-14 27 -21 27q-5 -2 -5 -17q-1 -37 23 -206q47 -343 28 -920
q-34 -992 -282 -1234q-116 -98 -249 -93h-24q-143 5 -269 136q-79 101 -75 223v8q4 115 85 199q71 60 140 71q144 29 181 44q88 31 135 109q28 47 59 130l4 4h1q13 -1 14 -135v-5q-4 -118 -92 -226q-42 -39 -93 -61q-45 -15 -176 -41q-67 -24 -68 -79q-2 -56 63 -81
q49 -21 106 -23q166 -5 255 118q61 87 87 150q49 120 59 204q40 246 51 594q17 501 -41 974q-16 168 -14 243q4 114 54 134q8 4 14 4z" />
    <glyph glyph-name="icircumflex" unicode="&#xee;" horiz-adv-x="508" 
d="M157 916q80 -3 149 -229q87 -313 61 -1013l-2 -54q-1 -29 -4 -79q59 77 125 75l13 -1q89 -3 138 -91q29 -57 25 -142q-6 -185 -121 -329q-3 -9 -123 -170q-143 -196 -146 -271q-1 -39 44 -57q17 -4 26 -4q94 -4 196 147q47 74 72 221q27 217 38 217q5 13 14 12h1
q26 -1 25 -110v-13q-14 -381 -208 -562q-85 -69 -170 -65q-105 3 -134 123q-4 31 -5 57q6 164 167 366q190 242 194 361v10q3 63 -41 99q-14 10 -33 11h-12q-86 3 -121 -257q-12 -56 -28 -55q-12 0 -27 42q-7 36 -5 85l1 23q13 249 14 279l2 66q18 487 -19 811
q-22 155 -49 224q-14 33 -29 48h-7q-3 -13 -3 -18q-1 -31 28 -218q49 -338 29 -887l-1 -26q-33 -903 -270 -1182q-130 -135 -324 -128q-179 7 -316 151q-75 96 -71 217q5 123 102 207q96 64 199 72q137 23 192 53q93 44 149 186q10 27 17 33h3q12 0 14 -128l-1 -13
q-4 -107 -90 -211q-52 -56 -144 -80q-136 -25 -178 -38q-53 -23 -55 -66v-13q-2 -67 138 -92q16 -2 35 -3l20 -1q183 -6 282 131q75 103 101 177q39 102 41 134q47 239 61 618q18 495 -44 954q-20 182 -17 258q4 113 60 135q15 3 22 3z" />
    <glyph glyph-name="idieresis" unicode="&#xef;" horiz-adv-x="508" 
d="M122 918h7q77 -3 147 -258q74 -332 50 -983q-4 -125 -18 -307q59 87 134 84q90 -3 149 -118q33 -74 30 -163q-5 -141 -119 -211q-24 -17 -24 -20q19 -1 81 -46q87 -89 81 -244v-2q-8 -232 -143 -306q-47 -19 -77 -18q-139 5 -196 184q-21 76 -18 148v24q3 78 42 104
q8 4 10 4q37 -12 34 -79q-1 -25 -5 -71q-2 -72 61 -123q14 -10 52 -15q113 -4 142 136q3 20 5 42q5 128 -82 182q-76 34 -152 37l-18 -1q-30 1 -39 26l-1 9v9q1 34 57 44q130 20 153 39q49 45 51 98v4q4 107 -75 133q-6 4 -23 4l-12 1q-89 3 -142 -182q-14 -27 -25 -27h-2
q-20 1 -17 91q22 350 24 427q18 500 -15 828q-23 176 -50 245q-19 47 -31 48q-4 -7 -4 -13v-8q-1 -33 25 -214q48 -343 28 -903q-36 -1014 -304 -1244q-117 -88 -250 -84l-28 1q-149 5 -282 142q-76 100 -72 214l1 17q3 99 76 182q39 40 100 64q56 20 207 47q85 27 118 54
q25 19 56 61q35 52 62 127q1 6 9 13h1q13 0 14 -140q-4 -104 -84 -212q-57 -60 -132 -80q-33 -10 -158 -34q-71 -21 -73 -82q-2 -63 102 -90q41 -9 75 -10q187 -7 281 139q67 96 106 207q35 122 37 168q34 226 44 500l3 94q16 451 -43 925q-17 166 -15 238l1 11q3 92 41 123
q18 10 32 10z" />
    <glyph glyph-name="eth" unicode="&#xf0;" horiz-adv-x="387" 
d="M-103 922q134 0 271 -162q48 -69 76 -169q75 -252 75 -804q0 -586 -134 -1093q-75 -259 -151 -379q-72 -97 -95 -97h-4q-3 0 -7 7v3q0 28 76 218q72 179 133 469q76 414 76 769q0 752 -113 941q-45 76 -76 76v-3q0 -14 48 -148q28 -80 55 -273q21 -203 21 -555
q0 -873 -192 -1211q-86 -176 -257 -245q-120 -48 -234 -48h-10h-7h-10h-14q-188 0 -370 124q-116 100 -116 231q0 62 34 128v3v0q-641 0 -809 328q-55 103 -55 238q0 255 161 669q34 86 96 166q31 34 52 38q20 0 24 -52v-28q0 -48 -79 -238q-120 -327 -120 -493
q0 -300 521 -390q171 -24 367 -24q428 0 575 93q31 11 52 42q7 7 10 7h4q6 0 10 -35q0 -110 -76 -217q-54 -62 -188 -93q-178 -28 -240 -42q-96 -34 -96 -93q0 -55 140 -76q55 -7 96 -7q196 0 357 100q58 42 96 104q45 62 89 203q72 287 72 811q0 707 -182 1069
q-27 59 -27 83v10q0 38 72 45h3z" />
    <glyph glyph-name="ograve" unicode="&#xf2;" horiz-adv-x="1919" 
d="M917 924q142 0 215 -161q35 -87 45 -102h1q7 12 27 87q34 93 109 139q55 31 114 31q136 0 229 -139q143 -256 143 -634v-56q0 -231 -48 -473q-1 -15 -1 -23v-2q79 0 232 101q39 23 53 23q16 0 16 -22v-1q0 -70 -131 -191q-53 -46 -136 -70q-16 -7 -68 -21
q-16 -8 -49 -100q-138 -399 -319 -702q-74 -119 -142 -205q-75 -91 -124 -130q-90 -72 -123 -72h-1q-18 2 -18 16v4q0 25 71 115q117 151 117 244t-107 208q-92 80 -224 162q-144 93 -238 173q-163 140 -163 333q0 253 202 353q126 72 265 72q158 0 325 -92
q186 -90 266 -125q167 -63 192 -63v2q43 179 43 421q0 205 -55 409q-35 107 -106 150q-69 38 -134 38h-4q-105 0 -178 -135q-19 -29 -36 -66h-1q-4 5 -38 66q-87 142 -229 142q-119 0 -192 -116q-41 -74 -41 -156q0 -108 109 -264q62 -88 62 -118q0 -34 -77 -38
q-49 0 -161 33q-137 60 -185 177q-36 88 -36 229q0 81 25 325q0 16 1 29q0 64 -28 82l-15 4q-50 0 -66 -135q-8 -110 -8 -142q0 -42 33 -93q18 -32 18 -48q0 -24 -34 -28h-6q-72 0 -99 162q-4 35 -4 59v10q0 111 58 218q43 60 87 80q31 19 58 19h15q66 0 119 -59
q32 -46 32 -119q0 -45 -27 -264q-4 -60 -4 -89q0 -199 69 -250q16 4 16 18v5q0 8 -33 88q-18 61 -18 126q0 165 85 372q19 48 71 106q86 73 184 73zM529 -558q0 -115 133 -208q116 -88 264 -168q69 -42 121 -93q158 -182 158 -372v-26q114 204 228 462q116 263 150 338
q0 14 -128 27q-123 21 -198 49q-82 31 -239 110q-169 85 -284 85h-8q-134 0 -188 -135q-9 -33 -9 -69z" />
    <glyph glyph-name="divide" unicode="&#xf7;" horiz-adv-x="1828" 
d="M1162 -143q110 0 194 -81q22 -24 22 -45q-4 -10 -11 -10v0q-11 0 -74 34q-60 24 -99 24h-7q-57 0 -82 -27q-7 -7 -7 -10v0q0 -27 142 -55q152 -37 198 -71q49 -44 49 -91q0 -54 -53 -105q-71 -44 -162 -44h-11q-148 0 -244 91q-46 68 -46 129q0 10 4 10h3q67 -71 110 -84
q92 -34 159 -34h7q81 0 113 34q11 10 11 23q0 27 -159 58q-117 30 -174 61q-49 30 -49 67v14q0 61 95 102q39 10 71 10zM429 920q75 0 130 -53q39 -42 39 -121q0 -43 -27 -235q-4 -42 -5 -98q0 -215 87 -269q9 -6 29 -18h1v1q-55 100 -60 136q-23 88 -23 187v32
q0 200 97 323q60 60 101 73q60 24 112 24h14q140 0 198 -141q15 -28 36 -93h2q5 4 28 60q26 57 65 107q54 62 157 62h18q178 0 277 -190q45 -101 45 -281q0 -274 -23 -367q-15 -42 -38 -42h-5q-29 0 -34 60q-1 11 -1 22q4 202 4 284v9q0 131 -62 186q-73 81 -197 81
q-142 0 -210 -151q-15 -34 -21 -34q-5 0 -25 49q-22 42 -59 78q-79 56 -151 56h-3q-69 0 -161 -62q-34 -30 -44 -56q-21 -50 -21 -103q0 -74 46 -189q20 -51 112 -152q59 -68 61 -68q10 -8 10 -15q0 -20 -81 -25q-13 -1 -27 -1q-135 0 -259 56q-87 48 -138 178
q-24 77 -24 178q0 71 25 295q2 16 2 46v2q0 59 -27 75q-11 4 -15 4h-6q-47 0 -66 -111q-11 -100 -11 -150v-9q0 -37 40 -94q13 -22 13 -36v-4q0 -20 -33 -25h-10q-70 0 -101 139q-8 45 -8 78q0 112 63 216q48 67 128 91q14 5 36 5z" />
    <glyph glyph-name="oslash" unicode="&#xf8;" 
d="M-754 1927q126 0 233 -59q110 -67 150 -207q21 -78 21 -147q0 -160 -106 -320q-49 -61 -70 -71q-42 -37 -136 -37q-15 2 -15 6v4q13 17 39 33q42 31 76 62q56 60 78 101q49 91 49 162v7q0 73 -63 142q-90 90 -236 90h-11q-148 0 -231 -71q-74 -75 -74 -175v-1
q0 -93 73 -208q30 -41 53 -60q39 -34 111 -67q14 -9 14 -16q0 -11 -59 -11h-31q-97 0 -191 25q-15 0 -75 26q-94 52 -130 148q-27 73 -27 194q0 46 13 240v17q0 58 -23 72q-9 4 -15 4q-35 0 -48 -87q-5 -35 -7 -131q0 -48 27 -82q18 -30 18 -45v-1q0 -19 -31 -23
q-63 0 -87 139q-3 24 -3 46v14q0 83 41 165q33 59 98 85q13 5 31 5q63 0 103 -49q27 -35 27 -104q0 -24 -15 -193q-1 -17 -1 -50v-16q0 -147 45 -216q29 -32 74 -57q8 -4 11 -4q0 1 1 1q0 6 -40 68q-21 41 -36 89q-20 83 -20 140v21q0 103 50 220q53 100 163 150
q95 32 182 32z" />
    <glyph glyph-name="ugrave" unicode="&#xf9;" 
d="M-897 1600q23 0 86 -109q63 -143 63 -273q0 -34 -4 -34q0 3 -23 61q-26 65 -69 147q-20 31 -53 68q-3 4 -7 4q-9 0 -36 -55q-10 -17 -16 -17q-4 3 -4 14q0 71 33 157q17 37 30 37zM-837 1926q127 0 236 -59q111 -67 151 -207q22 -78 22 -147q0 -160 -108 -320
q-49 -61 -71 -71q-42 -37 -137 -37q-15 2 -15 6v4q13 17 39 33q43 31 78 62q56 60 78 101q50 91 50 162v7q0 73 -64 142q-91 90 -239 90h-10q-151 0 -234 -71q-76 -75 -76 -175v-1q0 -93 74 -208q31 -41 54 -60q39 -34 112 -67q14 -9 14 -16q0 -11 -60 -11h-30
q-99 0 -194 25q-15 0 -76 26q-95 52 -132 148q-27 73 -27 194q0 46 13 240v17q0 58 -23 72q-10 4 -15 4q-36 0 -49 -87q-5 -35 -7 -131q0 -48 27 -82q19 -30 19 -45v-1q0 -19 -32 -23q-64 0 -88 139q-3 24 -3 46v14q0 83 41 165q34 59 99 85q13 5 32 5q64 0 104 -49
q28 -35 28 -104q0 -24 -16 -193q-1 -17 -1 -50v-16q0 -147 46 -216q29 -32 75 -57q8 -4 11 -4q0 1 1 1q0 6 -40 68q-22 41 -37 89q-20 83 -20 140v21q0 103 50 220q55 100 166 150q96 32 184 32z" />
    <glyph glyph-name="uacute" unicode="&#xfa;" horiz-adv-x="1363" 
d="M828 933q168 0 292 -187q37 -66 60 -163q27 -118 27 -198q0 -159 -67 -354q-37 -93 -94 -170q-40 -62 -121 -145q-175 -174 -329 -295q-165 -128 -279 -243q-144 -156 -144 -347v0q0 -135 84 -256q53 -66 94 -87q16 -10 30 -10v0q17 0 17 31q-10 118 -10 152v21
q0 278 158 465q144 163 362 163q333 0 524 -305q91 -167 91 -371q0 -202 -81 -368q-33 -52 -50 -52v0q-10 7 -10 17v7q0 11 17 108q6 28 6 73v10q0 194 -77 347q-80 156 -265 225q-61 25 -128 25q-134 0 -258 -87q-118 -90 -172 -288q-10 -49 -10 -83v-7q0 -73 47 -142
q40 -70 40 -108v-7q0 -38 -40 -52q-13 -7 -30 -7h-3q-121 0 -239 94q-131 125 -168 222q-57 139 -57 291q0 201 87 409q31 73 131 198q125 149 185 191q77 69 235 177q61 41 131 97q64 45 145 139q131 163 131 305v24q0 118 -78 205q-80 79 -194 79q-155 0 -209 -177
q-10 -48 -10 -90q0 -83 71 -187q37 -55 37 -87v-3q0 -35 -47 -42h-7q-101 0 -208 132q-84 121 -84 284v11q0 177 97 308q24 25 37 25q7 -4 7 -14v-4q0 -17 -40 -183q-7 -49 -7 -70v-17q0 -80 43 -135v0q-6 79 -6 93q0 94 47 222q43 111 168 167q57 24 121 24z" />
    <glyph glyph-name="udieresis" unicode="&#xfc;" horiz-adv-x="2174" 
d="M2024 1351q56 0 147 -104q53 -65 80 -210q5 -34 5 -60v-23q0 -131 -105 -219l-5 -7q0 -8 44 -210q26 -104 58 -388q25 -246 25 -431q0 -287 -62 -715q-54 -286 -116 -446q-43 -109 -100 -194q-93 -129 -235 -129h-8q-181 0 -295 221q-46 82 -111 214q-54 84 -100 84h-5
q-76 0 -188 -242q-35 -78 -94 -140q-98 -87 -232 -87q-172 0 -331 201q-127 192 -127 444v43q0 189 122 385q81 105 124 132q96 80 257 146l504 190q182 72 253 139q59 65 79 116q40 100 40 191v18q0 137 -91 248q-68 70 -147 70h-16q-131 0 -232 -216h-3q-2 0 -16 41
q-68 132 -179 176q-27 8 -46 8h-19q-93 0 -157 -108q-34 -77 -34 -153q0 -154 110 -291q78 -81 78 -124q0 -33 -59 -43q-18 -3 -40 -3h-22q-117 0 -238 64q-145 113 -145 343v38q0 65 26 322v25q0 60 -29 75q-6 3 -16 6q-47 0 -65 -126q-9 -97 -9 -149v-13q0 -33 39 -97
q12 -23 12 -34v-5q0 -24 -38 -27h-2q-89 0 -108 215v15q0 140 81 251q71 74 138 74q95 0 146 -87q17 -41 17 -97q0 -37 -27 -258q-4 -40 -4 -95q0 -198 63 -243q16 -7 22 -7h4q11 0 11 14q0 21 -45 149q-17 61 -17 142q0 181 76 338q54 101 168 147q41 11 70 11
q180 0 260 -210q3 -13 7 -13q23 61 73 121q86 95 187 95q109 0 197 -70q169 -163 169 -496q0 -508 -368 -729q-118 -78 -260 -144q-131 -55 -436 -160q-101 -40 -184 -107q-121 -98 -121 -246q0 -159 144 -288q90 -72 175 -72q203 0 292 282q50 129 108 219q49 67 114 67
q99 0 152 -135q17 -39 66 -172q46 -118 109 -192q78 -83 146 -83h8q96 0 178 126q51 91 103 301q25 103 54 367q20 239 20 400q0 387 -61 852q-20 124 -27 124q-7 5 -92 18q-169 47 -261 167q-63 94 -63 199v5q0 126 66 173q29 11 53 11q137 0 289 -245q18 -36 22 -39h3
q28 0 59 41q12 26 12 56q0 76 -95 203q-9 18 -9 28v9q0 22 30 22zM1756 1078q0 -43 71 -86q52 -27 76 -27l8 2v5q0 40 -95 110q-25 14 -44 14q-16 -4 -16 -18z" />
    <glyph glyph-name="yacute" unicode="&#xfd;" horiz-adv-x="1790" 
d="M998 1941q-3 -7 1 -9.5t8 -3.5q4 -2 9 -2h9h11t10 2q5 1 9 4.5t2 8.5l-26 69q-4 3 -9 0zM936 1918l74 213q7 9 16.5 9t14.5 -9l75 -213q7 -20 -4.5 -31t-24.5 -14q-14 -6 -30 -8t-33 -2h3q-17 0 -33.5 2t-31.5 8q-8 3 -14.5 6t-10 8t-4.5 12t3 19zM1049 1860h10
q84 0 192 -49q182 -95 182 -222q0 -84 -81 -165q-41 -39 -76 -56q-32 -18 -74 -32q-83 -28 -156 -28q-98 0 -196 46q-52 28 -101 66q-94 85 -94 176q0 64 66 141q49 46 73 56q28 18 77 36q101 31 178 31zM763 1596q0 -81 108 -140q28 -14 73 -32q70 -21 122 -21q77 0 178 60
q80 52 80 116q0 67 -108 126q-31 18 -94 36q-52 14 -97 14q-108 0 -203 -67q-48 -42 -55 -74q-4 -7 -4 -18zM439 1674q7 0 21 -49q59 -148 233 -257q63 -35 129 -60q129 -42 234 -42q143 0 303 77q42 21 119 88q52 49 59 63q28 32 66 99q28 53 42 53q7 0 7 -18
q0 -49 -56 -172q-24 -46 -66 -102q-188 -233 -502 -233q-216 0 -387 127q-59 49 -98 95q-87 102 -111 215q-11 42 -11 70q4 46 18 46v0zM840 970q76 0 139 -45q35 -35 48 -61q30 -51 64 -173q8 -28 12 -30h1q5 7 25 81q30 88 56 126q36 44 67 54q45 23 94 23h6q94 0 192 -87
q54 -58 71 -89q56 -83 81 -227q19 -97 19 -200q0 -372 -148 -623q-108 -174 -366 -270q-48 -20 -148 -44q-62 -15 -269 -46q-161 -32 -252 -69q-75 -29 -124 -76q-97 -101 -97 -242q0 -123 50 -248q23 -52 62 -111q65 -88 86 -88q14 0 14 34q0 6 -10 93q-1 17 -1 33v5
q0 230 144 381q92 84 224 116q78 19 145 19q228 0 406 -189q130 -144 130 -360v-7q0 -158 -86 -350q-39 -81 -68 -81h-2q-17 0 -25 29q-2 3 -2 18q0 34 43 133q38 96 38 180q0 115 -81 212q-60 59 -142 87q-94 36 -185 36q-124 0 -241 -61q-37 -19 -83 -70q-50 -66 -70 -131
q-18 -60 -18 -110v-12q0 -70 39 -161q21 -57 21 -82v-7q0 -37 -41 -45q-5 -1 -10 -1q-74 0 -188 118q-62 69 -77 96q-44 65 -75 135q-32 73 -58 156q-30 100 -30 209v26q0 194 89 339q17 35 80 111q63 70 117 106q55 41 138 79q74 37 315 76q340 69 418 122q138 74 203 241
q37 107 37 212v21q0 158 -86 287q-27 34 -50 47q-70 42 -139 42q-83 0 -146 -68q-44 -53 -60 -83q-20 -34 -33 -46l-4 -1q-11 3 -54 69q-37 58 -71 84q-49 35 -111 35h-4q-111 0 -177 -81q-63 -90 -63 -200v-2q0 -118 68 -204q57 -73 84 -98q54 -54 54 -74v-7q0 -26 -48 -48
q-40 -14 -81 -14h-7q-38 0 -78 15q-40 4 -112 59q-108 84 -148 210q-35 103 -35 237q0 79 24 298q2 28 2 44q0 66 -33 78q-6 2 -9 2h-6q-32 0 -54 -76q-9 -39 -17 -163v-25q0 -42 24 -79q26 -41 26 -59v-3q0 -19 -27 -26h-12q-61 0 -91 119q-11 48 -11 91v14q0 92 47 190
q40 74 121 109q23 7 43 7q75 0 126 -58q33 -43 33 -116q0 -51 -31 -257q-12 -90 -12 -151q0 -128 49 -188q25 -24 53 -42v0q-15 39 -31 121q-16 89 -16 160q0 143 56 310q22 60 72 131q74 99 198 99z" />
    <glyph glyph-name="thorn" unicode="&#xfe;" horiz-adv-x="2823" 
d="M1063 1936q-2 -5 1 -7t6 -3q4 -1 8 -1h8h9t8 1t7.5 4t1.5 6l-21 53q-4 3 -8 0zM1011 1918l62 165q6 7 13.5 7t12.5 -7l62 -165q6 -15 -3.5 -23.5t-20.5 -10.5q-11 -4 -24.5 -6t-27.5 -2h3q-15 0 -28.5 2t-26.5 6q-6 2 -11.5 4.5t-8.5 6.5t-4 9.5t2 13.5zM1065 1859h11
q86 0 196 -49q186 -96 186 -222q0 -85 -82 -166q-43 -39 -79 -56q-32 -18 -75 -32q-85 -28 -160 -28q-100 0 -200 46q-53 28 -103 67q-96 84 -96 176q0 63 67 141q50 45 75 56q29 18 79 35q103 32 181 32zM773 1595q0 -81 111 -141q28 -14 75 -32q71 -21 124 -21
q79 0 182 60q82 53 82 116q0 67 -110 127q-32 18 -97 35q-53 14 -99 14q-111 0 -207 -67q-50 -42 -57 -74q-4 -7 -4 -17zM442 1672q7 0 21 -49q61 -148 239 -257q64 -35 132 -60q132 -42 239 -42q146 0 310 77q43 21 121 88q53 49 61 64q28 31 67 98q29 53 43 53q7 0 7 -18
q0 -49 -57 -172q-25 -46 -68 -102q-192 -233 -513 -233q-221 0 -396 127q-60 49 -99 95q-89 102 -114 215q-11 42 -11 70q3 46 18 46v0zM2238 932h15q199 0 345 -147q150 -141 150 -360q0 -211 -135 -334q-129 -106 -268 -106h-14q-139 0 -182 81q-18 32 -18 60q0 60 61 84
q18 11 43 11h10q47 0 136 -46q46 -21 68 -21h10q68 0 143 113q32 56 32 116q0 92 -68 173q-107 105 -310 105h-11q-278 0 -467 -275q-28 -38 -39 -38q-3 3 -3 10v11q0 130 71 306q57 138 239 219q92 38 192 38zM851 968q79 0 142 -45q36 -35 50 -61q31 -52 65 -174
q8 -27 13 -30v0q6 7 27 82q30 88 56 125q37 44 68 55q46 23 97 23h6q96 0 196 -87q55 -58 73 -90q57 -82 83 -227q19 -97 19 -200q0 -372 -151 -624q-111 -174 -374 -270q-49 -21 -151 -44q-64 -15 -276 -47q-164 -31 -257 -69q-77 -29 -127 -76q-99 -100 -99 -241
q0 -124 51 -249q24 -53 64 -111q66 -89 88 -89q13 0 13 35q0 6 -10 93v33v5q0 230 147 382q93 83 228 116q80 19 149 19q233 0 415 -190q133 -144 133 -360v-8q0 -157 -88 -350q-40 -81 -70 -81h-2q-17 0 -25 29q-2 3 -3 18q0 34 44 133q40 97 40 180q0 116 -83 213
q-61 59 -146 87q-95 36 -189 36q-126 0 -246 -61q-37 -19 -85 -70q-51 -67 -71 -132q-19 -60 -19 -110v-12q0 -70 40 -161q22 -57 22 -82v-7q0 -37 -42 -45q-6 -1 -10 -1q-76 0 -193 118q-63 70 -79 97q-44 64 -76 134q-33 73 -60 157q-30 100 -30 209v26q0 195 90 340
q18 35 82 111q66 70 121 106q56 41 141 79q75 37 321 76q348 69 427 122q141 75 208 242q38 107 38 212v21q0 158 -88 288q-27 33 -51 47q-71 42 -142 42q-85 0 -150 -68q-44 -53 -61 -84q-20 -34 -33 -46l-4 -1q-12 3 -56 70q-38 57 -72 83q-50 36 -114 36h-4
q-113 0 -181 -82q-64 -90 -64 -200v-2q0 -118 69 -204q58 -73 86 -98q56 -54 56 -74v-8q0 -26 -50 -48q-40 -13 -83 -13h-7q-38 0 -79 14q-41 4 -115 59q-110 84 -151 211q-36 103 -36 238q0 79 25 298q1 28 1 44q0 65 -34 78q-5 2 -9 2h-5q-33 0 -56 -76q-9 -40 -17 -164
v-24q0 -43 25 -79q26 -41 26 -60v-3q0 -19 -28 -25h-12q-62 0 -92 119q-12 48 -12 90v15q0 92 48 190q40 74 123 109q24 7 44 7q78 0 130 -58q33 -43 33 -116q0 -51 -32 -257q-11 -90 -11 -152q0 -128 49 -188q26 -24 54 -42h1q-15 39 -33 121q-16 89 -16 161q0 142 58 309
q22 61 73 132q76 99 202 99z" />
    <glyph glyph-name="scaron" unicode="&#x161;" 
d="M-699 1091q3 1 9 5q2 -2 4 -2t4 -2zM-863 1112q5 3 9 6l8 6q3 -5 6 -9t5 -8zM-818 1927q139 0 230 -62q118 -76 174 -231q24 -68 24 -148v-10q0 -155 -122 -286q-49 -44 -80 -58q-10 -7 -38 -17q-45 -18 -87 -18q-25 0 -25 14v4q0 24 84 72q42 24 87 69q90 100 90 203
q0 89 -76 172q-42 45 -129 69q-73 14 -150 14q-125 0 -194 -62q-32 -28 -49 -55q-39 -62 -39 -131q0 -104 105 -207q59 -55 132 -100q32 -24 32 -48q0 -17 -21 -17h-11q-59 0 -188 55q-66 31 -125 79q-45 38 -70 76q-73 107 -73 234q0 62 25 165v14v3q0 7 -7 7
q-11 0 -32 -34q-14 -41 -31 -41q-11 0 -14 20v0q3 42 56 114q52 58 94 58q34 0 45 -31q0 -3 3 -3q0 -14 -27 -76q-39 -96 -39 -186q0 -113 59 -192q32 -31 46 -42v0v4q-59 117 -59 199v18q0 93 48 203q52 106 167 155q84 34 185 34zM-797 1593q104 0 167 -103q24 -48 24 -90
v-10q0 -58 -45 -117q-45 -52 -77 -52h-7q-10 0 -10 11q0 10 42 34q52 48 52 103q0 52 -45 90q-35 24 -87 24h-14q-77 0 -122 -62q-14 -24 -14 -52q0 -58 73 -113q24 -17 24 -28v-3q-3 -7 -10 -7q-38 0 -94 58q-42 52 -42 111v6q0 80 70 152q52 48 115 48z" />
    <glyph glyph-name="florin" unicode="&#x192;" horiz-adv-x="1448" 
d="M163 398l-4 146h1214l4 -146h-1214z" />
    <glyph glyph-name="quoteleft" unicode="&#x2018;" horiz-adv-x="547" 
d="M354 373l2 -20t3 -21l-39 11q3 3 10 13t15 21t15 21t9 13l4 -19zM373 392q35 40 53.5 83.5t18.5 89.5q0 9 -2.5 23.5t-4.5 28.5q-8 -2 -23.5 -8.5t-26.5 -10.5q-57 20 -57 109q0 120 75 120q48 0 75 -71q11 -31 17.5 -63t6.5 -67q0 -209 -121 -287z" />
    <glyph glyph-name="quoteright" unicode="&#x2019;" horiz-adv-x="547" 
d="M375 395q-5 -5 -10 -10.5t-11 -11.5l2 -20t3 -21l-39 11q3 3 10.5 14t16 23t16 23t9.5 15zM390 598q-59 22 -59 109q0 120 75 120q48 0 75 -71q11 -31 17.5 -63t6.5 -67q0 -209 -121 -287l-9 56q34 39 52 82t18 88v7t-1 9v6.5t-0.5 12t-0.5 12v7.5z" />
    <glyph glyph-name="quotedblleft" unicode="&#x201c;" horiz-adv-x="905" 
d="M463 669q-7 -2 -22.5 -7.5t-25.5 -8.5q-74 2 -74 104q0 44 27 82q26 41 63 41q52 0 88 -69q29 -58 29 -128q0 -111 -41.5 -186.5t-134.5 -121.5v56q51 43 77 89t27 99zM713 652q-71 25 -71 109q0 119 89 119q116 0 116 -201q0 -215 -176 -301v53q102 87 102 189
q0 8 -1.5 20t-5.5 32z" />
    <glyph glyph-name="dagger" unicode="&#x2020;" horiz-adv-x="354" 
d="M142 -592v1769h89v-1769h-89z" />
    <glyph glyph-name="daggerdbl" unicode="&#x2021;" horiz-adv-x="1650" 
d="M187 -195v148h1384v-148h-1384zM864 36q-329 0 -512 200q-165 178 -198 501h86q124 -475 624 -475t624 475h87q-17 -158 -68.5 -285t-130.5 -216q-92 -98 -220.5 -149t-291.5 -51z" />
    <glyph glyph-name="guilsinglleft" unicode="&#x2039;" horiz-adv-x="1544" 
d="M375 65q-68 89 -132.5 173.5t-131.5 174.5q34 46 66.5 89.5t65 86.5t65 86.5t67.5 89.5h51l-165 -353q39 -85 82 -173.5t83 -173.5h-51zM199 377v74h1259v-74h-1259z" />
    <glyph glyph-name="guilsinglright" unicode="&#x203a;" horiz-adv-x="1573" 
d="M1210 64h-52l165 347q-39 85 -82 175.5t-83 177.5h52q69 -91 134.5 -176.5t133.5 -175.5zM108 377v74h1259v-74h-1259z" />
    <glyph glyph-name="trademark" unicode="&#x2122;" 
d="M-392 1091q6 2 9 5q6 -4 7 -4zM-581 1590q107 0 167 -99q27 -50 27 -90v-10q0 -60 -44 -117q-47 -53 -80 -53h-7q-10 0 -10 10t40 36q54 47 54 104q0 53 -44 86q-36 27 -87 27h-13q-80 0 -124 -63q-13 -24 -13 -50q0 -60 73 -114q24 -20 24 -30v0q-3 -6 -10 -6
q-37 0 -94 56q-43 50 -43 110v7q0 80 70 150q53 46 114 46zM-576 1937q132 0 243 -59q115 -67 157 -207q22 -78 22 -147q0 -160 -111 -320q-51 -61 -73 -71q-44 -37 -141 -37q-16 2 -16 6v4q13 17 41 33q44 31 79 62q58 60 81 101q52 91 52 162v7q0 73 -67 142
q-93 90 -246 90h-11q-154 0 -241 -71q-76 -75 -76 -175v-1q0 -94 75 -208q32 -41 55 -60q41 -34 115 -67q15 -9 15 -16q0 -11 -62 -11h-31q-102 0 -200 26q-15 0 -78 25q-97 52 -135 148q-29 73 -29 194q0 46 14 240v17q0 57 -24 71q-9 4 -16 4q-36 0 -49 -86
q-5 -34 -8 -131q0 -48 29 -82q18 -30 18 -45v-1q0 -19 -32 -23q-66 0 -90 140q-4 23 -4 46v13q0 82 42 164q35 60 103 86q13 5 32 5q66 0 108 -49q28 -36 28 -104q0 -24 -16 -193q-1 -17 -1 -50v-16q0 -148 47 -215q30 -33 77 -57q8 -4 12 -4q0 1 1 1q0 5 -42 67
q-22 40 -37 89q-22 83 -22 140v21q0 104 53 219q56 101 170 151q99 32 189 32z" />
    <glyph glyph-name="oe" unicode="&#x153;" horiz-adv-x="1938" 
d="M1408 924h13q84 0 195 -71q66 -52 96 -94q61 -87 73 -148q23 -74 23 -262q0 -235 -30 -291q-18 -27 -37 -27h-7q-31 0 -46 60q-4 17 -4 41q10 172 10 205v13q0 243 -72 324q-63 77 -95 77q-5 -2 -5 -4v-3q0 -8 49 -92q52 -101 52 -210v-15q0 -124 -83 -285
q-16 -32 -65 -79q-81 -68 -191 -68q-155 0 -244 92q-73 86 -73 216q3 74 3 117v11q0 175 -110 244q-74 45 -180 45q-138 0 -235 -114q-48 -64 -62 -124q-22 -74 -22 -134v-17q0 -108 77 -173q26 -15 45 -15q53 0 68 78q4 25 4 46v26q0 8 -4 95v5q0 49 37 61h8q49 0 68 -204
v-26q0 -99 -70 -181q-42 -39 -104 -39q-112 0 -177 86q-57 67 -78 178q-16 81 -16 133q0 188 118 346q58 65 101 92q51 35 99 51q88 29 161 29h27q128 0 245 -78q66 -55 81 -82q63 -78 63 -224q-1 -74 -1 -127q0 -193 68 -236q52 -39 105 -39q76 0 141 70q38 44 65 127
q17 60 17 112q0 175 -138 344q-34 49 -34 84q0 37 43 51q17 3 28 3z" />
    <glyph glyph-name="space" unicode=" " horiz-adv-x="1" 
 />
    <glyph glyph-name="Ydieresis" unicode="&#x178;" horiz-adv-x="1954" 
d="M1213 1927l67 194q6 8 14.5 8t13.5 -8l68 -194q6 -18 -4 -28t-22 -12q-13 -6 -27.5 -8t-29.5 -2q-14 0 -28 2q-15 2 -29 8q-7 2 -13 5t-9 7.5t-4 11t3 16.5zM1269 1948q-3 -6 1 -8t7 -4q4 -1 8 -1h19q4 0 8 1q5 1 8.5 4.5t1.5 7.5l-23 63q-4 2 -9 0zM1317 1857h14
q104 0 235 -49q221 -94 221 -219q0 -84 -100 -164q-46 -39 -96 -56q-32 -18 -85 -32q-103 -28 -192 -28q-121 0 -239 46q-67 28 -128 66q-114 84 -114 175q0 62 79 139q60 46 92 56q32 17 96 35q121 31 217 31zM969 1596q0 -81 131 -140q32 -14 89 -31q86 -21 150 -21
q92 0 217 59q99 52 99 115q0 66 -135 126q-39 17 -110 35q-68 14 -125 14q-131 0 -249 -67q-60 -42 -67 -73v-17zM567 1672q7 0 25 -49q74 -146 288 -254q78 -35 156 -60q160 -41 288 -41q178 0 370 76q57 21 150 88q64 48 74 62q29 32 79 98q35 52 49 52q11 0 11 -17
q0 -49 -67 -171q-32 -45 -82 -101q-235 -230 -619 -230q-263 0 -473 125q-71 49 -121 94q-107 102 -139 213q-11 42 -11 70q4 45 22 45v0zM395 968h15q78 0 149 -46q55 -43 55 -118q0 -54 -49 -243q-24 -105 -24 -171v-6q0 -126 74 -174q14 -10 56 -33h1q-22 27 -41 74
q-37 107 -37 196q0 137 79 301q29 54 89 116q53 46 73 53q82 41 179 41h13q93 0 175 -42q52 -37 72 -70q39 -51 86 -177q5 -7 7 -7h1q5 0 33 74q42 92 76 126q37 32 65 42q73 30 149 30q131 0 263 -89q61 -49 87 -81q71 -77 105 -216q25 -92 25 -189v-9q0 -374 -219 -622
q-137 -153 -365 -222q-110 -39 -305 -73q-224 -30 -343 -48q-281 -50 -382 -98q-49 -22 -108 -70q-64 -59 -75 -88q-24 -43 -24 -96q0 -85 49 -198q38 -82 130 -182q44 -41 57 -41h5q12 0 14 25v7q0 8 -13 91q-1 26 -1 32q0 179 121 306q36 41 85 73q65 40 139 65
q54 19 146 37q41 6 44 9q56 46 92 64q196 105 393 105h14q106 0 127 -35q2 -7 2 -10q0 -41 -187 -75q-113 -24 -183 -48v-1h1q34 -1 149 -33q85 -27 168 -75q180 -105 241 -257q29 -86 29 -188q0 -208 -138 -350q-25 -22 -40 -31q-62 -50 -130 -71q-81 -27 -166 -27
q-137 0 -253 82q-45 38 -55 58q-42 62 -42 126l1 5v6q0 27 17 78v1q-7 8 -55 40q-61 51 -69 67q-67 83 -67 231v2q-44 -17 -100 -61q-118 -111 -118 -242q0 -72 55 -164q26 -51 26 -77q0 -37 -54 -44q0 -1 -11 -1h-7q-104 0 -273 137q-81 71 -112 114q-49 63 -78 116
q-24 43 -58 120q-38 95 -38 208v5q0 183 95 307q158 222 501 324q111 31 355 58q360 53 476 92q206 78 304 257q56 116 56 222q0 139 -97 256q-42 43 -78 62q-78 44 -161 44q-134 0 -243 -137q-35 -42 -48 -50h-5q-11 0 -62 57q-70 85 -150 111q-47 13 -92 13h-6
q-122 0 -205 -65q-92 -85 -92 -203v-19q0 -90 85 -185q26 -36 95 -92q68 -49 68 -73q0 -32 -75 -51q-37 -6 -73 -6q-93 0 -179 36q-321 115 -321 450q0 93 44 307q5 38 5 58q0 55 -41 68q-8 3 -15 3h-2q-48 0 -76 -73q-15 -36 -30 -172v-19q0 -32 44 -83q16 -25 16 -40
q0 -22 -45 -25q-86 0 -121 116q-12 44 -12 82v3q0 115 84 215q44 42 76 55q66 33 113 33zM1126 -1032q-3 -26 -3 -49q0 -84 69 -164q18 -26 32 -40q2 0 40 42q49 46 67 56q48 26 97 26h1q108 0 151 -104q9 -27 9 -52v-6q0 -69 -57 -127q-64 -50 -135 -50h-1q-39 0 -120 27
q-5 1 -9 1q-4 -4 -4 -13q0 -67 97 -122q75 -38 166 -38h14q120 0 212 81q46 53 56 85q29 65 29 131q0 114 -96 204q-49 39 -85 53q-171 75 -358 75q-82 0 -172 -16zM1323 -1361q0 -12 73 -34q20 -4 34 -4q44 0 67 37q8 12 8 26q0 29 -45 47q-13 3 -25 3h-1q-65 0 -111 -73
v-2z" />
    <glyph glyph-name="dieresis" unicode="&#xa8;" 
d="M-452 2071q23 0 34 -69q13 -111 20 -166q20 -124 44 -214q20 -66 58 -156q44 -93 64 -117q95 -145 201 -187q95 -41 112 -52q3 -3 3 -7v0q0 -10 -68 -14h-24q-112 0 -237 108q-31 27 -75 89q-24 38 -61 115q-41 100 -54 158q-17 56 -31 142q-24 159 -24 270q0 72 24 93
q10 7 14 7zM-901 1943q131 0 241 -60q114 -68 155 -210q22 -80 22 -150q0 -162 -109 -325q-51 -62 -73 -73q-43 -37 -140 -37q-16 2 -16 6v4q13 18 41 34q43 31 78 63q57 61 80 103q51 92 51 164v7q0 74 -65 145q-93 91 -244 91h-11q-153 0 -239 -72q-76 -76 -76 -178v-1
q0 -95 75 -211q32 -42 55 -61q40 -35 114 -69q15 -9 15 -16q0 -11 -61 -11h-32q-101 0 -197 26q-16 0 -78 26q-96 53 -134 151q-28 73 -28 197q0 46 13 243v18q0 58 -23 72q-10 5 -16 5q-36 0 -49 -89q-5 -34 -8 -133q0 -49 29 -83q18 -31 18 -46v-1q0 -19 -32 -23
q-65 0 -89 142q-4 23 -4 47v13q0 84 42 167q34 61 101 88q14 5 32 5q66 0 107 -50q28 -37 28 -106q0 -25 -15 -196q-2 -18 -2 -51v-17q0 -149 46 -218q31 -33 77 -58q8 -4 12 -4q0 1 1 1q0 5 -41 68q-23 41 -38 91q-21 84 -21 142v22q0 105 52 222q56 103 169 154
q98 32 187 32z" />
    <glyph glyph-name="emdash" unicode="&#x2014;" horiz-adv-x="1043" 
d="M-92 377v74h1259v-74h-1259z" />
    <glyph glyph-name="periodcentered" unicode="&#xb7;" 
d="M1 1870q-112 0 -112 118q0 47 32 77.5t80 30.5q43 0 75 -33q33 -33 33 -75q0 -51 -29.5 -84.5t-78.5 -33.5z" />
    <glyph glyph-name="endash" unicode="&#x2013;" horiz-adv-x="497" 
d="M314 474q-112 0 -112 118q0 47 32 77.5t80 30.5q43 0 75 -33q33 -33 33 -75q0 -51 -29.5 -84.5t-78.5 -33.5zM314 108q-112 0 -112 118q0 47 32 77.5t80 30.5q43 0 75 -33q33 -33 33 -75q0 -51 -29.5 -84.5t-78.5 -33.5z" />
    <glyph glyph-name="ordfeminine" unicode="&#xaa;" horiz-adv-x="2062" 
d="M455 918h13q85 0 148 -68q44 -52 44 -151q0 -58 -37 -334q-4 -50 -4 -82v-24q0 -53 8 -53q35 -29 44 -29h3q17 0 40 82q71 171 210 171q39 0 54 -26q26 -44 26 -119v-6q0 -148 -74 -221q-48 -64 -164 -100q-58 -10 -58 -15q5 -63 31 -119q38 -75 140 -109q19 -6 38 -6h15
q131 0 230 239q29 65 43 65q17 -9 17 -71v-22q0 -144 -87 -315q-50 -87 -135 -118q-55 -20 -102 -20q-113 0 -202 133q-55 102 -55 263q2 23 2 59v1q0 7 1 17q0 14 -24 20q-92 49 -108 74q-25 27 -51 80q-30 73 -30 183q0 67 30 369v25q0 77 -34 97q-13 6 -22 6
q-50 0 -74 -121q-16 -129 -16 -204v-17q0 -48 44 -113q18 -33 18 -51v-3q-5 -34 -45 -34h-1q-104 0 -130 239q-1 22 -1 37q0 137 71 267q56 86 151 119q19 5 33 5zM1079 902h15q166 0 247 -239q4 -8 5 -8l40 88q75 136 225 136q163 0 294 -191q82 -152 82 -283
q-8 -481 -16 -481q-11 -40 -47 -40q-33 0 -37 52q-2 9 -2 28q0 55 7 285q0 147 -55 227q-45 67 -88 90q-67 49 -137 49q-116 0 -214 -118q-44 -54 -62 -54h-3q-20 0 -63 73q-74 93 -98 105q-36 27 -76 27h-8q-127 0 -198 -129q-22 -31 -35 -31q-19 0 -25 111q0 179 135 272
q58 31 114 31zM819 244v-6q0 -5 15 -8h7q22 0 59 38l2 5v4q-1 5 -8 5h-1q-34 0 -72 -35z" />
    <glyph glyph-name="exclam" unicode="!" 
d="M-990 1594q25 0 92 -107q67 -141 67 -269q0 -34 -3 -34q0 4 -25 61q-29 64 -75 144q-21 31 -56 68q-4 3 -7 3q-11 0 -39 -54q-11 -17 -18 -17q-3 4 -3 14q0 70 35 154q18 37 32 37zM-462 2021q24 0 32 -67q14 -101 21 -155q21 -117 46 -205q21 -64 56 -148
q46 -87 68 -110q95 -135 201 -178q96 -37 113 -47q4 -4 4 -7v0q0 -10 -67 -14h-25q-113 0 -241 101q-31 27 -74 88q-25 33 -64 107q-42 94 -53 151q-17 51 -31 131q-25 155 -25 256q0 70 25 90q7 7 14 7zM-907 1930q121 0 224 -59q105 -67 144 -207q20 -78 20 -147
q0 -160 -102 -320q-47 -61 -67 -71q-40 -37 -130 -37q-14 2 -14 6v4q12 17 37 33q40 31 73 62q53 60 74 101q48 91 48 162v7q0 73 -61 142q-86 90 -226 90h-11q-142 0 -221 -71q-71 -75 -71 -175v-1q0 -94 70 -208q29 -41 51 -60q37 -34 105 -67q14 -9 14 -16q0 -11 -57 -11
h-29q-94 0 -183 26q-15 0 -72 25q-90 52 -125 148q-26 73 -26 194q0 46 13 240v17q0 57 -22 71q-9 4 -15 4q-33 0 -45 -86q-5 -34 -7 -131q0 -48 26 -82q17 -30 17 -45v-1q0 -19 -30 -23q-60 0 -83 140q-3 23 -3 46v13q0 82 39 164q32 60 94 86q13 5 30 5q61 0 99 -49
q26 -36 26 -104q0 -24 -14 -193q-2 -17 -2 -50v-16q0 -148 43 -215q28 -33 71 -57q7 -4 11 -4q0 1 1 1q0 5 -38 67q-21 40 -35 89q-19 83 -19 140v21q0 104 48 219q52 101 157 151q90 32 173 32z" />
    <glyph glyph-name="one" unicode="1" horiz-adv-x="2064" 
d="M1714 1155q107 0 224 -211q8 -15 24 -54q5 0 5 -1q65 0 82 88q0 57 18 57q31 -8 63 -63q23 -42 23 -84v-17q0 -90 -128 -166l-1 -7q9 -84 9 -131q0 -252 -136 -427q-109 -139 -343 -139h-16q-70 0 -70 18v1q0 21 99 107q71 69 104 131q55 102 55 183v8q0 109 -71 183
q-58 44 -134 44q-137 0 -219 -128q-17 -24 -30 -36h-5q-32 41 -55 66q-84 86 -173 86h-13q-83 0 -163 -48q-73 -56 -73 -151q0 -111 82 -261q23 -41 103 -117q13 -14 14 -25v-7q0 -6 -4 -11q7 -7 7 -12v-5q0 -8 -31 -14q-13 -4 -46 -4h-2q-135 0 -276 48q-111 50 -167 173
q-33 73 -33 195q0 50 19 265v17q0 67 -35 82q-10 4 -21 4h-2q-51 0 -71 -89q-11 -67 -11 -161q0 -49 43 -88q26 -33 26 -49q0 -23 -45 -27h-4q-100 0 -134 173q-3 25 -3 44q0 118 79 213q90 81 173 81h11q106 0 164 -67q31 -39 31 -105q0 -22 -24 -237q0 -35 -2 -41
q0 -139 47 -222q34 -31 61 -31h1q8 0 10 4v6q0 9 -41 72q-52 91 -52 211q0 105 56 234q99 189 291 189h12q185 0 250 -189q4 -16 4 -27v-3q0 -2 2 -2q22 71 41 95q63 110 202 110q155 0 270 -137q76 -91 76 -238q0 -129 -78 -270q-16 -31 -72 -87q-13 -14 -13 -20h1
q128 67 199 255q35 99 35 186v20q-3 120 -13 120q-20 13 -102 57q-144 89 -192 219q-10 34 -10 65q0 56 60 92q23 7 38 7zM1730 998q0 -54 131 -98l8 -1l1 2q-16 38 -59 78q-40 31 -61 31h-8q-10 0 -12 -12z" />
    <glyph glyph-name="currency" unicode="&#xa4;" horiz-adv-x="761" 
d="M404 223l172 174l-172 177l-175 -177zM119 397l285 292l285 -292l-285 -287z" />
    <glyph glyph-name="threesuperior" unicode="&#xb3;" horiz-adv-x="1485" 
d="M739 597h3q50 7 177 -118q53 -55 91 -128q28 -52 54 -125q25 -58 53 -183q16 -70 19 -93q7 -32 -6 -35q-10 0 -25 45q-120 259 -215 394q-28 41 -76 83q-44 35 -56 32q-13 0 -32 -48q-19 -35 -31 -35q-13 0 -16 19v3q-6 55 38 167q9 19 22 22zM401 924q82 0 130 -59
q23 -36 23 -73q0 -51 -24 -207q-6 -59 -6 -100q0 -120 29 -146q61 -67 268 -67q233 0 283 66q51 51 51 154v15q0 98 -37 271q-3 26 -3 40v5q0 68 54 91q14 5 26 5q70 0 147 -113q68 -123 68 -259v-11q-9 -426 -17 -426q-10 -48 -42 -48q-45 0 -45 79q0 13 12 188q2 66 2 115
v3q0 133 -46 216q-14 20 -22 20h-2q-14 0 -17 -41v-8q0 -14 12 -131q1 -18 1 -29q0 -121 -62 -238q-107 -183 -333 -183h-21q-147 0 -261 58q-122 72 -163 190q-29 84 -29 182v2q0 70 23 260q0 8 1 27q0 44 -19 60q-12 8 -20 8h-4q-45 0 -60 -105q-9 -88 -9 -117
q0 -36 33 -78q15 -24 15 -38q-4 -23 -35 -23q-70 0 -96 130q-4 28 -4 51v3q0 94 55 179q41 55 116 79q20 3 28 3z" />
    <glyph glyph-name="acute" unicode="&#xb4;" horiz-adv-x="1863" 
d="M954 568v0q28 0 101 -119q42 -71 69 -169q38 -129 38 -238q0 -44 -3 -44q-7 7 -35 92q-38 84 -100 193q-28 48 -73 95q-3 3 -7 3q-14 0 -52 -78q-14 -23 -17 -23h-4q-3 0 -3 17v13q0 82 38 190q28 68 48 68zM1046 921q121 0 249 -59q119 -63 167 -196q34 -90 34 -186v-6
q0 -167 -109 -309q-14 -20 -14 -30q0 -1 3 -3q29 9 84 88q75 116 75 237q0 134 -87 328q-12 36 -12 54q0 51 72 70q16 2 20 2q59 0 137 -65q124 -124 124 -341q0 -47 -17 -327q-6 -151 -13 -151q-18 -29 -50 -29q-54 10 -54 43q24 274 24 367v2q0 223 -74 307q-10 10 -18 10
q-10 -3 -10 -16t35 -145q9 -50 9 -90v-15q0 -160 -82 -284q-26 -39 -79 -92q-53 -46 -128 -64q-47 -10 -76 -10h-16q-38 0 -49 21q-3 5 -3 11q0 22 68 89q74 83 100 134q45 85 45 140q0 92 -115 191q-100 75 -253 75q-240 0 -312 -144q-28 -60 -28 -117q0 -106 138 -306
q28 -41 28 -58t-44 -19h-10q-62 0 -205 37q-102 34 -139 96q-74 86 -74 255q0 63 24 270q2 11 2 41v3q0 48 -21 64q-12 8 -20 8h-7q-31 0 -53 -68q-10 -26 -18 -172v-8q0 -34 38 -86q12 -19 12 -33v-5q-6 -22 -35 -22q-86 0 -107 173q0 11 -1 26q0 103 60 199q25 31 49 48
q56 40 105 40q79 0 131 -59q29 -39 29 -98v-2q0 -42 -26 -224q-4 -40 -5 -82q5 -101 14 -141q18 -66 61 -99q44 -31 65 -31q6 2 6 4v2q0 5 -48 67q-60 106 -60 233v2q0 116 60 248q62 105 178 164q37 17 96 29q82 14 130 14z" />
    <glyph glyph-name="sterling" unicode="&#xa3;" horiz-adv-x="1828" 
d="M432 920q75 0 130 -52q39 -41 39 -119q0 -42 -27 -232q-4 -41 -5 -97q0 -211 87 -264q9 -6 29 -18h1v1q-55 99 -60 134q-23 86 -23 184v32q0 197 97 318q60 58 101 72q60 23 112 23h14q140 0 198 -139q15 -28 36 -91h2q5 4 28 59q26 56 65 105q54 62 157 62h18
q178 0 277 -188q45 -99 45 -277q0 -269 -23 -361q-15 -41 -38 -41h-5q-29 0 -34 59q-1 11 -1 21q4 199 4 280v9q0 129 -62 183q-73 80 -197 80q-142 0 -210 -149q-15 -33 -21 -33q-5 0 -25 48q-22 41 -59 77q-79 55 -151 55h-3q-69 0 -161 -61q-34 -29 -44 -56
q-21 -49 -21 -101q0 -73 46 -186q20 -50 112 -150q59 -67 61 -67q10 -8 10 -14q0 -20 -81 -25q-13 -1 -27 -1q-135 0 -259 56q-87 46 -138 174q-24 76 -24 176q0 69 25 291q2 15 2 45v2q0 58 -27 73q-11 5 -15 5h-6q-47 0 -66 -110q-11 -98 -11 -147v-10q0 -36 40 -92
q13 -21 13 -35v-4q0 -21 -33 -25h-10q-70 0 -101 137q-8 44 -8 77q0 110 63 213q48 65 128 89q14 5 36 5z" />
    <glyph glyph-name="guillemotleft" unicode="&#xab;" horiz-adv-x="539" 
d="M-226 1933h20q192 0 377 -233q172 -289 172 -622v-90q0 -151 -86 -1424l-20 -497q4 -547 101 -634l30 -12h10q32 0 60 347q0 27 46 60q70 0 70 -221v-30q0 -293 -166 -353h-30q-267 0 -267 742q0 414 85 1747v53q0 636 -256 844q-57 31 -131 42q-215 0 -272 -222
q-15 -52 -15 -119q0 -48 60 -221v-6l-15 -12q-66 0 -176 287l-10 107v6q0 306 247 425q80 36 166 36z" />
    <glyph glyph-name="paragraph" unicode="&#xb6;" horiz-adv-x="1148" 
d="M999 887v-1793h-33v1793h-233v-1793h-34v1072q-89 4 -155 12.5t-110 23.5q-229 75 -229 335q0 108 41 174q116 191 401 191h489v-15h-137z" />
    <glyph glyph-name="quotedbl" unicode="&#x22;" horiz-adv-x="920" 
d="M688 431q103 86 103 189q0 11 -1.5 24t-3.5 27q-8 -2 -26 -8.5t-30 -10.5q-70 17 -70 109q0 119 89 119q53 0 87 -73q16 -32 23 -64.5t7 -67.5q0 -105 -45 -179.5t-133 -120.5v56zM389 431q105 87 105 189q0 9 -3.5 20t-13.5 27q-28 -14 -48 -14q-72 -2 -72 104
q0 46 27 82q29 41 67 41q53 0 86 -67v1q28 -61 28 -131q0 -111 -41.5 -186.5t-134.5 -121.5v56z" />
    <glyph glyph-name="numbersign" unicode="#" 
d="M-927 1586q23 0 84 -109q67 -145 67 -272q-3 -30 -6 -30q0 3 -21 58q-27 65 -74 144q-17 31 -50 69q-4 3 -7 3q-10 0 -37 -55q-10 -17 -17 -17q-3 4 -3 17q0 72 33 155q17 37 31 37zM-290 1775h3q34 0 121 -144q54 -93 88 -209q47 -158 47 -292q0 -55 -7 -55
q-3 10 -40 110q-47 110 -125 240q-34 58 -87 117q-7 3 -11 3q-20 0 -64 -96q-16 -27 -23 -27v0q-7 0 -7 17v20q0 100 47 230q34 86 58 86zM-856 1916q117 0 217 -59q102 -67 139 -206q20 -78 20 -147q0 -160 -99 -319q-45 -61 -65 -71q-39 -37 -126 -37q-14 2 -14 6v4
q12 17 36 33q39 31 71 62q52 60 72 101q46 90 46 161v7q0 73 -59 142q-83 90 -219 90h-10q-138 0 -215 -71q-69 -75 -69 -175v-1q0 -93 68 -207q28 -41 49 -60q36 -34 103 -67q13 -9 13 -16q0 -11 -55 -11h-28q-91 0 -178 25q-14 0 -70 26q-87 52 -121 148q-25 72 -25 193
q0 46 12 239v17q0 58 -21 72q-9 4 -14 4q-33 0 -45 -87q-4 -34 -6 -130q0 -48 25 -82q17 -30 17 -45v-1q0 -19 -29 -23q-59 0 -81 139q-3 24 -3 46v14q0 82 38 164q31 59 91 85q12 5 29 5q59 0 96 -49q25 -35 25 -104q0 -24 -14 -192q-1 -17 -1 -50v-16q0 -147 42 -215
q27 -32 69 -57q7 -4 10 -4q0 1 1 1q0 6 -37 68q-20 40 -34 88q-18 83 -18 140v21q0 103 46 219q50 100 152 150q88 32 169 32z" />
    <glyph glyph-name="zero" unicode="0" horiz-adv-x="988" 
d="M572 920q175 0 290 -212q37 -76 37 -156v-9q0 -109 -51 -246q-18 -42 -59 -104q-60 -89 -102 -122q-87 -71 -161 -71q-82 0 -174 61q-37 19 -79 81q-64 99 -64 235q0 184 115 378q97 165 248 165zM283 335v-9q0 -52 73 -95q78 -38 143 -38q119 0 225 137q46 66 55 104
q28 61 28 104v9q0 71 -60 123q-64 52 -152 52h-4q-106 0 -180 -95q-55 -61 -87 -141q-37 -94 -41 -151z" />
    <glyph glyph-name="dollar" unicode="$" 
d="M-1438 1089q1 -2 6 -7l-16 7h10zM-521 2011q27 0 37 -67q14 -100 24 -155q23 -112 50 -197q20 -63 64 -148q50 -85 74 -111q107 -133 224 -174q108 -37 128 -48l3 -3v0q0 -12 -77 -15h-27q-127 0 -265 100q-37 26 -84 85q-30 33 -70 107q-47 93 -64 148q-17 52 -33 130
q-27 151 -27 251q0 71 27 93q10 4 16 4zM-967 2018h7q162 0 316 -93q40 -26 40 -59v-1q0 -67 -145 -213q-42 -40 -74 -65q-33 -25 -74 -48q-95 -52 -216 -52h-2q-185 0 -335 109v0q-38 -53 -51 -81q-51 -104 -51 -182v-3q0 -101 104 -200q16 -17 16 -24v-3q0 -7 -25 -13
q-9 -1 -17 -1h-5q-58 0 -124 66q-30 37 -43 63q-40 83 -40 174q0 45 14 126q1 5 2 13q-1 7 -4 7q-9 0 -21 -29q-7 -28 -17 -28v0q-8 0 -9 13v5q0 26 30 80q34 51 60 51q20 0 27 -23q1 -5 1 -6q0 -10 -15 -52q-25 -78 -25 -147q0 -86 35 -146q23 -33 29 -36v1q-31 86 -31 162
q0 101 47 222q13 29 30 62q-102 99 -102 169q3 42 19 42q12 0 49 -51q49 -62 80 -89q51 69 79 93q58 57 156 110q147 77 285 77zM-1389 1665v-1q120 -69 263 -69q103 0 190 53q82 47 146 108q33 36 33 55v2q0 40 -146 40h-24q-109 0 -235 -53q-102 -41 -173 -90
q-27 -19 -54 -45z" />
    <glyph glyph-name="ucircumflex" unicode="&#xfb;" horiz-adv-x="1504" 
d="M781 1941q-3 -6 1 -8t7 -3q4 -2 8.5 -2h8.5h9.5t8.5 2q5 0 8.5 3.5t1.5 7.5l-23 62q-4 3 -9 0zM726 1920l66 192q6 8 14.5 8t13.5 -8l67 -192q6 -18 -4 -27.5t-22 -11.5q-12 -6 -26.5 -8t-29.5 -2h3q-16 0 -30.5 2t-28.5 8q-7 2 -13 5t-9 7.5t-4 10.5t3 16zM794 1861h10
q77 0 178 -49q172 -95 172 -221q0 -81 -78 -162q-37 -39 -74 -56q-27 -18 -67 -32q-77 -28 -144 -28q-94 0 -185 46q-50 31 -94 66q-87 85 -87 176q0 63 57 137q47 46 74 56q23 18 70 35q94 32 168 32zM525 1598q0 -81 101 -137q24 -15 71 -32q63 -21 114 -21q70 0 164 60
q74 52 74 112q0 67 -100 126q-31 22 -88 36q-50 17 -94 17q-97 0 -188 -70q-47 -39 -50 -70q-4 -7 -4 -21zM220 1675q3 0 20 -49q57 -144 218 -253q61 -35 121 -57q121 -42 218 -42q138 0 286 78q40 21 111 84q50 49 57 63q23 32 60 99q27 49 41 49q6 0 6 -18
q0 -46 -53 -168q-24 -46 -61 -99q-178 -232 -473 -232q-202 0 -363 127q-54 45 -91 91q-81 102 -104 211q-10 46 -10 70q3 46 13 46h4zM828 969q168 0 292 -190q37 -67 60 -165q27 -120 27 -201q0 -161 -67 -358q-37 -95 -94 -172q-40 -63 -121 -148q-175 -175 -329 -298
q-165 -130 -279 -246q-144 -158 -144 -352v0q0 -137 84 -260q53 -66 94 -87q16 -11 30 -11v0q17 0 17 32q-10 119 -10 154v21q0 281 158 471q144 165 362 165q333 0 524 -309q91 -169 91 -376q0 -204 -81 -372q-33 -53 -50 -53v0q-10 7 -10 18v7q0 10 17 109q6 28 6 73v11
q0 197 -77 351q-80 158 -265 229q-61 24 -128 24q-134 0 -258 -88q-118 -91 -172 -291q-10 -49 -10 -85v-7q0 -73 47 -144q40 -70 40 -109v-7q0 -38 -40 -52q-13 -7 -30 -7h-3q-121 0 -239 94q-131 127 -168 225q-57 141 -57 295q0 204 87 415q31 74 131 200
q125 151 185 194q77 70 235 179q61 42 131 98q64 46 145 141q131 165 131 309v25q0 119 -78 207q-80 81 -194 81q-155 0 -209 -180q-10 -49 -10 -91q0 -84 71 -190q37 -56 37 -87v-4q0 -35 -47 -42h-7q-101 0 -208 133q-84 123 -84 288v11q0 179 97 313q24 24 37 24
q7 -3 7 -14v-3q0 -18 -40 -186q-7 -50 -7 -71v-17q0 -81 43 -137v0q-6 80 -6 95q0 94 47 224q43 113 168 169q57 25 121 25z" />
    <glyph glyph-name="comma" unicode="," horiz-adv-x="905" 
d="M297 1052h7q84 0 263 -348q75 -152 119 -341q34 -131 61 -324q24 -148 44 -457q10 -173 10 -229q0 -81 -17 -81t-34 113q-135 671 -260 1023q-38 113 -102 232q-64 99 -88 99q-20 0 -64 -106q-37 -77 -58 -77q-20 7 -20 56v7q0 134 102 387q20 46 37 46z" />
    <glyph glyph-name="period" unicode="." horiz-adv-x="1303" 
d="M308 1056h6q76 0 233 -347q63 -155 106 -343q27 -131 51 -326q21 -148 39 -456q9 -174 9 -231q0 -81 -15 -81q-12 0 -30 113q-118 673 -230 1027q-33 113 -90 230q-58 99 -76 99t-57 -106q-34 -74 -52 -74q-18 7 -18 56v8q0 131 88 385q21 46 36 46zM759 1060h6
q75 0 232 -347q64 -156 106 -343q27 -131 52 -326q21 -149 39 -457q9 -173 9 -230q0 -81 -15 -81q-12 0 -30 113q-118 673 -230 1027q-33 113 -91 230q-57 99 -75 99q-19 0 -58 -106q-33 -75 -51 -75q-18 7 -18 57v7q0 131 87 386q21 46 37 46z" />
    <glyph glyph-name="oacute" unicode="&#xf3;" horiz-adv-x="738" 
d="M360 156q80 106 80 206q0 10 -4 41q-1 4 -1.5 7t-1.5 7q-11 -10 -25 -14.5t-29 -5.5q-60 5 -92 29.5t-36 72.5q6 127 147 127q53 0 102 -82l-2 2q11 -29 17 -60.5t3 -66.5q-13 -211 -146 -285z" />
    <glyph glyph-name="ocircumflex" unicode="&#xf4;" horiz-adv-x="740" 
d="M384 336q-133 0 -133 140q0 56 38 92.5t95 36.5q51 0 90 -39q39 -40 39 -90q0 -60 -35 -100t-94 -40z" />
    <glyph glyph-name="parenleft" unicode="(" 
d="M-1049 1943q38 0 52 -62q20 -92 34 -144q31 -106 72 -185q28 -58 90 -137q68 -79 103 -103q151 -124 316 -161q152 -35 179 -45l7 -3v0q0 -11 -110 -14h-38q-175 0 -375 93q-51 24 -120 78q-38 35 -97 100q-65 89 -89 137t-48 124q-38 140 -38 233q0 65 38 86q14 3 24 3z
" />
    <glyph glyph-name="parenright" unicode=")" 
d="M-1141 1087q2 0 4 0.5t4 0.5l8 -6zM-534 1937h9q204 0 400 -85q51 -24 51 -54v-1q0 -61 -184 -195q-53 -36 -94 -59q-42 -23 -93 -44q-121 -47 -274 -47h-3q-235 0 -424 100h-1q-48 -49 -64 -74q-65 -96 -65 -167v-3q0 -92 132 -183q20 -15 20 -21v-3q0 -6 -31 -12
q-12 -1 -22 -1h-6q-74 0 -157 61q-38 33 -54 57q-52 76 -52 158q0 42 19 116q1 4 1 12q-1 7 -5 7q-11 0 -26 -27q-9 -26 -21 -26h-1q-9 0 -11 12v5q0 23 38 73q43 46 76 46q25 0 35 -21v-5q0 -9 -18 -47q-32 -72 -32 -135q0 -79 45 -134q28 -29 36 -32v0q-39 79 -39 149
q0 92 60 202q16 27 38 57q-130 90 -130 155q4 38 24 38q16 0 62 -47q63 -56 101 -81q65 63 100 85q74 52 199 101q185 70 361 70zM-1069 1614v0q152 -64 333 -64q130 0 241 49q104 42 185 99q42 32 42 50v2q0 36 -185 36h-30q-138 0 -298 -48q-130 -38 -219 -83
q-35 -17 -69 -41z" />
    <glyph glyph-name="brokenbar" unicode="&#xa6;" horiz-adv-x="870" 
d="M486 -279q-234 262 -234 638q0 135 30 256t84 222q57 98 139.5 179.5t187.5 138.5v-54q-100 -62 -160 -160t-87 -241q-14 -80 -22 -158.5t-8 -159.5q0 -214 40 -378t109 -264q23 -30 56 -63t72 -62v-53q-66 38 -118 77.5t-89 81.5z" />
    <glyph glyph-name="section" unicode="&#xa7;" horiz-adv-x="905" 
d="M252 -384q278 176 278 721q0 442 -150 643q-26 36 -58 66t-70 58v52q63 -36 115.5 -76t90.5 -80q235 -254 235 -641q0 -134 -30 -255.5t-84 -223.5q-57 -101 -139 -181t-188 -136v53z" />
    <glyph glyph-name="degree" unicode="&#xb0;" 
d="M0 2045q-17 0 -31 -5.5t-25 -16.5q-22 -21 -22 -56q0 -34 22 -56q22 -21 56 -21t56 21q22 22 22 56q0 35 -22 56q-22 22 -56 22zM0 2095q55 0 91 -37q37 -36 37 -91q0 -27 -9 -50t-28 -41q-18 -19 -41 -27.5t-50 -8.5t-50 8.5t-41 27.5q-19 18 -28 41t-9 50t9 50t28 41
q18 19 41 28t50 9z" />
    <glyph glyph-name="Scaron" unicode="&#x160;" horiz-adv-x="1323" 
d="M-114 -10q13 0 13 -36v-15q0 -94 -65 -415q-62 -257 -134 -424q-46 -104 -193 -412q-65 -137 -68 -195q0 -33 29 -47q17 -4 26 -4q49 0 108 73q42 65 82 159q52 123 110 358q30 130 53 282q9 87 23 278q6 47 16 47q23 0 36 -166q3 -44 3 -91v-18q0 -419 -144 -820
q-32 -91 -88 -174q-107 -170 -231 -170q-95 0 -150 80q-33 54 -33 133q0 156 127 376q114 214 160 301q150 282 202 484q26 101 72 318q26 98 46 98zM1022 915q68 0 145 -107q81 -130 81 -291q0 -74 -15 -410q-8 -76 -46 -76q-32 0 -46 39q-1 11 -1 17v1q0 20 12 303v45
q0 104 -41 199q-20 32 -31 32h-1q-15 0 -18 -41q0 -8 -1 -11q3 -30 14 -138v-43q0 -124 -73 -252q-72 -112 -188 -155q-83 -27 -181 -27h-12q-162 0 -274 83q-60 55 -76 87q-67 103 -67 198v19q7 106 28 106q9 -2 33 -72q19 -44 51 -85q98 -104 323 -104q229 0 285 68
q55 53 55 174q0 108 -38 290q-4 29 -5 47q0 73 56 98q7 4 31 6z" />
    <glyph glyph-name="question" unicode="?" horiz-adv-x="943" 
d="M647 543l-19 -80q-38 -15 -64 -15q-252 0 -252 305q0 147 181.5 373t181.5 355q0 217 -177 217q-144 0 -198 -155l-18 151q87 84 242 84q138 0 218.5 -97t80.5 -261q0 -152 -189 -407.5t-189 -336.5q0 -143 126 -143q35 0 76 10zM410 131q0 139 117 139q114 0 114 -139
q0 -136 -114 -136q-117 0 -117 136z" />
    <glyph glyph-name="J" unicode="J" horiz-adv-x="1405" 
d="M298 471l485 482l480 -482l-480 -483z" />
    <glyph glyph-name="B" unicode="B" horiz-adv-x="1300" 
d="M445 268l-194 193l194 194l193 -194zM535 745l194 193l195 -193l-195 -194zM1013 655l192 -194l-192 -193l-194 193zM922 178l-193 -194l-194 194l194 192z" />
    <glyph glyph-name="quotedblright" unicode="&#x201d;" horiz-adv-x="905" 
d="M463 669q-7 -2 -22.5 -7.5t-25.5 -8.5q-74 2 -74 104q0 44 27 82q26 41 63 41q52 0 88 -69q29 -58 29 -128q0 -111 -41.5 -186.5t-134.5 -121.5v56q51 43 77 89t27 99zM713 652q-71 25 -71 109q0 119 89 119q116 0 116 -201q0 -215 -176 -301v53q102 87 102 189
q0 8 -1.5 20t-5.5 32z" />
    <glyph glyph-name="percent" unicode="%" 
d="M-308 1933h3q35 0 130 -127q56 -80 94 -186q49 -138 49 -259q0 -48 -7 -48q-3 7 -45 100q-49 93 -130 210q-38 52 -94 103q-7 4 -11 4q-21 0 -66 -83q-18 -27 -28 -27v0q-7 0 -7 17v17q0 86 49 203q38 76 63 76zM-863 1947h8q168 0 330 -86q42 -25 42 -55v-1
q0 -63 -152 -199q-44 -37 -77 -60q-35 -23 -78 -45q-99 -48 -226 -48h-2q-194 0 -350 101h-1q-39 -49 -53 -75q-53 -97 -53 -170v-3q0 -94 109 -186q16 -15 16 -22v-3q0 -6 -25 -12q-10 -1 -19 -1h-5q-60 0 -129 62q-32 34 -45 59q-43 77 -43 161q0 42 16 117q1 5 1 12
q-1 7 -4 7q-9 0 -22 -27q-7 -26 -17 -26h-1q-7 0 -9 12v5q0 24 31 74q36 47 63 47q21 0 29 -21v-5q0 -10 -15 -48q-26 -73 -26 -138q0 -80 37 -136q23 -30 30 -33v0q-33 81 -33 152q0 94 50 206q13 28 31 58q-107 92 -107 157q3 40 20 40q13 0 51 -48q52 -57 84 -82
q53 63 82 86q61 53 164 102q153 72 298 72zM-1305 1618v0q126 -65 275 -65q108 0 200 49q85 44 152 101q35 33 35 51v2q0 37 -153 37h-25q-114 0 -246 -49q-107 -38 -181 -84q-28 -17 -57 -42z" />
    <glyph glyph-name="minus" unicode="&#xad;" horiz-adv-x="1259" 
d="M881 0l-253 352l-263 -352h-178l353 472l-305 423h176l220 -301l226 301h171l-312 -421l342 -474h-177z" />
    <glyph glyph-name="ampersand" unicode="&#x26;" 
d="M-259 1899h3q31 0 121 -145q54 -87 88 -205q47 -155 47 -289q0 -54 -7 -54q-3 10 -43 111q-44 104 -122 235q-37 61 -90 118h-11q-16 0 -63 -94q-17 -27 -24 -27v0q-7 0 -7 17v20q0 98 47 229q34 84 61 84zM-793 1938q121 0 224 -59q105 -67 144 -207q20 -78 20 -147
q0 -160 -102 -320q-47 -61 -67 -71q-40 -37 -130 -37q-14 2 -14 6v4q12 17 37 33q40 31 73 62q53 60 74 101q48 91 48 162v7q0 73 -61 142q-86 90 -226 90h-11q-142 0 -221 -71q-71 -75 -71 -175v-1q0 -94 70 -208q29 -41 51 -60q37 -34 105 -67q14 -9 14 -16q0 -11 -57 -11
h-29q-94 0 -183 26q-15 0 -72 25q-90 52 -125 148q-26 73 -26 194q0 46 13 240v17q0 57 -22 71q-9 4 -15 4q-33 0 -45 -86q-5 -34 -7 -131q0 -48 26 -82q17 -30 17 -45v-1q0 -19 -30 -23q-60 0 -83 140q-3 23 -3 46v13q0 82 39 164q32 60 94 86q13 5 30 5q61 0 99 -49
q26 -36 26 -104q0 -24 -14 -193q-2 -17 -2 -50v-16q0 -148 43 -215q28 -33 71 -57q7 -4 11 -4q0 1 1 1q0 5 -38 67q-21 40 -35 89q-19 83 -19 140v21q0 104 48 219q52 101 157 151q90 32 173 32z" />
    <glyph glyph-name="quotedblbase" unicode="&#x201e;" horiz-adv-x="835" 
d="M346 366q-8 -25 4.5 -33.5t23.5 -14.5q14 -6 54.5 -17.5t53.5 -11.5q18 0 56 9.5t51 15.5q16 2 28.5 15.5t5.5 32.5l-123 457q-14 10 -30 0zM207 344l227 789q22 33 51 33t47 -33l228 -789q22 -74 -12 -113.5t-74 -50.5q-44 -22 -94.5 -29.5t-99.5 -7.5h7
q-50 0 -101.5 7.5t-98.5 29.5q-22 11 -42.5 22t-32.5 30t-14 43.5t9 68.5z" />
    <glyph glyph-name="quotesingle" unicode="'" horiz-adv-x="547" 
d="M354 373l2 -20t3 -21l-39 11q3 3 10 13t15 21t15 21t9 13l4 -19zM373 392q35 40 53.5 83.5t18.5 89.5q0 9 -2.5 23.5t-4.5 28.5q-8 -2 -23.5 -8.5t-26.5 -10.5q-57 20 -57 109q0 120 75 120q48 0 75 -71q11 -31 17.5 -63t6.5 -67q0 -209 -121 -287z" />
    <glyph glyph-name="bullet" unicode="&#x2022;" horiz-adv-x="607" 
d="M204 378q-7 0 -12 5t-5 12l6 90q0 7 5 12t12 5l325 1q7 0 12 -5t5 -12l-6 -90q0 -7 -5 -12t-12 -5zM354 560q-112 0 -112 118q0 47 32 77.5t80 30.5q43 0 75 -33q33 -33 33 -75q0 -51 -29.5 -84.5t-78.5 -33.5zM354 108q-112 0 -112 118q0 47 32 77.5t80 30.5
q43 0 75 -33q33 -33 33 -75q0 -51 -29.5 -84.5t-78.5 -33.5z" />
    <glyph glyph-name="hyphen" unicode="-" horiz-adv-x="1063" 
d="M203 347l-4 133l787 3l4 -133z" />
    <glyph glyph-name="perthousand" unicode="&#x2030;" 
d="M-744 1951h9q64 0 147 -30q140 -57 140 -134q0 -51 -62 -100q-32 -24 -59 -34q-25 -11 -57 -19q-64 -17 -120 -17q-76 0 -150 27q-41 18 -78 41q-73 51 -73 106q0 39 51 86q38 27 57 33q21 11 59 22q77 19 136 19zM-964 1791q0 -49 84 -85q21 -8 56 -19q53 -13 94 -13
q59 0 136 36q62 32 62 70q0 41 -83 77q-24 11 -72 21q-40 9 -75 9q-84 0 -156 -41q-38 -25 -43 -44q-3 -4 -3 -11zM-1214 1838q6 0 17 -30q46 -89 179 -155q49 -22 100 -36q99 -26 180 -26q110 0 233 47q33 13 92 53q40 30 45 38q22 20 51 60q22 32 33 32q5 0 5 -10
q0 -31 -43 -105q-19 -28 -51 -62q-145 -140 -387 -140q-166 0 -298 76q-46 31 -75 58q-67 62 -86 130q-8 25 -8 43q3 27 13 27v0zM-759 2003q-2 -5 1 -6.5l5 -2.5q3 -1 6 -1h6h7.5t6.5 1t5.5 3.5t1.5 5.5l-17 46q-3 1 -7 0zM-800 1987l49 142q4 6 10.5 6t10.5 -6l49 -142
q5 -13 -2.5 -20t-16.5 -9q-9 -4 -19.5 -5.5t-21.5 -1.5h2q-12 0 -22.5 1.5t-21.5 5.5q-5 2 -9.5 4t-6.5 5t-3 8t2 12zM-655 1500q120 0 222 -37q105 -41 144 -128q20 -48 20 -91q0 -99 -101 -198q-47 -38 -68 -44q-39 -23 -129 -23q-14 1 -14 4v3q12 10 37 20q40 19 73 38
q53 38 74 63q47 56 47 100v4q0 46 -61 88q-85 56 -225 56h-10q-142 0 -221 -44q-70 -46 -70 -108v-1q0 -58 69 -128q29 -26 51 -38q37 -21 105 -42q14 -5 14 -9q0 -7 -57 -7h-29q-93 0 -183 16q-14 0 -71 16q-89 32 -124 91q-27 45 -27 121q0 28 13 148v10q0 36 -22 45
q-8 2 -14 2q-33 0 -46 -54q-4 -21 -6 -81q0 -29 26 -50q17 -19 17 -28v-1q0 -12 -30 -14q-60 0 -83 87q-3 14 -3 28v8q0 51 39 102q31 37 93 53q13 3 30 3q61 0 99 -30q26 -22 26 -65q0 -14 -15 -119q-1 -11 -1 -31v-10q0 -91 43 -133q28 -20 71 -36q7 -2 11 -2v1
q0 3 -37 41q-21 25 -35 55q-19 52 -19 87v13q0 64 48 136q51 62 156 93q90 20 173 20z" />
    <glyph glyph-name="quotesinglbase" unicode="&#x201a;" horiz-adv-x="1586" 
d="M1421 749l90 8q0 -136 -45 -248.5t-129.5 -193.5t-205.5 -125.5t-273 -44.5q-149 0 -268.5 44t-204 124.5t-131 193t-48.5 250.5l92 -8q24 -122 78.5 -203t129.5 -130t165.5 -69t186.5 -20t187 20t166.5 69t130.5 130t79 203z" />
    <glyph glyph-name="ntilde" unicode="&#xf1;" 
d="M-1568 -195q59 0 97 -61q21 -40 21 -107q0 -38 -18 -223q-4 -54 -4 -97q0 -81 10 -106q5 -28 22 -64q24 -34 43 -34q1 0 3 4q-17 64 -28 123q-16 91 -16 175v8q0 182 76 292q63 76 138 76h5q97 0 137 -123q17 -45 30 -101h1q8 21 28 82q22 58 48 93q35 45 102 45h5
q98 0 157 -100q39 -64 50 -122q20 -81 20 -166v-16q0 -183 -74 -346v-2q40 0 66 107q10 34 18 97q16 185 34 259q15 73 52 130q33 48 67 77q76 64 154 64h17q110 0 197 -113q110 -138 110 -353v-3q0 -218 -104 -332q-74 -76 -151 -76q-105 0 -127 98q-3 23 -3 32q0 54 36 80
q13 8 29 8h4q32 0 90 -44q27 -18 43 -18q39 0 81 82q29 59 29 125v13q0 79 -43 155q-70 96 -194 96q-163 0 -226 -195q-26 -71 -64 -210q-18 -59 -55 -113q-53 -61 -108 -61q-24 0 -28 24v4q0 15 21 78q63 153 63 281v1q0 142 -101 209q-37 20 -72 20h-1q-3 0 -4 1l-5 -1h-6
q-92 0 -142 -154q-7 -21 -10 -22h-1q-3 0 -20 51q-15 39 -39 71q-54 54 -107 54q-49 0 -114 -62q-27 -35 -31 -59q-13 -48 -13 -90q0 -79 37 -196q14 -41 84 -151q9 -14 9 -22v-2q0 -20 -42 -29q-42 -7 -68 -7q-161 0 -214 178q-22 72 -22 187q0 71 18 285q2 15 2 46
q0 64 -28 75h-9q-21 0 -37 -67q-9 -27 -14 -181v-13q0 -35 28 -89q9 -21 9 -34v-4q0 -20 -24 -24h-6q-53 0 -73 151q-3 35 -3 57q0 107 43 206q35 65 89 88q12 5 26 5z" />
    <glyph glyph-name="ydieresis" unicode="&#xff;" horiz-adv-x="960" 
 />
    <glyph glyph-name="odieresis" unicode="&#xf6;" horiz-adv-x="1910" 
d="M1055 1875q-2 -5 1.5 -7t6.5 -4q3 -1 7.5 -1h8.5h9t8 1q5 1 8.5 4t1.5 7l-22 60q-4 2 -9 0zM1002 1855l64 184q5 8 13.5 8t12.5 -8l65 -184q5 -17 -4.5 -26t-20.5 -12q-12 -5 -26 -7t-28 -2h3q-15 0 -29 2t-28 7q-6 3 -12 5t-9 6.5t-4 11t3 15.5zM1083 1797h11
q85 0 195 -49q185 -95 185 -223q0 -84 -82 -165q-42 -39 -78 -56q-32 -18 -75 -32q-85 -28 -159 -28q-100 0 -199 45q-54 29 -103 67q-96 85 -96 177q0 63 68 141q50 45 75 55q27 19 77 36q103 32 181 32zM792 1533q0 -82 110 -141q28 -15 75 -32q70 -21 124 -21
q78 0 181 60q81 52 81 116q0 67 -109 127q-32 17 -96 35q-53 14 -99 14q-111 0 -207 -67q-50 -42 -56 -74q-4 -7 -4 -17zM462 1611q7 0 22 -50q60 -148 237 -257q64 -36 131 -60q132 -42 238 -42q145 0 309 77q43 21 121 88q53 50 60 63q29 32 67 99q29 53 44 53q6 0 6 -18
q0 -49 -56 -172q-25 -46 -68 -103q-192 -232 -511 -232q-220 0 -394 127q-60 50 -100 95q-88 102 -113 214q-11 43 -11 71q4 47 18 47v0zM608 998l16 1q124 5 265 -95q48 -44 76 -86q95 -140 99 -252v-7q2 -34 -12 -35q-14 3 -45 55q-58 105 -93 157q-69 88 -137 117
q-78 34 -149 31q-103 -4 -207 -86q-159 -153 -154 -313l1 -16q6 -171 156 -264q76 -43 153 -39l19 1q64 3 117 32q32 28 30 74q-1 30 -32 56q-20 6 -90 11q-134 6 -135 13q-23 7 -24 26v7q-2 39 65 42l84 4q59 2 94 65q13 23 12 42q-1 35 -36 64q-37 22 -74 19
q-50 -2 -62 -29v-7v-8q11 -38 11 -42l1 -7q1 -23 -28 -44q-14 -4 -20 -4q-43 -2 -63 65q-1 20 -1 32q-2 64 49 120q52 41 109 43l10 1q80 3 136 -55q39 -52 41 -113q2 -73 -45 -140q-10 -8 -23 -21q30 -22 51 -43q42 -48 44 -106v-4q3 -91 -61 -166q-67 -80 -191 -86l-17 -1
q-147 -6 -268 126q-94 115 -101 302l-1 16q-8 248 137 412q74 79 147 102q79 30 146 33zM1575 972q60 2 138 -112q72 -139 76 -277l1 -23q5 -153 -40 -300q-9 -24 -18 -43q96 -168 97 -195q0 -12 -3 -12h-4q-6 0 -45 51q-56 71 -73 90q-57 -110 -80 -111h-4q-10 3 -11 22v8
q-1 27 40 112q9 20 9 24q-49 51 -51 58l-20 -45q-58 -129 -167 -185q-76 -30 -166 -34q-267 -11 -366 245q-23 71 -25 133q0 110 16 123v0q13 1 32 -60q23 -68 68 -116q42 -51 153 -73q53 -9 114 -7l13 1q214 9 258 91q3 4 6 13q-128 128 -202 132h-4q-12 -1 -17 -66
q-5 -46 -18 -46h-4q-6 -2 -17 26q-15 37 -18 121q-3 76 7 92q10 12 26 12q57 4 187 -79q45 -29 86 -73h4q-1 23 -1 35l-1 7q-4 107 -40 278q-8 42 -9 73q-3 76 47 101q10 8 26 9zM1611 640v-15q0 -12 12 -135v-37q0 -50 -10 -107l49 -82q26 100 26 169v20q0 99 -33 199
q-19 34 -28 34q-16 -8 -16 -46z" />
    <glyph glyph-name="otilde" unicode="&#xf5;" horiz-adv-x="2575" 
d="M643 1000q127 0 257 -92q46 -36 83 -89q80 -128 80 -221v-7q0 -28 -10 -28q-13 0 -57 67q-43 86 -76 132q-34 43 -60 64q-47 35 -80 46q-64 25 -120 25h-14q-90 0 -186 -60q-27 -15 -87 -79q-80 -99 -80 -206v-7q0 -153 137 -241q73 -43 160 -43q63 0 116 21q37 25 37 68
q0 25 -23 46q-10 18 -190 28q-34 4 -44 11q-13 11 -13 21v7q0 36 70 36q33 -4 60 -4h17q63 0 96 61q10 18 10 32q0 32 -36 60q-37 18 -67 18q-40 0 -57 -21q-3 -4 -3 -11v-4q10 -32 10 -39v-7q0 -21 -30 -35q-10 -4 -20 -4v0q-40 0 -53 50q-7 18 -7 39q0 60 63 110
q47 29 107 29q70 0 123 -47q40 -49 40 -110q0 -71 -53 -128q-13 -10 -17 -10v0q30 -22 54 -43q33 -46 33 -92v-7q0 -79 -63 -146q-57 -50 -110 -61q-47 -7 -87 -7q-133 0 -240 100q-110 106 -110 298v15q0 234 167 376q60 46 103 57q83 32 170 32zM1570 936q57 0 120 -85
q30 -46 53 -117q17 -68 17 -89h3q14 53 34 92q33 68 123 124q90 57 200 57q197 0 327 -199q53 -99 53 -216v-8q0 -163 -93 -262q-50 -50 -84 -64q-63 -36 -126 -36h-17q-107 4 -137 68q-13 24 -13 49q0 54 57 75q16 3 26 3v0q40 0 114 -39q30 -17 50 -17q53 0 106 88
q30 50 30 103q0 75 -50 143q-83 88 -243 88q-217 0 -363 -234q-14 -21 -24 -25q-3 -21 -23 -39h-7q-10 0 -16 128q-10 74 -24 114q-23 71 -43 71v0q-13 0 -13 -39v-18q0 -7 10 -117v-32v0q0 -36 -7 -72q57 -85 100 -184q80 -203 80 -238q0 -7 -3 -11h-4q-6 0 -53 78
q-70 121 -150 235h-3q-50 -132 -170 -189q-77 -32 -174 -32h-7q-260 0 -343 235q-20 60 -20 114q0 64 17 103q3 3 6 3q7 0 30 -71q40 -96 120 -131q84 -36 187 -36h27q193 0 243 68q7 10 17 28q-63 71 -83 85q-60 47 -84 47q-13 0 -30 -64q-13 -36 -23 -36q-20 7 -24 75
q0 60 20 142q7 21 27 21h3q54 0 184 -106q23 -25 33 -36v4q0 95 -33 262q-3 32 -3 43q0 75 56 96h17z" />
    <glyph glyph-name="Eth" unicode="&#xd0;" 
d="M-1158 -199q87 0 141 -56q45 -49 45 -224q0 -53 -10 -173l3 -2q59 0 59 5q10 126 23 184q15 63 36 108q48 91 143 129q68 24 164 24h6q279 0 387 -176q86 -112 86 -333v-56q0 -244 -30 -307q-19 -34 -46 -34h-7q-52 0 -52 146l6 209v17q0 211 -102 272q-113 73 -234 73
h-5q-149 0 -213 -120q-42 -74 -42 -112q-1 0 -3 -18q0 -6 24 -6q150 0 266 -44q158 -64 158 -200v-11q0 -91 -67 -150q-63 -47 -142 -47h-15q-98 0 -207 64q-59 48 -74 82q-25 43 -47 97q-5 3 -8 3h-72q-4 0 -6 -40q-14 -72 -30 -105q-32 -59 -111 -59q-129 0 -172 110
q-10 30 -10 54q0 90 145 164q24 15 61 31q-8 269 -24 315q-21 101 -73 101q-46 0 -68 -91q-10 -80 -10 -133v-2q0 -45 39 -94q9 -20 9 -29v-2q0 -16 -26 -22q-7 -1 -13 -1q-88 0 -110 161q0 10 -1 25q0 98 65 190q28 30 54 48q60 35 110 35zM-789 -870v-1q24 -59 114 -112
q80 -39 141 -39h4q62 0 78 36q1 6 1 8q0 38 -111 76q-97 25 -145 25q-57 7 -82 7zM-1202 -949q0 -23 43 -27h1q32 0 32 52q-1 34 -2 42q-67 -33 -74 -65v-2z" />
    <glyph glyph-name="Ntilde" unicode="&#xd1;" 
d="M-837 -165q130 0 229 -59q53 -27 53 -38q-3 -3 -7 -3h-4q-7 0 -95 10h-32q-116 0 -240 -51q-42 -18 -102 -66q-120 -124 -120 -259q0 -134 120 -251q28 -21 42 -28v0q0 104 32 166q60 134 177 179q91 45 204 45h4q176 0 321 -97q64 -52 85 -86q95 -128 95 -262v-4
q0 -89 -18 -120h-7q-17 0 -53 96q-56 128 -218 207q-78 38 -166 38q-127 0 -230 -72q-53 -45 -63 -73q-36 -48 -36 -141v-42q0 -34 -31 -34v0q-53 0 -145 31q-173 72 -251 228q-56 124 -56 234q0 145 95 273q60 69 120 100q134 79 297 79z" />
    <glyph glyph-name="Ograve" unicode="&#xd2;" 
d="M-1306 -200h9q59 0 78 -40q17 -30 17 -110v-1q0 -26 -10 -298v-41q0 -145 112 -181q28 -6 47 -6q78 0 131 59q18 24 60 112q32 52 89 52h2q100 0 122 -130q17 -66 44 -82q38 -26 88 -26q101 0 145 120q11 39 11 73q0 106 -72 168q-64 57 -113 82q-87 55 -103 92
q-8 22 -8 39q0 60 72 101q33 15 77 15h3q145 0 275 -112q155 -140 155 -364v-21q0 -26 -15 -332q-6 -36 -20 -52q-17 -17 -31 -17h-6q-28 0 -41 43q-2 11 -2 17v6q15 217 15 305q0 189 -168 320q-45 31 -70 31h-6q-14 0 -14 -14q0 -15 71 -74q120 -99 120 -253v-24
q0 -136 -91 -267q-76 -100 -170 -100h-6q-100 0 -155 54q-17 19 -35 59q-40 125 -59 125q-7 6 -22 6h-1q-48 0 -102 -110q-46 -87 -100 -106q-34 -11 -74 -11q-58 0 -124 28q-113 39 -179 152q-42 83 -42 252q0 92 20 396q10 45 19 45q17 20 57 20z" />
    <glyph glyph-name="Oacute" unicode="&#xd3;" 
d="M-537 -200h26q288 0 413 -340q23 -71 23 -145q-10 -184 -10 -236v-58q0 -101 -17 -115q-11 -13 -24 -13q-35 0 -43 54q-1 5 -1 16v44q0 22 1 28q-1 15 -1 31q0 58 1 179q0 79 -37 149q-48 82 -147 118q-90 29 -185 29h-8q-143 0 -179 -42q-29 -29 -29 -57v-3
q0 -22 39 -31q141 -18 175 -36q69 -29 97 -94q20 -51 20 -97q0 -106 -86 -210q-34 -40 -111 -60q-83 -21 -150 -21q-106 0 -212 39q-96 42 -147 169q-43 99 -43 217v10q0 72 25 279v20q0 4 1 5q0 60 -28 74q-8 4 -17 4q-43 0 -61 -98q-11 -98 -11 -146q0 -39 37 -87
q13 -25 13 -36q-5 -26 -35 -26h-3q-78 0 -101 159q-2 13 -2 33v13q0 94 55 187q25 34 60 59q52 32 86 32h12q74 0 126 -58q26 -40 26 -91v-18q0 -42 -22 -184q-10 -69 -10 -121q0 -73 21 -123q39 -45 47 -45q23 -17 67 -29q84 -20 168 -20h20q116 0 155 41q6 10 6 16v3
q0 31 -84 37q-22 0 -30 1q-11 -1 -18 -1q-88 0 -131 40q-78 66 -78 178v12q0 87 42 180q55 111 148 152q72 33 151 33z" />
    <glyph glyph-name="Ocircumflex" unicode="&#xd4;" 
d="M-645 -900h3q57 0 207 -151q87 -91 147 -213q79 -165 79 -303q0 -55 -11 -55q-8 8 -71 116q-76 109 -207 245q-60 60 -151 121q-11 3 -18 3q-31 0 -106 -98q-26 -29 -41 -29v0q-12 0 -12 18v20q0 104 79 239q61 87 102 87zM-212 26q38 0 38 -23v-9q0 -102 -103 -207
q-91 -81 -168 -110q-142 -70 -464 -174q-139 -48 -264 -124q-84 -61 -105 -88q-76 -86 -76 -217q0 -231 180 -306q153 -73 357 -73q274 0 435 180q56 73 87 183q43 149 43 385q0 120 -16 275q0 16 42 39q31 24 50 24q22 0 27 -57q37 -328 37 -476q0 -270 -87 -407
q-55 -102 -159 -192q-92 -73 -149 -95q-110 -54 -323 -54h-25q-309 0 -483 89q-177 84 -235 191q-73 126 -73 265q0 196 133 359q80 80 148 116q93 52 170 81q91 37 224 68q346 70 481 123q66 27 157 99q57 52 57 95q0 36 29 36q0 2 35 4z" />
    <glyph glyph-name="Otilde" unicode="&#xd5;" 
d="M-1537 -340v0q15 0 15 -31v-3q0 -9 -11 -140v-28q0 -180 123 -265q71 -57 159 -80q159 -51 302 -51h4q167 0 302 62h4v3l-40 52q-59 96 -59 162q0 77 75 125q52 32 119 32h8q123 0 175 -97q16 -29 16 -69q0 -105 -87 -188l-24 -25q43 -17 99 -26q20 0 36 -3q79 0 163 57
q52 40 87 80q20 17 32 17t12 -14v-9q0 -42 -44 -119q-12 -26 -63 -72q-80 -57 -171 -57h-4q-111 0 -223 63l-4 3v0q-111 -80 -163 -97q-123 -54 -266 -54q-163 0 -302 54q-60 23 -139 83q-76 62 -108 108q-35 48 -55 97q-32 91 -32 179v20q0 97 36 200q12 31 28 31z
M-627 -739v-8q0 -35 75 -97h8h4q56 20 80 60q16 25 16 45q0 49 -64 66q-12 3 -24 3q-59 0 -87 -49q-8 -11 -8 -20z" />
    <glyph glyph-name="Odieresis" unicode="&#xd6;" 
d="M-612 -541q121 -107 187 -390q14 -100 14 -152v-38h-7q-35 121 -118 280q-35 55 -79 107q-32 0 -73 -107h-7v14q0 148 80 286h3zM-531 -193h15q118 0 245 -63q113 -63 161 -202q34 -104 34 -226v-4q0 -43 -13 -337q-7 -87 -49 -87t-42 111q5 161 5 234v1q0 111 -29 157
q-7 18 -53 64q-104 100 -276 100h-3q-244 0 -310 -156q-23 -55 -23 -105q0 -112 143 -322q20 -34 20 -43v-7q-8 -17 -48 -17q-85 0 -211 57q-95 38 -147 138q-42 81 -42 216q0 73 21 267q3 25 3 52q0 52 -23 68q-9 5 -15 5h-4q-40 0 -56 -95q-12 -106 -12 -148q0 -43 35 -92
q12 -24 12 -37v-1q-4 -25 -33 -25h-1q-69 0 -93 147q-4 24 -4 56q0 102 54 197q32 43 49 54q50 36 91 36q70 0 116 -52q32 -38 32 -110q0 -33 -24 -223q-4 -45 -4 -86q0 -195 73 -245q21 -19 65 -44q0 1 1 1q0 6 -44 63q-24 41 -36 78q-26 87 -26 160v10q0 105 52 234
q56 112 184 180q34 15 103 29q66 12 107 12z" />
    <glyph glyph-name="multiply" unicode="&#xd7;" horiz-adv-x="1368" 
d="M658 560q183 -119 277 -432q24 -115 24 -170v-42h-10q-52 135 -177 312q-48 58 -121 116q-45 0 -107 -116h-11v16q0 161 118 316h7zM1065 930q71 0 150 -111q83 -136 83 -302q0 -77 -16 -426q-7 -79 -47 -79q-33 0 -47 41q-1 11 -1 17v1q0 21 12 315v47q0 108 -42 206
q-21 33 -32 33h-1q-15 0 -18 -42q0 -8 -1 -12q2 -31 14 -143v-44q0 -129 -75 -263q-74 -116 -194 -160q-86 -28 -186 -28h-12q-167 0 -282 86q-63 58 -79 90q-69 108 -69 206v20q7 109 29 109q9 -1 34 -73q19 -46 52 -89q101 -108 333 -108q235 0 294 71q56 54 56 181
q0 111 -40 301q-3 29 -4 48q0 76 58 101q7 5 31 7z" />
    <glyph glyph-name="Oslash" unicode="&#xd8;" horiz-adv-x="1159" 
d="M1018 920q130 0 221 -234l11 -51q7 0 31 98q53 92 193 133q84 25 158 25q151 0 302 -95q115 -120 122 -196q25 -60 25 -225q0 -206 -175 -326q-95 -51 -176 -51q-151 0 -189 120v42q0 104 144 130q84 0 129 -99q4 -28 7 -28q92 25 155 101q35 64 45 133q-24 98 -87 146
q-137 82 -260 82q-330 0 -410 -139q-39 -67 -39 -79h-10q0 155 -92 228q-7 6 -17 6h-25q-7 0 -14 -19q21 -79 21 -206v-22q-24 -146 -91 -238q-112 -161 -365 -161q-319 0 -410 285q-14 82 -14 124h4q164 -181 329 -181q4 -6 105 -13q288 13 288 54q49 41 70 102
q18 76 18 88v3q0 105 -35 358v61q0 31 31 44zM608 632q210 -130 319 -479q25 -123 25 -187v-44h-14q-57 149 -200 342q-56 64 -134 130q-56 0 -122 -130h-14v19q0 181 136 349h4z" />
    <glyph glyph-name="Ugrave" unicode="&#xd9;" 
d="M-196 30q35 0 35 -23v-9q0 -100 -94 -204q-82 -80 -152 -110q-129 -67 -421 -170q-126 -48 -239 -123q-76 -60 -95 -87q-69 -84 -69 -214q0 -229 163 -303q139 -71 324 -71q248 0 394 178q51 71 79 180q39 148 39 380q0 119 -14 273q0 15 37 36q29 25 46 25q20 0 25 -56
q33 -325 33 -470q0 -267 -79 -403q-50 -100 -144 -189q-83 -72 -136 -93q-99 -54 -292 -54h-23q-280 0 -438 88q-160 82 -213 189q-66 124 -66 261q0 193 121 355q72 79 134 114q84 52 154 81q83 36 203 67q314 68 436 121q60 26 143 97q52 53 52 95q0 36 26 36q0 1 31 3z
" />
    <glyph glyph-name="Uacute" unicode="&#xda;" 
d="M-183 -10v0q10 0 14 -66v-12q0 -31 -17 -97q-14 -47 -62 -74q-28 -16 -89 -35q-155 -35 -374 -35q-83 3 -141 3q-72 0 -113 -27q-31 -15 -55 -39q-62 -70 -62 -175v-8q0 -144 82 -195q59 -27 86 -27q96 -16 179 -16h3q299 0 401 86q93 66 124 191q14 70 14 101
q3 20 7 176q0 19 6 19q14 0 38 -175q7 -86 7 -137q0 -116 -27 -218q-11 -39 -31 -85q-35 -67 -52 -86q-24 -31 -55 -62q-27 -20 -65 -39q-123 -55 -305 -55h-28q-168 0 -271 47q-37 23 -72 50q-31 28 -65 74q-72 113 -72 304q0 98 31 199q79 203 298 203q230 -4 247 -4
q254 0 368 74q24 19 34 62q7 23 14 70z" />
    <glyph glyph-name="Ucircumflex" unicode="&#xdb;" 
d="M-181 -1120h4q7 0 14 -40v-6q0 -20 -21 -60q-18 -30 -73 -47q-28 -10 -105 -20q-174 -23 -431 -23q-94 3 -164 3q-84 0 -129 -16q-38 -10 -62 -23q-74 -44 -74 -107v-6q0 -90 98 -120q63 -16 97 -16q108 -10 209 -10v0q345 0 467 53q108 40 142 116q18 43 18 63
q3 10 7 106q0 10 7 10q17 0 42 -106q10 -50 10 -80q0 -73 -31 -136q-14 -23 -39 -53q-38 -40 -55 -50q-28 -20 -66 -40q-28 -10 -77 -23q-143 -33 -352 -33h-34q-192 0 -310 30q-46 13 -84 30q-35 16 -73 43q-87 73 -87 186q0 60 35 123q94 126 348 126q265 -3 285 -3
q293 0 425 43q24 13 38 40q7 13 18 43z" />
    <glyph glyph-name="Yacute" unicode="&#xdd;" horiz-adv-x="257" 
d="M-115 924q95 0 185 -268q32 -116 55 -271v-7h3q20 99 42 158q31 89 136 201q153 155 324 155h16q273 0 458 -373q78 -190 78 -394v-45q0 -230 -91 -419q-52 -94 -117 -148q-114 -100 -227 -100h-14q-147 0 -196 118q-21 50 -21 102q0 96 70 138q22 9 43 9h6q55 0 131 -58
q64 -46 95 -46h5q79 0 157 174q33 86 33 183v5q0 152 -80 279q-118 151 -334 151q-248 0 -423 -277q-43 -74 -88 -190q-19 -70 -39 -70h-4q-31 0 -38 207q0 100 -36 319q-28 131 -56 194q-24 48 -38 49h-1q-5 -2 -5 -12v-9q0 -34 41 -224q65 -347 65 -892q0 -970 -273 -1234
q-134 -113 -319 -113q-183 0 -337 126q-98 99 -98 217v19q0 101 82 186q77 71 217 95q149 26 215 58q103 49 157 187q15 40 21 43h4q12 0 20 -132v-4q0 -108 -85 -215q-56 -64 -172 -94q-182 -32 -209 -58q-26 -26 -26 -59q0 -63 111 -84q37 -10 88 -10h9q195 0 293 125
q76 98 97 154q22 39 49 130q50 251 50 628v84q0 437 -79 886q-33 192 -33 277v11q0 138 83 138z" />
    <glyph glyph-name="ae" unicode="&#xe6;" horiz-adv-x="1295" 
d="M997 922q67 0 142 -108q78 -132 78 -294q0 -74 -15 -413q-7 -77 -45 -77q-30 0 -44 40q-1 11 -1 17v1q0 20 12 305v46q0 105 -40 200q-19 32 -30 32h-1q-14 0 -17 -40q0 -8 -1 -12q2 -30 14 -139v-43q0 -126 -72 -255q-69 -113 -182 -156q-81 -27 -176 -27h-11
q-158 0 -266 84q-59 56 -74 87q-65 105 -65 201v19q6 106 27 106q9 -1 33 -72q18 -45 49 -86q95 -105 313 -105q222 0 277 69q53 53 53 176q0 108 -37 292q-3 29 -4 47q0 74 54 99q6 4 29 6z" />
    <glyph glyph-name="ccedilla" unicode="&#xe7;" horiz-adv-x="1096" 
d="M972 924h11q51 0 119 -92q30 -41 47 -86q34 -106 34 -140h4q0 24 44 113q38 65 116 119q105 76 228 76h24q204 0 354 -216q68 -116 68 -260q0 -205 -123 -322q-109 -92 -231 -92v0q-143 0 -174 96q-3 17 -3 34v0q0 58 58 86q17 3 34 3q44 0 126 -45q37 -17 61 -17v0
q65 0 129 110q21 51 21 103v13q0 65 -44 141q-38 44 -79 65q-85 44 -194 44h-20q-228 0 -392 -246q-20 -31 -37 -45l-7 -3h-10q-17 0 -31 44q-10 103 -17 147q-13 62 -30 93q-17 27 -28 27q-13 0 -17 -48v-3q0 -10 14 -151v-24q0 -157 -89 -294q-71 -103 -177 -133
q-71 -21 -143 -21h-27q-122 0 -221 62q-106 68 -153 222q-14 55 -14 99q0 69 20 113l4 4q10 0 37 -82q17 -42 48 -79q92 -103 303 -103q214 0 269 65q51 55 51 178q0 106 -37 298q-4 31 -4 44q0 76 58 100q14 3 20 3z" />
    <glyph glyph-name="asterisk" unicode="*" 
d="M-973 1946h7q65 0 246 -179q102 -113 174 -257q92 -196 92 -365q0 -65 -10 -65q-10 10 -89 137q-89 134 -243 296q-75 76 -181 144q-13 4 -20 4q-38 0 -127 -117q-30 -34 -47 -34h-4q-10 0 -10 20v24q0 124 92 289q72 103 120 103z" />
    <glyph glyph-name="bracketleft" unicode="[" horiz-adv-x="1485" 
d="M739 576h3q50 7 177 -118q53 -55 91 -128q28 -52 54 -125q25 -58 53 -183q16 -70 19 -93q7 -32 -6 -35q-10 0 -25 45q-120 259 -215 394q-28 41 -76 83q-44 35 -56 32q-13 0 -32 -48q-19 -35 -31 -35q-13 0 -16 19v3q-6 55 38 167q9 19 22 22zM401 923q82 0 130 -59
q23 -36 23 -73q0 -51 -24 -207q-6 -59 -6 -100q0 -120 29 -146q61 -67 268 -67q233 0 283 66q51 51 51 154v15q0 98 -37 271q-3 26 -3 40v5q0 68 54 91q14 5 26 5q70 0 147 -113q68 -123 68 -259v-11q-9 -426 -17 -426q-10 -48 -42 -48q-45 0 -45 79q0 13 12 188q2 66 2 115
v3q0 133 -46 216q-14 20 -22 20h-2q-14 0 -17 -41v-8q0 -14 12 -131q1 -18 1 -29q0 -121 -62 -238q-107 -183 -333 -183h-21q-147 0 -261 58q-122 72 -163 190q-29 84 -29 182v2q0 70 23 260q0 8 1 27q0 44 -19 60q-12 8 -20 8h-4q-45 0 -60 -105q-9 -88 -9 -117
q0 -36 33 -78q15 -24 15 -38q-4 -23 -35 -23q-70 0 -96 130q-4 28 -4 51v3q0 94 55 179q41 55 116 79q20 3 28 3z" />
    <glyph glyph-name="eight" unicode="8" horiz-adv-x="1387" 
d="M1042 1230q128 0 208 -166q18 -45 23 -54h3q59 16 88 53q31 51 31 76q5 14 8 83l3 3h2q15 -19 36 -60q26 -59 26 -121q0 -119 -139 -189q51 -150 51 -310v-26q0 -143 -69 -285q-86 -151 -232 -201q-101 -34 -205 -34q-178 0 -322 93q-59 41 -102 83q-34 39 -65 111
q-27 71 -27 207v1q0 125 29 311q5 28 5 52v14q0 41 -27 53q-8 2 -13 2q-30 0 -52 -65q-10 -32 -20 -157v-4q0 -30 33 -79q9 -20 9 -30q0 -19 -31 -23h-2q-50 0 -75 76q-16 49 -16 99q0 92 55 181q21 29 48 49q52 34 93 34q66 0 116 -50q28 -37 28 -91q0 -36 -30 -204
q-8 -55 -8 -106v-6q0 -139 51 -195q52 -74 168 -105q105 -29 218 -29q118 0 201 51q53 41 75 85q76 121 76 266q0 92 -26 215v1q-33 -2 -45 -2q-105 0 -219 74q-86 61 -86 167q0 90 64 135q29 17 63 17zM995 1103v-2q0 -30 105 -75q66 -25 102 -25h1q5 0 6 3v4
q-18 70 -64 116q-41 42 -77 42q-45 0 -71 -51q-2 -7 -2 -12z" />
    <glyph glyph-name="U" unicode="U" 
d="M-152 10h3v-4v-7q0 -24 -57 -236q-42 -177 -42 -227v-10q0 -46 78 -124l139 -134q22 -25 43 -64q18 -39 18 -99q0 -166 -121 -385q-73 -134 -118 -202q-130 -176 -200 -240q-12 -7 -18 -7h-3q-9 0 -9 18v3q0 25 57 96q76 106 128 183q66 106 96 170q73 141 73 209v7
q0 70 -57 123q-28 25 -128 110q-36 35 -63 78q-24 46 -24 106v14q0 159 133 498q24 53 57 110q9 14 15 14z" />
    <glyph glyph-name="circumflex" unicode="&#x2c6;" horiz-adv-x="1129" 
d="M623 143q-84 0 -161 27t-136 73.5t-94.5 110.5t-35.5 137q0 72 24 138.5t75.5 118t132.5 81.5t195 30t196 -29.5t134 -80t76.5 -117.5t24.5 -141q0 -68 -34.5 -131.5t-94.5 -111.5t-138 -76.5t-164 -28.5zM627 283q148 0 221 54t75 154q0 45 -25 80.5t-67 59.5t-96 36.5
t-112 12.5t-110 -12t-92 -36t-65 -59t-29 -82q-2 -46 17.5 -83.5t58.5 -65.5t95.5 -43.5t128.5 -15.5z" />
    <glyph glyph-name="OE" unicode="&#x152;" horiz-adv-x="1546" 
d="M1097 925q106 0 208 -84q164 -147 164 -398v-25q0 -21 -12 -311q0 -68 -34 -90q-8 -3 -15 -3q-38 9 -38 62v8q13 210 13 307q0 188 -141 321q-42 35 -65 35q-15 -1 -15 -14q0 -17 53 -68q61 -65 75 -100q35 -73 35 -164v-25q0 -131 -70 -257q-50 -81 -103 -105
q-28 -10 -54 -10q-80 0 -130 49q-19 26 -31 57q-30 100 -42 123q-16 20 -31 20q-42 0 -89 -114q-28 -60 -61 -91q-37 -27 -87 -27q-141 0 -235 179q-33 72 -33 158q0 108 59 324q15 61 15 90v6q0 37 -29 50q-6 1 -9 1h-6q-29 0 -58 -66q-17 -44 -38 -171v-14q0 -20 30 -82
q4 -13 4 -23v-2q-3 -23 -31 -23q-63 0 -85 102q-5 38 -5 63q0 114 72 215q42 51 84 66q39 19 68 19h12q50 0 107 -43q44 -40 44 -102v-2q0 -54 -50 -219q-33 -135 -33 -206v-4q0 -29 40 -68q39 -29 78 -29q67 0 114 60q18 33 50 111q28 56 78 56q84 0 105 -124
q13 -69 37 -89q33 -28 72 -28h11q78 0 118 117q11 40 11 78q0 116 -76 185q-31 32 -100 82q-79 56 -79 118q0 60 59 102q34 17 69 17z" />
    <glyph glyph-name="plus" unicode="+" horiz-adv-x="1061" 
d="M635 373v-356h-91v356h-346v96h346v358h91v-358h350v-96h-350z" />
    <glyph glyph-name="slash" unicode="/" horiz-adv-x="505" 
d="M-226 1933h20q192 0 377 -233q172 -289 172 -622v-90q0 -151 -86 -1424l-20 -497q4 -547 101 -634l30 -12h10q32 0 60 347q0 27 46 60q70 0 70 -221v-30q0 -293 -166 -353h-30q-267 0 -267 742q0 414 85 1747v53q0 636 -256 844q-57 31 -131 42q-215 0 -272 -222
q-15 -52 -15 -119q0 -48 60 -221v-6l-15 -12q-66 0 -176 287l-10 107v6q0 306 247 425q80 36 166 36z" />
    <glyph glyph-name="Zcaron" unicode="&#x17d;" 
d="M-489 -197h14q297 0 420 -181q54 -67 84 -180q19 -80 19 -221q0 -45 -2 -151l-2 -5q3 -5 3 -13q-3 -33 -3 -36v-3q0 -11 17 -11q80 8 289 41q29 2 45 2h13q169 0 258 -255q5 -21 5 -34q-2 -19 -13 -19q-8 0 -33 49q-45 61 -158 61q-66 0 -201 -44q-78 -23 -139 -23
q-106 0 -162 57q-32 14 -51 42q-16 30 -16 89v30l6 214q0 229 -99 295q-76 61 -210 86q-35 5 -65 5h-8q-172 0 -243 -143q-43 -77 -43 -133q0 -4 112 -7q90 -9 131 -19q103 -23 183 -83q74 -65 74 -165q0 -129 -107 -190q-62 -30 -127 -30h-16q-114 0 -236 72q-55 45 -67 69
q-27 38 -58 110q-5 16 -14 16h-81q-3 0 -3 -3q0 -61 -34 -151q-37 -68 -127 -68q-112 0 -170 77q-32 52 -32 99v7q0 109 225 205l-1 2q0 157 -23 327q-23 85 -40 97q-21 23 -44 23q-47 0 -73 -86q-16 -95 -16 -154q0 -55 41 -104q15 -25 15 -37q-6 -25 -38 -25h-13
q-52 0 -89 69q-28 65 -28 132v1q0 106 70 203q49 62 143 88q17 5 35 5h12q86 0 147 -56q55 -48 55 -245v-8q0 -63 -10 -165q0 -13 10 -15q21 0 61 2q4 17 12 109q20 131 41 179q50 120 156 166q77 34 199 34zM-750 -922v-1q24 -55 109 -110q98 -54 178 -54h2q74 0 89 43v4
q0 55 -177 98q-128 19 -201 20zM-1209 -1004v-7q0 -19 46 -25h2q36 0 36 53v4q0 16 -1 45h-1q-75 -38 -82 -70z" />
    <glyph glyph-name="tilde" unicode="&#x2dc;" horiz-adv-x="226" 
d="M150 927l-67 -1zM-238 927q124 0 250 -162q45 -69 71 -170q69 -252 69 -805q0 -587 -124 -1095q-69 -260 -139 -380q-67 -97 -88 -97h-4q-3 0 -6 7v3q0 28 70 218q66 180 123 470q70 415 70 771q0 753 -104 942q-42 77 -71 77v-3q0 -14 45 -149q26 -80 51 -273
q19 -204 19 -556q0 -875 -178 -1213q-79 -177 -237 -246q-111 -48 -216 -48h-10h-6h-9h-13q-174 0 -342 124q-108 100 -108 232q0 62 32 128v3v0q-593 0 -748 329q-51 103 -51 238q0 255 149 670q31 86 89 166q28 35 48 39q18 0 22 -53v-28q0 -48 -73 -238
q-111 -328 -111 -494q0 -300 482 -391q158 -24 339 -24q395 0 531 93q29 11 48 43q7 7 10 7h3q6 0 10 -36q0 -110 -71 -217q-50 -62 -173 -93q-165 -28 -222 -42q-89 -34 -89 -93q0 -55 129 -76q51 -7 89 -7q181 0 330 100q54 42 89 104q42 62 82 203q67 288 67 813
q0 708 -169 1071q-24 59 -24 83v10q0 38 66 45h3z" />
    <glyph glyph-name="Euro" unicode="&#x20ac;" horiz-adv-x="1259" 
d="M881 0l-253 352l-263 -352h-178l353 472l-305 423h176l220 -301l226 301h171l-312 -421l342 -474h-177z" />
    <glyph glyph-name="two" unicode="2" horiz-adv-x="1834" 
d="M872 919q136 0 205 -160q33 -87 42 -101h1q6 11 26 85q32 94 103 139q52 31 108 31q128 0 216 -138q136 -256 136 -632v-56q0 -229 -46 -471q-1 -15 -1 -23v-1q75 0 219 100q38 22 51 22q15 0 15 -21v-1q0 -70 -124 -190q-51 -47 -128 -70q-16 -7 -65 -20
q-15 -8 -47 -100q-130 -397 -301 -699q-70 -119 -135 -205q-70 -90 -117 -130q-86 -71 -117 -71h-1q-16 2 -16 16v4q0 25 67 114q110 151 110 243q0 93 -101 207q-87 81 -212 162q-136 93 -225 173q-154 139 -154 331q0 252 191 352q119 71 251 71q149 0 307 -91
q176 -90 252 -125q158 -62 181 -62v1q41 178 41 420q0 204 -51 407q-34 106 -101 149q-65 39 -127 39h-3q-100 0 -169 -135q-18 -29 -34 -66h-1q-4 5 -36 66q-83 142 -217 142q-112 0 -181 -116q-39 -74 -39 -156q0 -107 103 -263q59 -87 59 -117q0 -34 -73 -38
q-47 0 -153 32q-129 60 -174 178q-34 86 -34 227q0 81 23 324q0 16 1 29q0 63 -27 81l-14 4q-47 0 -62 -134q-8 -110 -8 -141q0 -42 31 -93q17 -32 17 -47q0 -25 -32 -29h-6q-67 0 -93 161q-4 35 -4 59v10q0 111 55 217q41 61 82 80q29 19 55 19h14q63 0 113 -59
q31 -46 31 -118q0 -45 -26 -263q-4 -60 -4 -89q0 -198 65 -248q15 3 15 17v5q0 8 -30 88q-18 61 -18 125q0 164 81 370q18 48 67 106q81 73 173 73zM505 -557q0 -115 127 -207q110 -88 250 -167q65 -43 114 -93q150 -182 150 -370v-26q108 202 216 460q109 262 142 336
q0 14 -122 27q-116 21 -187 49q-78 31 -226 110q-161 84 -269 84h-8q-127 0 -177 -134q-10 -33 -10 -69z" />
    <glyph glyph-name="zcaron" unicode="&#x17e;" horiz-adv-x="1586" 
d="M765 1110q-6 -16 3 -21.5t17 -9.5q9 -3 37 -10t38 -7q11 0 38 6t34 9q12 2 21 10t3 20l-85 290q-9 6 -20 0zM669 1097l157 499q16 20 35.5 20t32.5 -20l158 -499q14 -48 -9.5 -73t-50.5 -32q-30 -13 -65.5 -18t-68.5 -5h5q-35 0 -70.5 5t-67.5 18q-16 7 -30 14.5t-22 19
t-9.5 27t5.5 44.5zM871 942h12q88 0 203 -53q192 -102 192 -240q0 -91 -85 -177q-44 -43 -81 -61q-34 -19 -78 -34q-89 -30 -166 -30q-104 0 -207 48q-56 31 -107 73q-100 90 -100 190q0 68 70 152q52 48 78 60q29 19 81 38q107 34 188 34zM568 658q0 -88 115 -152
q29 -16 78 -34q73 -23 129 -23q81 0 188 64q85 57 85 125q0 72 -114 138q-33 18 -100 37q-55 15 -103 15q-115 0 -215 -72q-52 -46 -59 -80q-4 -7 -4 -18zM224 741q8 0 23 -53q63 -159 247 -277q67 -39 137 -64q137 -46 248 -46q151 0 321 83q45 23 126 95q56 54 63 68
q30 34 70 107q30 56 45 56q7 0 7 -18q0 -54 -59 -186q-26 -50 -70 -111q-200 -250 -533 -250q-229 0 -410 136q-63 54 -104 103q-92 110 -118 231q-11 46 -11 77q4 49 18 49v0z" />
    <glyph glyph-name="three" unicode="3" horiz-adv-x="1810" 
d="M844 934q78 0 142 -45q35 -34 49 -59q31 -51 65 -171q8 -27 12 -29h1q5 6 26 80q30 87 56 123q37 43 69 54q45 22 96 22h6q95 0 195 -85q55 -57 73 -88q56 -82 82 -223q19 -95 19 -197q0 -366 -151 -613q-110 -171 -372 -265q-49 -21 -150 -44q-64 -14 -275 -45
q-164 -32 -256 -68q-76 -29 -126 -75q-99 -99 -99 -238q0 -121 51 -244q24 -52 63 -109q66 -87 88 -87q14 0 14 34q0 6 -10 91q-1 17 -1 33v5q0 226 147 375q93 82 227 114q79 19 148 19q232 0 413 -187q132 -141 132 -354v-7q0 -155 -87 -345q-40 -79 -69 -79h-3
q-16 0 -25 29q-1 3 -2 17q0 34 44 131q39 95 39 177q0 114 -82 209q-62 58 -146 86q-95 35 -188 35q-126 0 -245 -60q-37 -19 -85 -69q-51 -65 -71 -129q-18 -59 -18 -108v-12q0 -69 39 -159q22 -55 22 -80v-7q0 -36 -42 -44q-5 -1 -10 -1q-75 0 -191 116q-63 68 -79 95
q-44 63 -76 132q-33 72 -59 154q-30 98 -30 205v26q0 191 90 334q17 34 81 109q65 69 120 104q56 40 140 78q76 36 321 75q346 68 425 119q140 74 207 238q37 105 37 208v21q0 155 -87 283q-27 33 -51 46q-71 41 -141 41q-85 0 -149 -67q-45 -52 -62 -82q-20 -33 -33 -45
l-4 -1q-11 3 -55 68q-38 57 -72 83q-50 34 -113 34h-4q-113 0 -180 -80q-64 -88 -64 -196v-2q0 -116 68 -201q58 -72 86 -96q56 -53 56 -73v-7q0 -26 -49 -48q-41 -13 -83 -13h-7q-39 0 -79 14q-41 4 -115 58q-109 83 -150 207q-36 102 -36 234q0 78 25 293q1 27 1 43
q0 65 -33 77q-6 2 -10 2h-5q-33 0 -55 -75q-9 -39 -17 -161q0 -15 -1 -24q0 -42 25 -77q27 -41 27 -59v-3q0 -18 -28 -25h-12q-63 0 -92 117q-12 47 -12 89v14q0 90 48 187q40 73 122 107q24 7 44 7q77 0 129 -57q33 -43 33 -114q0 -50 -31 -253q-12 -88 -12 -149
q0 -126 49 -184q27 -24 54 -41h1q-15 37 -32 118q-16 87 -16 158q0 140 57 304q22 59 73 130q75 97 201 97z" />
    <glyph glyph-name="ellipsis" unicode="&#x2026;" 
d="M-636 -178q203 0 363 -92q79 -53 99 -81q28 -28 62 -89q43 -93 43 -170q0 -177 -190 -385q-36 -42 -102 -91q-45 -25 -66 -26q-15 1 -15 9q0 18 72 105q76 95 120 182q42 85 42 182v9q0 164 -151 264q-75 46 -164 59q-29 3 -46 3h-4q-13 -1 -13 -4q17 -15 70 -39
q46 -21 103 -63q89 -75 117 -162q15 -45 15 -87v-16q0 -81 -40 -171q-34 -59 -87 -115q-50 -50 -122 -85q-110 -53 -229 -53h-31q-36 0 -36 14q0 16 96 82q92 75 126 155q19 45 19 80v9q0 68 -51 124q-53 46 -140 46q-128 0 -200 -90q-26 -29 -34 -34h-4q-3 0 -37 36
q-86 79 -176 79h-12q-76 0 -151 -35q-71 -42 -71 -117q0 -85 79 -200q18 -26 89 -81q20 -17 20 -27q0 -18 -46 -21h-1q-68 0 -195 65q-66 39 -85 64q-85 94 -85 197q0 76 27 176q15 40 15 59q-2 3 -4 4q-13 0 -37 -25q-23 -31 -23 -80q0 -13 -21 -24q-12 -3 -21 -3
q-25 0 -36 21q-5 12 -5 23v15q0 64 58 127q63 55 128 55q48 0 63 -40q5 -14 5 -30q0 -39 -43 -143q-20 -59 -20 -114q0 -137 94 -195l5 -2v1l-40 67q-32 70 -32 148q0 74 42 157q90 139 273 139q173 0 236 -132q9 -23 9 -37h1q24 73 81 116q56 41 146 41q117 0 212 -68
q61 -46 84 -90q28 -56 28 -126q0 -125 -102 -234q-57 -49 -57 -56h1q59 23 121 84q43 48 70 106q34 74 34 138q0 125 -112 224q-56 40 -96 54q-59 23 -193 55q-78 21 -78 62q0 36 53 66q63 31 183 31z" />
    <glyph glyph-name="four" unicode="4" horiz-adv-x="897" 
d="M523 916q83 0 154 -66q45 -46 62 -119q8 -21 8 -42q0 -101 -132 -177v-4q49 -7 83 -17q78 -32 103 -91q21 -42 21 -94q0 -84 -62 -175q-46 -52 -79 -73q-87 -59 -166 -59h-12q-96 0 -191 98q-50 59 -66 101q-46 76 -46 171q0 52 12 69l5 4v0q8 0 24 -56q34 -98 125 -143
q79 -42 153 -42h4q108 0 166 63q25 35 25 70q0 59 -79 94q-24 10 -70 17q-50 7 -162 14q-70 7 -70 32v0q0 31 99 38q125 10 125 17q20 4 49 39q21 31 21 63v6q0 39 -29 70q-54 42 -112 42q-66 0 -128 -49q-29 -28 -29 -38v0q0 -7 12 -31q8 -14 8 -25q0 -38 -29 -52h-12v0
q-29 0 -42 56v17v10q0 63 42 136q91 126 215 126z" />
    </font>
</defs>
</svg>
